<svg width="64" height="64" viewBox="0 0 64 64" fill="none" xmlns="http://www.w3.org/2000/svg">
<g clip-path="url(#clip0_414_616)">
<path d="M64 5.44021C64 5.40521 64 5.37021 64 5.33021C64 5.29021 64 5.26521 64 5.23521C63.9923 5.2045 63.9822 5.17442 63.97 5.14521C63.9581 5.11058 63.943 5.07711 63.925 5.04521V4.99021L63.86 4.90021L63.8 4.83021C63.7792 4.80601 63.7557 4.78421 63.73 4.76521L63.655 4.70521C63.6284 4.68578 63.5999 4.66903 63.57 4.65521L63.49 4.61021L63.395 4.57521H63.305C63.2735 4.56998 63.2415 4.56998 63.21 4.57521H63.11H1C0.734784 4.57521 0.48043 4.68056 0.292893 4.8681C0.105357 5.05564 0 5.30999 0 5.57521L0 63.0002C0 63.2654 0.105357 63.5198 0.292893 63.7073C0.48043 63.8949 0.734784 64.0002 1 64.0002H5C5.26522 64.0002 5.51957 63.8949 5.70711 63.7073C5.89464 63.5198 6 63.2654 6 63.0002V44.0002H63C63.076 44.0008 63.1518 43.9907 63.225 43.9702H63.29C63.3435 43.9554 63.3955 43.9353 63.445 43.9102L63.51 43.8752C63.5637 43.8397 63.6155 43.8013 63.665 43.7602H63.695C63.7503 43.7025 63.799 43.6388 63.84 43.5702V43.5152C63.858 43.4833 63.8731 43.4498 63.885 43.4152C63.8972 43.386 63.9073 43.3559 63.915 43.3252C63.915 43.2952 63.915 43.2602 63.915 43.2302C63.915 43.2002 63.915 43.1552 63.915 43.1202C63.915 43.0852 63.915 43.0802 63.915 43.0602V5.50021C63.915 5.50021 64 5.46021 64 5.44021ZM39.5 30.2552L59.345 42.0002H39.5V30.2552ZM42.155 29.5002H62V41.2452L42.155 29.5002ZM39.5 6.50021H59.345L39.5 18.2452V6.50021ZM62 7.25521V19.0002H42.155L62 7.25521ZM28.5 42.0002H8.655L28.5 30.2552V42.0002ZM6 41.2452V29.5002H25.845L6 41.2452ZM6 7.24521L25.845 19.0002H6V7.24521ZM28.5 18.2452L8.655 6.50021H28.5V18.2452ZM4 62.0002H2V6.50021H4V62.0002ZM30.5 42.0002V28.5002C30.5 28.5002 30.5 28.4602 30.5 28.4402C30.5 28.4202 30.5 28.3702 30.5 28.3302C30.5 28.2902 30.5 28.2652 30.5 28.2352C30.4923 28.2045 30.4822 28.1744 30.47 28.1452C30.4581 28.1106 30.443 28.0771 30.425 28.0452L30.36 28.0002C30.36 27.9652 30.315 27.9402 30.295 27.9102C30.2751 27.8881 30.2568 27.8647 30.24 27.8402L30.16 27.7752L30.09 27.7152L30 27.6302L29.92 27.5902L29.82 27.5552H29.74H29.64H29.54H6V21.0002H29.5C29.576 21.0007 29.6518 20.9907 29.725 20.9702H29.79C29.8435 20.9554 29.8955 20.9353 29.945 20.9102L30.01 20.8752C30.0637 20.8397 30.1155 20.8013 30.165 20.7602H30.195C30.2503 20.7025 30.299 20.6388 30.34 20.5702L30.365 20.5152C30.383 20.4833 30.3981 20.4498 30.41 20.4152C30.4222 20.386 30.4323 20.3559 30.44 20.3252C30.44 20.2952 30.44 20.2602 30.44 20.2302C30.44 20.2002 30.44 20.1552 30.44 20.1202C30.44 20.0852 30.5 20.0002 30.5 20.0002V6.50021H37.5V20.0002C37.5 20.0002 37.5 20.0402 37.5 20.0602C37.5 20.0802 37.5 20.1302 37.5 20.1702C37.5 20.2102 37.5 20.2352 37.5 20.2652C37.5077 20.2959 37.5178 20.326 37.53 20.3552C37.5419 20.3898 37.557 20.4233 37.575 20.4552V20.5102C37.616 20.5788 37.6647 20.6425 37.72 20.7002H37.75C37.7995 20.7413 37.8513 20.7797 37.905 20.8152L37.97 20.8502C38.0195 20.8753 38.0715 20.8954 38.125 20.9102H38.19C38.2863 20.9606 38.3917 20.9912 38.5 21.0002H62V27.5002H38.47H38.37C38.3385 27.495 38.3065 27.495 38.275 27.5002H38.19L38.09 27.5352L38.01 27.5752L37.925 27.6302C37.8995 27.6475 37.876 27.6676 37.855 27.6902C37.8268 27.7078 37.8015 27.7298 37.78 27.7552L37.72 27.8252C37.72 27.8552 37.675 27.8802 37.655 27.9152V27.9702C37.637 28.0021 37.6219 28.0356 37.61 28.0702C37.5978 28.0994 37.5877 28.1295 37.58 28.1602C37.58 28.1902 37.58 28.2252 37.58 28.2552C37.58 28.2852 37.58 28.3302 37.58 28.3652C37.58 28.4002 37.5 28.5002 37.5 28.5002V42.0002H30.5Z" fill="url(#paint0_linear_414_616)" stroke="url(#paint1_linear_414_616)" stroke-width="0.7"/>
</g>
<defs>
<linearGradient id="paint0_linear_414_616" x1="0" y1="33.7986" x2="62.3813" y2="33.7986" gradientUnits="userSpaceOnUse">
<stop stop-color="#3669CD"/>
<stop offset="0.484375" stop-color="#8D3BDE"/>
<stop offset="1" stop-color="#EA5FAB"/>
</linearGradient>
<linearGradient id="paint1_linear_414_616" x1="0" y1="33.7986" x2="62.3813" y2="33.7986" gradientUnits="userSpaceOnUse">
<stop stop-color="#3669CD"/>
<stop offset="0.484375" stop-color="#8D3BDE"/>
<stop offset="1" stop-color="#EA5FAB"/>
</linearGradient>
<clipPath id="clip0_414_616">
<rect width="64" height="64" fill="white"/>
</clipPath>
</defs>
</svg>
