<svg width="61" height="60" viewBox="0 0 61 60" fill="none" xmlns="http://www.w3.org/2000/svg">
<g clip-path="url(#clip0_414_708)">
<path d="M7.74488 -0.0886719H53.2541L53.2541 -0.0886362C57.3123 -0.0886362 60.5662 2.96432 60.5662 6.73997V41.2666C60.5662 45.0422 57.3122 48.0952 53.2541 48.0952H30.6333H30.6165L30.6031 48.1053L15.4131 59.5903C15.0851 59.7861 14.6933 59.9158 14.3034 59.9158C14.0364 59.9158 13.8457 59.9154 13.5896 59.7874L13.5896 59.7873L13.5875 59.7864C13.0019 59.5264 12.6135 58.9425 12.6135 58.3629V48.1452V48.0952H12.5635H7.74488C3.68669 48.0952 0.432813 45.0427 0.432813 41.2665V6.73994C0.432813 2.96429 3.68681 -0.0886719 7.74488 -0.0886719ZM57.253 41.2497L57.2701 41.2497L57.3201 41.2497V41.1997L57.3206 6.87348C57.3206 4.83922 55.5547 3.21746 53.3889 3.21746H7.74554C5.57984 3.21746 3.81385 4.83874 3.81385 6.87348V41.1997C3.81385 43.234 5.57972 44.8558 7.74554 44.8558H14.3041C15.2176 44.8558 15.9941 45.5718 15.9941 46.4087V54.8232V54.9238L16.0743 54.863L28.8549 45.1813C29.183 44.9855 29.5747 44.8558 29.9646 44.8558H53.3217C55.4696 44.8558 57.2244 43.261 57.253 41.2497Z" fill="url(#paint0_linear_414_708)" stroke="white" stroke-width="0.1"/>
<path d="M20.8628 22.4343L18.5206 21.9C17.6505 21.6996 17.0483 21.4993 16.7807 21.3656C16.3792 21.1653 16.1112 20.7647 16.1112 20.297C16.1112 19.7627 16.312 19.3621 16.7807 19.0952C17.1822 18.8282 17.7844 18.6945 18.5206 18.6945C19.1901 18.6945 19.7251 18.8282 20.1938 19.0285C20.8632 19.3626 21.1975 19.8969 21.2647 20.6981H23.9415C23.8747 19.2954 23.3393 18.2273 22.4023 17.4927C21.3986 16.758 20.1938 16.3574 18.7886 16.3574C17.1154 16.3574 15.8437 16.758 14.9736 17.5593C14.1034 18.3605 13.6352 19.2955 13.6352 20.4978C13.6352 21.7668 14.1039 22.7683 14.9736 23.3692C15.509 23.7032 16.4459 24.0373 17.8511 24.3708L19.2568 24.7048C20.0598 24.9051 20.7292 25.1054 21.0639 25.3057C21.4654 25.5727 21.6661 25.9067 21.6661 26.3073C21.6661 27.0419 21.2647 27.5763 20.4617 27.8432C20.0602 27.9769 19.5248 28.0435 18.8554 28.0435C17.7177 28.0435 16.9815 27.7765 16.5128 27.2422C16.2453 26.9753 16.1113 26.5076 15.9773 25.9067H13.3672C13.3672 27.3094 13.8359 28.3775 14.8396 29.1121C15.8432 29.8468 17.1822 30.314 18.922 30.314C20.5952 30.314 21.9335 29.9134 22.8705 29.1121C23.8075 28.3109 24.2762 27.3089 24.2762 26.107C24.2762 24.9052 23.8747 24.0369 23.0718 23.436C22.6031 22.9687 21.8669 22.6347 20.8627 22.4344L20.8628 22.4343Z" fill="url(#paint1_linear_414_708)"/>
<path d="M35.1176 17.7594C34.3147 17.0913 33.3105 16.7578 31.9721 16.7578H26.2832V29.914H29.0273V25.1722H31.7714C33.177 25.1722 34.3146 24.8382 35.0508 24.2373C35.8538 23.5692 36.1885 22.501 36.1885 20.9648C36.2553 19.496 35.8538 18.4274 35.1176 17.7593L35.1176 17.7594ZM32.9758 22.4345C32.641 22.7685 32.1056 22.9022 31.5034 22.9022H29.0273V19.0288H31.5034C32.1056 19.0288 32.6411 19.1625 32.9758 19.4965C33.3105 19.7634 33.5112 20.2978 33.5112 20.9657C33.5112 21.6328 33.3105 22.1005 32.9758 22.4345V22.4345Z" fill="url(#paint2_linear_414_708)"/>
<path d="M40.8732 16.7578L36.1885 29.914H39.066L39.9362 27.1758H44.8217L45.6919 29.914H48.7034L44.0187 16.7578H40.8732ZM40.7392 24.9053L42.4791 19.6962L44.1523 24.9053H40.7392Z" fill="url(#paint3_linear_414_708)"/>
</g>
<defs>
<linearGradient id="paint0_linear_414_708" x1="0.382812" y1="29.4209" x2="59.0928" y2="29.4209" gradientUnits="userSpaceOnUse">
<stop stop-color="#3669CD"/>
<stop offset="0.484375" stop-color="#8D3BDE"/>
<stop offset="1" stop-color="#EA5FAB"/>
</linearGradient>
<linearGradient id="paint1_linear_414_708" x1="13.3672" y1="23.2213" x2="24.0003" y2="23.2213" gradientUnits="userSpaceOnUse">
<stop stop-color="#3669CD"/>
<stop offset="0.484375" stop-color="#8D3BDE"/>
<stop offset="1" stop-color="#EA5FAB"/>
</linearGradient>
<linearGradient id="paint2_linear_414_708" x1="26.2832" y1="23.2281" x2="35.945" y2="23.2281" gradientUnits="userSpaceOnUse">
<stop stop-color="#3669CD"/>
<stop offset="0.484375" stop-color="#8D3BDE"/>
<stop offset="1" stop-color="#EA5FAB"/>
</linearGradient>
<linearGradient id="paint3_linear_414_708" x1="36.1885" y1="23.2281" x2="48.3869" y2="23.2281" gradientUnits="userSpaceOnUse">
<stop stop-color="#3669CD"/>
<stop offset="0.484375" stop-color="#8D3BDE"/>
<stop offset="1" stop-color="#EA5FAB"/>
</linearGradient>
<clipPath id="clip0_414_708">
<rect width="61" height="60" fill="white"/>
</clipPath>
</defs>
</svg>
