<svg width="84" height="60" viewBox="0 0 84 60" fill="none" xmlns="http://www.w3.org/2000/svg">
<path d="M62.5908 14.8445C62.7881 15.0519 63.061 15.17 63.3469 15.171C63.6328 15.17 63.9056 15.0519 64.103 14.8445L70.0458 8.64826V8.64779C70.9153 7.72948 71.4 6.51105 71.4 5.24408C71.4 3.97712 70.9153 2.75869 70.0458 1.84038C69.9108 1.70395 69.7631 1.58021 69.6051 1.47155C68.7164 0.740476 67.5853 0.373526 66.4387 0.4441C65.2917 0.514197 64.2135 1.0171 63.4205 1.85077L63.3469 1.92463L63.284 1.85077C62.4183 0.941397 61.2192 0.426758 59.9658 0.426758C58.7124 0.426758 57.5137 0.941421 56.648 1.85077C55.7837 2.7719 55.3018 3.98944 55.3018 5.25496C55.3018 6.52 55.7836 7.73746 56.648 8.65866L62.5908 14.8445ZM58.1597 3.25269H58.1601C58.6298 2.75496 59.2828 2.47316 59.9658 2.47316C60.6492 2.47316 61.3022 2.75495 61.7719 3.25269L62.5908 4.10608C62.7891 4.31213 63.0619 4.42833 63.3469 4.42833C63.6324 4.42833 63.9052 4.31214 64.103 4.10608L64.9327 3.25269C65.3668 2.81659 65.9475 2.55832 66.5611 2.52915C67.1747 2.49998 67.7771 2.70134 68.2505 3.09462L68.3555 3.17883C68.4089 3.21506 68.4586 3.2574 68.5027 3.30539C69.0066 3.82476 69.2925 4.51912 69.3005 5.24413C69.3051 5.9658 69.0305 6.66116 68.5341 7.18336L63.3468 12.6001L58.1596 7.18336H58.16C57.6688 6.65787 57.3955 5.96445 57.3955 5.24413C57.3955 4.52382 57.6688 3.83048 58.16 3.30539L58.1597 3.25269Z" fill="url(#paint0_linear_414_602)" stroke="url(#paint1_linear_414_602)" stroke-width="0.1"/>
<path d="M26.9114 45.7313C26.0212 44.9998 24.8883 44.6324 23.7398 44.7029C22.5914 44.773 21.5114 45.2759 20.7164 46.1105L20.6536 46.1844L20.58 46.1105C19.7161 45.2016 18.5189 44.6875 17.2674 44.6875C16.0153 44.6875 14.8187 45.2017 13.9548 46.1105C13.0853 47.0293 12.6006 48.2478 12.6006 49.5147C12.6006 50.7812 13.0853 51.9996 13.9548 52.9184L19.9501 59.1043C20.1474 59.3118 20.4203 59.4298 20.7062 59.4308C20.9921 59.4298 21.2649 59.3117 21.4623 59.1043L27.4051 52.9081V52.9076C28.3852 51.9371 28.8947 50.585 28.8001 49.2057C28.7054 47.8269 28.0154 46.5581 26.9115 45.7314L26.9114 45.7313ZM25.8614 51.4534L20.685 56.8701L15.4664 51.4431C14.9709 50.92 14.6944 50.2257 14.6944 49.5039C14.6944 48.7822 14.9709 48.0878 15.4664 47.5652C15.9347 47.0679 16.5858 46.7866 17.2674 46.7866C17.9484 46.7866 18.6 47.0679 19.0678 47.5652L19.8975 48.4185C20.0953 48.6246 20.3681 48.7408 20.6536 48.7408C20.9386 48.7408 21.2114 48.6246 21.4097 48.4185L22.2286 47.5652C22.6594 47.1117 23.2444 46.8383 23.8673 46.7988C24.4903 46.7598 25.1048 46.9583 25.5886 47.3544L25.6833 47.4386H25.6828C25.7381 47.4777 25.7906 47.5195 25.8403 47.5652C26.3292 48.0916 26.6006 48.7846 26.6006 49.5039C26.6006 50.2237 26.3292 50.9162 25.8403 51.4431L25.8614 51.4534Z" fill="url(#paint2_linear_414_602)" stroke="url(#paint3_linear_414_602)" stroke-width="0.1"/>
<path d="M40.2581 33.5701C40.1217 33.5626 39.9849 33.5626 39.8484 33.5701C39.1003 33.5649 38.3733 33.8171 37.7883 34.2852C37.2038 34.7533 36.7964 35.4086 36.6356 36.1415C35.812 36.1053 35.0063 36.3885 34.3847 36.9314C33.7636 37.4748 33.3736 38.2369 33.2962 39.0607C33.2114 39.9423 33.4669 40.823 34.0101 41.5212C34.5529 42.2193 35.3427 42.6813 36.2156 42.8121L41.4656 43.5497H41.6128H41.6123C41.8481 43.5516 42.0773 43.4735 42.2634 43.3286C42.4898 43.1513 42.6342 42.8883 42.6623 42.6013L43.1976 37.3323H43.1981C43.2825 36.4521 43.027 35.5734 42.4837 34.8771C41.9456 34.1606 41.1441 33.6901 40.2581 33.5701L40.2581 33.5701ZM40.657 41.284L36.5096 40.6832C35.8187 40.5755 35.3279 39.9498 35.386 39.2503C35.4165 38.9389 35.5716 38.6538 35.8163 38.46C36.0137 38.3028 36.2579 38.2172 36.5096 38.2177H36.6774L37.4021 38.3231C37.6843 38.3617 37.9697 38.2836 38.1933 38.1067C38.4174 37.9298 38.5599 37.6696 38.5885 37.385L38.6724 36.6577V36.6582C38.7108 36.0682 39.1965 35.6086 39.7857 35.6044H39.9643H39.9638C40.298 35.6519 40.5999 35.8297 40.8038 36.0993C41.019 36.366 41.1207 36.7066 41.0874 37.0477L40.657 41.284Z" fill="url(#paint4_linear_414_602)" stroke="url(#paint5_linear_414_602)" stroke-width="0.1"/>
<path d="M69.3844 46.5118C69.3108 46.4064 69.2372 46.3222 69.1322 46.1957H69.1326C68.6597 45.6104 67.9973 45.2096 67.2609 45.0633C66.524 44.917 65.7599 45.0341 65.1004 45.3945C64.5946 44.7415 63.8582 44.3082 63.0435 44.1845C62.2283 44.0613 61.3972 44.2565 60.7217 44.7307C60.0017 45.2364 59.5016 45.9999 59.324 46.8637C59.1463 47.7279 59.3048 48.6275 59.7665 49.3778L62.5912 53.8667L62.5907 53.8672C62.7416 54.1104 62.984 54.2812 63.2629 54.3414H63.4729C63.6787 54.3395 63.8797 54.2774 64.0504 54.1621L68.4078 51.1587C69.1283 50.6648 69.6289 49.9092 69.8042 49.0512C69.9856 48.186 69.8277 47.2837 69.3631 46.5324L69.3844 46.5118ZM67.7671 48.6194H67.7676C67.7099 48.9558 67.5163 49.2536 67.2318 49.4413L63.7771 51.8226L61.5407 48.2609C61.1924 47.6441 61.3701 46.8628 61.9504 46.4591C62.144 46.3316 62.3699 46.262 62.6015 46.2587H62.8326C63.1373 46.3231 63.4026 46.5099 63.5676 46.7752L63.9562 47.3971L63.9557 47.3967C64.1085 47.6357 64.3509 47.8031 64.6279 47.8605C64.9077 47.9203 65.1998 47.8634 65.4365 47.7025L66.0351 47.2913C66.5221 46.9554 67.1849 47.0518 67.5577 47.5129L67.6523 47.6286H67.6519C67.8164 47.9273 67.8581 48.2792 67.7677 48.6085L67.7671 48.6194Z" fill="url(#paint6_linear_414_602)"/>
<path d="M51.1345 23.907L56.1642 25.5192C56.5036 25.626 56.8579 25.6792 57.2142 25.6773C57.9155 25.6731 58.5994 25.4552 59.175 25.0525C59.7506 24.6498 60.1908 24.0815 60.4374 23.422C60.4805 23.2945 60.5157 23.1642 60.5424 23.032C60.7008 22.3014 60.601 21.5379 60.2597 20.8726C59.919 20.2074 59.3583 19.6819 58.6735 19.386C58.8778 18.5857 58.7686 17.7375 58.3678 17.0158C57.9675 16.2946 57.3066 15.7545 56.5209 15.508C55.6851 15.261 54.787 15.341 54.0075 15.7319C53.2285 16.1229 52.6256 16.7961 52.3209 17.6156L50.4624 22.5473C50.3667 22.8168 50.3841 23.1137 50.5106 23.3701C50.6372 23.6265 50.8627 23.8203 51.1345 23.9069L51.1345 23.907ZM54.2845 18.2795C54.5353 17.6208 55.2492 17.2675 55.9223 17.4679C56.2204 17.5611 56.4665 17.7733 56.6038 18.0541C56.7407 18.3354 56.7562 18.661 56.647 18.9541L56.3948 19.639C56.2842 19.9016 56.2842 20.1979 56.3948 20.4609C56.5228 20.7187 56.7506 20.913 57.0248 20.9982L57.7176 21.2301H57.7181C58.2712 21.407 58.5993 21.9781 58.4742 22.5474V22.6951C58.2234 23.3533 57.5095 23.707 56.8359 23.5062L52.8042 22.2313L54.2845 18.2795Z" fill="url(#paint7_linear_414_602)" stroke="url(#paint8_linear_414_602)" stroke-width="0.1"/>
<path d="M45.1501 1.47176V1.37673C45.1552 1.34191 45.1552 1.30663 45.1501 1.27135V1.16597C45.1299 1.10105 45.1056 1.03801 45.0765 0.976381C45.0442 0.916164 45.0052 0.85971 44.9612 0.807965L44.8248 0.671068L44.6673 0.565688L44.4676 0.481478H44.2787L44.1001 0.417969H43.9004L28.1504 3.43159C27.5888 3.53368 27.211 4.06716 27.3001 4.63311C27.3924 5.14025 27.8368 5.50579 28.3501 5.49732H28.5498L43.0506 2.74661V6.9618L23.1006 10.7348V6.51957L24.3503 6.27729V6.27682C24.9301 6.16626 25.3107 5.60503 25.2006 5.0231C25.0904 4.44118 24.5312 4.05869 23.9509 4.16925L21.8509 4.56959H21.7459L21.557 4.64345C21.497 4.67639 21.4407 4.71496 21.3892 4.75965L21.2528 4.89655L21.1375 5.06497H21.137C21.1065 5.12189 21.0817 5.18211 21.0634 5.24421C21.0578 5.3143 21.0578 5.38487 21.0634 5.45497L21.0006 5.6869V23.6015C20.095 22.9118 18.9873 22.5415 17.8506 22.5477C16.4583 22.5477 15.123 23.1028 14.138 24.0907C13.1537 25.0791 12.6006 26.4194 12.6006 27.8167C12.6006 29.2139 13.1537 30.5541 14.138 31.5426C15.1229 32.5306 16.4583 33.0856 17.8506 33.0856C19.2428 33.0856 20.5782 32.5305 21.5631 31.5426C22.5475 30.5542 23.1006 29.2139 23.1006 27.8167V12.884L43.0506 9.06917V19.386C42.145 18.6964 41.0373 18.3261 39.9006 18.3322C38.5083 18.3322 37.173 18.8874 36.188 19.8752C35.2036 20.8636 34.6506 22.2039 34.6506 23.6012C34.6506 24.9985 35.2037 26.3387 36.188 27.3272C37.1729 28.3151 38.5083 28.8702 39.9006 28.8702C41.2928 28.8702 42.6282 28.3151 43.6131 27.3272C44.5975 26.3388 45.1506 24.9985 45.1506 23.6012L45.1501 1.47176ZM17.8501 30.9781C17.0148 30.9781 16.2132 30.645 15.6227 30.0523C15.0321 29.4595 14.7002 28.655 14.7002 27.8168C14.7002 26.9785 15.032 26.1739 15.6227 25.5813C16.2133 24.9886 17.0149 24.6554 17.8501 24.6554C18.6853 24.6554 19.487 24.9885 20.0775 25.5813C20.6681 26.174 21 26.9785 21 27.8168C21 28.655 20.6682 29.4596 20.0775 30.0523C19.4869 30.6449 18.6853 30.9781 17.8501 30.9781ZM39.9001 26.7629C39.0648 26.7629 38.2632 26.4298 37.6726 25.8371C37.0821 25.2443 36.7501 24.4398 36.7501 23.6016C36.7501 22.7633 37.082 21.9587 37.6726 21.3661C38.2633 20.7734 39.0649 20.4402 39.9001 20.4402C40.7353 20.4402 41.537 20.7733 42.1275 21.3661C42.718 21.9588 43.05 22.7633 43.05 23.6016C43.05 24.4398 42.7182 25.2444 42.1275 25.8371C41.5369 26.4297 40.7353 26.7629 39.9001 26.7629Z" fill="url(#paint9_linear_414_602)" stroke="url(#paint10_linear_414_602)" stroke-width="0.5"/>
<path d="M71.4005 28.6816V28.5762C71.3822 28.5071 71.3579 28.4403 71.3269 28.3758C71.2946 28.3156 71.2557 28.2591 71.2116 28.2074C71.175 28.1599 71.1324 28.1175 71.0855 28.0808C71.0311 28.0319 70.9711 27.9891 70.9069 27.9543L70.7391 27.8804H70.5291L70.3505 27.8174H70.1611L53.3611 30.9788H53.2561L53.0564 31.0526H53.0569C52.9988 31.0823 52.9454 31.1218 52.8994 31.1684C52.7902 31.246 52.703 31.3514 52.6477 31.4742C52.6093 31.5283 52.5807 31.5889 52.5633 31.6534C52.5586 31.7197 52.5586 31.787 52.5633 31.8533L52.5005 32.0326V49.9472C51.5949 49.2575 50.4873 48.8872 49.3505 48.8934C47.475 48.8934 45.7416 49.8978 44.8041 51.5278C43.8661 53.1579 43.8661 55.1668 44.8041 56.7968C45.7416 58.4269 47.475 59.4313 49.3505 59.4313C49.7935 59.4332 50.2346 59.3763 50.6631 59.2629C50.9513 59.2116 51.2059 59.0423 51.3643 58.7948C51.5228 58.5478 51.571 58.2453 51.4974 57.9607C51.4239 57.6761 51.2354 57.4352 50.9771 57.296C50.7193 57.1572 50.4151 57.1327 50.1381 57.2287C49.8803 57.2922 49.6159 57.3242 49.3506 57.3237C48.5153 57.3237 47.7137 56.9907 47.1231 56.3979C46.5326 55.8051 46.2006 55.0006 46.2006 54.1624C46.2006 53.3242 46.5325 52.5196 47.1231 51.9269C47.7138 51.3343 48.5154 51.0011 49.3506 51.0011C50.1858 51.0011 50.9875 51.3342 51.578 51.9269C52.1685 52.5197 52.5005 53.3242 52.5005 54.1624C52.501 54.4287 52.4691 54.694 52.4058 54.9528C52.3102 55.2308 52.3346 55.5361 52.4729 55.7949C52.6116 56.0541 52.8516 56.2432 53.1352 56.317C53.4188 56.3909 53.7202 56.3425 53.9663 56.1834C54.2129 56.0244 54.3816 55.769 54.4327 55.4796C54.5457 55.0497 54.6024 54.607 54.6005 54.1623V39.2297L64.2394 37.4171C64.8192 37.3126 65.205 36.7556 65.1005 36.1737C64.996 35.5918 64.4414 35.2051 63.8616 35.3095L54.6005 37.0906V32.8754L69.3005 30.1355V34.3507L68.0616 34.5827C67.4818 34.6349 67.0538 35.1491 67.1058 35.731C67.1583 36.3134 67.6707 36.7425 68.2505 36.6903H68.4394L70.5394 36.2899H70.6444L70.8441 36.216C70.9022 36.1859 70.9557 36.1469 71.0016 36.0998C71.1108 36.0222 71.198 35.9168 71.2533 35.7945C71.2918 35.7404 71.3204 35.6797 71.3377 35.6153C71.3424 35.5485 71.3424 35.4817 71.3377 35.4149L71.4005 35.1938V28.871V28.7759C71.4057 28.7449 71.4057 28.7129 71.4005 28.6814L71.4005 28.6816Z" fill="url(#paint11_linear_414_602)" stroke="url(#paint12_linear_414_602)" stroke-width="0.5"/>
<defs>
<linearGradient id="paint0_linear_414_602" x1="55.3018" y1="7.678" x2="70.9928" y2="7.678" gradientUnits="userSpaceOnUse">
<stop stop-color="#3669CD"/>
<stop offset="0.484375" stop-color="#8D3BDE"/>
<stop offset="1" stop-color="#EA5FAB"/>
</linearGradient>
<linearGradient id="paint1_linear_414_602" x1="55.3018" y1="7.678" x2="70.9928" y2="7.678" gradientUnits="userSpaceOnUse">
<stop stop-color="#3669CD"/>
<stop offset="0.484375" stop-color="#8D3BDE"/>
<stop offset="1" stop-color="#EA5FAB"/>
</linearGradient>
<linearGradient id="paint2_linear_414_602" x1="12.6006" y1="51.9383" x2="28.4013" y2="51.9383" gradientUnits="userSpaceOnUse">
<stop stop-color="#3669CD"/>
<stop offset="0.484375" stop-color="#8D3BDE"/>
<stop offset="1" stop-color="#EA5FAB"/>
</linearGradient>
<linearGradient id="paint3_linear_414_602" x1="12.6006" y1="51.9383" x2="28.4013" y2="51.9383" gradientUnits="userSpaceOnUse">
<stop stop-color="#3669CD"/>
<stop offset="0.484375" stop-color="#8D3BDE"/>
<stop offset="1" stop-color="#EA5FAB"/>
</linearGradient>
<linearGradient id="paint4_linear_414_602" x1="33.2803" y1="38.4753" x2="42.9627" y2="38.4753" gradientUnits="userSpaceOnUse">
<stop stop-color="#3669CD"/>
<stop offset="0.484375" stop-color="#8D3BDE"/>
<stop offset="1" stop-color="#EA5FAB"/>
</linearGradient>
<linearGradient id="paint5_linear_414_602" x1="33.2803" y1="38.4753" x2="42.9627" y2="38.4753" gradientUnits="userSpaceOnUse">
<stop stop-color="#3669CD"/>
<stop offset="0.484375" stop-color="#8D3BDE"/>
<stop offset="1" stop-color="#EA5FAB"/>
</linearGradient>
<linearGradient id="paint6_linear_414_602" x1="59.2529" y1="49.1614" x2="69.6089" y2="49.1614" gradientUnits="userSpaceOnUse">
<stop stop-color="#3669CD"/>
<stop offset="0.484375" stop-color="#8D3BDE"/>
<stop offset="1" stop-color="#EA5FAB"/>
</linearGradient>
<linearGradient id="paint7_linear_414_602" x1="50.4014" y1="20.4378" x2="60.3575" y2="20.4378" gradientUnits="userSpaceOnUse">
<stop stop-color="#3669CD"/>
<stop offset="0.484375" stop-color="#8D3BDE"/>
<stop offset="1" stop-color="#EA5FAB"/>
</linearGradient>
<linearGradient id="paint8_linear_414_602" x1="50.4014" y1="20.4378" x2="60.3575" y2="20.4378" gradientUnits="userSpaceOnUse">
<stop stop-color="#3669CD"/>
<stop offset="0.484375" stop-color="#8D3BDE"/>
<stop offset="1" stop-color="#EA5FAB"/>
</linearGradient>
<linearGradient id="paint9_linear_414_602" x1="12.6006" y1="16.484" x2="44.3306" y2="16.484" gradientUnits="userSpaceOnUse">
<stop stop-color="#3669CD"/>
<stop offset="0.484375" stop-color="#8D3BDE"/>
<stop offset="1" stop-color="#EA5FAB"/>
</linearGradient>
<linearGradient id="paint10_linear_414_602" x1="12.6006" y1="16.484" x2="44.3306" y2="16.484" gradientUnits="userSpaceOnUse">
<stop stop-color="#3669CD"/>
<stop offset="0.484375" stop-color="#8D3BDE"/>
<stop offset="1" stop-color="#EA5FAB"/>
</linearGradient>
<linearGradient id="paint11_linear_414_602" x1="44.1006" y1="43.3652" x2="70.7138" y2="43.3652" gradientUnits="userSpaceOnUse">
<stop stop-color="#3669CD"/>
<stop offset="0.484375" stop-color="#8D3BDE"/>
<stop offset="1" stop-color="#EA5FAB"/>
</linearGradient>
<linearGradient id="paint12_linear_414_602" x1="44.1006" y1="43.3652" x2="70.7138" y2="43.3652" gradientUnits="userSpaceOnUse">
<stop stop-color="#3669CD"/>
<stop offset="0.484375" stop-color="#8D3BDE"/>
<stop offset="1" stop-color="#EA5FAB"/>
</linearGradient>
</defs>
</svg>
