<svg width="58" height="62" viewBox="0 0 58 62" fill="none" xmlns="http://www.w3.org/2000/svg">
<path d="M5.91531 9.15468L28.6568 19.1104L26.6485 22.829C24.3994 26.9937 23.834 31.6517 25.0819 36.0372L26.4373 40.7191C26.5048 40.9561 26.4796 41.2075 26.3651 41.4267L19.514 54.6026C19.1954 55.2263 19.0274 55.9083 19.0274 56.5746C19.0274 58.9558 20.966 60.8929 23.3491 60.8929C24.9749 60.8929 26.4438 59.9982 27.1817 58.5613L33.7395 45.8931C34.5195 44.4096 34.8403 42.7304 34.6658 41.0316L34.449 39.0135L40.9066 44.6257L46.6012 58.1635C46.9472 58.972 47.5187 59.6561 48.2448 60.1359C48.976 60.6308 49.8331 60.8926 50.7223 60.8926C52.2505 60.8926 53.6577 60.1259 54.4848 58.842C55.3135 57.5563 55.4297 55.9572 54.7951 54.562L49.4748 42.9381C48.9695 41.8343 48.287 40.8379 47.4469 39.9772L40.292 32.6313L43.9966 24.0943C44.0135 24.0951 44.0283 24.1034 44.0457 24.1034C44.0915 24.1034 44.1385 24.1003 44.1855 24.0934L45.9235 23.8403C48.1138 23.521 49.861 21.8466 50.2727 19.6742C50.7262 17.2769 49.4796 14.9244 47.2406 13.9537L45.376 13.1438C45.594 12.4506 45.7124 11.7243 45.7124 10.9675C45.7124 6.92364 42.4201 3.633 38.373 3.633C35.6921 3.633 33.2916 5.06126 32.005 7.33637L27.9217 5.56274C26.7264 5.04953 25.3998 5.12912 24.2794 5.78194C23.5368 6.21512 22.9914 6.86054 22.652 7.61815L9.14569 1.75501C7.89034 1.2131 6.46182 1.33793 5.31879 2.0886C4.17887 2.83754 3.49805 4.09794 3.49805 5.46052C3.49805 7.06492 4.4478 8.515 5.91594 9.15431L5.91531 9.15468ZM38.3722 5.5514C41.3612 5.5514 43.7918 7.98083 43.7918 10.9671C43.7918 11.4555 43.7226 11.9235 43.6007 12.3727L33.7785 8.10664C34.7491 6.53264 36.4642 5.55151 38.3724 5.55151L38.3722 5.5514ZM25.2459 7.43894C25.8349 7.09666 26.5322 7.05491 27.1585 7.32325L32.0997 9.46954C32.1014 9.46997 32.1023 9.47171 32.1036 9.47215C32.1049 9.47258 32.1062 9.47215 32.1071 9.47302L46.4747 15.7133C47.8854 16.3248 48.6715 17.8074 48.3851 19.3174C48.1253 20.6861 47.0249 21.7408 45.6451 21.9417L44.8816 22.053L45.3565 20.9592C45.3866 20.8896 45.3887 20.8179 45.4014 20.7465C45.4901 20.2577 45.1937 19.8454 44.8603 19.6988L35.973 15.8111L35.9356 15.7919C35.9356 15.7919 35.9342 15.7915 35.9334 15.7915C35.9134 15.7815 35.8925 15.7715 35.882 15.7671L25.4578 11.204C24.69 10.8726 24.1942 10.1132 24.1942 9.26903C24.1942 9.18118 24.2024 9.09246 24.2072 9.02939C24.2795 8.36136 24.6586 7.78206 25.2462 7.43891L25.2459 7.43894ZM6.37217 3.69215C6.98329 3.29114 7.71455 3.22895 8.38134 3.51557L22.2954 9.55529C22.4016 11.0479 23.3135 12.3671 24.6925 12.9625L35.0601 17.4996C35.0762 17.5074 35.1302 17.5348 35.1472 17.5422L35.1485 17.5426C35.3344 17.6405 35.5259 17.724 35.7374 17.8006L43.2136 21.0729L38.2737 32.4596C38.1192 32.8162 38.1958 33.2316 38.467 33.5104L46.0711 41.3176C46.7575 42.0213 47.3151 42.8351 47.7286 43.7384L53.048 55.36C53.4154 56.1685 53.351 57.0601 52.87 57.806C52.3907 58.5497 51.6082 58.9764 50.7224 58.9764C50.2179 58.9764 49.7343 58.829 49.3134 58.5441C48.8925 58.2657 48.5652 57.8739 48.3693 57.4168L42.6738 43.8779C42.5576 43.6056 42.3813 43.3699 42.1646 43.189L33.8649 35.9649C33.5668 35.7053 33.1393 35.6557 32.7907 35.8375C32.4399 36.0197 32.2375 36.3981 32.2797 36.79L32.7559 41.2331C32.8917 42.5505 32.6444 43.8539 32.0368 45.0077L25.4742 57.6849C25.0655 58.4812 24.2507 58.9762 23.3488 58.9762C21.8655 58.9762 20.947 57.7302 20.947 56.5762C20.947 56.2061 21.0397 55.8351 21.2208 55.4816L28.0684 42.3123C28.4096 41.6569 28.4867 40.9053 28.283 40.1907L26.9018 35.4223C25.8171 31.6115 26.3273 27.4633 28.3374 23.7417L30.8406 19.1067C31.1026 18.6213 30.8519 17.9785 30.3814 17.7724L6.68388 7.39692C5.91433 7.0616 5.41727 6.3018 5.41727 5.46106C5.41727 4.73562 5.76592 4.09103 6.37268 3.69221L6.37217 3.69215Z" fill="url(#paint0_linear_414_641)" stroke="url(#paint1_linear_414_641)" stroke-width="0.7"/>
<path d="M53.2817 14.6215C53.2817 15.1513 53.7109 15.581 54.2419 15.581C54.7725 15.581 55.2021 15.1513 55.2021 14.6215C55.2021 14.1357 55.4054 13.9213 55.8651 13.4825C56.3957 12.9763 57.1221 12.2826 57.1221 10.9561C57.1221 8.14303 53.7452 8.17488 55.8651 6.15418C56.3957 5.64836 57.1221 4.9555 57.1221 3.63033C57.1221 3.1006 56.6925 2.6709 56.1619 2.6709C55.6313 2.6709 55.2017 3.10017 55.2017 3.63033C55.2017 4.77023 53.2818 5.0891 53.2818 7.29017C53.2818 8.61667 54.0082 9.31043 54.5388 9.81658C56.6155 11.8006 53.2818 11.852 53.2818 14.6215H53.2817Z" fill="url(#paint2_linear_414_641)"/>
<path d="M17.6688 32.0657C18.1281 32.5045 18.3318 32.719 18.3318 33.2047C18.3318 33.7344 18.7614 34.1641 19.292 34.1641C19.8226 34.1641 20.2522 33.7344 20.2522 33.2047C20.2522 30.426 16.9123 30.389 18.9951 28.4032C19.5257 27.8974 20.2522 27.2045 20.2522 25.8794C20.2522 25.3496 19.8226 24.9199 19.292 24.9199C18.7614 24.9199 18.3318 25.3492 18.3318 25.8794C18.3318 26.363 18.1285 26.5774 17.6688 27.0154C15.9696 28.6346 15.9687 30.4434 17.6688 32.0656V32.0657Z" fill="url(#paint3_linear_414_641)"/>
<path d="M3.90597 23.9865L6.88535 25.6144C8.4166 28.123 8.39966 29.0907 9.35773 29.0907C9.70855 29.0907 10.032 28.8994 10.1995 28.5919L11.8296 25.6144L14.8081 23.9866C15.1167 23.8182 15.3078 23.4955 15.3078 23.145C15.3078 22.794 15.1167 22.4713 14.8081 22.3034L11.8296 20.6755L10.1995 17.6981C10.032 17.391 9.70811 17.1992 9.35773 17.1992C9.00734 17.1992 8.6835 17.3901 8.51592 17.6981L6.88538 20.6755C4.37434 22.2047 3.40625 22.1877 3.40625 23.1455C3.40625 23.4956 3.59777 23.8183 3.90594 23.9866L3.90597 23.9865ZM8.4341 21.8423L9.35774 20.157L10.2805 21.8423C10.5095 22.2594 10.8294 22.2685 12.3476 23.1449C10.8185 24.0269 10.5081 24.0321 10.2805 24.4474L9.35774 26.1328C8.48503 24.6231 8.46805 24.2931 8.0528 24.0664L6.367 23.1453C7.90304 22.2589 8.20735 22.2567 8.43411 21.8423L8.4341 21.8423Z" fill="url(#paint4_linear_414_641)"/>
<path d="M48.5611 26.6907L47.2253 29.1306L44.7839 30.4649C44.4753 30.6332 44.2842 30.9559 44.2842 31.3065C44.2842 31.6575 44.4753 31.9802 44.7839 32.148L47.2262 33.4819L48.5611 35.9218C48.7291 36.2288 49.0525 36.4206 49.4029 36.4206C49.7537 36.4206 50.0771 36.2297 50.2447 35.9218L51.5805 33.4819L54.0215 32.148C54.3301 31.9797 54.5211 31.657 54.5211 31.3065C54.5211 30.9564 54.3296 30.6332 54.0215 30.4649L51.5805 29.1306L50.2447 26.6907C49.9091 26.0753 48.8966 26.0762 48.5611 26.6907H48.5611ZM51.561 31.3065L50.4136 31.9337C50.2521 32.0215 50.1202 32.1537 50.0318 32.3151L49.4029 33.4625L48.7748 32.3151C48.6869 32.1546 48.5545 32.022 48.3935 31.9337L47.2448 31.3065L48.3935 30.6789C48.5545 30.5911 48.6869 30.4584 48.7748 30.2975L49.4029 29.1502L50.0318 30.2975C50.1198 30.458 50.2521 30.5906 50.4136 30.6789L51.561 31.3065Z" fill="url(#paint5_linear_414_641)"/>
<path d="M55.7497 23.3369C55.2192 23.3369 54.7896 23.7662 54.7896 24.2963C54.7896 24.8261 55.2192 25.2558 55.7497 25.2558H56.5737C57.1043 25.2558 57.5339 24.8261 57.5339 24.2963C57.5339 23.7666 57.1047 23.3369 56.5737 23.3369H55.7497Z" fill="url(#paint6_linear_414_641)"/>
<path d="M47.0471 4.58879H47.872C48.4025 4.58879 48.8322 4.15909 48.8322 3.62936C48.8322 3.09963 48.4025 2.66992 47.872 2.66992H47.0471C46.5165 2.66992 46.0869 3.09919 46.0869 3.62936C46.0869 4.15952 46.5165 4.58879 47.0471 4.58879Z" fill="url(#paint7_linear_414_641)"/>
<path d="M19.9866 3.75285H20.8105C21.3411 3.75285 21.7707 3.32315 21.7707 2.79342C21.7707 2.26369 21.3415 1.83398 20.8105 1.83398L19.9866 1.83442C19.456 1.83442 19.0264 2.26369 19.0264 2.79385C19.0264 3.32315 19.456 3.75285 19.9866 3.75285V3.75285Z" fill="url(#paint8_linear_414_641)"/>
<path d="M1.42602 12.7861H2.25085C2.78144 12.7861 3.21105 12.3563 3.21105 11.8266C3.21105 11.2969 2.78144 10.8672 2.25085 10.8672H1.42602C0.895434 10.8672 0.46582 11.2965 0.46582 11.8266C0.466256 12.3568 0.895434 12.7861 1.42602 12.7861Z" fill="url(#paint9_linear_414_641)"/>
<path d="M18.4656 19.6083H19.2904C19.821 19.6083 20.2506 19.1786 20.2506 18.6489C20.2506 18.1192 19.821 17.6895 19.2904 17.6895H18.4656C17.935 17.6895 17.5054 18.1187 17.5054 18.6489C17.5058 19.1786 17.935 19.6083 18.4656 19.6083Z" fill="url(#paint10_linear_414_641)"/>
<defs>
<linearGradient id="paint0_linear_414_641" x1="3.49805" y1="30.6699" x2="53.8927" y2="30.6699" gradientUnits="userSpaceOnUse">
<stop stop-color="#3669CD"/>
<stop offset="0.484375" stop-color="#8D3BDE"/>
<stop offset="1" stop-color="#EA5FAB"/>
</linearGradient>
<linearGradient id="paint1_linear_414_641" x1="3.49805" y1="30.6699" x2="53.8927" y2="30.6699" gradientUnits="userSpaceOnUse">
<stop stop-color="#3669CD"/>
<stop offset="0.484375" stop-color="#8D3BDE"/>
<stop offset="1" stop-color="#EA5FAB"/>
</linearGradient>
<linearGradient id="paint2_linear_414_641" x1="53.2817" y1="9.02012" x2="57.025" y2="9.02012" gradientUnits="userSpaceOnUse">
<stop stop-color="#3669CD"/>
<stop offset="0.484375" stop-color="#8D3BDE"/>
<stop offset="1" stop-color="#EA5FAB"/>
</linearGradient>
<linearGradient id="paint3_linear_414_641" x1="16.394" y1="29.4663" x2="20.1546" y2="29.4663" gradientUnits="userSpaceOnUse">
<stop stop-color="#3669CD"/>
<stop offset="0.484375" stop-color="#8D3BDE"/>
<stop offset="1" stop-color="#EA5FAB"/>
</linearGradient>
<linearGradient id="paint4_linear_414_641" x1="3.40625" y1="23.0475" x2="15.0068" y2="23.0475" gradientUnits="userSpaceOnUse">
<stop stop-color="#3669CD"/>
<stop offset="0.484375" stop-color="#8D3BDE"/>
<stop offset="1" stop-color="#EA5FAB"/>
</linearGradient>
<linearGradient id="paint5_linear_414_641" x1="44.2842" y1="31.2415" x2="54.2622" y2="31.2415" gradientUnits="userSpaceOnUse">
<stop stop-color="#3669CD"/>
<stop offset="0.484375" stop-color="#8D3BDE"/>
<stop offset="1" stop-color="#EA5FAB"/>
</linearGradient>
<linearGradient id="paint6_linear_414_641" x1="54.7896" y1="24.2806" x2="57.4645" y2="24.2806" gradientUnits="userSpaceOnUse">
<stop stop-color="#3669CD"/>
<stop offset="0.484375" stop-color="#8D3BDE"/>
<stop offset="1" stop-color="#EA5FAB"/>
</linearGradient>
<linearGradient id="paint7_linear_414_641" x1="46.0869" y1="3.61363" x2="48.7627" y2="3.61363" gradientUnits="userSpaceOnUse">
<stop stop-color="#3669CD"/>
<stop offset="0.484375" stop-color="#8D3BDE"/>
<stop offset="1" stop-color="#EA5FAB"/>
</linearGradient>
<linearGradient id="paint8_linear_414_641" x1="19.0264" y1="2.77769" x2="21.7013" y2="2.77769" gradientUnits="userSpaceOnUse">
<stop stop-color="#3669CD"/>
<stop offset="0.484375" stop-color="#8D3BDE"/>
<stop offset="1" stop-color="#EA5FAB"/>
</linearGradient>
<linearGradient id="paint9_linear_414_641" x1="0.46582" y1="11.8109" x2="3.14162" y2="11.8109" gradientUnits="userSpaceOnUse">
<stop stop-color="#3669CD"/>
<stop offset="0.484375" stop-color="#8D3BDE"/>
<stop offset="1" stop-color="#EA5FAB"/>
</linearGradient>
<linearGradient id="paint10_linear_414_641" x1="17.5054" y1="18.6332" x2="20.1812" y2="18.6332" gradientUnits="userSpaceOnUse">
<stop stop-color="#3669CD"/>
<stop offset="0.484375" stop-color="#8D3BDE"/>
<stop offset="1" stop-color="#EA5FAB"/>
</linearGradient>
</defs>
</svg>
