<svg width="90" height="60" viewBox="0 0 90 60" fill="none" xmlns="http://www.w3.org/2000/svg">
<path d="M40.2639 25.0947H7.08668C3.4996 25.0947 0.570312 28.0815 0.570312 31.7389V45.4102C0.570312 49.0676 3.4996 52.0543 7.08668 52.0543H25.4919L35.5326 59.2095C35.736 59.3529 35.971 59.433 36.2061 59.433C36.3943 59.433 36.5819 59.3852 36.7542 59.3051C37.1458 59.0977 37.3809 58.6823 37.3809 58.2352V52.0544H40.2633C43.8504 52.0544 46.7797 49.0676 46.7797 45.4102V31.7389C46.7804 28.0815 43.8511 25.0948 40.264 25.0948L40.2639 25.0947ZM44.4299 45.4109C44.4299 47.7588 42.5657 49.6594 40.2632 49.6594H36.2059C35.5633 49.6594 35.0311 50.2028 35.0311 50.8572V55.9358L26.541 49.8829C26.3377 49.7395 26.1026 49.6594 25.8675 49.6594H7.08655C4.78384 49.6594 2.91978 47.7586 2.91978 45.4109V31.7396C2.91978 29.3917 4.78403 27.4911 7.08655 27.4911H40.2638C42.5665 27.4911 44.4305 29.3919 44.4305 31.7396L44.4299 45.4109Z" fill="url(#paint0_linear_414_739)"/>
<path d="M39.339 31.4814H8.00972C7.36717 31.4814 6.83496 32.0248 6.83496 32.6792C6.83496 33.3344 7.36789 33.877 8.00972 33.877H39.339C39.9815 33.877 40.5137 33.3337 40.5137 32.6792C40.5137 32.0248 39.9815 31.4814 39.339 31.4814Z" fill="url(#paint1_linear_414_739)"/>
<path d="M39.339 37.873H8.00972C7.36717 37.873 6.83496 38.4164 6.83496 39.0708C6.83496 39.726 7.36789 40.2686 8.00972 40.2686H39.339C39.9815 40.2686 40.5137 39.7253 40.5137 39.0708C40.5137 38.4157 39.9815 37.873 39.339 37.873Z" fill="url(#paint2_linear_414_739)"/>
<path d="M39.339 44.2598H23.6748C23.0322 44.2598 22.5 44.8031 22.5 45.4576C22.5 46.1127 23.0329 46.6554 23.6748 46.6554H39.339C39.9816 46.6554 40.5138 46.112 40.5138 45.4576C40.5138 44.8031 39.9816 44.2598 39.339 44.2598Z" fill="url(#paint3_linear_414_739)"/>
<path d="M82.4796 44.9464L78.9084 37.9832C78.1252 35.923 77.8901 33.8942 78.188 31.9303L78.5796 30.8281C79.0498 31.3715 79.6606 31.8663 80.4279 32.1377C81.806 32.6171 83.2945 32.2494 84.8768 31.0354C88.2445 28.4641 88.7927 24.2795 88.8244 22.0118C88.8403 20.2552 88.0095 18.6258 86.6473 17.7957C85.88 17.3163 84.4852 16.7737 82.6996 17.4443C82.1515 13.4994 80.0522 4.53903 72.0482 1.85611C64.8743 -0.555557 58.1227 3.56493 54.7391 6.23258C53.5485 7.15906 52.8907 8.51645 52.7812 9.93781C52.7654 9.98561 52.7185 10.0018 52.7026 10.0496C52.6399 10.2253 51.2769 14.3459 51.6216 17.6842C51.8408 19.8246 51.7781 20.6547 51.7622 20.8784L49.4905 25.7659C49.4278 25.9093 49.3809 26.0696 49.3809 26.2453C49.3341 27.5387 50.1014 28.8806 51.6526 28.9446C51.6995 28.9762 51.7781 29.1042 51.8408 29.2483C51.6685 29.7917 51.4961 30.702 51.825 31.4682C52.0442 31.963 52.4358 32.3306 52.8742 32.4902C52.9997 32.6182 53.1562 33.1608 53.1872 33.6079C52.9053 35.6203 53.6257 36.7226 54.2992 37.2976C56.3509 39.0388 60.2206 37.9682 61.5519 37.5212C62.9617 37.9844 64.262 41.2742 64.7315 43.5424V46.705C63.3058 47.9984 58.5908 52.5028 56.3509 57.5814C56.0848 58.188 56.3509 58.891 56.9458 59.1623C57.1023 59.2424 57.2588 59.2741 57.4312 59.2741C57.8855 59.2741 58.3081 59.0182 58.4963 58.5711C60.5169 53.9872 64.9658 49.7225 66.2812 48.5094C75.1313 49.627 79.1105 48.0939 80.8492 46.8005C82.7293 49.8513 84.0288 53.3012 84.7181 57.1021C84.8436 57.7572 85.4544 58.1881 86.0963 58.0602C86.7388 57.9322 87.1614 57.3094 87.0359 56.6705C86.2527 52.358 84.7022 48.4772 82.5091 45.0594C82.4954 44.9947 82.4954 44.963 82.4796 44.9469L82.4796 44.9464ZM56.1645 8.13323C59.1876 5.75375 65.1717 2.08034 71.3117 4.14057C79.9114 7.03168 80.5223 19.3133 80.5382 19.4413C80.5541 19.8883 80.8201 20.2876 81.2117 20.4795C81.6033 20.6714 82.0735 20.6229 82.4182 20.3516C84.1101 19.0582 85.0966 19.6648 85.4254 19.8722C86.0831 20.2714 86.4747 21.0861 86.4747 22.0126C86.4588 23.8332 86.0363 27.1875 83.4675 29.1362C82.5589 29.8391 81.7916 30.0788 81.1807 29.8869C80.2251 29.5678 79.6302 28.1619 79.4889 27.6508C79.3482 27.156 78.909 26.8045 78.3927 26.7883C77.8915 26.7567 77.4213 27.092 77.249 27.5707L76.403 29.9347C73.7088 27.6509 75.1965 22.1245 75.2124 22.0605C75.291 21.773 75.2593 21.4539 75.1187 21.1818C73.897 18.7861 72.3147 17.4128 70.4197 17.1251C67.4276 16.6781 64.8899 19.2656 64.7802 19.3612C64.7333 19.409 64.7016 19.4568 64.6706 19.5046C64.6396 19.5524 64.592 19.6163 64.5451 19.6641C63.793 16.8692 61.3655 16.1347 60.754 15.9905C58.3887 15.0802 56.6342 13.6589 55.491 11.7899C55.3814 11.598 55.2877 11.3906 55.2249 11.1832C55.2091 11.1354 55.1939 11.0877 55.1939 11.0553C55.147 10.8479 55.1002 10.6244 55.1002 10.4001C55.0836 9.5222 55.4593 8.69207 56.1646 8.13323H56.1645ZM67.0821 46.1605V43.3972C67.0821 43.3171 67.0821 43.2377 67.0663 43.1575C66.9098 42.3752 65.4372 35.5229 61.6151 35.0758C61.4269 35.0597 61.2546 35.0758 61.0822 35.1398C59.4841 35.7148 56.712 36.2258 55.8033 35.4435C55.4903 35.1722 55.3959 34.645 55.5213 33.8626C55.5372 33.7825 55.5372 33.7192 55.5372 33.6391C55.5213 33.2082 55.3966 31.1156 53.9867 30.3809C54.0026 30.2052 54.0653 29.95 54.1432 29.7581C54.2218 29.5508 54.2528 29.3272 54.2218 29.1192C54.0495 27.9214 53.1877 26.6119 51.8096 26.6119C51.7938 26.5957 51.7786 26.5479 51.7628 26.5001L53.9868 21.6928C54.2529 20.9744 54.1275 18.9935 53.971 17.4443C53.8614 16.3583 53.9868 15.1281 54.1743 14.0267C55.5842 15.8796 57.589 17.3325 60.0329 18.2752C60.0957 18.3068 60.1735 18.323 60.2522 18.3391C60.268 18.3391 61.8502 18.6266 62.3038 20.3194C62.6954 21.7885 63.4627 22.2202 64.0425 22.3156C65.2641 22.5391 66.1886 21.4531 66.5333 20.9899C66.8312 20.7024 68.4286 19.2171 70.1045 19.4884C71.1228 19.6479 72.0315 20.4465 72.8457 21.8841C72.4382 23.7046 71.389 29.9334 75.775 32.409C75.5868 34.5333 75.9156 36.7053 76.7932 38.9892L79.7067 44.6906C78.8305 45.4259 75.8384 47.1825 67.0821 46.1605L67.0821 46.1605Z" fill="url(#paint4_linear_414_739)"/>
<defs>
<linearGradient id="paint0_linear_414_739" x1="0.570312" y1="41.9824" x2="45.611" y2="41.9824" gradientUnits="userSpaceOnUse">
<stop stop-color="#3669CD"/>
<stop offset="0.484375" stop-color="#8D3BDE"/>
<stop offset="1" stop-color="#EA5FAB"/>
</linearGradient>
<linearGradient id="paint1_linear_414_739" x1="6.83496" y1="32.6596" x2="39.6619" y2="32.6596" gradientUnits="userSpaceOnUse">
<stop stop-color="#3669CD"/>
<stop offset="0.484375" stop-color="#8D3BDE"/>
<stop offset="1" stop-color="#EA5FAB"/>
</linearGradient>
<linearGradient id="paint2_linear_414_739" x1="6.83496" y1="39.0512" x2="39.6619" y2="39.0512" gradientUnits="userSpaceOnUse">
<stop stop-color="#3669CD"/>
<stop offset="0.484375" stop-color="#8D3BDE"/>
<stop offset="1" stop-color="#EA5FAB"/>
</linearGradient>
<linearGradient id="paint3_linear_414_739" x1="22.5" y1="45.4379" x2="40.0582" y2="45.4379" gradientUnits="userSpaceOnUse">
<stop stop-color="#3669CD"/>
<stop offset="0.484375" stop-color="#8D3BDE"/>
<stop offset="1" stop-color="#EA5FAB"/>
</linearGradient>
<linearGradient id="paint4_linear_414_739" x1="49.3789" y1="29.7239" x2="87.827" y2="29.7239" gradientUnits="userSpaceOnUse">
<stop stop-color="#3669CD"/>
<stop offset="0.484375" stop-color="#8D3BDE"/>
<stop offset="1" stop-color="#EA5FAB"/>
</linearGradient>
</defs>
</svg>
