<svg width="42" height="63" viewBox="0 0 42 63" fill="none" xmlns="http://www.w3.org/2000/svg">
<path d="M14.2327 30.7613C13.9641 30.7201 13.6895 30.7878 13.4708 30.9493C13.2516 31.1109 13.1065 31.3529 13.0667 31.6225L10.8826 46.1857C9.32589 46.3833 7.87625 47.0857 6.75648 48.1853C5.6363 49.2849 4.90785 50.7212 4.6813 52.2743H2.54941C1.98338 52.2743 1.52441 52.7332 1.52441 53.2993V61.4993C1.52441 61.7711 1.63241 62.0319 1.82459 62.2241C2.01678 62.4163 2.27761 62.5243 2.54941 62.5243H31.2494C31.8155 62.5243 32.2744 62.0653 32.2744 61.4993C32.2744 60.9332 31.8155 60.4743 31.2494 60.4743H3.57441V54.3243H38.4244V60.4743H37.3994C36.8334 60.4743 36.3744 60.9332 36.3744 61.4993C36.3744 62.0653 36.8334 62.5243 37.3994 62.5243H39.4494C39.7212 62.5243 39.9821 62.4163 40.1742 62.2241C40.3664 62.0319 40.4744 61.7711 40.4744 61.4993V53.2993C40.4744 53.0275 40.3664 52.7666 40.1742 52.5744C39.982 52.3823 39.7212 52.2743 39.4494 52.2743H37.3175C37.091 50.7212 36.3626 49.2848 35.2423 48.1853C34.1226 47.0857 32.6729 46.3833 31.1162 46.1857L28.3372 27.6583C29.7809 27.6034 31.0887 26.7912 31.7783 25.5219C32.4679 24.2525 32.4372 22.7136 31.6978 21.4727C30.9583 20.2313 29.619 19.4722 28.1744 19.4749H26.7768C27.1868 19.15 27.5689 18.7908 27.9181 18.4014C28.2924 17.9767 28.2521 17.3288 27.8275 16.9544C27.4028 16.5796 26.7549 16.6204 26.3805 17.045C24.8879 18.7376 22.685 19.6294 20.4351 19.4519C18.1851 19.2744 16.1497 18.0486 14.9408 16.1427C13.7314 14.2367 13.4898 11.8734 14.2878 9.762C15.0859 7.65073 16.8307 6.03815 18.9983 5.40897C21.1659 4.77933 23.5032 5.20671 25.3079 6.56163C27.1126 7.91698 28.1743 10.043 28.1743 12.2998C28.1743 12.8658 28.6333 13.3248 29.1993 13.3248C29.7653 13.3248 30.2243 12.8658 30.2243 12.2998C30.228 9.12999 28.6035 6.18045 25.9229 4.48821C23.2424 2.79655 19.8809 2.59928 17.021 3.96656C14.1611 5.33338 12.203 8.073 11.8365 11.2217C11.4695 14.3704 12.7448 17.4865 15.214 19.4747H13.8243C12.3596 19.4747 11.006 20.2563 10.2735 21.5247C9.54133 22.7932 9.54133 24.3563 10.2735 25.6247C11.0061 26.8932 12.3597 27.6747 13.8243 27.6747H26.266L29.0335 46.1247H12.9639L15.094 31.927C15.1343 31.6584 15.0661 31.3843 14.9046 31.1661C14.743 30.9473 14.501 30.8018 14.2319 30.7616L14.2327 30.7613ZM14.8495 25.6248H13.8245C13.0919 25.6248 12.4152 25.234 12.0491 24.5998C11.683 23.9656 11.683 23.184 12.0491 22.5498C12.4152 21.9156 13.0919 21.5248 13.8245 21.5248H28.1745C28.9071 21.5248 29.5838 21.9156 29.9499 22.5498C30.316 23.184 30.316 23.9656 29.9499 24.5998C29.5838 25.234 28.9071 25.6248 28.1745 25.6248H14.8495ZM30.2245 48.1748C31.4055 48.1762 32.5496 48.5848 33.4647 49.332C34.3794 50.0788 35.0086 51.118 35.2465 52.2748H6.7527C6.99064 51.118 7.61983 50.0788 8.53456 49.332C9.44974 48.5848 10.5937 48.1762 11.7747 48.1748H30.2245Z" fill="url(#paint0_linear_414_731)" stroke="url(#paint1_linear_414_731)" stroke-width="0.6"/>
<defs>
<linearGradient id="paint0_linear_414_731" x1="1.52441" y1="32.307" x2="39.4893" y2="32.307" gradientUnits="userSpaceOnUse">
<stop stop-color="#3669CD"/>
<stop offset="0.484375" stop-color="#8D3BDE"/>
<stop offset="1" stop-color="#EA5FAB"/>
</linearGradient>
<linearGradient id="paint1_linear_414_731" x1="1.52441" y1="32.307" x2="39.4893" y2="32.307" gradientUnits="userSpaceOnUse">
<stop stop-color="#3669CD"/>
<stop offset="0.484375" stop-color="#8D3BDE"/>
<stop offset="1" stop-color="#EA5FAB"/>
</linearGradient>
</defs>
</svg>
