<svg width="56" height="60" viewBox="0 0 56 60" fill="none" xmlns="http://www.w3.org/2000/svg">
<g clip-path="url(#clip0_414_575)">
<path d="M42.8878 22.4736V31.9601V45.8369H39.3984H36.8396V48.2673V56.3425C36.8396 57.0324 36.3743 57.5812 35.7074 57.5969H35.6919C35.6764 57.5969 35.6609 57.5969 35.6454 57.5969C35.3973 57.5969 35.1646 57.5028 34.9785 57.346L34.963 57.3303L34.901 57.3146C34.5908 57.0638 34.3737 56.6874 34.3737 56.3425V48.2673V45.8369H31.9699H24.3708H21.7964V48.2673V56.3425C21.7964 57.0324 21.2381 57.5969 20.5557 57.5969C19.8734 57.5969 19.3151 57.0324 19.3151 56.3425V48.2673V45.8369H16.9113H13.1117V31.9444V22.4736H42.8878ZM45.3692 19.9648H10.6304V31.9444V45.9937C10.6304 47.0756 11.4833 48.3457 12.5534 48.3457H16.8337V56.3425C16.8337 58.4279 18.4931 60.1057 20.5557 60.1057C22.6184 60.1057 24.2778 58.4279 24.2778 56.3425V48.3457H31.8769V56.3425C31.8769 57.5185 32.4817 58.569 33.3191 59.259C33.924 59.7921 34.7614 60.1057 35.6454 60.1057C35.6609 60.1057 35.6919 60.1057 35.7074 60.1057C35.723 60.1057 35.6609 60.1057 35.6764 60.1057C37.739 60.1057 39.3364 58.4279 39.3364 56.3425V48.3457H43.7718C44.8574 48.3457 45.3847 47.0756 45.3847 46.0094V31.9601V19.9648H45.3692Z" fill="url(#paint0_linear_414_575)"/>
<path d="M51.5726 19.9649C52.255 19.9649 52.8133 20.5293 52.8133 21.2193V36.2721C52.8133 36.962 52.255 37.5265 51.5726 37.5265C50.8902 37.5265 50.3319 36.962 50.3319 36.2721V21.2193C50.3319 20.5293 50.8902 19.9649 51.5726 19.9649ZM51.5726 17.4561C49.51 17.4561 47.8506 19.1338 47.8506 21.2193V36.2721C47.8506 38.3575 49.51 40.0353 51.5726 40.0353C53.6352 40.0353 55.2946 38.3575 55.2946 36.2721V21.2193C55.2946 19.1338 53.6352 17.4561 51.5726 17.4561Z" fill="url(#paint1_linear_414_575)"/>
<path d="M4.42709 19.9649C5.10946 19.9649 5.66776 20.5293 5.66776 21.2193V36.2721C5.66776 36.962 5.10946 37.5265 4.42709 37.5265C3.74472 37.5265 3.18642 36.962 3.18642 36.2721V21.2193C3.18642 20.5293 3.74472 19.9649 4.42709 19.9649ZM4.42709 17.4561C2.36448 17.4561 0.705078 19.1338 0.705078 21.2193V36.2721C0.705078 38.3575 2.36448 40.0353 4.42709 40.0353C6.48971 40.0353 8.14911 38.3575 8.14911 36.2721V21.2193C8.14911 19.1338 6.48971 17.4561 4.42709 17.4561Z" fill="url(#paint2_linear_414_575)"/>
<path d="M27.8449 4.64558H27.9845C30.1867 4.64558 32.2183 4.9435 34.0018 5.52366L35.5526 6.21358C40.0035 8.18926 41.7404 12.0779 42.4383 14.9473H13.5462C14.2286 12.0309 15.9655 8.11086 20.3854 6.16654L21.9828 5.46094C23.7352 4.92782 25.7048 4.64558 27.8449 4.64558ZM17.0511 -0.105469C16.9735 -0.105469 16.865 -0.0741082 16.7719 0.0199719C16.6013 0.145412 16.5083 0.302212 16.5703 0.411972L19.4084 3.87726C11.9333 7.15438 10.8167 15.1198 10.6616 17.4718H45.3384C45.1678 15.1198 44.0667 7.26414 36.5606 3.9243L39.4297 0.443332C39.4917 0.364932 39.3987 0.176772 39.2281 0.0356517C39.1195 -0.0427484 38.9955 -0.089789 38.9179 -0.089789C38.8714 -0.089789 38.8404 -0.0741085 38.8094 -0.0427484L35.8317 3.51662C33.7226 2.66989 31.1482 2.13677 27.9845 2.13677C27.938 2.13677 27.8914 2.13677 27.8294 2.13677C24.7277 2.13677 22.1844 2.65421 20.1062 3.46958L17.1596 -0.0584282C17.1596 -0.0897883 17.1131 -0.105469 17.0511 -0.105469Z" fill="url(#paint3_linear_414_575)"/>
<path d="M20.3388 11.6387C19.1911 11.6387 18.2451 10.6979 18.2451 9.55321C18.2451 8.40857 19.1756 7.46777 20.3388 7.46777C21.4864 7.46777 22.4324 8.40857 22.4324 9.55321C22.4324 10.6979 21.5019 11.6387 20.3388 11.6387Z" fill="url(#paint4_linear_414_575)"/>
<path d="M35.599 11.6387C34.4514 11.6387 33.5054 10.6979 33.5054 9.55321C33.5054 8.40857 34.4359 7.46777 35.599 7.46777C36.7466 7.46777 37.6926 8.40857 37.6926 9.55321C37.6926 10.6979 36.7466 11.6387 35.599 11.6387Z" fill="url(#paint5_linear_414_575)"/>
</g>
<defs>
<linearGradient id="paint0_linear_414_575" x1="10.6304" y1="39.7062" x2="44.5057" y2="39.7062" gradientUnits="userSpaceOnUse">
<stop stop-color="#3669CD"/>
<stop offset="0.484375" stop-color="#8D3BDE"/>
<stop offset="1" stop-color="#EA5FAB"/>
</linearGradient>
<linearGradient id="paint1_linear_414_575" x1="47.8506" y1="28.5606" x2="55.1063" y2="28.5606" gradientUnits="userSpaceOnUse">
<stop stop-color="#3669CD"/>
<stop offset="0.484375" stop-color="#8D3BDE"/>
<stop offset="1" stop-color="#EA5FAB"/>
</linearGradient>
<linearGradient id="paint2_linear_414_575" x1="0.705078" y1="28.5606" x2="7.96084" y2="28.5606" gradientUnits="userSpaceOnUse">
<stop stop-color="#3669CD"/>
<stop offset="0.484375" stop-color="#8D3BDE"/>
<stop offset="1" stop-color="#EA5FAB"/>
</linearGradient>
<linearGradient id="paint3_linear_414_575" x1="10.6616" y1="8.5391" x2="44.4614" y2="8.5391" gradientUnits="userSpaceOnUse">
<stop stop-color="#3669CD"/>
<stop offset="0.484375" stop-color="#8D3BDE"/>
<stop offset="1" stop-color="#EA5FAB"/>
</linearGradient>
<linearGradient id="paint4_linear_414_575" x1="18.2451" y1="9.51903" x2="22.3265" y2="9.51903" gradientUnits="userSpaceOnUse">
<stop stop-color="#3669CD"/>
<stop offset="0.484375" stop-color="#8D3BDE"/>
<stop offset="1" stop-color="#EA5FAB"/>
</linearGradient>
<linearGradient id="paint5_linear_414_575" x1="33.5054" y1="9.51903" x2="37.5867" y2="9.51903" gradientUnits="userSpaceOnUse">
<stop stop-color="#3669CD"/>
<stop offset="0.484375" stop-color="#8D3BDE"/>
<stop offset="1" stop-color="#EA5FAB"/>
</linearGradient>
<clipPath id="clip0_414_575">
<rect width="56" height="60" fill="white"/>
</clipPath>
</defs>
</svg>
