<svg width="59" height="60" viewBox="0 0 59 60" fill="none" xmlns="http://www.w3.org/2000/svg">
<g clip-path="url(#clip0_414_1292)">
<path fill-rule="evenodd" clip-rule="evenodd" d="M0.0927732 54.6409C0.0927733 57.4903 2.40035 59.8281 5.21332 59.8281L25.6942 59.8281C28.5071 59.8281 30.8147 57.4903 30.8147 54.6409L30.8147 32.5933C30.8147 31.5968 30.4255 30.6915 29.8071 29.9997C30.4255 29.308 30.8147 28.4027 30.8147 27.4061L30.8147 5.35849C30.8147 2.50911 28.5071 0.171286 25.6942 0.171286L5.21331 0.171287C2.40035 0.171287 0.0927709 2.50911 0.0927711 5.35849L0.092772 27.4061C0.0927721 28.4026 0.481947 29.308 1.10042 29.9997C0.481947 30.6914 0.0927722 31.5968 0.0927722 32.5933L0.0927732 54.6409ZM2.65283 54.6409L2.65282 32.5933C2.65282 31.8616 3.21086 31.2967 3.93307 31.2967L26.9749 31.2967C27.6971 31.2967 28.2551 31.8616 28.2551 32.5933L28.2551 54.6409C28.2551 56.0886 27.124 57.2345 25.6946 57.2345L5.21376 57.2345C3.7844 57.2345 2.73259 56.0865 2.65326 54.6409L2.65283 54.6409ZM2.65282 27.4066L2.65282 5.35894C2.73212 3.91341 3.78396 2.76533 5.21331 2.76533L25.6942 2.76533C27.1235 2.76533 28.2547 3.91129 28.2547 5.35894L28.2547 27.4066C28.2547 28.1382 27.6966 28.7031 26.9744 28.7031L3.93263 28.7031C3.21044 28.7031 2.65239 28.1382 2.65239 27.4066L2.65282 27.4066ZM5.21332 22.2189C5.21332 22.9067 5.4829 23.5667 5.96294 24.0531C6.44298 24.5394 7.0944 24.8125 7.77337 24.8125C8.45233 24.8125 9.10376 24.5394 9.58379 24.0531C10.0638 23.5667 10.3334 22.9068 10.3334 22.2189C10.3334 21.531 10.0638 20.8711 9.58379 20.3848C9.10376 19.8984 8.45233 19.6253 7.77337 19.6253C7.0944 19.6253 6.44298 19.8984 5.96294 20.3848C5.4829 20.8711 5.21332 21.531 5.21332 22.2189ZM5.21332 9.24978C5.21332 9.93802 5.4829 10.5976 5.96294 11.0839C6.44298 11.5703 7.0944 11.8438 7.77337 11.8438C8.45233 11.8438 9.10376 11.5703 9.58379 11.0839C10.0638 10.5976 10.3334 9.93798 10.3334 9.24978C10.3334 8.56197 10.0638 7.9024 9.58379 7.41608C9.10376 6.92932 8.45233 6.6562 7.77337 6.6562C7.0944 6.6562 6.44298 6.92932 5.96294 7.41608C5.4829 7.9024 5.21332 8.56203 5.21332 9.24978ZM7.77337 39.0786C7.77337 39.7665 8.04296 40.426 8.52342 40.9124C9.00346 41.3991 9.65456 41.6722 10.3334 41.6722C11.0127 41.6722 11.6638 41.3991 12.1438 40.9124C12.6239 40.426 12.8939 39.7664 12.8939 39.0786C12.8939 38.3904 12.6239 37.7308 12.1438 37.2445C11.6638 36.7582 11.0127 36.4846 10.3334 36.4846C9.6545 36.4846 9.00346 36.7582 8.52342 37.2445C8.04296 37.7308 7.77337 38.3904 7.77337 39.0786ZM12.8939 22.2189C12.8939 22.9067 13.1635 23.5667 13.6435 24.0531C14.1236 24.5394 14.775 24.8125 15.454 24.8125C16.1329 24.8125 16.7844 24.5394 17.2644 24.0531C17.7444 23.5667 18.014 22.9068 18.014 22.2189C18.014 21.531 17.7444 20.8711 17.2644 20.3848C16.7844 19.8984 16.1329 19.6253 15.454 19.6253C14.775 19.6253 14.1236 19.8984 13.6435 20.3848C13.1635 20.8711 12.8939 21.531 12.8939 22.2189ZM12.8939 9.24978C12.8939 9.93802 13.1635 10.5976 13.6435 11.0839C14.1236 11.5703 14.775 11.8438 15.454 11.8438C16.1329 11.8438 16.7844 11.5703 17.2644 11.0839C17.7444 10.5976 18.014 9.93798 18.014 9.24978C18.014 8.56197 17.7444 7.9024 17.2644 7.41608C16.7844 6.92932 16.1329 6.6562 15.454 6.6562C14.775 6.6562 14.1236 6.92932 13.6435 7.41608C13.1635 7.9024 12.8939 8.56203 12.8939 9.24978ZM18.014 49.4533C18.014 50.1411 18.284 50.8011 18.7641 51.2874C19.2441 51.7738 19.8952 52.0469 20.5745 52.0469C21.2534 52.0469 21.9045 51.7738 22.3845 51.2874C22.865 50.8011 23.1345 50.1411 23.1345 49.4533C23.1345 48.7654 22.865 48.1054 22.3845 47.6191C21.9045 47.1328 21.2534 46.8597 20.5745 46.8597C19.8952 46.8597 19.2441 47.1328 18.7641 47.6191C18.284 48.1054 18.014 48.7654 18.014 49.4533ZM20.5745 22.2189C20.5745 22.9067 20.8441 23.5667 21.3241 24.0531C21.8042 24.5394 22.4556 24.8125 23.1346 24.8125C23.8135 24.8125 24.465 24.5394 24.945 24.0531C25.425 23.5667 25.6946 22.9068 25.6946 22.2189C25.6946 21.531 25.425 20.8711 24.945 20.3848C24.465 19.8984 23.8135 19.6253 23.1346 19.6253C22.4556 19.6253 21.8042 19.8984 21.3241 20.3848C20.8441 20.8711 20.5745 21.531 20.5745 22.2189ZM20.5745 9.24978C20.5745 9.93802 20.8441 10.5976 21.3241 11.0839C21.8042 11.5703 22.4556 11.8438 23.1346 11.8438C23.8135 11.8438 24.465 11.5703 24.945 11.0839C25.425 10.5976 25.6946 9.93798 25.6946 9.24978C25.6946 8.56197 25.425 7.9024 24.945 7.41608C24.465 6.92932 23.8135 6.6562 23.1346 6.6562C22.4556 6.6562 21.8042 6.92932 21.3241 7.41608C20.8441 7.9024 20.5745 8.56203 20.5745 9.24978Z" fill="url(#paint0_linear_414_1292)"/>
</g>
<g clip-path="url(#clip1_414_1292)">
<path fill-rule="evenodd" clip-rule="evenodd" d="M28.5 54.6409C28.5 57.4903 30.4002 59.8281 33.2131 59.8281L53.694 59.8281C56.507 59.8281 58.8145 57.4903 58.8145 54.6409L58.8145 32.5933C58.8145 31.5968 58.4254 30.6915 57.8069 29.9997C58.4254 29.308 58.8145 28.4027 58.8145 27.4061L58.8145 5.35849C58.8145 2.50911 56.507 0.171286 53.694 0.171286L33.2131 0.171287C30.4002 0.171287 28.5001 2.50911 28.5001 5.35849L28.5001 27.4061C28.5001 28.4026 28.4818 29.308 29.1002 29.9997C28.4818 30.6914 28.5 31.5968 28.5 32.5933L28.5 54.6409ZM30.5 54.6409L30.5 32.5933C30.5 31.8616 31.2107 31.2967 31.9329 31.2967L54.9747 31.2967C55.6969 31.2967 56.2549 31.8616 56.2549 32.5933L56.2549 54.6409C56.2549 56.0886 55.1238 57.2345 53.6944 57.2345L33.2136 57.2345C31.7842 57.2345 30.5793 56.0865 30.5 54.6409ZM30.6526 27.4066L30.6526 5.35894C30.7319 3.91341 31.7838 2.76533 33.2131 2.76533L53.694 2.76533C55.1233 2.76533 56.2545 3.91129 56.2545 5.35894L56.2545 27.4066C56.2545 28.1382 55.6964 28.7031 54.9742 28.7031L31.9324 28.7031C31.2102 28.7031 30.6526 28.1382 30.6526 27.4066ZM33.2131 22.2189C33.2131 22.9067 33.4827 23.5667 33.9628 24.0531C34.4428 24.5394 35.0942 24.8125 35.7732 24.8125C36.4521 24.8125 37.1036 24.5394 37.5836 24.0531C38.0636 23.5667 38.3332 22.9068 38.3332 22.2189C38.3332 21.531 38.0636 20.8711 37.5836 20.3848C37.1036 19.8984 36.4521 19.6253 35.7732 19.6253C35.0942 19.6253 34.4428 19.8984 33.9628 20.3848C33.4827 20.8711 33.2131 21.531 33.2131 22.2189ZM33.2131 9.24978C33.2131 9.93802 33.4827 10.5976 33.9628 11.0839C34.4428 11.5703 35.0942 11.8438 35.7732 11.8438C36.4521 11.8438 37.1036 11.5703 37.5836 11.0839C38.0636 10.5976 38.3332 9.93798 38.3332 9.24978C38.3332 8.56198 38.0636 7.9024 37.5836 7.41608C37.1036 6.92931 36.4521 6.6562 35.7732 6.6562C35.0942 6.6562 34.4428 6.92931 33.9628 7.41608C33.4827 7.9024 33.2131 8.56203 33.2131 9.24978ZM35.7732 39.0786C35.7732 39.7665 36.0428 40.426 36.5232 40.9124C37.0033 41.3991 37.6544 41.6722 38.3332 41.6722C39.0126 41.6722 39.6636 41.3991 40.1436 40.9124C40.6237 40.426 40.8937 39.7664 40.8937 39.0786C40.8937 38.3904 40.6237 37.7308 40.1436 37.2445C39.6636 36.7582 39.0125 36.4846 38.3332 36.4846C37.6543 36.4846 37.0033 36.7582 36.5232 37.2445C36.0428 37.7308 35.7732 38.3904 35.7732 39.0786ZM40.8937 22.2189C40.8937 22.9067 41.1633 23.5667 41.6434 24.0531C42.1234 24.5394 42.7748 24.8125 43.4538 24.8125C44.1327 24.8125 44.7842 24.5394 45.2642 24.0531C45.7442 23.5667 46.0138 22.9068 46.0138 22.2189C46.0138 21.531 45.7442 20.8711 45.2642 20.3848C44.7842 19.8984 44.1327 19.6253 43.4538 19.6253C42.7748 19.6253 42.1234 19.8984 41.6434 20.3848C41.1633 20.8711 40.8937 21.531 40.8937 22.2189ZM40.8937 9.24978C40.8937 9.93802 41.1633 10.5976 41.6434 11.0839C42.1234 11.5703 42.7748 11.8438 43.4538 11.8438C44.1327 11.8438 44.7842 11.5703 45.2642 11.0839C45.7442 10.5976 46.0138 9.93798 46.0138 9.24978C46.0138 8.56198 45.7442 7.9024 45.2642 7.41608C44.7842 6.92931 44.1327 6.6562 43.4538 6.6562C42.7748 6.6562 42.1234 6.92931 41.6434 7.41608C41.1633 7.9024 40.8937 8.56203 40.8937 9.24978ZM46.0138 49.4533C46.0138 50.1411 46.2838 50.8011 46.7639 51.2874C47.2439 51.7738 47.895 52.0469 48.5743 52.0469C49.2532 52.0469 49.9043 51.7738 50.3843 51.2874C50.8648 50.8011 51.1344 50.1411 51.1344 49.4533C51.1344 48.7654 50.8648 48.1054 50.3843 47.6191C49.9043 47.1328 49.2532 46.8597 48.5743 46.8597C47.895 46.8597 47.2439 47.1328 46.7639 47.6191C46.2838 48.1054 46.0138 48.7654 46.0138 49.4533ZM48.5743 22.2189C48.5743 22.9067 48.8439 23.5667 49.3239 24.0531C49.804 24.5394 50.4554 24.8125 51.1344 24.8125C51.8133 24.8125 52.4648 24.5394 52.9448 24.0531C53.4248 23.5667 53.6944 22.9068 53.6944 22.2189C53.6944 21.531 53.4248 20.8711 52.9448 20.3848C52.4648 19.8984 51.8133 19.6253 51.1344 19.6253C50.4554 19.6253 49.804 19.8984 49.3239 20.3848C48.8439 20.8711 48.5743 21.531 48.5743 22.2189ZM48.5743 9.24978C48.5743 9.93802 48.8439 10.5976 49.3239 11.0839C49.804 11.5703 50.4554 11.8438 51.1344 11.8438C51.8133 11.8438 52.4648 11.5703 52.9448 11.0839C53.4248 10.5976 53.6944 9.93798 53.6944 9.24978C53.6944 8.56198 53.4248 7.9024 52.9448 7.41608C52.4648 6.92931 51.8133 6.6562 51.1344 6.6562C50.4554 6.6562 49.804 6.92931 49.3239 7.41608C48.8439 7.9024 48.5743 8.56203 48.5743 9.24978Z" fill="url(#paint1_linear_414_1292)"/>
</g>
<defs>
<linearGradient id="paint0_linear_414_1292" x1="15.2019" y1="59.8281" x2="15.2019" y2="1.68011" gradientUnits="userSpaceOnUse">
<stop stop-color="#3669CD"/>
<stop offset="0.484375" stop-color="#8D3BDE"/>
<stop offset="1" stop-color="#EA5FAB"/>
</linearGradient>
<linearGradient id="paint1_linear_414_1292" x1="43.4088" y1="59.8281" x2="43.4088" y2="1.68011" gradientUnits="userSpaceOnUse">
<stop stop-color="#3669CD"/>
<stop offset="0.484375" stop-color="#8D3BDE"/>
<stop offset="1" stop-color="#EA5FAB"/>
</linearGradient>
<clipPath id="clip0_414_1292">
<rect width="60" height="31" fill="white" transform="translate(0 60) rotate(-90)"/>
</clipPath>
<clipPath id="clip1_414_1292">
<rect width="60" height="31" fill="white" transform="translate(28 60) rotate(-90)"/>
</clipPath>
</defs>
</svg>
