<svg width="61" height="62" viewBox="0 0 61 62" fill="none" xmlns="http://www.w3.org/2000/svg">
<path d="M30.976 33.4312C30.8479 32.9191 31.0398 32.4714 31.4242 32.1513L36.6081 27.6714C37.5041 26.9036 37.0563 25.4312 35.8402 25.3674L28.992 24.7915C28.48 24.7277 28.096 24.4714 27.9041 23.9594L25.28 17.6871C24.8317 16.5991 23.2961 16.5991 22.8478 17.6871L20.1598 24.0232C19.9679 24.4714 19.5197 24.791 19.0719 24.8553L12.2237 25.4312C11.0719 25.495 10.5598 26.9673 11.4558 27.7352L16.6397 32.2151C17.0236 32.5352 17.1517 33.0472 17.0879 33.495L15.4879 40.1507C15.2321 41.3025 16.4477 42.199 17.4718 41.5587L23.2959 37.9748C23.7441 37.719 24.2557 37.719 24.6401 37.9748L30.4642 41.5587C31.4884 42.1989 32.7045 41.2386 32.4481 40.1507L30.976 33.4312Z" fill="url(#paint0_linear_414_670)"/>
<path d="M49.4076 35.2232L47.3594 35.0312C47.2313 35.0312 47.1036 34.9031 47.0393 34.7754L46.2715 32.8553C46.1433 32.5352 45.6956 32.5352 45.5674 32.8553L44.7996 34.7754C44.7357 34.9035 44.6076 35.0312 44.4795 35.0312L42.4313 35.2232C42.1112 35.2232 41.9192 35.6714 42.1754 35.9272L43.7116 37.2714C43.8397 37.3996 43.9035 37.5272 43.8397 37.6554L43.3915 39.6393C43.3276 39.9593 43.7116 40.2794 43.9674 40.0875L45.6955 38.9995C45.8236 38.9357 45.9513 38.9357 46.0794 38.9995L47.8075 40.0875C48.1276 40.2794 48.4477 40.0236 48.3834 39.6393L47.9352 37.6554C47.8714 37.5272 47.9352 37.3353 48.0633 37.2714L49.5994 35.9272C49.8553 35.671 49.7276 35.287 49.4075 35.2232H49.4076Z" fill="url(#paint1_linear_414_670)"/>
<path d="M41.7282 45.7837C41.6001 45.7199 41.5362 45.5279 41.6001 45.3998L41.984 43.4159C42.0478 43.0958 41.6639 42.84 41.3438 43.032L39.6799 44.1837C39.5518 44.2476 39.4241 44.2476 39.296 44.1837L37.4402 43.2239C37.1201 43.032 36.8 43.352 36.8643 43.6721L37.4402 45.656C37.5041 45.7842 37.4402 45.9761 37.3121 46.04L35.8402 47.448C35.5844 47.7038 35.7764 48.0881 36.096 48.152L38.1442 48.2158C38.2724 48.2158 38.4 48.2797 38.4643 48.4078L39.3603 50.2636C39.4884 50.5837 40.0005 50.5837 40.0643 50.1997L40.7684 48.2796C40.8322 48.1515 40.9603 48.0238 41.0884 48.0238L43.1367 47.768C43.4568 47.7042 43.5849 47.2559 43.3286 47.064L41.7282 45.7837Z" fill="url(#paint2_linear_414_670)"/>
<path d="M43.9038 24.28C43.9038 24.4082 43.9038 24.6001 43.7757 24.664L42.1757 25.9439C41.9199 26.1358 42.0476 26.584 42.3676 26.6479L44.4159 26.9037C44.544 26.9037 44.6717 27.0318 44.736 27.1595L45.44 29.0796C45.5681 29.3997 46.0159 29.4635 46.144 29.1434L47.04 27.2877C47.1038 27.1595 47.232 27.0957 47.3601 27.0957L49.4083 27.0319C49.7284 27.0319 49.9204 26.5836 49.6641 26.3278L48.1923 24.9198C48.0641 24.7917 48.0641 24.664 48.0641 24.5359L48.64 22.552C48.7682 22.2319 48.3842 21.9118 48.0641 22.1038L46.2721 23.0636C46.144 23.1275 45.952 23.1275 45.8882 23.0636L44.2243 21.9118C43.9042 21.7199 43.5203 21.9757 43.5841 22.2958L43.9038 24.28Z" fill="url(#paint3_linear_414_670)"/>
<path d="M37.4401 15.8319C37.5682 15.96 37.5682 16.0877 37.504 16.2158L36.7999 18.1359C36.6718 18.456 37.0557 18.7761 37.312 18.648L39.1678 17.752C39.2959 17.6882 39.4878 17.6882 39.5517 17.8158L41.1517 19.0319C41.4075 19.2239 41.8557 19.0319 41.7919 18.648L41.5361 16.5998C41.5361 16.4717 41.5999 16.2797 41.728 16.2159L43.3919 15.0641C43.712 14.8721 43.5839 14.4239 43.2638 14.3601L41.2799 13.9761C41.1518 13.9761 41.0241 13.848 40.9598 13.7203L40.4482 11.7998C40.3201 11.4797 39.8723 11.4158 39.7442 11.7359L38.7844 13.5279C38.7201 13.6556 38.5281 13.7199 38.4 13.7199H36.3518C36.0317 13.7199 35.8397 14.1038 36.0317 14.3601L37.4401 15.8319Z" fill="url(#paint4_linear_414_670)"/>
<path d="M13.12 0.949609H47.68C54.7187 0.949609 60.45 6.6808 60.45 13.7196V48.2796C60.45 55.3183 54.7188 61.0496 47.68 61.0496H13.12C6.0813 61.0496 0.35 55.3184 0.35 48.2796V13.7196C0.35 6.68091 6.08119 0.949609 13.12 0.949609ZM47.68 57.3336C52.6733 57.3336 56.734 53.2729 56.734 48.2796V13.7196C56.734 8.72631 52.6733 4.66561 47.68 4.66561H13.12C8.1267 4.66561 4.066 8.72631 4.066 13.7196V48.2796C4.066 53.2729 8.1267 57.3336 13.12 57.3336H47.68Z" fill="url(#paint5_linear_414_670)" stroke="white" stroke-width="0.7"/>
<path d="M30.976 33.4312C30.8479 32.9191 31.0398 32.4714 31.4242 32.1513L36.6081 27.6714C37.5041 26.9036 37.0563 25.4312 35.8402 25.3674L28.992 24.7915C28.48 24.7277 28.096 24.4714 27.9041 23.9594L25.28 17.6871C24.8317 16.5991 23.2961 16.5991 22.8478 17.6871L20.1598 24.0232C19.9679 24.4714 19.5197 24.791 19.0719 24.8553L12.2237 25.4312C11.0719 25.495 10.5598 26.9673 11.4558 27.7352L16.6397 32.2151C17.0236 32.5352 17.1517 33.0472 17.0879 33.495L15.4879 40.1507C15.2321 41.3025 16.4477 42.199 17.4718 41.5587L23.2959 37.9748C23.7441 37.719 24.2557 37.719 24.6401 37.9748L30.4642 41.5587C31.4884 42.1989 32.7045 41.2386 32.4481 40.1507L30.976 33.4312Z" fill="url(#paint6_linear_414_670)"/>
<path d="M49.4076 35.2232L47.3594 35.0312C47.2313 35.0312 47.1036 34.9031 47.0393 34.7754L46.2715 32.8553C46.1433 32.5352 45.6956 32.5352 45.5674 32.8553L44.7996 34.7754C44.7357 34.9035 44.6076 35.0312 44.4795 35.0312L42.4313 35.2232C42.1112 35.2232 41.9192 35.6714 42.1754 35.9272L43.7116 37.2714C43.8397 37.3996 43.9035 37.5272 43.8397 37.6554L43.3915 39.6393C43.3276 39.9593 43.7116 40.2794 43.9674 40.0875L45.6955 38.9995C45.8236 38.9357 45.9513 38.9357 46.0794 38.9995L47.8075 40.0875C48.1276 40.2794 48.4477 40.0236 48.3834 39.6393L47.9352 37.6554C47.8714 37.5272 47.9352 37.3353 48.0633 37.2714L49.5994 35.9272C49.8553 35.671 49.7276 35.287 49.4075 35.2232H49.4076Z" fill="url(#paint7_linear_414_670)"/>
<path d="M41.7282 45.7837C41.6001 45.7199 41.5362 45.5279 41.6001 45.3998L41.984 43.4159C42.0478 43.0958 41.6639 42.84 41.3438 43.032L39.6799 44.1837C39.5518 44.2476 39.4241 44.2476 39.296 44.1837L37.4402 43.2239C37.1201 43.032 36.8 43.352 36.8643 43.6721L37.4402 45.656C37.5041 45.7842 37.4402 45.9761 37.3121 46.04L35.8402 47.448C35.5844 47.7038 35.7764 48.0881 36.096 48.152L38.1442 48.2158C38.2724 48.2158 38.4 48.2797 38.4643 48.4078L39.3603 50.2636C39.4884 50.5837 40.0005 50.5837 40.0643 50.1997L40.7684 48.2796C40.8322 48.1515 40.9603 48.0238 41.0884 48.0238L43.1367 47.768C43.4568 47.7042 43.5849 47.2559 43.3286 47.064L41.7282 45.7837Z" fill="url(#paint8_linear_414_670)"/>
<path d="M43.9038 24.28C43.9038 24.4082 43.9038 24.6001 43.7757 24.664L42.1757 25.9439C41.9199 26.1358 42.0476 26.584 42.3676 26.6479L44.4159 26.9037C44.544 26.9037 44.6717 27.0318 44.736 27.1595L45.44 29.0796C45.5681 29.3997 46.0159 29.4635 46.144 29.1434L47.04 27.2877C47.1038 27.1595 47.232 27.0957 47.3601 27.0957L49.4083 27.0319C49.7284 27.0319 49.9204 26.5836 49.6641 26.3278L48.1923 24.9198C48.0641 24.7917 48.0641 24.664 48.0641 24.5359L48.64 22.552C48.7682 22.2319 48.3842 21.9118 48.0641 22.1038L46.2721 23.0636C46.144 23.1275 45.952 23.1275 45.8882 23.0636L44.2243 21.9118C43.9042 21.7199 43.5203 21.9757 43.5841 22.2958L43.9038 24.28Z" fill="url(#paint9_linear_414_670)"/>
<path d="M37.4401 15.8319C37.5682 15.96 37.5682 16.0877 37.504 16.2158L36.7999 18.1359C36.6718 18.456 37.0557 18.7761 37.312 18.648L39.1678 17.752C39.2959 17.6882 39.4878 17.6882 39.5517 17.8158L41.1517 19.0319C41.4075 19.2239 41.8557 19.0319 41.7919 18.648L41.5361 16.5998C41.5361 16.4717 41.5999 16.2797 41.728 16.2159L43.3919 15.0641C43.712 14.8721 43.5839 14.4239 43.2638 14.3601L41.2799 13.9761C41.1518 13.9761 41.0241 13.848 40.9598 13.7203L40.4482 11.7998C40.3201 11.4797 39.8723 11.4158 39.7442 11.7359L38.7844 13.5279C38.7201 13.6556 38.5281 13.7199 38.4 13.7199H36.3518C36.0317 13.7199 35.8397 14.1038 36.0317 14.3601L37.4401 15.8319Z" fill="url(#paint10_linear_414_670)"/>
<path d="M13.12 0.999609H47.68C54.6911 0.999609 60.4 6.70841 60.4 13.7196V48.2796C60.4 55.2907 54.6912 60.9996 47.68 60.9996H13.12C6.10891 60.9996 0.4 55.2908 0.4 48.2796V13.7196C0.4 6.70852 6.1088 0.999609 13.12 0.999609ZM47.68 57.3836C52.7009 57.3836 56.784 53.3005 56.784 48.2796V13.7196C56.784 8.6987 52.7009 4.61561 47.68 4.61561H13.12C8.09909 4.61561 4.016 8.6987 4.016 13.7196V48.2796C4.016 53.3005 8.09909 57.3836 13.12 57.3836H47.68Z" fill="url(#paint11_linear_414_670)" stroke="white" stroke-width="0.8"/>
<defs>
<linearGradient id="paint0_linear_414_670" x1="10.9995" y1="29.1175" x2="36.4205" y2="29.1175" gradientUnits="userSpaceOnUse">
<stop stop-color="#3669CD"/>
<stop offset="0.484375" stop-color="#8D3BDE"/>
<stop offset="1" stop-color="#EA5FAB"/>
</linearGradient>
<linearGradient id="paint1_linear_414_670" x1="42.0566" y1="36.3222" x2="49.5414" y2="36.3222" gradientUnits="userSpaceOnUse">
<stop stop-color="#3669CD"/>
<stop offset="0.484375" stop-color="#8D3BDE"/>
<stop offset="1" stop-color="#EA5FAB"/>
</linearGradient>
<linearGradient id="paint2_linear_414_670" x1="35.7217" y1="46.6693" x2="43.2691" y2="46.6693" gradientUnits="userSpaceOnUse">
<stop stop-color="#3669CD"/>
<stop offset="0.484375" stop-color="#8D3BDE"/>
<stop offset="1" stop-color="#EA5FAB"/>
</linearGradient>
<linearGradient id="paint3_linear_414_670" x1="42.0396" y1="25.5383" x2="49.5871" y2="25.5383" gradientUnits="userSpaceOnUse">
<stop stop-color="#3669CD"/>
<stop offset="0.484375" stop-color="#8D3BDE"/>
<stop offset="1" stop-color="#EA5FAB"/>
</linearGradient>
<linearGradient id="paint4_linear_414_670" x1="35.9551" y1="15.2542" x2="43.3845" y2="15.2542" gradientUnits="userSpaceOnUse">
<stop stop-color="#3669CD"/>
<stop offset="0.484375" stop-color="#8D3BDE"/>
<stop offset="1" stop-color="#EA5FAB"/>
</linearGradient>
<linearGradient id="paint5_linear_414_670" x1="0" y1="30.5012" x2="59.2623" y2="30.5012" gradientUnits="userSpaceOnUse">
<stop stop-color="#3669CD"/>
<stop offset="0.484375" stop-color="#8D3BDE"/>
<stop offset="1" stop-color="#EA5FAB"/>
</linearGradient>
<linearGradient id="paint6_linear_414_670" x1="10.9995" y1="29.1175" x2="36.4205" y2="29.1175" gradientUnits="userSpaceOnUse">
<stop stop-color="#3669CD"/>
<stop offset="0.484375" stop-color="#8D3BDE"/>
<stop offset="1" stop-color="#EA5FAB"/>
</linearGradient>
<linearGradient id="paint7_linear_414_670" x1="42.0566" y1="36.3222" x2="49.5414" y2="36.3222" gradientUnits="userSpaceOnUse">
<stop stop-color="#3669CD"/>
<stop offset="0.484375" stop-color="#8D3BDE"/>
<stop offset="1" stop-color="#EA5FAB"/>
</linearGradient>
<linearGradient id="paint8_linear_414_670" x1="35.7217" y1="46.6693" x2="43.2691" y2="46.6693" gradientUnits="userSpaceOnUse">
<stop stop-color="#3669CD"/>
<stop offset="0.484375" stop-color="#8D3BDE"/>
<stop offset="1" stop-color="#EA5FAB"/>
</linearGradient>
<linearGradient id="paint9_linear_414_670" x1="42.0396" y1="25.5383" x2="49.5871" y2="25.5383" gradientUnits="userSpaceOnUse">
<stop stop-color="#3669CD"/>
<stop offset="0.484375" stop-color="#8D3BDE"/>
<stop offset="1" stop-color="#EA5FAB"/>
</linearGradient>
<linearGradient id="paint10_linear_414_670" x1="35.9551" y1="15.2542" x2="43.3845" y2="15.2542" gradientUnits="userSpaceOnUse">
<stop stop-color="#3669CD"/>
<stop offset="0.484375" stop-color="#8D3BDE"/>
<stop offset="1" stop-color="#EA5FAB"/>
</linearGradient>
<linearGradient id="paint11_linear_414_670" x1="0" y1="30.5012" x2="59.2623" y2="30.5012" gradientUnits="userSpaceOnUse">
<stop stop-color="#3669CD"/>
<stop offset="0.484375" stop-color="#8D3BDE"/>
<stop offset="1" stop-color="#EA5FAB"/>
</linearGradient>
</defs>
</svg>
