<svg width="100" height="105" viewBox="0 0 100 105" fill="none" xmlns="http://www.w3.org/2000/svg">
<path d="M46.2328 87.6158L47.1068 86.1956C48.1201 86.8148 49.1785 87.357 50.273 87.8174L49.6414 89.2829C48.473 88.7956 47.3347 88.2389 46.2328 87.6158ZM53.1667 90.5461L53.5802 89.0152C54.7263 89.3251 55.8918 89.5587 57.0689 89.7143L56.8635 91.2984C55.6 91.1541 54.3479 90.9236 53.1159 90.6086L53.1667 90.5461ZM60.6185 91.5517L60.634 89.9608C61.8216 89.968 63.0084 89.8964 64.1865 89.7464L64.3853 91.3238C63.1399 91.4885 61.8848 91.5686 60.6286 91.5638L60.6185 91.5517ZM68.0607 90.6388L67.6676 89.0991C68.8156 88.8012 69.9415 88.4241 71.0372 87.9704L71.6789 89.4886C70.5128 89.9537 69.3152 90.3353 68.095 90.6308L68.0607 90.6388ZM75.0263 87.7635L74.2143 86.3861C74.5427 86.1143 74.9637 85.9298 75.3345 85.6844C75.9443 85.2822 76.5361 84.8334 77.1178 84.3724L78.1245 85.5887C77.5001 86.1055 76.8618 86.5723 76.2094 86.9892C75.8588 87.2589 75.4537 87.5122 75.0607 87.7555L75.0263 87.7635ZM79.6632 81.8764C80.4735 81.007 81.2204 80.0806 81.8982 79.1044L83.2211 80.0589C82.4959 81.0873 81.7067 82.0691 80.8582 82.9983L79.6632 81.8764ZM54.615 46.5352C53.9424 45.6996 53.4992 44.7032 53.3289 43.6442L55.054 43.4256C55.188 44.4488 55.6997 45.3849 56.4885 46.0503L55.5037 47.3367C55.2027 47.1168 54.9293 46.8613 54.6896 46.5759L54.615 46.5352ZM59.4752 48.1485L59.3108 46.5631C60.2841 46.4346 61.1991 46.0262 61.9447 45.3874L62.1271 45.2365L63.1946 46.4024L62.9513 46.6037C61.9792 47.4182 60.794 47.9369 59.536 48.0982L59.4752 48.1485ZM83.7679 76.1634C84.3062 75.1158 84.7823 74.0374 85.1938 72.9338L86.6778 73.4887C86.2448 74.6673 85.7393 75.818 85.1642 76.9342L83.7679 76.1634ZM54.1106 39.6362C54.1783 39.5385 54.2508 39.4443 54.3279 39.3539C54.6534 38.9343 55.0242 38.5519 55.4334 38.2135C56.0081 37.7432 56.6447 37.3543 57.3254 37.0575L57.9915 38.5556C57.4497 38.7961 56.9417 39.1063 56.4803 39.4784C56.1757 39.7344 55.8971 40.0198 55.6486 40.3307C55.6486 40.3307 55.5392 40.4213 55.4784 40.4716L54.1106 39.6362ZM34.6404 9.47462L35.5446 8.09094L38.645 10.0541L37.7408 11.4378L34.6404 9.47462ZM86.1655 69.5268C86.4327 68.3701 86.6184 67.1961 86.7212 66.0134L88.3217 66.1643C88.1941 67.4119 87.9948 68.6511 87.725 69.8758L86.1655 69.5268ZM63.8987 42.6226C64.1482 42.0098 64.3037 41.3629 64.36 40.7037C64.4002 40.2599 64.401 39.8135 64.3625 39.3696L65.9537 39.2617C65.9928 39.7805 65.9924 40.3015 65.9525 40.8203C65.8867 41.6383 65.6937 42.4411 65.3805 43.1997L63.8987 42.6226ZM40.756 13.4715L41.6804 12.1122C42.7051 12.7807 43.7276 13.4714 44.7279 14.1601L43.7935 15.5073L40.756 13.4715ZM61.1371 37.8992L61.0293 36.3079C62.2226 36.2343 63.4205 36.2871 64.6027 36.4655L64.8573 36.5007L64.6074 38.0807L64.375 38.0475C63.3605 37.8507 62.3286 37.7571 61.2952 37.7683L61.1371 37.8992ZM46.7559 17.6257L47.7206 16.315C48.7167 17.0481 49.6885 17.8013 50.6482 18.5647L49.6433 19.8267C48.8518 18.9447 47.8779 18.2137 46.914 17.4948L46.7559 17.6257ZM63.5651 36.0536C63.1327 34.964 62.5967 33.9183 61.9645 32.9311L63.3116 32.0826C64.0063 33.1519 64.5903 34.289 65.0548 35.4765L63.5651 36.0536ZM52.4291 22.1527L53.4843 20.9515C54.4176 21.7572 55.3365 22.5951 56.219 23.4633L55.1034 24.5916C54.3748 23.637 53.4982 22.8255 52.5872 22.0219L52.4291 22.1527ZM86.7613 62.4961C86.7058 61.3165 86.5693 60.1422 86.3527 58.9814L87.9184 58.6693C88.1488 59.9049 88.2932 61.1549 88.3505 62.4105L86.7613 62.4961ZM57.5688 27.2238L58.7851 26.2172C59.5703 27.1659 60.3655 28.1267 61.1608 29.0876L59.9445 30.0942C59.3157 28.9136 58.5507 27.9892 57.7491 27.095L57.5688 27.2238ZM68.0412 38.8867L68.5214 37.3621C69.7206 37.7393 70.8952 38.1909 72.0382 38.7142L71.3622 40.1755C70.3393 39.6093 69.2761 39.1193 68.1813 38.7093L68.0412 38.8867ZM85.5176 55.4713C85.1286 54.3512 84.6579 53.2612 84.1095 52.2099L85.5372 51.4587C86.1164 52.5802 86.6177 53.7402 87.0375 54.9306L85.5176 55.4713ZM74.5951 41.8036L75.5094 40.4321C76.5635 41.1104 77.5719 41.8573 78.528 42.6679L77.4929 43.8935C76.5918 43.1229 75.6443 42.4082 74.6559 41.7532L74.5951 41.8036ZM82.2661 49.1654C81.5695 48.1997 80.8095 47.2814 79.991 46.4166L81.157 45.3492C82.025 46.2615 82.8288 47.2328 83.5629 48.2561L82.2661 49.1654Z" fill="white"/>
<path d="M48.3825 95.0175L49.8781 94.497L47.2813 87.0754L54.8648 85.0209L54.4495 83.4791L45.1968 85.993L48.3825 95.0175Z" fill="white"/>
</svg>
