<svg width="20" height="20" viewBox="0 0 20 20" fill="none" xmlns="http://www.w3.org/2000/svg">
<path d="M14.1475 13.8062C13.8714 13.5332 13.5007 13.4086 13.1316 13.4278L13.1331 13.4266C11.4808 13.4965 10.9571 14.7882 10.8395 15.1635C5.40257 13.3961 4.90394 9.26015 4.90394 9.26015L5.95704 7.79384L4.90394 9.26015C5.98004 8.82076 6.39603 8.0272 6.55747 7.46353C6.64344 7.25585 6.67771 7.03339 6.65922 6.81618V6.82021V6.81618C6.63367 6.5139 6.50698 6.22207 6.27838 5.99454L3.62423 3.35899C3.09685 2.83546 2.22078 2.85142 1.67282 3.39539L0.924673 4.14228L0.944963 4.16242C0.694125 4.48021 0.48461 4.84663 0.328479 5.24187C0.184648 5.61814 0.0950747 5.97695 0.0541951 6.33667C-0.296138 9.22136 1.03154 11.8573 4.63502 15.4345C9.61598 20.3788 13.6301 20.0052 13.8032 19.9869C14.1803 19.9423 14.5417 19.8526 14.9092 19.711C15.3037 19.558 15.6727 19.3503 15.9925 19.1017L16.0087 19.1162L16.7667 18.3795C17.3134 17.8355 17.3292 16.9664 16.8021 16.4411L14.1475 13.8062ZM6.65878 6.83079V6.82362V6.83079ZM6.60587 7.2657C6.60587 7.26526 6.60617 7.26451 6.60617 7.26406C6.60617 7.26481 6.60617 7.26526 6.60587 7.2657ZM6.65848 6.84766C6.65848 6.84527 6.65848 6.84288 6.65878 6.84079C6.65848 6.84318 6.65848 6.84527 6.65848 6.84766ZM19.0074 12.3938C18.4591 12.3938 18.0145 11.9525 18.0145 11.4082C18.0145 6.20504 13.75 1.9712 8.50816 1.9712C7.95989 1.9712 7.51531 1.52987 7.51531 0.985603C7.51531 0.441335 7.95989 0 8.50816 0C11.5777 0 14.4637 1.18654 16.6341 3.34139C18.8044 5.49623 20 8.36087 20 11.408C20.0002 11.9524 19.5559 12.3938 19.0073 12.3938L19.0074 12.3938ZM15.1118 11.9365C14.5635 11.9365 14.119 11.4952 14.119 10.9509C14.119 8.13186 11.8088 5.83864 8.96909 5.83864C8.42082 5.83864 7.97624 5.39731 7.97624 4.85304C7.97624 4.30877 8.42082 3.86743 8.96909 3.86743C12.9035 3.86743 16.1046 7.04516 16.1046 10.9509C16.1046 11.4952 15.6602 11.9365 15.1118 11.9365Z" fill="#32B573"/>
</svg>
