<svg width="860" height="719" viewBox="0 0 860 719" fill="none" xmlns="http://www.w3.org/2000/svg">
<path d="M811.215 283.271C811.125 283.761 811.036 284.251 810.945 284.74L811.437 284.831C811.255 285.812 811.07 286.792 810.883 287.771L810.392 287.677C810.204 288.656 810.014 289.634 809.82 290.613L810.311 290.71C810.117 291.689 809.92 292.668 809.72 293.646L809.23 293.546C809.031 294.524 808.828 295.501 808.622 296.479L809.112 296.582C808.906 297.56 808.697 298.537 808.485 299.515L807.996 299.409C807.784 300.385 807.57 301.362 807.352 302.337L807.84 302.446C807.622 303.423 807.401 304.4 807.177 305.376L806.69 305.264C806.467 306.239 806.24 307.213 806.01 308.188L806.497 308.302C806.269 309.272 806.037 310.242 805.803 311.211L805.317 311.094C805.083 312.062 804.846 313.03 804.606 313.998L805.091 314.118C804.851 315.086 804.608 316.055 804.362 317.022L803.877 316.899C803.632 317.866 803.383 318.833 803.132 319.799L803.616 319.925C803.364 320.892 803.109 321.858 802.852 322.824L802.369 322.696C802.273 323.055 802.177 323.415 802.08 323.774C801.918 324.38 801.754 324.985 801.589 325.59L802.071 325.722C801.808 326.687 801.542 327.652 801.274 328.616L800.792 328.482C800.523 329.446 800.252 330.409 799.978 331.372L800.459 331.509C800.186 332.469 799.909 333.429 799.63 334.388L799.15 334.249C798.872 335.205 798.591 336.161 798.308 337.116L798.787 337.259C798.503 338.215 798.216 339.171 797.927 340.126L797.448 339.981C797.159 340.936 796.868 341.89 796.573 342.843L797.051 342.991C796.756 343.945 796.458 344.899 796.158 345.853L795.681 345.703C795.381 346.655 795.079 347.607 794.773 348.559L795.249 348.711C794.944 349.664 794.635 350.616 794.324 351.567L793.849 351.411C793.538 352.362 793.225 353.312 792.909 354.261L793.383 354.419C793.067 355.369 792.748 356.318 792.427 357.267L791.953 357.106C791.634 358.05 791.311 358.992 790.987 359.934L791.459 360.097C791.134 361.04 790.806 361.982 790.476 362.924L790.004 362.759C789.674 363.7 789.341 364.64 789.006 365.58L789.477 365.748C789.142 366.688 788.804 367.628 788.463 368.568L787.993 368.397C787.653 369.336 787.31 370.274 786.964 371.211L787.433 371.384C787.088 372.322 786.739 373.259 786.388 374.196L785.92 374.021C785.752 374.471 785.582 374.922 785.412 375.372C785.229 375.857 785.046 376.342 784.861 376.827L785.328 377.005C784.973 377.94 784.614 378.875 784.253 379.81L783.787 379.629C783.427 380.561 783.065 381.491 782.7 382.421L783.166 382.603C782.802 383.532 782.435 384.46 782.066 385.387L781.601 385.202C781.233 386.128 780.861 387.054 780.488 387.979L780.951 388.166C780.577 389.092 780.201 390.017 779.822 390.941L779.36 390.751C778.981 391.675 778.6 392.598 778.217 393.52L778.679 393.712C778.295 394.635 777.909 395.557 777.52 396.478L777.06 396.284C776.672 397.205 776.281 398.125 775.888 399.044L776.348 399.24C775.955 400.16 775.559 401.079 775.161 401.998L774.702 401.799C774.305 402.717 773.905 403.634 773.502 404.55L773.96 404.751C773.559 405.664 773.155 406.577 772.75 407.489L772.293 407.286C771.887 408.197 771.48 409.107 771.07 410.016L771.526 410.222C771.115 411.132 770.702 412.041 770.288 412.949L769.833 412.742C769.616 413.216 769.398 413.691 769.18 414.165C768.981 414.598 768.782 415.03 768.582 415.462L769.036 415.672C768.616 416.579 768.195 417.485 767.771 418.39L767.318 418.178C767.123 418.593 766.928 419.008 766.733 419.423C766.502 419.912 766.271 420.401 766.04 420.889L766.492 421.103C766.063 422.007 765.632 422.909 765.199 423.811L764.748 423.595C764.316 424.496 763.881 425.396 763.444 426.295L763.893 426.514C763.456 427.413 763.017 428.312 762.575 429.209L762.127 428.989C761.686 429.883 761.244 430.777 760.799 431.67L761.247 431.893C760.802 432.787 760.355 433.68 759.906 434.571L759.459 434.347C759.01 435.238 758.559 436.128 758.106 437.017L758.552 437.244C758.098 438.134 757.642 439.024 757.184 439.912L756.74 439.683C756.282 440.57 755.823 441.457 755.361 442.343L755.804 442.574C755.342 443.46 754.878 444.346 754.412 445.23L753.969 444.997C753.503 445.881 753.035 446.764 752.565 447.646L753.006 447.881C752.536 448.763 752.063 449.645 751.588 450.526L751.148 450.288C750.674 451.167 750.198 452.045 749.72 452.922L750.159 453.161C749.681 454.038 749.202 454.914 748.72 455.788L748.282 455.547C747.8 456.421 747.316 457.294 746.831 458.166L747.268 458.41C746.781 459.282 746.293 460.154 745.803 461.025L745.368 460.78C744.878 461.65 744.386 462.519 743.892 463.387L744.327 463.634C743.833 464.503 743.337 465.37 742.838 466.237L742.405 465.988C742.215 466.317 742.026 466.647 741.836 466.976C741.526 467.512 741.216 468.047 740.906 468.582L741.338 468.834C740.836 469.698 740.332 470.561 739.826 471.424L739.394 471.171C738.889 472.032 738.381 472.893 737.871 473.753L738.302 474.008C737.792 474.867 737.281 475.725 736.767 476.582L736.338 476.326C735.825 477.182 735.31 478.037 734.794 478.892L735.222 479.15C734.704 480.005 734.185 480.859 733.664 481.712L733.238 481.451C732.717 482.303 732.194 483.154 731.67 484.004L732.096 484.266C731.571 485.117 731.044 485.966 730.515 486.814L730.091 486.55C729.563 487.397 729.033 488.244 728.501 489.089L728.924 489.355C728.392 490.201 727.858 491.046 727.321 491.889L726.899 491.621C726.364 492.464 725.826 493.306 725.287 494.146L725.708 494.416C725.168 495.257 724.626 496.097 724.083 496.936L723.663 496.664C723.12 497.503 722.575 498.34 722.029 499.176L722.447 499.449C721.9 500.286 721.351 501.121 720.8 501.955L720.383 501.68C719.833 502.513 719.281 503.345 718.727 504.176L719.143 504.454C718.588 505.285 718.032 506.116 717.475 506.945L717.06 506.666C716.502 507.494 715.943 508.322 715.382 509.148L715.796 509.429C715.234 510.255 714.671 511.081 714.106 511.905L713.694 511.622C713.129 512.446 712.563 513.268 711.995 514.089L712.406 514.373C711.838 515.195 711.268 516.015 710.696 516.834L710.286 516.548C709.714 517.367 709.141 518.185 708.565 519.001L708.974 519.289C708.398 520.107 707.82 520.923 707.241 521.738L706.833 521.448C706.254 522.262 705.673 523.075 705.091 523.887L705.497 524.179C704.914 524.991 704.33 525.802 703.744 526.611L703.339 526.318C702.753 527.127 702.165 527.935 701.576 528.741L701.98 529.036C701.391 529.843 700.799 530.649 700.207 531.453L699.804 531.156C699.212 531.96 698.618 532.762 698.022 533.563L698.423 533.861C697.827 534.663 697.229 535.463 696.63 536.261L696.23 535.961C695.977 536.298 695.724 536.635 695.47 536.972C695.124 537.432 694.776 537.892 694.429 538.351L694.827 538.653C694.223 539.451 693.618 540.247 693.011 541.042L692.614 540.738C692.007 541.533 691.398 542.326 690.788 543.118L691.184 543.423C690.573 544.215 689.961 545.006 689.348 545.795L688.953 545.489C688.34 546.277 687.725 547.065 687.108 547.851L687.502 548.159C686.885 548.946 686.266 549.731 685.646 550.515L685.254 550.204C684.635 550.987 684.014 551.769 683.391 552.549L683.782 552.861C683.159 553.641 682.535 554.421 681.909 555.198L681.519 554.885C680.893 555.662 680.266 556.437 679.638 557.211L680.026 557.526C679.396 558.302 678.766 559.075 678.133 559.847L677.746 559.53C677.112 560.304 676.476 561.077 675.839 561.848L676.225 562.167C675.587 562.938 674.948 563.708 674.307 564.477L673.923 564.157C673.283 564.925 672.641 565.691 671.998 566.456L672.381 566.778C671.737 567.543 671.092 568.307 670.446 569.069L670.065 568.746C669.419 569.508 668.771 570.268 668.122 571.026L668.502 571.351C667.853 572.11 667.202 572.868 666.55 573.624L666.172 573.297C665.52 574.052 664.867 574.806 664.212 575.558L664.59 575.886C663.935 576.639 663.278 577.39 662.621 578.139L662.245 577.809C661.586 578.56 660.925 579.31 660.263 580.057L660.637 580.389C659.973 581.139 659.308 581.887 658.641 582.634L658.268 582.301C657.601 583.047 656.933 583.792 656.264 584.535L656.636 584.87C655.966 585.613 655.295 586.355 654.622 587.095L654.252 586.759C653.58 587.498 652.907 588.236 652.232 588.972L652.601 589.31C651.926 590.047 651.25 590.781 650.572 591.515L650.205 591.175C649.527 591.908 648.849 592.639 648.169 593.368L648.535 593.709C647.854 594.438 647.173 595.166 646.49 595.893L646.125 595.55C645.443 596.276 644.759 596.999 644.074 597.722L644.437 598.066C643.747 598.793 643.055 599.519 642.363 600.242L642.002 599.897C641.72 600.19 641.439 600.484 641.158 600.777C640.746 601.206 640.333 601.634 639.92 602.062L640.28 602.409C639.584 603.13 638.888 603.849 638.19 604.565L637.831 604.217C637.134 604.933 636.435 605.647 635.735 606.36L636.092 606.71C635.391 607.423 634.69 608.135 633.987 608.844L633.631 608.492C633.283 608.844 632.935 609.194 632.586 609.545C632.231 609.901 631.876 610.258 631.52 610.613L631.874 610.967C631.169 611.673 630.462 612.376 629.754 613.078L629.402 612.723C628.695 613.425 627.986 614.124 627.277 614.822L627.627 615.178C626.915 615.879 626.201 616.577 625.486 617.274L625.137 616.916C624.419 617.616 623.699 618.314 622.979 619.009L623.326 619.369C622.605 620.065 621.883 620.76 621.159 621.452L620.814 621.091C620.091 621.783 619.367 622.473 618.642 623.161L618.986 623.523C618.26 624.212 617.533 624.898 616.806 625.583L616.463 625.218C615.736 625.902 615.007 626.584 614.278 627.264L614.618 627.63C613.888 628.31 613.157 628.989 612.425 629.665L612.086 629.298C611.354 629.973 610.621 630.647 609.887 631.319L610.224 631.688C609.49 632.36 608.754 633.03 608.018 633.698L607.682 633.328C606.938 634.002 606.194 634.674 605.449 635.344L605.783 635.716C605.036 636.387 604.289 637.056 603.541 637.722L603.208 637.349C602.46 638.015 601.711 638.678 600.961 639.34L601.292 639.715C600.541 640.377 599.79 641.037 599.037 641.695L598.708 641.319C598.35 641.632 597.992 641.944 597.633 642.256C597.239 642.6 596.844 642.942 596.449 643.284L596.776 643.662C596.022 644.316 595.266 644.967 594.509 645.617L594.184 645.237C593.428 645.886 592.671 646.532 591.913 647.177L592.236 647.558C591.478 648.202 590.718 648.845 589.958 649.485L589.636 649.103C588.87 649.747 588.104 650.39 587.337 651.029L587.657 651.413C586.885 652.057 586.113 652.698 585.34 653.337L585.021 652.951C584.248 653.59 583.475 654.226 582.7 654.859L583.017 655.246C582.241 655.88 581.465 656.512 580.688 657.142L580.373 656.753C579.597 657.382 578.819 658.009 578.041 658.634L578.354 659.024C577.575 659.648 576.795 660.271 576.014 660.891L575.703 660.5C574.923 661.119 574.142 661.737 573.36 662.352L573.669 662.745C572.887 663.36 572.103 663.973 571.319 664.584L571.012 664.19C570.225 664.803 569.437 665.413 568.648 666.021L568.953 666.417C568.157 667.031 567.359 667.643 566.561 668.252L566.258 667.854C565.461 668.463 564.662 669.069 563.863 669.672L564.164 670.071C563.365 670.675 562.564 671.277 561.762 671.876L561.463 671.476C560.662 672.074 559.861 672.67 559.058 673.264L559.356 673.666C558.553 674.26 557.749 674.851 556.944 675.44L556.649 675.037C555.845 675.625 555.04 676.211 554.234 676.795L554.528 677.199C553.721 677.783 552.914 678.365 552.107 678.943L551.816 678.537C551.006 679.117 550.196 679.694 549.386 680.269L549.675 680.677C548.853 681.259 548.032 681.838 547.209 682.415L546.922 682.005C546.694 682.165 546.466 682.325 546.238 682.484C545.644 682.9 545.049 683.314 544.454 683.726L544.739 684.137C543.915 684.708 543.09 685.277 542.264 685.843L541.981 685.431C541.156 685.996 540.331 686.559 539.505 687.119L539.785 687.533C538.958 688.093 538.131 688.651 537.302 689.206L537.024 688.791C536.196 689.345 535.368 689.897 534.539 690.446L534.815 690.863C533.986 691.413 533.155 691.96 532.324 692.504L532.051 692.085C531.218 692.63 530.386 693.172 529.552 693.711L529.824 694.131C528.978 694.679 528.132 695.223 527.285 695.764L527.016 695.343C526.169 695.884 525.323 696.422 524.475 696.957L524.742 697.38C523.894 697.916 523.045 698.448 522.196 698.978L521.931 698.554C521.083 699.083 520.233 699.61 519.384 700.133L519.646 700.559C518.796 701.083 517.944 701.604 517.093 702.122L516.833 701.695C515.982 702.212 515.131 702.727 514.279 703.238L514.536 703.667C513.684 704.179 512.83 704.688 511.977 705.194L511.722 704.764C510.865 705.272 510.008 705.777 509.151 706.279L509.403 706.71C508.533 707.219 507.663 707.725 506.792 708.227L506.542 707.794C505.672 708.297 504.802 708.796 503.931 709.291L504.178 709.726C503.307 710.222 502.434 710.716 501.562 711.206L501.317 710.77C500.445 711.259 499.573 711.746 498.7 712.229L498.942 712.666C498.069 713.15 497.195 713.63 496.32 714.108L496.081 713.669C495.207 714.146 494.333 714.619 493.459 715.09L493.696 715.53C492.821 716.001 491.945 716.468 491.069 716.933L490.835 716.491C489.952 716.959 489.069 717.424 488.185 717.885L488.417 718.329C487.524 718.795 486.63 719.258 485.736 719.718L485.508 719.273C484.615 719.732 483.721 720.188 482.828 720.641L483.053 721.087C482.159 721.539 481.264 721.989 480.368 722.435L480.146 721.987C479.251 722.433 478.357 722.875 477.462 723.314L477.682 723.763C476.786 724.202 475.89 724.638 474.993 725.07L474.776 724.619C473.881 725.051 472.985 725.479 472.089 725.904L472.303 726.356C471.406 726.781 470.509 727.203 469.612 727.621L469.401 727.168C469.016 727.347 468.632 727.526 468.248 727.703C467.721 727.947 467.193 728.19 466.666 728.431L466.874 728.886C465.958 729.305 465.042 729.721 464.126 730.133L463.921 729.677C463.006 730.088 462.091 730.496 461.175 730.9L461.377 731.357C460.461 731.762 459.544 732.163 458.627 732.56L458.429 732.101C457.513 732.498 456.597 732.89 455.681 733.28L455.877 733.74C454.96 734.129 454.042 734.515 453.125 734.897L452.933 734.436C452.017 734.817 451.1 735.195 450.184 735.569L450.373 736.032C449.448 736.41 448.524 736.783 447.599 737.153L447.414 736.688C446.478 737.062 445.543 737.432 444.607 737.798L444.789 738.264C443.853 738.63 442.916 738.993 441.979 739.351L441.801 738.885C440.865 739.243 439.929 739.597 438.994 739.947L439.169 740.415C438.232 740.765 437.295 741.112 436.359 741.454L436.187 740.985C435.251 741.327 434.316 741.664 433.38 741.998L433.548 742.469C432.612 742.803 431.675 743.134 430.738 743.46L430.574 742.988C429.965 743.2 429.355 743.41 428.746 743.619C428.419 743.731 428.093 743.842 427.766 743.953L427.927 744.427C426.971 744.751 426.015 745.072 425.059 745.388L424.902 744.913C423.947 745.228 422.993 745.54 422.038 745.847L422.191 746.323C421.236 746.63 420.28 746.933 419.325 747.232L419.175 746.755C418.697 746.904 418.218 747.053 417.739 747.2C417.264 747.347 416.789 747.492 416.314 747.636L416.459 748.115C415.504 748.405 414.549 748.69 413.595 748.972L413.453 748.492C412.5 748.773 411.547 749.049 410.594 749.321L410.732 749.802C409.777 750.074 408.824 750.342 407.87 750.606L407.737 750.124C406.767 750.392 405.798 750.655 404.829 750.914L404.958 751.397C403.985 751.657 403.012 751.912 402.04 752.162L401.915 751.678C400.944 751.928 399.973 752.174 399.003 752.415L399.123 752.9C398.152 753.141 397.18 753.377 396.209 753.609L396.093 753.123C395.123 753.354 394.154 753.581 393.185 753.803L393.297 754.29C392.327 754.512 391.357 754.73 390.387 754.943L390.28 754.454C389.312 754.667 388.345 754.874 387.377 755.077L387.48 755.567C386.495 755.773 385.511 755.975 384.526 756.172L384.428 755.681C383.443 755.878 382.457 756.07 381.472 756.257L381.566 756.749C380.579 756.936 379.593 757.118 378.608 757.295L378.52 756.803C377.536 756.98 376.553 757.152 375.57 757.319L375.654 757.812C374.67 757.979 373.686 758.141 372.703 758.298L372.624 757.804C371.643 757.96 370.662 758.112 369.682 758.258L369.756 758.753C368.774 758.899 367.793 759.041 366.813 759.177L366.744 758.682C366.311 758.742 365.878 758.801 365.445 758.859C364.882 758.935 364.319 759.009 363.757 759.081L363.821 759.577C362.823 759.705 361.826 759.828 360.829 759.946L360.771 759.449C359.776 759.566 358.782 759.678 357.789 759.784L357.842 760.281C356.848 760.388 355.853 760.489 354.86 760.584L354.812 760.087C353.821 760.182 352.83 760.272 351.84 760.357L351.883 760.855C350.891 760.939 349.901 761.018 348.911 761.092L348.874 760.593C347.882 760.667 346.892 760.735 345.903 760.798L345.934 761.297C344.929 761.36 343.925 761.418 342.922 761.47L342.896 760.971C341.895 761.023 340.894 761.069 339.895 761.109L339.915 761.609C338.914 761.65 337.914 761.684 336.914 761.713L336.9 761.213C335.903 761.242 334.906 761.265 333.911 761.282L333.92 761.782C332.922 761.799 331.926 761.811 330.931 761.816L330.928 761.316C329.935 761.321 328.943 761.321 327.952 761.315L327.949 761.815C326.949 761.808 325.949 761.796 324.951 761.777L324.961 761.278C323.958 761.259 322.957 761.234 321.956 761.204L321.941 761.704C320.939 761.673 319.938 761.636 318.938 761.593L318.959 761.093C317.962 761.05 316.965 761.001 315.97 760.946L315.942 761.445C314.945 761.39 313.949 761.328 312.954 761.26L312.988 760.761C311.996 760.694 311.004 760.62 310.014 760.539L309.974 761.038C308.982 760.958 307.991 760.871 307.002 760.778L307.048 760.28C306.051 760.187 305.055 760.087 304.061 759.98L304.008 760.477C303.011 760.371 302.016 760.258 301.022 760.138L301.082 759.642C300.09 759.523 299.1 759.397 298.112 759.265L298.045 759.76C297.054 759.628 296.065 759.489 295.077 759.343L295.15 758.848C294.165 758.703 293.181 758.552 292.198 758.393L292.118 758.887C291.134 758.728 290.151 758.563 289.169 758.391L289.255 757.899C288.766 757.813 288.277 757.726 287.788 757.637C287.289 757.546 286.791 757.454 286.293 757.36L286.201 757.852C285.204 757.664 284.21 757.471 283.219 757.272L283.318 756.782C282.329 756.583 281.343 756.379 280.361 756.169L280.256 756.658C279.272 756.448 278.29 756.232 277.312 756.011L277.422 755.523C276.446 755.303 275.473 755.076 274.503 754.844L274.387 755.331C273.415 755.098 272.446 754.86 271.48 754.617L271.602 754.132C270.635 753.889 269.671 753.639 268.711 753.385L268.583 753.868C267.603 753.608 266.627 753.343 265.654 753.072L265.788 752.59C264.817 752.32 263.849 752.044 262.884 751.762L262.744 752.242C261.777 751.959 260.814 751.671 259.854 751.378L260 750.899C259.042 750.606 258.087 750.308 257.135 750.004L256.983 750.48C256.029 750.175 255.079 749.865 254.131 749.549L254.29 749.074C253.344 748.759 252.402 748.438 251.464 748.112L251.299 748.584C250.345 748.252 249.394 747.915 248.447 747.572L248.617 747.102C247.67 746.759 246.727 746.41 245.787 746.056L245.61 746.524C244.668 746.17 243.73 745.809 242.794 745.443L242.976 744.978C242.043 744.612 241.113 744.241 240.186 743.865L239.998 744.328C239.069 743.951 238.144 743.568 237.221 743.18L237.416 742.719C236.495 742.332 235.579 741.939 234.665 741.54L234.465 741.999C233.542 741.596 232.623 741.188 231.707 740.774L231.912 740.319C230.996 739.905 230.083 739.486 229.174 739.061L228.962 739.514C228.051 739.088 227.143 738.657 226.238 738.22L226.456 737.769C225.553 737.334 224.654 736.892 223.758 736.445L223.535 736.893C222.637 736.445 221.743 735.992 220.852 735.533L221.081 735.088C220.192 734.63 219.306 734.167 218.424 733.698L218.189 734.14C217.302 733.669 216.417 733.192 215.537 732.709L215.777 732.271C214.897 731.789 214.02 731.301 213.147 730.808L212.901 731.244C212.026 730.75 211.154 730.251 210.286 729.746L210.537 729.314C209.67 728.81 208.807 728.301 207.948 727.787L207.691 728.216C206.829 727.7 205.971 727.179 205.117 726.653L205.379 726.228C204.526 725.703 203.677 725.172 202.831 724.637L202.563 725.059C201.715 724.522 200.87 723.98 200.029 723.433L200.302 723.014C199.462 722.467 198.626 721.915 197.793 721.359L197.515 721.774C196.68 721.216 195.849 720.653 195.021 720.085L195.305 719.672C194.478 719.105 193.656 718.533 192.837 717.955L192.549 718.364C191.728 717.785 190.91 717.201 190.096 716.612L190.389 716.207C189.577 715.619 188.768 715.026 187.962 714.428L187.664 714.83C186.859 714.232 186.057 713.629 185.259 713.021L185.561 712.623C184.766 712.017 183.973 711.406 183.184 710.79L182.876 711.185C182.086 710.567 181.298 709.945 180.514 709.318L180.827 708.928C180.044 708.302 179.265 707.671 178.49 707.035L178.173 707.422C177.396 706.785 176.622 706.143 175.852 705.496L176.173 705.114C175.404 704.468 174.639 703.818 173.877 703.162L173.551 703.542C172.791 702.888 172.034 702.229 171.28 701.566L171.611 701.191C170.861 700.531 170.114 699.866 169.371 699.197L169.036 699.568C168.292 698.897 167.55 698.222 166.812 697.542L167.151 697.174C166.415 696.495 165.682 695.812 164.952 695.124L164.609 695.487C163.877 694.798 163.15 694.104 162.425 693.405L162.772 693.045C162.049 692.348 161.329 691.646 160.612 690.939L160.261 691.295C159.547 690.591 158.836 689.882 158.129 689.168L158.484 688.816C157.781 688.108 157.082 687.395 156.386 686.678L156.027 687.026C155.33 686.308 154.635 685.585 153.945 684.857L154.307 684.513C153.618 683.787 152.931 683.056 152.248 682.322L151.882 682.662C151.198 681.926 150.517 681.186 149.839 680.441L150.209 680.104C149.532 679.361 148.859 678.613 148.189 677.861L147.816 678.193C147.147 677.443 146.482 676.689 145.821 675.93L146.197 675.601C145.542 674.85 144.891 674.095 144.242 673.336L143.862 673.661C143.212 672.9 142.565 672.136 141.922 671.367L142.305 671.046C141.663 670.279 141.024 669.507 140.388 668.731L140.001 669.048C139.364 668.272 138.73 667.491 138.099 666.706L138.489 666.392C137.86 665.609 137.233 664.821 136.61 664.029L136.217 664.338C135.593 663.546 134.973 662.75 134.356 661.951L134.752 661.645C134.144 660.857 133.539 660.065 132.938 659.27L132.539 659.571C131.936 658.774 131.336 657.974 130.74 657.169L131.142 656.871C130.546 656.068 129.953 655.261 129.364 654.45L128.96 654.744C128.369 653.932 127.782 653.116 127.198 652.296L127.605 652.006C127.022 651.187 126.442 650.365 125.864 649.539L125.455 649.826C124.877 648.999 124.302 648.168 123.73 647.333L124.142 647.051C123.578 646.228 123.017 645.401 122.459 644.571L122.044 644.85C121.488 644.021 120.934 643.19 120.384 642.354L120.801 642.079C120.251 641.245 119.704 640.408 119.16 639.567L118.741 639.838C118.196 638.996 117.654 638.15 117.116 637.301L117.538 637.033C117 636.185 116.465 635.334 115.933 634.479L115.508 634.743C114.976 633.887 114.446 633.027 113.919 632.164L114.346 631.904C113.823 631.047 113.303 630.187 112.785 629.323L112.356 629.58C111.844 628.725 111.335 627.867 110.829 627.006L111.26 626.752C110.755 625.892 110.252 625.029 109.753 624.163L109.319 624.412C108.819 623.545 108.321 622.674 107.827 621.8L108.262 621.553C107.768 620.68 107.277 619.804 106.789 618.925L106.351 619.168C105.863 618.287 105.377 617.404 104.893 616.517L105.332 616.278C104.85 615.392 104.37 614.503 103.894 613.612L103.453 613.847C102.982 612.967 102.514 612.083 102.048 611.196L102.491 610.964C102.028 610.082 101.568 609.197 101.111 608.309L100.667 608.538C100.209 607.649 99.7538 606.757 99.3015 605.862L99.7478 605.636C99.2961 604.743 98.8471 603.846 98.401 602.946L97.953 603.168C97.5063 602.268 97.0624 601.364 96.6212 600.458L97.0708 600.239C96.6301 599.333 96.1922 598.425 95.7571 597.514L95.3059 597.73C94.8711 596.819 94.439 595.906 94.0096 594.989L94.4624 594.777C94.0405 593.877 93.6213 592.974 93.2048 592.068L92.7506 592.277C92.3335 591.37 91.9192 590.461 91.5075 589.549L91.9632 589.343C91.552 588.432 91.1434 587.518 90.7375 586.602L90.2804 586.804C89.874 585.887 89.4703 584.967 89.0693 584.044L89.5279 583.845C89.1273 582.923 88.7294 581.999 88.3342 581.072L87.8742 581.268C87.4786 580.34 87.0855 579.409 86.6952 578.476L87.1565 578.283C86.7687 577.356 86.3836 576.427 86.0011 575.495L85.5386 575.684C85.1604 574.763 84.7849 573.839 84.4119 572.913L84.8757 572.726C84.5031 571.801 84.1331 570.873 83.7657 569.943L83.3006 570.126C82.9328 569.195 82.5675 568.262 82.2048 567.326L82.671 567.145C82.3087 566.21 81.949 565.273 81.5918 564.333L81.1244 564.51C80.7668 563.57 80.4118 562.626 80.0594 561.681L80.5279 561.506C80.1759 560.562 79.8264 559.615 79.4794 558.666L79.0098 558.837C78.6649 557.894 78.3226 556.948 77.9828 555.999L78.4535 555.831C78.1177 554.894 77.7844 553.955 77.4535 553.013L76.9818 553.179C76.6506 552.237 76.3219 551.292 75.9957 550.345L76.4684 550.182C76.1425 549.237 75.8191 548.289 75.4982 547.338L75.0245 547.499C74.7032 546.547 74.3844 545.594 74.0681 544.639L74.5427 544.482C74.2267 543.527 73.9132 542.57 73.6021 541.612L73.1265 541.766C72.8151 540.806 72.5062 539.844 72.1998 538.881L72.6763 538.729C72.372 537.772 72.0702 536.813 71.7708 535.851L71.2935 536C70.9972 535.049 70.7032 534.095 70.4117 533.14L70.89 532.994C70.5987 532.04 70.3099 531.083 70.0234 530.125L69.5443 530.268C69.2576 529.309 68.9732 528.347 68.6912 527.384L69.1711 527.244C68.8894 526.281 68.6101 525.317 68.3331 524.351L67.8525 524.488C67.5753 523.521 67.3005 522.552 67.0281 521.581L67.5095 521.446C67.2373 520.476 66.9675 519.504 66.7001 518.53L66.218 518.663C65.9511 517.691 65.6867 516.717 65.4246 515.742L65.9075 515.612C65.6492 514.651 65.3932 513.687 65.1396 512.723L64.656 512.85C64.4021 511.884 64.1505 510.916 63.9012 509.947L64.3855 509.822C64.1364 508.854 63.8896 507.884 63.6452 506.912L63.1603 507.033C62.9156 506.061 62.6732 505.086 62.4332 504.11L62.9187 503.99C62.6788 503.015 62.4413 502.037 62.206 501.058L61.7199 501.175C61.4844 500.195 61.2512 499.214 61.0204 498.231L61.5072 498.116C61.2765 497.134 61.0482 496.15 60.8221 495.164L60.3348 495.276C60.1118 494.303 59.891 493.329 59.6725 492.354L60.1604 492.244C59.9424 491.271 59.7267 490.296 59.5131 489.32L59.0247 489.427C58.811 488.449 58.5995 487.47 58.3903 486.49L58.8793 486.386C58.6702 485.406 58.4633 484.425 58.2587 483.442L57.7692 483.544C57.5644 482.56 57.3619 481.575 57.1615 480.589L57.6515 480.489C57.4514 479.503 57.2534 478.516 57.0577 477.527L56.5672 477.624C56.3713 476.635 56.1777 475.643 55.9862 474.651L56.4772 474.556C56.2874 473.571 56.0997 472.586 55.9143 471.598L55.4228 471.69C55.2387 470.71 55.0567 469.728 54.8768 468.745L55.3687 468.655C55.189 467.672 55.0114 466.688 54.836 465.702L54.3437 465.79C54.1682 464.804 53.9948 463.816 53.8236 462.827L54.3163 462.742C54.1452 461.754 53.9763 460.764 53.8095 459.773L53.3165 459.856C53.1496 458.864 52.9848 457.871 52.8222 456.877L53.3157 456.796C53.1532 455.803 52.9929 454.807 52.8348 453.811L52.341 453.89C52.1827 452.892 52.0266 451.894 51.8726 450.894L52.3668 450.818C52.2151 449.833 52.0655 448.847 51.918 447.859L51.4235 447.933C51.2759 446.945 51.1304 445.956 50.9871 444.965L51.4819 444.893C51.3386 443.904 51.1975 442.913 51.0584 441.92L50.5632 441.99C50.4241 440.997 50.287 440.003 50.152 439.007L50.6474 438.94C50.5125 437.945 50.3797 436.95 50.249 435.952L49.7532 436.017C49.6224 435.02 49.4937 434.021 49.3671 433.02L49.8631 432.958C49.7366 431.958 49.6121 430.957 49.4898 429.956L48.9935 430.016C48.8716 429.018 48.7518 428.019 48.6341 427.019L49.1306 426.961C49.014 425.97 48.8995 424.978 48.7869 423.986L48.2901 424.042C48.1775 423.048 48.0669 422.054 47.9583 421.058L48.4554 421.004C48.3469 420.009 48.2405 419.013 48.1361 418.015L47.6388 418.067C47.5343 417.07 47.4319 416.071 47.3314 415.071L47.8289 415.021C47.7286 414.021 47.6303 413.021 47.534 412.02L47.0363 412.067C46.94 411.065 46.8457 410.062 46.7534 409.058L47.2513 409.012C47.1591 408.009 47.0689 407.004 46.9808 405.999L46.4827 406.043C46.3951 405.044 46.3096 404.045 46.2261 403.044L46.7243 403.003C46.6413 402.008 46.5602 401.012 46.4811 400.015L45.9826 400.055C45.9035 399.057 45.8263 398.059 45.7511 397.059L46.2497 397.022C46.1746 396.023 46.1014 395.023 46.0302 394.023L45.5315 394.058C45.4602 393.057 45.391 392.055 45.3237 391.052L45.8226 391.018C45.7554 390.016 45.6901 389.013 45.6269 388.009L45.1279 388.04C45.0646 387.035 45.0032 386.029 44.9439 385.023L45.443 384.993C45.3837 383.987 45.3264 382.981 45.271 381.973L44.7718 382C44.7169 381.001 44.6639 380.001 44.6129 379L45.1123 378.975C45.0615 377.977 45.0125 376.978 44.9656 375.979L44.4661 376.002C44.4191 375.002 44.3741 374.002 44.3309 373L44.8305 372.978C44.7873 371.977 44.7462 370.976 44.7069 369.973L44.2073 369.993C44.1681 368.989 44.1307 367.985 44.0953 366.981L44.595 366.963C44.5596 365.959 44.5262 364.954 44.4947 363.948L43.9949 363.964C43.9634 362.958 43.9338 361.951 43.9061 360.943L44.4059 360.929C44.3783 359.922 44.3526 358.914 44.3288 357.906L43.8289 357.918C43.8053 356.918 43.7836 355.917 43.7638 354.915L44.2637 354.906C44.244 353.906 44.2261 352.906 44.2101 351.905L43.7102 351.913C43.6942 350.912 43.6801 349.91 43.6679 348.907L44.1679 348.901C44.1557 347.899 44.1454 346.896 44.137 345.893L43.637 345.897C43.6285 344.893 43.622 343.888 43.6174 342.883L44.1174 342.881C44.1127 341.876 44.11 340.871 44.1091 339.865L43.6091 339.865C43.6083 338.859 43.6093 337.852 43.6122 336.844L44.1122 336.845C44.1151 335.838 44.1199 334.831 44.1266 333.822L43.6266 333.819C43.6333 332.818 43.6418 331.817 43.6521 330.815L44.1521 330.82C44.1625 329.82 44.1746 328.82 44.1887 327.819L43.6887 327.812C43.7028 326.81 43.7187 325.808 43.7364 324.805L44.2364 324.814C44.2541 323.812 44.2737 322.809 44.2952 321.806L43.7953 321.795C43.8167 320.791 43.8401 319.787 43.8652 318.782L44.3651 318.795C44.3902 317.791 44.4172 316.786 44.4461 315.781L43.9463 315.766C43.9751 314.76 44.0059 313.754 44.0384 312.747L44.5382 312.764C44.5707 311.757 44.6051 310.751 44.6414 309.744L44.1417 309.726C44.1777 308.724 44.2156 307.723 44.2553 306.721L44.7549 306.741C44.7945 305.741 44.8359 304.741 44.8791 303.741L44.3796 303.719C44.4228 302.718 44.4679 301.717 44.5148 300.715L45.0142 300.738C45.0611 299.737 45.1098 298.735 45.1603 297.733L44.6609 297.708C44.7114 296.706 44.7638 295.702 44.8179 294.699L45.3172 294.726C45.3713 293.723 45.4273 292.72 45.485 291.716L44.9859 291.687C45.0437 290.683 45.1033 289.679 45.1647 288.674L45.6638 288.704C45.7252 287.7 45.7884 286.695 45.8534 285.69L45.3545 285.658C45.4192 284.657 45.4858 283.656 45.5542 282.654L46.053 282.688C46.1211 281.69 46.1911 280.691 46.2628 279.692L45.764 279.656C45.8358 278.657 45.9093 277.657 45.9847 276.657L46.4833 276.694C46.5585 275.695 46.6356 274.695 46.7145 273.695L46.216 273.656C46.2949 272.655 46.3756 271.654 46.4581 270.653L46.9564 270.694C47.0389 269.693 47.1231 268.692 47.2091 267.691L46.7109 267.648C46.797 266.646 46.8849 265.644 46.9745 264.642L47.4725 264.686C47.5621 263.685 47.6535 262.683 47.7466 261.68L47.2488 261.634C47.3417 260.634 47.4365 259.634 47.533 258.633L48.0307 258.681C48.1268 257.685 48.2246 256.688 48.3243 255.692L47.8267 255.642C47.9264 254.645 48.0279 253.647 48.1311 252.65L48.6284 252.701C48.7316 251.704 48.8365 250.707 48.9432 249.709L48.446 249.656C48.5527 248.658 48.6612 247.66 48.7715 246.662L49.2685 246.717C49.3787 245.719 49.4906 244.721 49.6044 243.723L49.1076 243.666C49.2214 242.667 49.3369 241.669 49.4542 240.67L49.9508 240.728C50.0681 239.729 50.1871 238.731 50.3078 237.732L49.8115 237.672C49.9322 236.674 50.0547 235.675 50.1789 234.677L50.6751 234.738C50.7987 233.745 50.9241 232.751 51.0512 231.758L50.5552 231.694C50.6824 230.7 50.8113 229.706 50.9419 228.711L51.4377 228.776C51.5682 227.782 51.7005 226.788 51.8346 225.794L51.3391 225.727C51.4732 224.733 51.6091 223.738 51.7467 222.743L52.242 222.812C52.3795 221.818 52.5188 220.824 52.6598 219.829L52.1648 219.759C52.3059 218.764 52.4487 217.769 52.5933 216.774L53.0881 216.846C53.2326 215.852 53.3788 214.857 53.5268 213.863L53.0322 213.789C53.1803 212.794 53.3301 211.799 53.4816 210.804L53.9759 210.879C54.1268 209.889 54.2794 208.898 54.4337 207.907L53.9397 207.83C54.094 206.84 54.25 205.849 54.4077 204.859L54.9015 204.937C55.0592 203.947 55.2186 202.957 55.3797 201.967L54.8862 201.887C55.0474 200.896 55.2103 199.906 55.3749 198.915L55.8682 198.997C56.0327 198.008 56.199 197.018 56.367 196.028L55.8741 195.944C56.0421 194.954 56.212 193.963 56.3835 192.973L56.8762 193.058C57.0476 192.069 57.2208 191.079 57.3957 190.09L56.9033 190.003C57.0783 189.012 57.255 188.022 57.4334 187.032L57.9255 187.121C58.0146 186.627 58.1041 186.132 58.1941 185.638C58.2841 185.143 58.3748 184.649 58.4663 184.156L57.9747 184.065C58.1579 183.076 58.3442 182.09 58.5335 181.104L59.0245 181.198C59.2136 180.214 59.4058 179.231 59.601 178.25L59.1106 178.152C59.306 177.17 59.5044 176.189 59.7059 175.209L60.1957 175.31C60.3969 174.332 60.6012 173.355 60.8085 172.379L60.3194 172.275C60.5269 171.299 60.7374 170.323 60.951 169.35L61.4394 169.457C61.6526 168.484 61.8689 167.513 62.0882 166.544L61.6005 166.433C61.82 165.463 62.0424 164.493 62.2679 163.526L62.7548 163.639C62.9805 162.671 63.2091 161.703 63.4407 160.738L62.9544 160.621C63.1888 159.644 63.4262 158.668 63.6666 157.694L64.152 157.814C64.3921 156.841 64.6353 155.869 64.8814 154.899L64.3968 154.776C64.6432 153.805 64.8926 152.836 65.145 151.868L65.6288 151.994C65.8809 151.027 66.136 150.061 66.394 149.098L65.911 148.968C66.1694 148.003 66.4307 147.04 66.6949 146.078L67.177 146.211C67.441 145.25 67.7079 144.291 67.9777 143.333L67.4964 143.197C67.7666 142.239 68.0396 141.282 68.3156 140.326L68.796 140.465C69.0717 139.51 69.3502 138.557 69.6317 137.606L69.1523 137.464C69.437 136.502 69.7247 135.541 70.0153 134.582L70.4938 134.727C70.7844 133.768 71.078 132.811 71.3745 131.855L70.8969 131.707C71.1938 130.75 71.4935 129.795 71.7962 128.841L72.2728 128.992C72.5751 128.04 72.8804 127.089 73.1885 126.139L72.713 125.985C73.0215 125.035 73.3329 124.086 73.6472 123.139L74.1217 123.296C74.4357 122.35 74.7525 121.406 75.0722 120.463L74.5987 120.303C74.9188 119.359 75.2417 118.417 75.5675 117.476L76.04 117.64C76.3654 116.7 76.6937 115.763 77.0249 114.826L76.5535 114.66C76.8875 113.715 77.2244 112.773 77.5642 111.832L78.0344 112.001C78.3746 111.059 78.7177 110.119 79.0637 109.18L78.5945 109.007C78.9408 108.067 79.29 107.129 79.642 106.193L80.1101 106.369C80.4617 105.433 80.8162 104.499 81.1735 103.567L80.7067 103.388C81.0644 102.455 81.4249 101.524 81.7883 100.594L82.254 100.776C82.6169 99.8478 82.9827 98.9209 83.3513 97.9957L82.8868 97.8106C83.2558 96.8844 83.6276 95.9599 84.0021 95.0372L84.4654 95.2252C84.8396 94.3035 85.2165 93.3834 85.5962 92.4651L85.1341 92.2741C85.5166 91.3492 85.9018 90.4261 86.2898 89.5047L86.7506 89.6987C87.1392 88.7759 87.5306 87.8548 87.9248 86.9355L87.4653 86.7384C87.8599 85.8181 88.2573 84.8996 88.6574 83.9828L89.1157 84.1828C89.5154 83.2671 89.9179 82.3531 90.3231 81.4408L89.8662 81.2379C90.2719 80.3246 90.6803 79.4132 91.0914 78.5036L91.547 78.7095C91.9578 77.8008 92.3712 76.8939 92.7873 75.9889L92.333 75.78C92.7496 74.8739 93.1689 73.9697 93.591 73.0672L94.0439 73.2789C94.4654 72.3775 94.8897 71.4777 95.3166 70.5798L94.865 70.3651C95.2947 69.4614 95.7271 68.5596 96.1621 67.6595L96.6123 67.8771C97.0479 66.976 97.4862 66.0767 97.9272 65.1792L97.4784 64.9587C97.9199 64.0603 98.364 63.1637 98.8109 62.2689L99.2582 62.4923C99.7045 61.5985 100.154 60.7065 100.605 59.8165L100.159 59.5902C100.611 58.6991 101.066 57.8099 101.524 56.9226L101.968 57.1517C102.425 56.2653 102.885 55.3808 103.347 54.4981L102.904 54.2662C103.366 53.3825 103.832 52.5008 104.3 51.6209L104.741 51.8557C105.209 50.9767 105.679 50.0996 106.151 49.2244L105.711 48.9869C106.187 48.1062 106.665 47.2275 107.145 46.3507L107.584 46.591C108.065 45.7137 108.548 44.8383 109.035 43.9648L108.598 43.7216C109.084 42.8472 109.574 41.9747 110.065 41.1041L110.501 41.35C110.992 40.4803 111.486 39.6125 111.982 38.7467L111.549 38.498C112.045 37.6313 112.545 36.7664 113.047 35.9035L113.479 36.1549C113.981 35.2929 114.485 34.4329 114.991 33.5747L114.561 33.3206C115.068 32.4615 115.577 31.6044 116.089 30.7493L116.518 31.0061C117.03 30.1519 117.544 29.2995 118.06 28.4492L117.633 28.1896C118.153 27.3339 118.675 26.4801 119.2 25.6282L119.625 25.8905C120.15 25.0389 120.677 24.1893 121.206 23.3417L120.782 23.0768C121.312 22.2283 121.845 21.3818 122.38 20.5373L122.802 20.8049C123.337 19.9612 123.874 19.1196 124.413 18.2799L123.992 18.0097C124.532 17.1692 125.075 16.3307 125.619 15.4941L126.038 15.7669C126.583 14.9313 127.129 14.0976 127.678 13.266L127.261 12.9905C127.81 12.158 128.362 11.3275 128.917 10.499L129.332 10.777C129.886 9.9492 130.442 9.12337 131.001 8.29959L130.587 8.01896C131.149 7.18999 131.714 6.36304 132.281 5.53815L132.693 5.82134C133.259 4.99732 133.828 4.17533 134.399 3.35539L133.989 3.06964C134.56 2.24884 135.134 1.43012 135.711 0.613459L136.119 0.901744C136.695 0.0859104 137.273 -0.727855 137.853 -1.53956L137.446 -1.83037C138.027 -2.64292 138.611 -3.45341 139.196 -4.2618L139.601 -3.96849C140.186 -4.77607 140.773 -5.58155 141.363 -6.385L140.96 -6.6808C141.55 -7.48504 142.142 -8.2872 142.737 -9.0873L143.138 -8.78904C143.733 -9.5893 144.33 -10.3875 144.93 -11.1835L144.53 -11.4843C145.132 -12.2842 145.737 -13.082 146.344 -13.8778L146.741 -13.5746C147.347 -14.3695 147.956 -15.1623 148.566 -15.953L148.171 -16.2585C148.782 -17.05 149.395 -17.8394 150.011 -18.6266L150.405 -18.3186C151.02 -19.105 151.637 -19.8892 152.256 -20.6714L151.864 -20.9818C152.484 -21.7648 153.107 -22.5456 153.731 -23.3243L154.121 -23.0114C154.745 -23.7893 155.371 -24.5651 155.999 -25.3386L155.611 -25.6538C156.24 -26.4282 156.871 -27.2004 157.504 -27.9705L157.89 -27.653C158.524 -28.4241 159.16 -29.193 159.798 -29.9598L159.414 -30.2796C160.054 -31.0491 160.696 -31.8163 161.341 -32.5814L161.723 -32.2592C162.367 -33.0235 163.013 -33.7856 163.662 -34.5455L163.281 -34.87C163.93 -35.6307 164.581 -36.3892 165.234 -37.1455L165.613 -36.8187C166.265 -37.5742 166.919 -38.3276 167.576 -39.0787L167.199 -39.4077C167.857 -40.1596 168.516 -40.9092 169.177 -41.6567L169.551 -41.3254C170.212 -42.0721 170.875 -42.8166 171.539 -43.5589L171.167 -43.8924C171.832 -44.6354 172.5 -45.3762 173.169 -46.1148L173.539 -45.779C174.211 -46.5196 174.884 -47.2578 175.559 -47.9939L175.19 -48.3319C175.867 -49.0694 176.545 -49.8047 177.226 -50.5378L177.592 -50.1976C178.272 -50.9299 178.954 -51.66 179.638 -52.3878L179.274 -52.7301C179.958 -53.4587 180.645 -54.1849 181.333 -54.9089L181.695 -54.5643C182.383 -55.2876 183.073 -56.0086 183.764 -56.7273L183.404 -57.074C184.096 -57.7934 184.79 -58.5106 185.487 -59.2254L185.845 -58.8766C186.54 -59.5907 187.238 -60.3026 187.937 -61.0122L187.581 -61.3631C188.281 -62.0737 188.983 -62.782 189.687 -63.488L190.041 -63.1349C190.747 -63.8433 191.455 -64.5493 192.166 -65.253L191.814 -65.6081C192.524 -66.3125 193.237 -67.0146 193.952 -67.7143L194.301 -67.3571C195.015 -68.0561 195.731 -68.7528 196.448 -69.4472L196.101 -69.8065C196.819 -70.5016 197.539 -71.1943 198.261 -71.8846L198.606 -71.5233C199.327 -72.213 200.05 -72.9003 200.775 -73.5853L200.431 -73.9487C201.157 -74.6343 201.884 -75.3177 202.613 -75.9986L202.954 -75.6332C203.683 -76.3135 204.413 -76.9914 205.144 -77.667L204.805 -78.0344C205.539 -78.7121 206.275 -79.3874 207.013 -80.0603L207.35 -79.691C208.089 -80.3651 208.829 -81.0368 209.572 -81.7061L209.237 -82.0775C209.98 -82.7474 210.725 -83.415 211.471 -84.0801L211.804 -83.7068C212.55 -84.3713 213.297 -85.0334 214.047 -85.6931L213.716 -86.0684C214.466 -86.7287 215.218 -87.3866 215.971 -88.0421L216.299 -87.6649C217.052 -88.3198 217.806 -88.9722 218.562 -89.6222L218.236 -90.0013C218.992 -90.652 219.751 -91.3002 220.511 -91.9459L220.834 -91.5649C221.594 -92.2101 222.354 -92.8528 223.117 -93.4931L222.795 -93.8759C223.562 -94.5196 224.33 -95.1608 225.099 -95.7996L225.419 -95.4148C226.188 -96.0534 226.959 -96.6896 227.732 -97.3233L227.415 -97.7099C228.189 -98.3442 228.964 -98.976 229.74 -99.6054L230.055 -99.2169C230.831 -99.8456 231.609 -100.472 232.388 -101.096L232.075 -101.486C232.855 -102.11 233.636 -102.732 234.419 -103.352L234.729 -102.959C235.512 -103.578 236.295 -104.194 237.08 -104.808L236.772 -105.202C237.558 -105.816 238.346 -106.428 239.135 -107.038L239.44 -106.642C240.23 -107.252 241.02 -107.859 241.813 -108.463L241.509 -108.861C242.306 -109.468 243.103 -110.073 243.902 -110.676L244.203 -110.277C245.002 -110.879 245.802 -111.478 246.603 -112.075L246.304 -112.476C247.106 -113.073 247.91 -113.668 248.715 -114.26L249.011 -113.857C249.815 -114.449 250.621 -115.038 251.428 -115.625L251.134 -116.029C251.942 -116.616 252.751 -117.201 253.562 -117.783L253.853 -117.377C254.663 -117.958 255.474 -118.537 256.287 -119.113L255.997 -119.521C256.811 -120.098 257.625 -120.672 258.441 -121.244L258.728 -120.834C259.547 -121.408 260.367 -121.979 261.189 -122.547L260.904 -122.958C261.728 -123.528 262.553 -124.095 263.379 -124.659L263.661 -124.246C264.486 -124.81 265.313 -125.372 266.141 -125.93L265.861 -126.345C266.69 -126.904 267.52 -127.46 268.352 -128.014L268.629 -127.598C269.46 -128.151 270.291 -128.702 271.124 -129.25L270.85 -129.668C271.684 -130.216 272.519 -130.762 273.355 -131.306L273.628 -130.886C274.463 -131.429 275.3 -131.969 276.138 -132.506L275.868 -132.927C276.708 -133.466 277.55 -134.002 278.393 -134.535L278.66 -134.113C279.506 -134.648 280.353 -135.181 281.201 -135.711L280.936 -136.135C281.785 -136.666 282.636 -137.193 283.487 -137.718L283.749 -137.293C284.6 -137.817 285.452 -138.339 286.305 -138.858L286.045 -139.285C286.898 -139.805 287.753 -140.322 288.609 -140.836L288.867 -140.407C289.722 -140.921 290.578 -141.431 291.436 -141.94L291.181 -142.37C292.039 -142.878 292.898 -143.384 293.759 -143.887L294.011 -143.455C294.871 -143.958 295.731 -144.458 296.593 -144.955L296.343 -145.388C297.211 -145.888 298.079 -146.386 298.949 -146.881L299.196 -146.446C300.066 -146.941 300.937 -147.433 301.809 -147.923L301.564 -148.359C302.437 -148.848 303.311 -149.335 304.185 -149.819L304.427 -149.382C305.301 -149.866 306.176 -150.346 307.052 -150.824L306.813 -151.263C307.69 -151.742 308.567 -152.217 309.446 -152.69L309.683 -152.25C310.561 -152.722 311.44 -153.192 312.32 -153.658L312.085 -154.1C312.966 -154.567 313.848 -155.031 314.73 -155.493L314.962 -155.05C315.847 -155.512 316.732 -155.972 317.619 -156.428L317.39 -156.873C318.281 -157.332 319.173 -157.788 320.065 -158.241L320.292 -157.796C321.184 -158.248 322.077 -158.698 322.97 -159.145L322.747 -159.592C323.641 -160.04 324.537 -160.484 325.433 -160.926L325.654 -160.478C326.55 -160.919 327.446 -161.357 328.343 -161.792L328.125 -162.242C329.023 -162.678 329.922 -163.111 330.821 -163.54L331.037 -163.089C331.936 -163.519 332.835 -163.945 333.736 -164.369L333.523 -164.821C334.425 -165.246 335.328 -165.667 336.231 -166.085L336.442 -165.632C337.351 -166.053 338.261 -166.471 339.172 -166.886L338.964 -167.341C339.876 -167.756 340.788 -168.169 341.701 -168.578L341.906 -168.122C342.818 -168.531 343.731 -168.937 344.645 -169.34L344.443 -169.797C345.358 -170.2 346.273 -170.601 347.189 -170.998L347.388 -170.539C348.303 -170.936 349.219 -171.33 350.135 -171.721L349.939 -172.181C350.856 -172.572 351.774 -172.96 352.693 -173.345L352.886 -172.884C353.804 -173.269 354.722 -173.651 355.641 -174.029L355.451 -174.492C356.378 -174.873 357.305 -175.252 358.233 -175.628L358.42 -175.164C359.349 -175.54 360.277 -175.913 361.207 -176.282L361.022 -176.747C361.952 -177.117 362.883 -177.483 363.815 -177.847L363.997 -177.381C364.927 -177.744 365.858 -178.104 366.79 -178.461L366.611 -178.928C367.543 -179.286 368.477 -179.64 369.41 -179.991L369.586 -179.523C370.519 -179.873 371.452 -180.221 372.386 -180.565L372.213 -181.034C373.147 -181.379 374.082 -181.721 375.018 -182.059L375.188 -181.589C376.128 -181.929 377.069 -182.266 378.01 -182.6L377.843 -183.071C378.788 -183.406 379.734 -183.738 380.68 -184.066L380.844 -183.594C381.789 -183.922 382.735 -184.247 383.68 -184.569L383.519 -185.043C384.466 -185.365 385.414 -185.684 386.361 -185.999L386.519 -185.525C387.466 -185.84 388.413 -186.152 389.361 -186.461L389.206 -186.937C390.154 -187.246 391.103 -187.552 392.052 -187.854L392.204 -187.378C393.152 -187.68 394.1 -187.979 395.049 -188.275L394.9 -188.752C395.855 -189.05 396.81 -189.344 397.765 -189.635L397.91 -189.156C398.869 -189.448 399.828 -189.737 400.787 -190.022L400.645 -190.502C401.605 -190.787 402.565 -191.069 403.526 -191.348L403.666 -190.868C404.625 -191.147 405.585 -191.422 406.546 -191.694L406.409 -192.175C407.371 -192.447 408.332 -192.716 409.294 -192.981L409.427 -192.499C410.388 -192.764 411.348 -193.026 412.309 -193.284L412.179 -193.767C413.142 -194.026 414.104 -194.281 415.066 -194.533L415.193 -194.049C416.158 -194.301 417.124 -194.551 418.09 -194.796L417.966 -195.281C418.939 -195.528 419.912 -195.772 420.884 -196.013L421.004 -195.528C421.976 -195.768 422.948 -196.005 423.92 -196.238L423.803 -196.724C424.776 -196.958 425.749 -197.188 426.722 -197.414L426.835 -196.927C427.807 -197.153 428.779 -197.376 429.751 -197.596L429.641 -198.083C430.615 -198.303 431.588 -198.519 432.561 -198.731L432.668 -198.243C433.64 -198.455 434.612 -198.664 435.584 -198.869L435.48 -199.358C436.458 -199.564 437.435 -199.767 438.413 -199.966L438.513 -199.477C439.495 -199.677 440.477 -199.873 441.46 -200.066L441.363 -200.557C442.347 -200.75 443.33 -200.94 444.313 -201.126L444.406 -200.634C445.388 -200.82 446.37 -201.002 447.352 -201.181L447.262 -201.673C448.245 -201.851 449.228 -202.026 450.211 -202.198L450.297 -201.705C451.278 -201.876 452.259 -202.044 453.241 -202.208L453.158 -202.701C454.14 -202.865 455.123 -203.026 456.104 -203.182L456.183 -202.689C457.169 -202.846 458.155 -203 459.141 -203.15L459.066 -203.644C460.058 -203.795 461.05 -203.942 462.042 -204.086L462.113 -203.591C463.104 -203.734 464.094 -203.874 465.084 -204.01L465.016 -204.505C466.008 -204.641 466.998 -204.773 467.989 -204.902L468.053 -204.406C469.043 -204.534 470.032 -204.658 471.02 -204.779L470.96 -205.275C471.95 -205.396 472.939 -205.513 473.928 -205.626L473.985 -205.13C474.973 -205.243 475.961 -205.352 476.948 -205.457L476.895 -205.955C477.89 -206.061 478.886 -206.164 479.88 -206.262L479.93 -205.765C480.927 -205.863 481.924 -205.958 482.92 -206.05L482.875 -206.547C483.872 -206.639 484.87 -206.726 485.866 -206.809L485.908 -206.311C486.903 -206.394 487.898 -206.474 488.893 -206.549L488.855 -207.047C489.851 -207.123 490.846 -207.195 491.841 -207.262L491.874 -206.763C492.868 -206.831 493.861 -206.894 494.853 -206.954L494.823 -207.453C495.816 -207.513 496.809 -207.569 497.801 -207.62L497.827 -207.121C498.828 -207.173 499.828 -207.221 500.828 -207.266L500.805 -207.765C501.808 -207.809 502.809 -207.85 503.81 -207.886L503.828 -207.386C504.827 -207.422 505.826 -207.454 506.824 -207.482L506.81 -207.982C507.809 -208.01 508.808 -208.034 509.806 -208.054L509.816 -207.554C510.812 -207.573 511.808 -207.589 512.803 -207.601L512.798 -208.101C513.794 -208.112 514.79 -208.12 515.784 -208.123L515.786 -207.623C516.782 -207.627 517.776 -207.626 518.77 -207.621L518.772 -208.121C519.776 -208.116 520.78 -208.107 521.782 -208.094L521.775 -207.594C522.776 -207.581 523.776 -207.563 524.776 -207.541L524.786 -208.041C525.787 -208.019 526.787 -207.994 527.786 -207.963L527.77 -207.464C528.768 -207.433 529.764 -207.399 530.76 -207.36L530.779 -207.86C531.776 -207.821 532.772 -207.778 533.767 -207.731L533.743 -207.231C534.736 -207.184 535.729 -207.133 536.72 -207.077L536.748 -207.576C537.747 -207.52 538.744 -207.46 539.741 -207.395L539.708 -206.896C540.708 -206.831 541.707 -206.762 542.704 -206.688L542.741 -207.187C543.74 -207.113 544.738 -207.035 545.734 -206.953L545.693 -206.454C546.688 -206.372 547.682 -206.285 548.675 -206.194L548.721 -206.692C549.715 -206.6 550.709 -206.505 551.701 -206.405L551.65 -205.907C552.641 -205.807 553.63 -205.703 554.618 -205.594L554.673 -206.091C555.663 -205.982 556.651 -205.869 557.638 -205.751L557.579 -205.254C558.574 -205.136 559.568 -205.012 560.56 -204.885L560.624 -205.38C561.618 -205.252 562.611 -205.12 563.602 -204.983L563.533 -204.488C564.523 -204.351 565.512 -204.209 566.499 -204.064L566.572 -204.558C567.56 -204.412 568.548 -204.261 569.533 -204.106L569.456 -203.612C570.44 -203.457 571.423 -203.298 572.404 -203.134L572.487 -203.627C573.469 -203.462 574.451 -203.293 575.431 -203.12L575.344 -202.628C575.833 -202.541 576.322 -202.453 576.811 -202.364C577.307 -202.274 577.802 -202.183 578.297 -202.091L578.389 -202.582C579.379 -202.398 580.367 -202.21 581.352 -202.019L581.257 -201.528C582.24 -201.337 583.221 -201.142 584.198 -200.944L584.298 -201.434C585.277 -201.235 586.253 -201.033 587.226 -200.828L587.122 -200.339C588.094 -200.134 589.063 -199.925 590.028 -199.713L590.136 -200.201C591.103 -199.989 592.067 -199.773 593.028 -199.553L592.917 -199.066C593.879 -198.846 594.839 -198.623 595.795 -198.396L595.911 -198.883C596.892 -198.65 597.871 -198.414 598.846 -198.174L598.726 -197.689C599.7 -197.449 600.671 -197.206 601.639 -196.959L601.762 -197.443C602.731 -197.196 603.697 -196.945 604.66 -196.691L604.532 -196.207C605.493 -195.953 606.451 -195.695 607.407 -195.434L607.539 -195.916C608.495 -195.654 609.448 -195.389 610.399 -195.12L610.262 -194.639C611.211 -194.37 612.157 -194.098 613.099 -193.822L613.24 -194.302C614.205 -194.019 615.167 -193.733 616.125 -193.443L615.98 -192.964C616.94 -192.674 617.897 -192.379 618.85 -192.081L618.999 -192.559C619.954 -192.26 620.906 -191.958 621.854 -191.652L621.7 -191.176C622.647 -190.87 623.591 -190.561 624.531 -190.248L624.689 -190.722C625.63 -190.409 626.569 -190.091 627.504 -189.77L627.341 -189.297C628.275 -188.977 629.205 -188.652 630.132 -188.324L630.299 -188.796C631.245 -188.461 632.187 -188.122 633.126 -187.78L632.955 -187.31C633.896 -186.967 634.834 -186.619 635.769 -186.268L635.945 -186.736C636.881 -186.384 637.813 -186.029 638.743 -185.669L638.562 -185.203C639.49 -184.844 640.414 -184.481 641.335 -184.114L641.52 -184.579C642.442 -184.211 643.361 -183.84 644.276 -183.465L644.087 -183.002C645.001 -182.628 645.911 -182.249 646.818 -181.867L647.012 -182.328C647.937 -181.938 648.858 -181.545 649.775 -181.147L649.577 -180.688C650.495 -180.29 651.409 -179.888 652.321 -179.482L652.524 -179.939C653.437 -179.532 654.346 -179.122 655.251 -178.707L655.043 -178.252C655.947 -177.838 656.847 -177.421 657.744 -176.999L657.957 -177.451C658.855 -177.029 659.75 -176.602 660.641 -176.171L660.423 -175.721C661.314 -175.291 662.201 -174.857 663.084 -174.419L663.306 -174.866C664.205 -174.42 665.101 -173.97 665.993 -173.516L665.766 -173.07C666.656 -172.617 667.542 -172.159 668.425 -171.698L668.657 -172.141C669.541 -171.678 670.422 -171.212 671.299 -170.741L671.063 -170.301C671.938 -169.831 672.81 -169.357 673.677 -168.879L673.919 -169.317C674.788 -168.838 675.654 -168.356 676.516 -167.869L676.27 -167.433C677.135 -166.945 677.996 -166.453 678.853 -165.957L679.103 -166.389C679.97 -165.887 680.833 -165.381 681.692 -164.871L681.437 -164.441C682.294 -163.932 683.148 -163.418 683.998 -162.901L684.258 -163.328C685.109 -162.809 685.957 -162.287 686.8 -161.76L686.536 -161.336C687.378 -160.81 688.216 -160.28 689.051 -159.746L689.32 -160.168C690.156 -159.633 690.989 -159.094 691.817 -158.551L691.543 -158.132C692.376 -157.586 693.205 -157.036 694.031 -156.481L694.309 -156.896C695.139 -156.339 695.965 -155.778 696.786 -155.212L696.503 -154.8C697.323 -154.236 698.14 -153.667 698.952 -153.094L699.24 -153.503C700.054 -152.929 700.864 -152.351 701.67 -151.769L701.377 -151.363C702.182 -150.782 702.983 -150.197 703.779 -149.608L704.077 -150.01C704.876 -149.419 705.671 -148.824 706.462 -148.224L706.16 -147.826C706.955 -147.224 707.745 -146.618 708.532 -146.008L708.839 -146.403C709.627 -145.791 710.411 -145.176 711.192 -144.556L710.881 -144.165C711.659 -143.546 712.434 -142.923 713.205 -142.297L713.521 -142.685C714.293 -142.057 715.061 -141.425 715.826 -140.788L715.506 -140.404C716.269 -139.769 717.028 -139.13 717.783 -138.487L718.107 -138.868C718.865 -138.222 719.619 -137.572 720.37 -136.918L720.041 -136.541C720.791 -135.887 721.537 -135.229 722.279 -134.567L722.612 -134.94C723.355 -134.276 724.094 -133.609 724.83 -132.937L724.492 -132.568C725.226 -131.898 725.956 -131.223 726.682 -130.545L727.024 -130.91C727.751 -130.23 728.474 -129.547 729.193 -128.859L728.848 -128.497C729.566 -127.811 730.28 -127.12 730.989 -126.425L731.339 -126.783C732.051 -126.086 732.758 -125.386 733.462 -124.681L733.108 -124.328C733.81 -123.625 734.508 -122.918 735.202 -122.207L735.56 -122.556C736.255 -121.843 736.947 -121.127 737.634 -120.406L737.272 -120.061C737.958 -119.342 738.64 -118.619 739.318 -117.891L739.684 -118.232C740.364 -117.504 741.039 -116.771 741.71 -116.034L741.341 -115.698C742.009 -114.964 742.674 -114.226 743.335 -113.484L743.709 -113.816C744.37 -113.074 745.027 -112.327 745.68 -111.577L745.303 -111.249C745.955 -110.5 746.603 -109.747 747.247 -108.99L747.628 -109.314C748.273 -108.556 748.915 -107.794 749.552 -107.028L749.168 -106.708C749.804 -105.943 750.436 -105.175 751.064 -104.402L751.452 -104.718C752.081 -103.944 752.706 -103.166 753.327 -102.385L752.936 -102.074C753.552 -101.298 754.164 -100.519 754.773 -99.7357L755.167 -100.042C755.777 -99.2579 756.382 -98.4695 756.984 -97.6772L756.586 -97.3748C757.186 -96.584 757.783 -95.7894 758.375 -94.991L758.777 -95.2889C759.371 -94.489 759.96 -93.6853 760.546 -92.8778L760.141 -92.5842C760.726 -91.7781 761.307 -90.9683 761.884 -90.1546L762.291 -90.4438C762.867 -89.6321 763.438 -88.8168 764.006 -87.9976L763.595 -87.7129C764.158 -86.8993 764.718 -86.0819 765.274 -85.2609L765.688 -85.5412C766.245 -84.7187 766.798 -83.8925 767.347 -83.0626L766.93 -82.7867C767.479 -81.9583 768.023 -81.1262 768.563 -80.2904L768.983 -80.5619C769.525 -79.7246 770.062 -78.8836 770.596 -78.039L770.173 -77.772C770.706 -76.9288 771.235 -76.082 771.76 -75.2316L772.185 -75.4942C772.706 -74.651 773.222 -73.8041 773.735 -72.9537L773.307 -72.6955C773.818 -71.8481 774.325 -70.9972 774.829 -70.1426L775.26 -70.3965C775.764 -69.5405 776.265 -68.681 776.761 -67.8179L776.328 -67.5685C776.824 -66.7069 777.316 -65.8418 777.804 -64.9731L778.24 -65.2182C778.729 -64.348 779.215 -63.4744 779.696 -62.5973L779.258 -62.3566C779.738 -61.4831 780.214 -60.6061 780.686 -59.7255L781.126 -59.9618C781.593 -59.0904 782.057 -58.2156 782.517 -57.3375L782.074 -57.1055C782.533 -56.2288 782.988 -55.3487 783.44 -54.4652L783.885 -54.6928C784.337 -53.8078 784.786 -52.9195 785.231 -52.0278L784.784 -51.8046C785.228 -50.9143 785.669 -50.0207 786.106 -49.1238L786.555 -49.3427C786.993 -48.4443 787.427 -47.5426 787.857 -46.6375L787.405 -46.4228C787.832 -45.5252 788.255 -44.6242 788.675 -43.72L789.128 -43.9304C789.544 -43.0338 789.956 -42.1339 790.365 -41.2309L789.91 -41.0247C790.318 -40.123 790.722 -39.2182 791.123 -38.3101L791.581 -38.5121C791.982 -37.6026 792.38 -36.6899 792.775 -35.774L792.316 -35.5762C792.709 -34.6618 793.1 -33.7441 793.486 -32.8232L793.947 -33.0168C794.335 -32.0946 794.719 -31.1691 795.099 -30.2405L794.636 -30.0511C795.012 -29.1331 795.384 -28.212 795.753 -27.2877L796.217 -27.4731C796.584 -26.5554 796.946 -25.6348 797.306 -24.7111L796.84 -24.5298C797.198 -23.6074 797.554 -22.682 797.906 -21.7536L798.373 -21.9308C798.726 -21.001 799.075 -20.0682 799.42 -19.1323L798.951 -18.9592C799.296 -18.0247 799.638 -17.0872 799.976 -16.1466L800.446 -16.3158C800.785 -15.374 801.12 -14.4291 801.452 -13.4812L800.98 -13.316C801.308 -12.3802 801.632 -11.4414 801.953 -10.4997L802.426 -10.661C802.744 -9.72628 803.059 -8.78872 803.371 -7.84829L802.897 -7.69094C803.208 -6.7518 803.516 -5.8098 803.821 -4.86495L804.297 -5.01844C804.602 -4.0723 804.904 -3.12329 805.202 -2.17145L804.725 -2.02181C805.023 -1.07127 805.318 -0.117872 805.61 0.838366L806.088 0.692541C806.38 1.65006 806.669 2.6104 806.954 3.57358L806.475 3.71559C806.757 4.66788 807.035 5.62295 807.311 6.58078L807.792 6.44254C808.064 7.39065 808.334 8.34143 808.6 9.29493L808.119 9.4295C808.385 10.3818 808.648 11.3367 808.908 12.2944L809.39 12.1635C809.65 13.1223 809.907 14.0839 810.161 15.0481L809.678 15.1753C809.931 16.1383 810.181 17.104 810.428 18.0723L810.913 17.9487C811.16 18.9183 811.404 19.8905 811.645 20.8653L811.16 20.9853C811.399 21.9538 811.636 22.9248 811.869 23.8985L812.355 23.7821C812.585 24.7403 812.811 25.701 813.035 26.6643L812.547 26.7773C812.771 27.7394 812.991 28.704 813.208 29.6712L813.696 29.5617C813.913 30.53 814.127 31.5008 814.338 32.4741L813.85 32.5802C814.061 33.5524 814.269 34.527 814.474 35.5042L814.963 35.4016C815.168 36.3799 815.37 37.3607 815.57 38.344L815.079 38.4433C815.278 39.4254 815.474 40.4101 815.667 41.3973L816.158 41.3014C816.347 42.2698 816.533 43.2406 816.716 44.2137L816.225 44.3063C816.408 45.2753 816.587 46.2467 816.764 47.2204L817.256 47.1311C817.433 48.106 817.607 49.0832 817.778 50.0627L817.285 50.1487C817.378 50.6806 817.47 51.2131 817.562 51.7463C817.638 52.1941 817.714 52.6424 817.789 53.0911L818.283 53.0083C818.448 53.9925 818.61 54.979 818.77 55.9679L818.276 56.0475C818.436 57.0353 818.592 58.0255 818.746 59.0179L819.24 58.9415C819.392 59.9268 819.542 60.9145 819.688 61.9044L819.194 61.9777C819.338 62.951 819.48 63.9266 819.618 64.9044L820.113 64.8342C820.252 65.813 820.388 66.794 820.522 67.7772L820.026 67.8444C820.16 68.8265 820.29 69.8109 820.418 70.7975L820.914 70.7333C821.041 71.7209 821.167 72.7106 821.289 73.7025L820.793 73.7637C820.915 74.7547 821.034 75.7478 821.151 76.7431L821.647 76.6849C821.764 77.6811 821.878 78.6796 821.989 79.6802L821.492 79.7354C821.602 80.719 821.708 81.7046 821.812 82.6923L822.31 82.6399C822.413 83.6205 822.513 84.6031 822.611 85.5878L822.114 85.6373C822.212 86.621 822.307 87.6067 822.399 88.5945L822.897 88.5479C822.99 89.5366 823.08 90.5274 823.167 91.5202L822.669 91.564C822.756 92.5559 822.841 93.5498 822.923 94.5458L823.421 94.5047C823.504 95.5016 823.583 96.5005 823.66 97.5015L823.161 97.5397C823.238 98.5397 823.312 99.5418 823.384 100.546L823.882 100.51C823.953 101.495 824.02 102.482 824.085 103.471L823.586 103.503C823.613 103.915 823.64 104.328 823.666 104.74C823.703 105.312 823.738 105.885 823.773 106.459L824.272 106.429C824.332 107.417 824.389 108.407 824.443 109.399L823.944 109.426C823.999 110.417 824.051 111.41 824.101 112.405L824.6 112.38C824.65 113.376 824.697 114.373 824.742 115.373L824.242 115.395C824.287 116.394 824.329 117.394 824.368 118.396L824.868 118.377C824.908 119.38 824.945 120.385 824.979 121.392L824.48 121.409C824.498 121.95 824.516 122.492 824.533 123.035C824.547 123.481 824.561 123.927 824.574 124.373L825.074 124.358C825.103 125.344 825.129 126.332 825.153 127.321L824.654 127.333C824.678 128.322 824.699 129.312 824.719 130.304L825.219 130.294C825.238 131.287 825.255 132.282 825.27 133.278L824.77 133.285C824.784 134.281 824.796 135.278 824.806 136.277L825.306 136.273C825.316 137.272 825.323 138.274 825.328 139.277L824.828 139.28C824.833 140.283 824.836 141.287 824.836 142.293L825.336 142.293C825.336 143.285 825.334 144.278 825.33 145.274L824.83 145.271C824.825 146.256 824.819 147.242 824.81 148.23L825.31 148.235C825.301 149.224 825.29 150.214 825.276 151.206L824.776 151.199C824.763 152.191 824.747 153.184 824.729 154.178L825.229 154.187C825.211 155.183 825.19 156.18 825.168 157.178L824.668 157.167C824.645 158.165 824.62 159.164 824.593 160.165L825.093 160.179C825.066 161.181 825.036 162.184 825.005 163.19L824.505 163.174C824.473 164.172 824.44 165.173 824.403 166.175L824.903 166.193C824.868 167.176 824.83 168.162 824.791 169.148L824.291 169.128C824.251 170.114 824.209 171.102 824.165 172.091L824.665 172.113C824.621 173.103 824.575 174.094 824.526 175.087L824.027 175.062C823.978 176.054 823.928 177.048 823.875 178.043L824.374 178.07C824.322 179.065 824.267 180.063 824.21 181.062L823.71 181.033C823.653 182.031 823.594 183.031 823.533 184.032L824.032 184.063C823.97 185.065 823.907 186.068 823.841 187.073L823.342 187.041C823.278 188.028 823.211 189.018 823.142 190.009L823.641 190.043C823.572 191.027 823.502 192.011 823.43 192.998L822.931 192.961C822.91 193.241 822.89 193.52 822.869 193.8C822.816 194.507 822.762 195.214 822.707 195.922L823.206 195.96C823.129 196.949 823.051 197.94 822.97 198.932L822.471 198.891C822.391 199.882 822.308 200.875 822.223 201.869L822.721 201.911C822.637 202.906 822.55 203.902 822.461 204.9L821.963 204.855C821.874 205.852 821.783 206.85 821.69 207.85L822.187 207.896C822.094 208.897 821.999 209.898 821.902 210.902L821.404 210.853C821.309 211.834 821.212 212.815 821.113 213.798L821.61 213.848C821.511 214.83 821.411 215.813 821.308 216.797L820.81 216.745C820.708 217.728 820.603 218.713 820.496 219.7L820.993 219.753C820.887 220.74 820.778 221.728 820.667 222.718L820.17 222.662C820.06 223.651 819.947 224.641 819.832 225.633L820.329 225.69C820.214 226.682 820.098 227.675 819.979 228.67L819.483 228.611C819.364 229.605 819.244 230.6 819.121 231.597L819.618 231.658C819.495 232.655 819.371 233.654 819.244 234.654L818.748 234.591C818.625 235.567 818.499 236.544 818.372 237.523L818.868 237.588C818.741 238.566 818.612 239.546 818.481 240.527L817.985 240.46C817.854 241.441 817.721 242.422 817.587 243.405L818.082 243.473C817.947 244.456 817.811 245.441 817.672 246.427L817.177 246.357C817.039 247.343 816.898 248.329 816.756 249.317L817.251 249.388C817.109 250.376 816.965 251.366 816.819 252.356L816.324 252.284C816.178 253.274 816.03 254.265 815.881 255.258L816.375 255.332C816.225 256.325 816.073 257.32 815.92 258.315L815.426 258.239C815.275 259.214 815.123 260.191 814.969 261.169L815.463 261.246C815.31 262.221 815.154 263.196 814.997 264.173L814.503 264.093C814.346 265.07 814.188 266.047 814.027 267.025L814.52 267.106C814.36 268.085 814.197 269.065 814.033 270.046L813.54 269.964C813.376 270.945 813.21 271.926 813.042 272.909L813.535 272.993C813.367 273.977 813.197 274.961 813.026 275.947L812.533 275.861C812.362 276.847 812.189 277.833 812.014 278.82L812.506 278.908C812.331 279.896 812.154 280.885 811.976 281.875L811.484 281.786C811.394 282.281 811.305 282.776 811.215 283.271Z" stroke="#BEC7E7" stroke-dasharray="3 3"/>
<circle cx="786.5" cy="369.5" r="11.5" fill="url(#paint0_linear_525_3)"/>
<g filter="url(#filter0_bi_525_3)">
<circle cx="786.5" cy="369.5" r="11.5" fill="url(#paint1_radial_525_3)"/>
</g>
<circle cx="825.5" cy="192.5" r="11.5" fill="url(#paint2_linear_525_3)"/>
<g filter="url(#filter1_bi_525_3)">
<circle cx="825.5" cy="192.5" r="11.5" fill="url(#paint3_radial_525_3)"/>
</g>
<circle cx="700" cy="92" r="47" stroke="url(#paint4_linear_525_3)" stroke-width="20"/>
<g filter="url(#filter2_bi_525_3)">
<ellipse cx="729" cy="136.5" rx="45" ry="44.5" fill="url(#paint5_radial_525_3)"/>
</g>
<ellipse rx="44.5" ry="45" transform="matrix(-1 0 0 1 116.693 649)" fill="url(#paint6_linear_525_3)"/>
<g filter="url(#filter3_bi_525_3)">
<ellipse rx="71" ry="70.5" transform="matrix(-1 0 0 1 84 713.843)" fill="url(#paint7_radial_525_3)"/>
</g>
<path fill-rule="evenodd" clip-rule="evenodd" d="M132.191 101.216C125.797 96.7671 118.151 93.9053 109.797 93.2599C85.0184 91.3455 63.3964 109.658 61.5033 134.161C60.2501 150.383 67.9573 165.252 80.4996 174.005L132.191 101.216Z" fill="url(#paint8_linear_525_3)"/>
<g filter="url(#filter4_bi_525_3)">
<ellipse rx="43.1001" ry="42.7966" transform="matrix(0.982992 -0.183647 -0.183647 -0.982992 122.227 101.984)" fill="url(#paint9_radial_525_3)"/>
</g>
<circle cx="75.5" cy="537.5" r="11.5" fill="url(#paint10_linear_525_3)"/>
<g filter="url(#filter5_bi_525_3)">
<circle cx="75.5" cy="537.5" r="11.5" fill="url(#paint11_radial_525_3)"/>
</g>
<defs>
<filter id="filter0_bi_525_3" x="715" y="298" width="143" height="143" filterUnits="userSpaceOnUse" color-interpolation-filters="sRGB">
<feFlood flood-opacity="0" result="BackgroundImageFix"/>
<feGaussianBlur in="BackgroundImage" stdDeviation="30"/>
<feComposite in2="SourceAlpha" operator="in" result="effect1_backgroundBlur_525_3"/>
<feBlend mode="normal" in="SourceGraphic" in2="effect1_backgroundBlur_525_3" result="shape"/>
<feColorMatrix in="SourceAlpha" type="matrix" values="0 0 0 0 0 0 0 0 0 0 0 0 0 0 0 0 0 0 127 0" result="hardAlpha"/>
<feOffset dy="4"/>
<feGaussianBlur stdDeviation="35"/>
<feComposite in2="hardAlpha" operator="arithmetic" k2="-1" k3="1"/>
<feColorMatrix type="matrix" values="0 0 0 0 1 0 0 0 0 1 0 0 0 0 1 0 0 0 0.5 0"/>
<feBlend mode="normal" in2="shape" result="effect2_innerShadow_525_3"/>
</filter>
<filter id="filter1_bi_525_3" x="754" y="121" width="143" height="143" filterUnits="userSpaceOnUse" color-interpolation-filters="sRGB">
<feFlood flood-opacity="0" result="BackgroundImageFix"/>
<feGaussianBlur in="BackgroundImage" stdDeviation="30"/>
<feComposite in2="SourceAlpha" operator="in" result="effect1_backgroundBlur_525_3"/>
<feBlend mode="normal" in="SourceGraphic" in2="effect1_backgroundBlur_525_3" result="shape"/>
<feColorMatrix in="SourceAlpha" type="matrix" values="0 0 0 0 0 0 0 0 0 0 0 0 0 0 0 0 0 0 127 0" result="hardAlpha"/>
<feOffset dy="4"/>
<feGaussianBlur stdDeviation="35"/>
<feComposite in2="hardAlpha" operator="arithmetic" k2="-1" k3="1"/>
<feColorMatrix type="matrix" values="0 0 0 0 1 0 0 0 0 1 0 0 0 0 1 0 0 0 0.5 0"/>
<feBlend mode="normal" in2="shape" result="effect2_innerShadow_525_3"/>
</filter>
<filter id="filter2_bi_525_3" x="664" y="72" width="130" height="129" filterUnits="userSpaceOnUse" color-interpolation-filters="sRGB">
<feFlood flood-opacity="0" result="BackgroundImageFix"/>
<feGaussianBlur in="BackgroundImage" stdDeviation="10"/>
<feComposite in2="SourceAlpha" operator="in" result="effect1_backgroundBlur_525_3"/>
<feBlend mode="normal" in="SourceGraphic" in2="effect1_backgroundBlur_525_3" result="shape"/>
<feColorMatrix in="SourceAlpha" type="matrix" values="0 0 0 0 0 0 0 0 0 0 0 0 0 0 0 0 0 0 127 0" result="hardAlpha"/>
<feOffset dy="4"/>
<feGaussianBlur stdDeviation="35"/>
<feComposite in2="hardAlpha" operator="arithmetic" k2="-1" k3="1"/>
<feColorMatrix type="matrix" values="0 0 0 0 1 0 0 0 0 1 0 0 0 0 1 0 0 0 0.5 0"/>
<feBlend mode="normal" in2="shape" result="effect2_innerShadow_525_3"/>
</filter>
<filter id="filter3_bi_525_3" x="-7" y="623.343" width="182" height="181" filterUnits="userSpaceOnUse" color-interpolation-filters="sRGB">
<feFlood flood-opacity="0" result="BackgroundImageFix"/>
<feGaussianBlur in="BackgroundImage" stdDeviation="10"/>
<feComposite in2="SourceAlpha" operator="in" result="effect1_backgroundBlur_525_3"/>
<feBlend mode="normal" in="SourceGraphic" in2="effect1_backgroundBlur_525_3" result="shape"/>
<feColorMatrix in="SourceAlpha" type="matrix" values="0 0 0 0 0 0 0 0 0 0 0 0 0 0 0 0 0 0 127 0" result="hardAlpha"/>
<feOffset dy="4"/>
<feGaussianBlur stdDeviation="35"/>
<feComposite in2="hardAlpha" operator="arithmetic" k2="-1" k3="1"/>
<feColorMatrix type="matrix" values="0 0 0 0 1 0 0 0 0 1 0 0 0 0 1 0 0 0 0.5 0"/>
<feBlend mode="normal" in2="shape" result="effect2_innerShadow_525_3"/>
</filter>
<filter id="filter4_bi_525_3" x="59.1294" y="39.1694" width="126.195" height="125.629" filterUnits="userSpaceOnUse" color-interpolation-filters="sRGB">
<feFlood flood-opacity="0" result="BackgroundImageFix"/>
<feGaussianBlur in="BackgroundImage" stdDeviation="10"/>
<feComposite in2="SourceAlpha" operator="in" result="effect1_backgroundBlur_525_3"/>
<feBlend mode="normal" in="SourceGraphic" in2="effect1_backgroundBlur_525_3" result="shape"/>
<feColorMatrix in="SourceAlpha" type="matrix" values="0 0 0 0 0 0 0 0 0 0 0 0 0 0 0 0 0 0 127 0" result="hardAlpha"/>
<feOffset dy="4"/>
<feGaussianBlur stdDeviation="35"/>
<feComposite in2="hardAlpha" operator="arithmetic" k2="-1" k3="1"/>
<feColorMatrix type="matrix" values="0 0 0 0 1 0 0 0 0 1 0 0 0 0 1 0 0 0 0.5 0"/>
<feBlend mode="normal" in2="shape" result="effect2_innerShadow_525_3"/>
</filter>
<filter id="filter5_bi_525_3" x="4" y="466" width="143" height="143" filterUnits="userSpaceOnUse" color-interpolation-filters="sRGB">
<feFlood flood-opacity="0" result="BackgroundImageFix"/>
<feGaussianBlur in="BackgroundImage" stdDeviation="30"/>
<feComposite in2="SourceAlpha" operator="in" result="effect1_backgroundBlur_525_3"/>
<feBlend mode="normal" in="SourceGraphic" in2="effect1_backgroundBlur_525_3" result="shape"/>
<feColorMatrix in="SourceAlpha" type="matrix" values="0 0 0 0 0 0 0 0 0 0 0 0 0 0 0 0 0 0 127 0" result="hardAlpha"/>
<feOffset dy="4"/>
<feGaussianBlur stdDeviation="35"/>
<feComposite in2="hardAlpha" operator="arithmetic" k2="-1" k3="1"/>
<feColorMatrix type="matrix" values="0 0 0 0 1 0 0 0 0 1 0 0 0 0 1 0 0 0 0.5 0"/>
<feBlend mode="normal" in2="shape" result="effect2_innerShadow_525_3"/>
</filter>
<linearGradient id="paint0_linear_525_3" x1="786.5" y1="358" x2="786.5" y2="381" gradientUnits="userSpaceOnUse">
<stop stop-color="#2770C0"/>
<stop offset="1" stop-color="#39C2ED"/>
</linearGradient>
<radialGradient id="paint1_radial_525_3" cx="0" cy="0" r="1" gradientUnits="userSpaceOnUse" gradientTransform="translate(781.845 362.518) rotate(51.221) scale(20.5471)">
<stop stop-color="white" stop-opacity="0.5"/>
<stop offset="1" stop-color="#C4C4C4" stop-opacity="0"/>
</radialGradient>
<linearGradient id="paint2_linear_525_3" x1="825.5" y1="181" x2="825.5" y2="204" gradientUnits="userSpaceOnUse">
<stop stop-color="#2770C0"/>
<stop offset="1" stop-color="#39C2ED"/>
</linearGradient>
<radialGradient id="paint3_radial_525_3" cx="0" cy="0" r="1" gradientUnits="userSpaceOnUse" gradientTransform="translate(820.845 185.518) rotate(51.221) scale(20.5471)">
<stop stop-color="white" stop-opacity="0.5"/>
<stop offset="1" stop-color="#C4C4C4" stop-opacity="0"/>
</radialGradient>
<linearGradient id="paint4_linear_525_3" x1="643" y1="91.0656" x2="754.117" y2="91.0656" gradientUnits="userSpaceOnUse">
<stop stop-color="#3669CD"/>
<stop offset="0.484375" stop-color="#8D3BDE"/>
<stop offset="1" stop-color="#EA5FAB"/>
</linearGradient>
<radialGradient id="paint5_radial_525_3" cx="0" cy="0" r="1" gradientUnits="userSpaceOnUse" gradientTransform="translate(710.786 109.482) rotate(50.908) scale(79.86 80.0478)">
<stop stop-color="white" stop-opacity="0.4"/>
<stop offset="1" stop-color="#C4C4C4" stop-opacity="0"/>
</radialGradient>
<linearGradient id="paint6_linear_525_3" x1="44.5" y1="0" x2="44.5" y2="90" gradientUnits="userSpaceOnUse">
<stop stop-color="#2770C0"/>
<stop offset="1" stop-color="#39C2ED"/>
</linearGradient>
<radialGradient id="paint7_radial_525_3" cx="0" cy="0" r="1" gradientUnits="userSpaceOnUse" gradientTransform="translate(42.2619 27.6964) rotate(51.0231) scale(126.314 126.503)">
<stop stop-color="white" stop-opacity="0.4"/>
<stop offset="1" stop-color="#C4C4C4" stop-opacity="0"/>
</radialGradient>
<linearGradient id="paint8_linear_525_3" x1="129.481" y1="136.285" x2="61.7435" y2="131.051" gradientUnits="userSpaceOnUse">
<stop stop-color="#2DD882"/>
<stop offset="1" stop-color="#1FAB64"/>
</linearGradient>
<radialGradient id="paint9_radial_525_3" cx="0" cy="0" r="1" gradientUnits="userSpaceOnUse" gradientTransform="translate(25.6548 16.8129) rotate(51.0231) scale(76.6781 76.7931)">
<stop stop-color="white" stop-opacity="0.4"/>
<stop offset="1" stop-color="#C4C4C4" stop-opacity="0"/>
</radialGradient>
<linearGradient id="paint10_linear_525_3" x1="75.5" y1="526" x2="75.5" y2="549" gradientUnits="userSpaceOnUse">
<stop stop-color="#2770C0"/>
<stop offset="1" stop-color="#39C2ED"/>
</linearGradient>
<radialGradient id="paint11_radial_525_3" cx="0" cy="0" r="1" gradientUnits="userSpaceOnUse" gradientTransform="translate(70.8452 530.518) rotate(51.221) scale(20.5471)">
<stop stop-color="white" stop-opacity="0.5"/>
<stop offset="1" stop-color="#C4C4C4" stop-opacity="0"/>
</radialGradient>
</defs>
</svg>
