<svg width="10" height="16" viewBox="0 0 10 16" fill="none" xmlns="http://www.w3.org/2000/svg">
<path d="M0.449292 6.97502L7.9496 0.308068C8.20458 0.0831012 8.53274 -0.0249234 8.86222 0.00765047C9.19171 0.0402243 9.49566 0.210742 9.70753 0.481862C9.9194 0.752982 10.0219 1.10261 9.99261 1.45418C9.96332 1.80575 9.8046 2.13061 9.55123 2.35762L3.20331 7.99984L9.55123 13.6421C9.80558 13.8688 9.96517 14.1939 9.99494 14.546C10.0247 14.8981 9.92223 15.2485 9.71001 15.52C9.49778 15.7916 9.19318 15.9622 8.8631 15.9944C8.53302 16.0266 8.20446 15.9177 7.9496 15.6916L0.449292 9.02458C0.308656 8.89925 0.195529 8.74251 0.117903 8.56544C0.0402765 8.38837 4.29153e-05 8.19528 4.29153e-05 7.9998C4.29153e-05 7.80432 0.0402765 7.61123 0.117903 7.43416C0.195529 7.25709 0.308656 7.10035 0.449292 6.97502Z" fill="white"/>
</svg>
