<svg width="10" height="16" viewBox="0 0 10 16" fill="none" xmlns="http://www.w3.org/2000/svg">
<path d="M9.55071 6.97502L2.0504 0.308068C1.79542 0.0831012 1.46726 -0.0249234 1.13778 0.00765047C0.808294 0.0402243 0.504337 0.210742 0.29247 0.481862C0.0806036 0.752982 -0.0219064 1.10261 0.00738859 1.45418C0.0366835 1.80575 0.195396 2.13061 0.44877 2.35762L6.79669 7.99984L0.44877 13.6421C0.194419 13.8688 0.03483 14.1939 0.00505885 14.546C-0.0247123 14.8981 0.0777697 15.2485 0.289993 15.52C0.502215 15.7916 0.806822 15.9622 1.1369 15.9944C1.46698 16.0266 1.79554 15.9177 2.0504 15.6916L9.55071 9.02458C9.69134 8.89925 9.80447 8.74251 9.8821 8.56544C9.95972 8.38837 9.99996 8.19528 9.99996 7.9998C9.99996 7.80432 9.95972 7.61123 9.8821 7.43416C9.80447 7.25709 9.69134 7.10035 9.55071 6.97502Z" fill="white"/>
</svg>
