<svg width="64" height="61" viewBox="0 0 64 61" fill="none" xmlns="http://www.w3.org/2000/svg">
<g clip-path="url(#clip0_414_86)">
<path fill-rule="evenodd" clip-rule="evenodd" d="M24.9232 0.725098C20.2169 0.725098 16.2692 4.37074 16.2692 8.93207V12.3352H7.59771C3.603 12.3352 0.320312 15.6218 0.320312 19.6272V53.9827C0.320312 57.988 3.60338 61.2746 7.59771 61.2746H56.4099C60.4041 61.2746 63.6802 57.986 63.6802 53.9827V19.6272C63.6802 15.6238 60.4046 12.3352 56.4099 12.3352H47.7384V8.93207C47.7384 4.36881 43.7848 0.725098 39.0843 0.725098H24.9232ZM24.9232 3.60484H39.0841C42.3115 3.60484 44.8582 6.04371 44.8582 8.93207V12.3352H42.8303V10.7697C42.8303 7.53938 39.9701 5.03481 36.6559 5.03481H27.3516C24.0318 5.03481 21.1696 7.5399 21.1696 10.7697V12.3352H19.1486V8.93207C19.1486 6.04178 21.6868 3.60484 24.9227 3.60484H24.9232ZM27.3521 7.91455H36.6564C38.5452 7.91455 39.9516 9.27253 39.9516 10.7703V12.3357H24.0498V10.7703C24.0498 9.27266 25.4541 7.91455 27.3521 7.91455ZM7.59836 15.215H56.4105C58.8302 15.215 60.801 17.1873 60.801 19.627V24.2546L32.001 35.1676L3.20096 24.2521V19.627C3.20096 17.1892 5.17877 15.215 7.59849 15.215H7.59836ZM3.20083 27.3318L23.456 35.0084V43.1651H23.4555C23.4555 43.9601 24.1003 44.605 24.8953 44.605H39.1141C39.9096 44.605 40.5539 43.9601 40.5539 43.1651V35.0064L60.8014 27.3342V53.982C60.8014 56.4219 58.8306 58.394 56.4109 58.394H7.59875C5.17904 58.394 3.20123 56.4193 3.20123 53.982V27.3304L3.20083 27.3318ZM37.6747 36.0978V41.7254H26.3353V36.1004L31.4913 38.0545L31.4908 38.054C31.8198 38.1786 32.1824 38.1786 32.5113 38.054L37.6742 36.0978L37.6747 36.0978Z" fill="url(#paint0_linear_414_86)"/>
</g>
<defs>
<linearGradient id="paint0_linear_414_86" x1="0.320312" y1="30.5036" x2="62.0777" y2="30.5036" gradientUnits="userSpaceOnUse">
<stop stop-color="#3669CD"/>
<stop offset="0.484375" stop-color="#8D3BDE"/>
<stop offset="1" stop-color="#EA5FAB"/>
</linearGradient>
<clipPath id="clip0_414_86">
<rect width="64" height="61" fill="white" transform="translate(0 -0.000244141)"/>
</clipPath>
</defs>
</svg>
