<svg width="88" height="53" viewBox="0 0 88 53" fill="none" xmlns="http://www.w3.org/2000/svg">
<g clip-path="url(#clip0_414_96)">
<path d="M43.7643 0.873918C43.8209 0.871584 43.8781 0.871652 43.9347 0.874121L43.9346 0.874477L43.9431 0.874133C44.192 0.864002 44.4402 0.90262 44.6727 0.987377C44.6728 0.987403 44.6729 0.98743 44.6729 0.987456L85.9699 16.2742L85.9707 16.2745C86.7027 16.5386 87.1866 17.2164 87.1866 17.9719C87.1866 18.7266 86.7027 19.4045 85.9706 19.6692L85.9699 19.6695L44.6725 34.9557L44.6721 34.9559C44.24 35.118 43.7615 35.118 43.3294 34.9559L43.329 34.9558L20.4363 26.4766L20.3016 26.4267V26.5704V41.8574C20.3016 42.4373 20.6112 43.0834 21.6289 43.9052C22.6493 44.7292 24.3206 45.5943 26.4848 46.3109C30.8127 47.744 37.06 48.6451 43.9999 48.6451C50.9398 48.6451 57.1871 47.744 61.515 46.3109C63.6792 45.5943 65.3507 44.7292 66.3709 43.9052C67.3886 43.0834 67.6982 42.4373 67.6982 41.8574L67.6982 32.3032L67.6982 32.3019C67.6917 31.8176 67.8844 31.3506 68.2349 31.0056L68.235 31.0056C68.5856 30.6598 69.0644 30.4652 69.5653 30.4652C70.0656 30.4652 70.545 30.6598 70.8949 31.0055L70.8951 31.0056C71.2456 31.3507 71.4389 31.8177 71.4318 32.3018V32.3032V41.8574C71.4318 43.7654 70.318 45.4216 68.7646 46.6759L68.8274 46.7537L68.7646 46.6759C67.2115 47.9305 65.1635 48.922 62.7123 49.7337C57.8104 51.3568 51.2701 52.2664 44.0001 52.2664C36.7302 52.2664 30.1899 51.3568 25.2879 49.7337C22.8368 48.9221 20.7888 47.9305 19.2357 46.6759L19.1728 46.7537L19.2357 46.6759C17.6824 45.4216 16.5685 43.7654 16.5685 41.8574V25.1076V25.0379L16.5031 25.0138L2.03041 19.6696L2.02979 19.6694C1.29771 19.4046 0.813867 18.7268 0.813867 17.972C0.813867 17.2166 1.29774 16.5388 2.02971 16.2747L2.03049 16.2744L43.3279 0.987462L43.3279 0.987481L43.3298 0.986746C43.4687 0.932144 43.6148 0.894266 43.7643 0.873918ZM44.0344 4.65119L43.9997 4.63836L43.965 4.65119L8.19844 17.878L7.94482 17.9718L8.19845 18.0656L43.965 31.2918L43.9997 31.3046L44.0344 31.2918L79.8009 18.0656L80.0545 17.9718L79.8009 17.878L44.0344 4.65119Z" fill="url(#paint0_linear_414_96)" stroke="white" stroke-width="0.2"/>
</g>
<defs>
<linearGradient id="paint0_linear_414_96" x1="0.713867" y1="26.1464" x2="85.097" y2="26.1464" gradientUnits="userSpaceOnUse">
<stop stop-color="#3669CD"/>
<stop offset="0.484375" stop-color="#8D3BDE"/>
<stop offset="1" stop-color="#EA5FAB"/>
</linearGradient>
<clipPath id="clip0_414_96">
<rect width="88" height="53" fill="white" transform="translate(0 -0.000244141)"/>
</clipPath>
</defs>
</svg>
