<svg width="62" height="56" viewBox="0 0 62 56" fill="none" xmlns="http://www.w3.org/2000/svg">
<path d="M30.7661 55.1272C29.8219 55.1272 28.8795 54.7658 28.1584 54.0411L5.29198 31.06C-1.76399 23.965 -1.76399 12.4235 5.29198 5.32845C8.71116 1.89214 13.2571 -0.000244141 18.0927 -0.000244141C22.8692 -0.000244141 27.3617 1.8458 30.7661 5.20056C34.1706 1.84395 38.6631 -0.000244141 43.4396 -0.000244141C48.2751 -0.000244141 52.8211 1.89214 56.2403 5.32845C63.3 12.4235 63.3 23.9668 56.2403 31.06L33.3739 54.0411C32.6546 54.7639 31.7104 55.1272 30.7661 55.1272ZM18.0927 7.41359C15.2268 7.41359 12.5324 8.53494 10.5074 10.5719C6.32658 14.7755 6.32658 21.6148 10.5074 25.8184L30.7661 46.1787L51.0249 25.8184C55.2075 21.6148 55.2075 14.7755 51.0249 10.57C48.9981 8.53493 46.3037 7.41359 43.4396 7.41359C40.5737 7.41359 37.8793 8.53494 35.8543 10.5719L33.3739 13.0629C31.9335 14.5105 29.5988 14.5105 28.1584 13.0629L25.678 10.57C23.653 8.53493 20.9586 7.41359 18.0927 7.41359Z" fill="url(#paint0_linear_414_76)"/>
<path d="M33.3277 7.27381L30.7666 9.90427L28.2056 7.27381C22.3923 1.30489 12.9687 1.30489 7.15543 7.27381C1.34402 13.2447 1.34402 22.9236 7.15543 28.8945L9.71649 31.525L30.7666 53.1437L51.8168 31.523L54.3779 28.8926C60.1912 22.9217 60.1912 13.2427 54.3779 7.27185C48.5645 1.30489 39.141 1.30489 33.3277 7.27381Z" fill="white"/>
<defs>
<linearGradient id="paint0_linear_414_76" x1="0" y1="27.1116" x2="59.9787" y2="27.1116" gradientUnits="userSpaceOnUse">
<stop stop-color="#3669CD"/>
<stop offset="0.484375" stop-color="#8D3BDE"/>
<stop offset="1" stop-color="#EA5FAB"/>
</linearGradient>
</defs>
</svg>
