<svg width="61" height="61" viewBox="0 0 61 61" fill="none" xmlns="http://www.w3.org/2000/svg">
<g clip-path="url(#clip0_414_125)">
<path d="M30.6295 49.3862C20.4416 49.3862 12.1533 41.0709 12.1533 30.8498C12.1533 20.6287 20.4416 12.3135 30.6295 12.3135C40.8175 12.3135 49.1057 20.6287 49.1057 30.8498C49.1057 41.0709 40.8175 49.3862 30.6295 49.3862ZM30.6295 15.4464C22.1638 15.4464 15.2761 22.356 15.2761 30.8498C15.2761 39.3436 22.1638 46.2533 30.6295 46.2533C39.0953 46.2533 45.983 39.3436 45.983 30.8498C45.983 22.356 39.0958 15.4464 30.6295 15.4464Z" fill="#8D4520"/>
<path d="M36.7549 48.8422C33.4344 48.8422 27.0396 48.1665 21.5191 43.6431C16.5987 39.61 13.1621 33.1688 13.1621 27.9781C13.1621 27.1129 13.8611 26.4116 14.7235 26.4116C15.5859 26.4116 16.2848 27.1129 16.2848 27.9781C16.2848 32.2252 19.317 37.7929 23.4947 41.2167C26.9787 44.0718 31.8121 45.7093 36.7549 45.7093C37.6173 45.7093 38.3163 46.4105 38.3163 47.2757C38.3163 48.1409 37.6173 48.8422 36.7549 48.8422Z" fill="white"/>
<path d="M25.165 8.65856L30.6298 1.87061L36.0946 8.65856H25.165Z" fill="#F6E89A"/>
<path d="M36.1049 10.2248C36.1012 10.2243 36.0981 10.2243 36.0945 10.2248H25.1649C24.5632 10.2248 24.0157 9.87811 23.756 9.3335C23.4968 8.7889 23.5723 8.14352 23.9501 7.67411L29.4149 0.886153C29.7116 0.518037 30.1581 0.303955 30.6297 0.303955C31.1012 0.303955 31.5478 0.518037 31.8444 0.886153L37.2134 7.55558C37.4934 7.83859 37.6662 8.22811 37.6662 8.65836C37.6662 9.52357 36.9673 10.2248 36.1049 10.2248ZM28.4333 7.09191H32.8265L30.6297 4.36315L28.4333 7.09191Z" fill="#8D4520"/>
<path d="M25.165 8.65856L30.6298 1.87061L36.0946 8.65856H25.165Z" fill="white"/>
<path d="M36.1049 10.2248C36.1012 10.2243 36.0981 10.2243 36.0945 10.2248H25.1649C24.5632 10.2248 24.0157 9.87811 23.756 9.3335C23.4968 8.7889 23.5723 8.14352 23.9501 7.67411L29.4149 0.886153C29.7116 0.518037 30.1581 0.303955 30.6297 0.303955C31.1012 0.303955 31.5478 0.518037 31.8444 0.886153L37.2134 7.55558C37.4934 7.83859 37.6662 8.22811 37.6662 8.65836C37.6662 9.52357 36.9673 10.2248 36.1049 10.2248ZM28.4333 7.09191H32.8265L30.6297 4.36315L28.4333 7.09191Z" fill="url(#paint0_linear_414_125)"/>
<path d="M11.9969 17.2675L11.834 8.54346L20.3695 10.219L11.9969 17.2675Z" fill="white"/>
<path d="M11.9975 18.834C11.7784 18.834 11.5582 18.7875 11.3511 18.693C10.8035 18.4429 10.4475 17.8999 10.4366 17.2968L10.2737 8.57324C10.2649 8.10017 10.4699 7.64799 10.8311 7.3441C11.1923 7.03969 11.6722 6.91698 12.1343 7.00679L20.6698 8.68237C21.26 8.79829 21.7316 9.24421 21.882 9.82849C22.0324 10.4128 21.8346 11.032 21.3735 11.4195L13.0009 18.4675C12.7147 18.7087 12.3581 18.834 11.9975 18.834ZM13.4318 10.453L13.4974 13.9597L16.8627 11.1266L13.4318 10.453Z" fill="url(#paint1_linear_414_125)"/>
<path d="M7.42601 32.3543L1.71191 25.7762L9.32411 21.5557L7.42601 32.3543Z" fill="white"/>
<path d="M7.42605 33.9206C6.98158 33.9206 6.5496 33.73 6.24878 33.3833L0.534686 26.8052C0.225014 26.4486 0.0922982 25.9703 0.17401 25.5045C0.256242 25.0377 0.543534 24.6341 0.956256 24.4054L8.56845 20.1849C9.09515 19.893 9.74156 19.9306 10.2313 20.2815C10.7211 20.6323 10.9662 21.2339 10.8616 21.8281L8.964 32.6267C8.85938 33.2214 8.42376 33.7023 7.8445 33.8642C7.70657 33.9012 7.56553 33.9206 7.42605 33.9206ZM4.15914 26.2089L6.45592 28.8531L7.21891 24.5124L4.15914 26.2089Z" fill="url(#paint2_linear_414_125)"/>
<path d="M13.5897 46.8591L4.99805 45.5052L8.12495 37.3628L13.5897 46.8591Z" fill="white"/>
<path d="M13.5909 48.4254C13.5108 48.4254 13.4296 48.4191 13.3484 48.4066L4.75671 47.0527C4.29038 46.9791 3.88234 46.6981 3.64657 46.2882C3.41081 45.8784 3.37229 45.3839 3.54196 44.9421L6.66886 36.7997C6.88537 36.2363 7.40479 35.8479 8.00435 35.8009C8.60236 35.7528 9.17694 36.0567 9.47829 36.5794L14.8614 45.9337C15.0508 46.1927 15.1627 46.5122 15.1627 46.8584C15.1627 47.7226 14.4648 48.4238 13.6034 48.4249C13.5987 48.4254 13.5946 48.4254 13.5909 48.4254ZM7.15081 44.2581L10.6046 44.8027L8.40771 40.9853L7.15081 44.2581Z" fill="url(#paint3_linear_414_125)"/>
<path d="M27.6051 53.9952L20.1558 58.4988L17.335 50.2446L27.6051 53.9952Z" fill="white"/>
<path d="M20.1558 60.0653C19.9757 60.0653 19.7951 60.034 19.6218 59.9708C19.1784 59.8084 18.8318 59.4544 18.6788 59.0064L15.8579 50.7522C15.6627 50.1815 15.8121 49.5487 16.241 49.1268C16.6703 48.7033 17.3037 48.567 17.8684 48.7722L28.1386 52.5228C28.7038 52.7296 29.1009 53.2434 29.1587 53.8439C29.217 54.4444 28.9255 55.025 28.4103 55.3362L20.961 59.8397C20.7158 59.9891 20.4364 60.0653 20.1558 60.0653ZM19.8722 52.8382L21.0063 56.156L24.0004 54.3457L19.8722 52.8382Z" fill="url(#paint4_linear_414_125)"/>
<path d="M42.9147 50.4231L40.0938 58.6772L32.6445 54.1737L42.9147 50.4231Z" fill="white"/>
<path d="M40.0936 60.2439C39.8131 60.2439 39.5341 60.1676 39.288 60.0188L31.8387 55.5153C31.3234 55.2036 31.0325 54.6235 31.0903 54.023C31.148 53.4225 31.5446 52.9082 32.1104 52.7019L42.3805 48.9513C42.9463 48.7461 43.5791 48.8829 44.0085 49.3054C44.4379 49.7283 44.5867 50.3606 44.3916 50.9313L41.5707 59.1855C41.4177 59.633 41.0711 59.9875 40.6276 60.1499C40.4543 60.2126 40.2737 60.2439 40.0936 60.2439ZM36.249 54.5237L39.2432 56.3345L40.3773 53.0168L36.249 54.5237Z" fill="url(#paint5_linear_414_125)"/>
<path d="M52.3535 37.8147L55.4804 45.9566L46.8887 47.311L52.3535 37.8147Z" fill="white"/>
<path d="M46.8882 48.8777C46.3787 48.8777 45.8952 48.6276 45.6011 48.1973C45.2607 47.7002 45.2358 47.0507 45.5361 46.528L51.0009 37.0317C51.3017 36.509 51.8731 36.2072 52.4748 36.2531C53.0743 36.3001 53.5938 36.6886 53.8103 37.2515L56.9377 45.3934C57.1074 45.8351 57.0688 46.3301 56.8331 46.74C56.5973 47.1499 56.1893 47.4308 55.7235 47.5044L47.1313 48.8589C47.0501 48.8714 46.9689 48.8777 46.8882 48.8777ZM52.0714 41.4376L49.8746 45.255L53.3283 44.7109L52.0714 41.4376Z" fill="url(#paint6_linear_414_125)"/>
<path d="M51.5059 22.0698L59.1181 26.2898L53.4034 32.8684L51.5059 22.0698Z" fill="white"/>
<path d="M53.4027 34.4349C53.2632 34.4349 53.1227 34.4161 52.9842 34.378C52.405 34.2161 51.9694 33.7352 51.8647 33.1405L49.9672 22.3419C49.8625 21.7477 50.1082 21.1462 50.5974 20.7953C51.0861 20.4455 51.7331 20.4073 52.2603 20.6987L59.8725 24.9187C60.2852 25.1474 60.573 25.5516 60.6547 26.0173C60.7364 26.4841 60.6042 26.9624 60.2941 27.3185L54.58 33.8971C54.2791 34.2443 53.8472 34.4349 53.4027 34.4349ZM53.6104 25.0263L54.3728 29.3669L56.6701 26.7228L53.6104 25.0263Z" fill="url(#paint7_linear_414_125)"/>
<path d="M40.7676 10.5545L49.3025 8.87939L49.1402 17.6035L40.7676 10.5545Z" fill="white"/>
<path d="M49.1409 19.17C48.7803 19.17 48.4238 19.0452 48.137 18.8035L39.7649 11.7544C39.3038 11.367 39.1066 10.7477 39.2564 10.1635C39.4069 9.57917 39.8779 9.13273 40.4686 9.01733L49.0035 7.34175C49.4657 7.25194 49.9456 7.37465 50.3068 7.67906C50.668 7.98295 50.873 8.43461 50.8642 8.9082L50.7013 17.6323C50.6903 18.2359 50.3344 18.7789 49.7868 19.029C49.5807 19.1236 49.3601 19.17 49.1409 19.17ZM44.2757 11.4626L47.641 14.2958L47.7061 10.789L44.2757 11.4626Z" fill="url(#paint8_linear_414_125)"/>
<path d="M30.6295 49.3862C20.4416 49.3862 12.1533 41.0709 12.1533 30.8498C12.1533 20.6287 20.4416 12.3135 30.6295 12.3135C40.8175 12.3135 49.1057 20.6287 49.1057 30.8498C49.1057 41.0709 40.8175 49.3862 30.6295 49.3862ZM30.6295 15.4464C22.1638 15.4464 15.2761 22.356 15.2761 30.8498C15.2761 39.3436 22.1638 46.2533 30.6295 46.2533C39.0953 46.2533 45.983 39.3436 45.983 30.8498C45.983 22.356 39.0958 15.4464 30.6295 15.4464Z" fill="url(#paint9_linear_414_125)"/>
</g>
<defs>
<linearGradient id="paint0_linear_414_125" x1="23.6035" y1="5.18306" x2="37.3106" y2="5.18306" gradientUnits="userSpaceOnUse">
<stop stop-color="#3669CD"/>
<stop offset="0.484375" stop-color="#8D3BDE"/>
<stop offset="1" stop-color="#EA5FAB"/>
</linearGradient>
<linearGradient id="paint1_linear_414_125" x1="10.2734" y1="12.8088" x2="21.6367" y2="12.8088" gradientUnits="userSpaceOnUse">
<stop stop-color="#3669CD"/>
<stop offset="0.484375" stop-color="#8D3BDE"/>
<stop offset="1" stop-color="#EA5FAB"/>
</linearGradient>
<linearGradient id="paint2_linear_414_125" x1="0.150391" y1="26.8408" x2="10.6139" y2="26.8408" gradientUnits="userSpaceOnUse">
<stop stop-color="#3669CD"/>
<stop offset="0.484375" stop-color="#8D3BDE"/>
<stop offset="1" stop-color="#EA5FAB"/>
</linearGradient>
<linearGradient id="paint3_linear_414_125" x1="3.4375" y1="42.0071" x2="14.8662" y2="42.0071" gradientUnits="userSpaceOnUse">
<stop stop-color="#3669CD"/>
<stop offset="0.484375" stop-color="#8D3BDE"/>
<stop offset="1" stop-color="#EA5FAB"/>
</linearGradient>
<linearGradient id="paint4_linear_414_125" x1="15.7734" y1="54.2784" x2="28.8273" y2="54.2784" gradientUnits="userSpaceOnUse">
<stop stop-color="#3669CD"/>
<stop offset="0.484375" stop-color="#8D3BDE"/>
<stop offset="1" stop-color="#EA5FAB"/>
</linearGradient>
<linearGradient id="paint5_linear_414_125" x1="31.083" y1="54.4573" x2="44.1374" y2="54.4573" gradientUnits="userSpaceOnUse">
<stop stop-color="#3669CD"/>
<stop offset="0.484375" stop-color="#8D3BDE"/>
<stop offset="1" stop-color="#EA5FAB"/>
</linearGradient>
<linearGradient id="paint6_linear_414_125" x1="45.3271" y1="42.4596" x2="56.7459" y2="42.4596" gradientUnits="userSpaceOnUse">
<stop stop-color="#3669CD"/>
<stop offset="0.484375" stop-color="#8D3BDE"/>
<stop offset="1" stop-color="#EA5FAB"/>
</linearGradient>
<linearGradient id="paint7_linear_414_125" x1="49.9434" y1="27.3552" x2="60.4069" y2="27.3552" gradientUnits="userSpaceOnUse">
<stop stop-color="#3669CD"/>
<stop offset="0.484375" stop-color="#8D3BDE"/>
<stop offset="1" stop-color="#EA5FAB"/>
</linearGradient>
<linearGradient id="paint8_linear_414_125" x1="39.207" y1="13.1443" x2="50.5696" y2="13.1443" gradientUnits="userSpaceOnUse">
<stop stop-color="#3669CD"/>
<stop offset="0.484375" stop-color="#8D3BDE"/>
<stop offset="1" stop-color="#EA5FAB"/>
</linearGradient>
<linearGradient id="paint9_linear_414_125" x1="12.1533" y1="30.5459" x2="48.1711" y2="30.5459" gradientUnits="userSpaceOnUse">
<stop stop-color="#3669CD"/>
<stop offset="0.484375" stop-color="#8D3BDE"/>
<stop offset="1" stop-color="#EA5FAB"/>
</linearGradient>
<clipPath id="clip0_414_125">
<rect width="61" height="61" fill="white" transform="translate(0 -0.000244141)"/>
</clipPath>
</defs>
</svg>
