<svg width="43" height="52" viewBox="0 0 43 52" fill="none" xmlns="http://www.w3.org/2000/svg">
<g clip-path="url(#clip0_414_370)">
<path d="M4.82195 36.104C4.98076 36.1785 5.11173 36.2433 5.21851 36.2961C5.40288 36.3874 5.48761 36.4293 5.55365 36.4371C5.63359 36.4464 5.77297 36.436 6.03026 36.4167V36.4165H6.0303L6.03026 36.4159C6.03807 36.4153 6.04588 36.415 6.05365 36.4147C6.31353 36.3952 6.68297 36.3679 7.29075 36.343C7.93292 36.3167 8.34197 36.6755 8.53208 37.1634C8.6111 37.3664 8.64687 37.5933 8.64062 37.8201C8.63445 38.0446 8.58768 38.2693 8.50181 38.4703C8.44042 38.614 8.36075 38.7477 8.2631 38.8646C8.35062 38.9959 8.41635 39.1424 8.46064 39.2968C8.51498 39.4863 8.5352 39.6852 8.5221 39.878C8.50874 40.0747 8.46186 40.2698 8.38249 40.4477C8.32304 40.5808 8.24688 40.7045 8.15433 40.8133C8.2385 40.9419 8.30194 41.0848 8.34509 41.2352C8.39944 41.4248 8.41966 41.6236 8.40656 41.8164C8.39319 42.0131 8.34631 42.2082 8.26694 42.3861C8.04598 42.8811 7.59405 43.2455 6.92805 43.1972C6.29742 43.1514 5.7066 43.1818 5.18341 43.2087C4.00674 43.2692 3.11547 43.315 2.58329 42.5597C1.32018 40.767 1.59941 38.8016 2.27927 37.4894C2.47617 37.1093 2.70676 36.7824 2.94376 36.5284C3.20364 36.2499 3.48264 36.0472 3.74945 35.9425C4.15462 35.7836 4.53096 35.823 4.82196 36.104L4.82195 36.104ZM4.76707 37.2291C4.66173 37.1769 4.52981 37.1117 4.34267 37.0249C4.25771 36.9942 4.1796 36.9407 4.11813 36.8652L4.51648 36.5339L4.1195 36.8638C4.09916 36.8389 4.13843 36.905 4.12023 36.9121C3.99699 36.9605 3.84922 37.0743 3.69339 37.2413C3.51466 37.4328 3.34005 37.6807 3.19015 37.9701C2.65405 39.0049 2.43176 40.5518 3.42166 41.9568C3.62628 42.2472 4.27484 42.2138 5.131 42.1698C5.68854 42.1412 6.31814 42.1088 7.00055 42.1583C7.16286 42.1701 7.27346 42.0802 7.32788 41.9583C7.3566 41.894 7.37373 41.8215 7.37876 41.7471C7.38405 41.6688 7.37716 41.5925 7.35766 41.5245C7.31783 41.3856 7.21435 41.2712 7.04355 41.2588L7.11606 40.2199C7.27841 40.2317 7.389 40.1418 7.44343 40.0199C7.47214 39.9556 7.48928 39.8831 7.49431 39.8087C7.4996 39.7304 7.49271 39.6541 7.47321 39.586C7.43337 39.4471 7.32994 39.3326 7.15913 39.3202L7.23164 38.2814C7.38771 38.2927 7.49773 38.1921 7.55467 38.0588C7.59073 37.9743 7.61035 37.8821 7.61282 37.7916C7.61522 37.7036 7.60208 37.6173 7.57283 37.5422C7.5357 37.4469 7.45595 37.3767 7.33104 37.3818C6.8 37.4036 6.40873 37.4326 6.13111 37.4535C6.12307 37.4545 6.11496 37.4553 6.10681 37.4559L6.06854 36.9359L6.10479 37.4554C5.785 37.4794 5.61203 37.4924 5.43673 37.4718C5.20199 37.4443 5.06504 37.3765 4.76707 37.2291L4.76707 37.2291Z" fill="white"/>
<path d="M38.658 37.0249C38.4709 37.1117 38.3389 37.1769 38.2336 37.2291C37.9356 37.3765 37.7987 37.4443 37.564 37.4718C37.3887 37.4924 37.2157 37.4794 36.8959 37.4554L36.9321 36.9359L36.8939 37.4559C36.8857 37.4553 36.8776 37.4545 36.8696 37.4535C36.592 37.4326 36.2007 37.4036 35.6696 37.3818C35.5447 37.3767 35.465 37.4469 35.4279 37.5422C35.3986 37.6173 35.3855 37.7036 35.3879 37.7916C35.3903 37.8821 35.41 37.9743 35.446 38.0588C35.503 38.1921 35.613 38.2927 35.769 38.2814L35.8416 39.3203C35.6707 39.3326 35.5673 39.4471 35.5275 39.586C35.508 39.6541 35.5011 39.7304 35.5064 39.8087C35.5114 39.8831 35.5285 39.9556 35.5573 40.0199C35.6117 40.1419 35.7223 40.2317 35.8846 40.2199L35.9571 41.2588C35.7863 41.2712 35.6829 41.3856 35.643 41.5245C35.6235 41.5925 35.6166 41.6688 35.6219 41.7471C35.627 41.8216 35.6441 41.894 35.6728 41.9584C35.7272 42.0803 35.8378 42.1701 36.0001 42.1583C36.6826 42.1088 37.3121 42.1412 37.8697 42.1698C38.7258 42.2138 39.3744 42.2472 39.579 41.9568C40.5689 40.5518 40.3466 39.0049 39.8105 37.9701C39.6606 37.6807 39.486 37.4328 39.3073 37.2413C39.1515 37.0743 39.0037 36.9604 38.8805 36.9121C38.8623 36.905 38.9015 36.8388 38.8812 36.8638L38.4842 36.5339L38.8825 36.8652C38.8211 36.9407 38.743 36.9942 38.658 37.0248V37.0249ZM37.7822 36.2961C37.889 36.2433 38.0199 36.1785 38.1787 36.104C38.4697 35.823 38.8461 35.7836 39.2512 35.9425C39.518 36.0472 39.797 36.2499 40.0569 36.5284C40.2939 36.7824 40.5245 37.1094 40.7214 37.4894C41.4013 38.8016 41.6805 40.767 40.4174 42.5598C39.8852 43.315 38.9939 43.2692 37.8173 43.2087C37.2941 43.1818 36.7033 43.1514 36.0726 43.1972C35.4066 43.2455 34.9547 42.8812 34.7337 42.3861C34.6544 42.2083 34.6075 42.0131 34.5941 41.8164C34.581 41.6236 34.6013 41.4248 34.6556 41.2353C34.6987 41.0849 34.7622 40.9419 34.8464 40.8133C34.7538 40.7045 34.6776 40.5808 34.6182 40.4477C34.5388 40.2698 34.492 40.0747 34.4786 39.878C34.4655 39.6852 34.4857 39.4864 34.5401 39.2968C34.5843 39.1424 34.6501 38.9959 34.7376 38.8646C34.6399 38.7477 34.5603 38.614 34.4989 38.4703C34.413 38.2693 34.3662 38.0446 34.3601 37.8201C34.3538 37.5933 34.3896 37.3664 34.4686 37.1634C34.6587 36.6755 35.0678 36.3167 35.7099 36.343C36.3177 36.3679 36.6872 36.3952 36.947 36.4147C36.9548 36.415 36.9626 36.4154 36.9704 36.4159L36.9704 36.4165H36.9704V36.4167C37.2277 36.436 37.3671 36.4464 37.447 36.4371C37.5131 36.4293 37.5978 36.3874 37.7822 36.2961L37.7822 36.2961Z" fill="white"/>
<path d="M19.1621 7.78675C19.3173 7.38515 19.1211 6.93232 18.7238 6.77542C18.3264 6.61852 17.8784 6.81684 17.7232 7.21844C17.1242 8.76895 16.2184 10.1558 15.0796 11.3043C13.9384 12.4552 12.5641 13.3686 11.031 13.9697C10.6337 14.125 10.4361 14.5764 10.5897 14.978C10.7433 15.3796 11.1899 15.5793 11.5872 15.4241C13.324 14.7431 14.8788 13.7104 16.1679 12.4103C17.4594 11.1078 18.4854 9.53839 19.1621 7.78675Z" fill="white"/>
<path d="M19.1711 7.24549C19.0309 6.83884 18.591 6.62409 18.1886 6.76582C17.7863 6.90756 17.5739 7.35219 17.7141 7.75883C17.9756 8.51796 18.1582 9.29626 18.2626 10.0816C18.3677 10.8719 18.393 11.6722 18.3393 12.47C18.311 12.9003 18.6331 13.2724 19.0588 13.3011C19.4845 13.3298 19.8527 13.0042 19.881 12.5739C19.9412 11.6789 19.912 10.7742 19.7922 9.87381C19.6742 8.98654 19.4675 8.10585 19.1711 7.24549H19.1711Z" fill="white"/>
<path d="M32.3111 15.4298C32.7118 15.5783 33.1557 15.3704 33.3026 14.9654C33.4495 14.5604 33.2438 14.1117 32.8432 13.9632C30.878 13.2336 29.1019 12.1973 27.6116 10.936C26.1299 9.68207 24.9335 8.21051 24.1186 6.60283C23.9249 6.21978 23.4607 6.06796 23.0817 6.2637C22.7027 6.45944 22.5525 6.92867 22.7462 7.31172C23.6597 9.11386 24.9863 10.7512 26.6201 12.1338C28.2453 13.5092 30.1775 14.6377 32.3111 15.4298L32.3111 15.4298Z" fill="white"/>
<path d="M18.6477 11.8954C18.3055 12.1535 18.2351 12.6433 18.4905 12.9892C18.7459 13.3351 19.2305 13.4062 19.5727 13.1481C20.4597 12.4788 21.3513 11.5684 22.1362 10.5682C22.9298 9.55698 23.6195 8.44683 24.0894 7.39527C24.2647 7.00214 24.0915 6.53972 23.7025 6.36258C23.3136 6.18543 22.8561 6.36054 22.6808 6.75367C22.263 7.68863 21.6436 8.68356 20.9271 9.59659C20.2232 10.4935 19.43 11.305 18.6477 11.8954H18.6477Z" fill="white"/>
<path d="M21.5 0.576172C24.8371 0.576172 27.8584 1.94345 30.0453 4.15394C32.2322 6.36438 33.5849 9.41816 33.5849 12.7912C33.5849 16.1641 32.2322 19.2179 30.0453 21.4284C27.8583 23.6388 24.8371 25.0061 21.5 25.0061C18.1629 25.0061 15.1416 23.6388 12.9547 21.4284C10.7678 19.2179 9.41504 16.1641 9.41504 12.7912C9.41504 9.41816 10.7678 6.36436 12.9547 4.15394C15.1416 1.94346 18.1629 0.576172 21.5 0.576172ZM28.951 5.25998C27.0442 3.33266 24.4099 2.14052 21.5 2.14052C18.5901 2.14052 15.9558 3.33266 14.049 5.25998C12.1422 7.18726 10.9627 9.84999 10.9627 12.7912C10.9627 15.7323 12.1422 18.395 14.049 20.3223C15.9558 22.2496 18.5902 23.4418 21.5 23.4418C24.4098 23.4418 27.0442 22.2496 28.951 20.3223C30.8578 18.395 32.0372 15.7323 32.0372 12.7912C32.0372 9.85001 30.8578 7.18728 28.951 5.25998Z" fill="white"/>
<path d="M9.1393 7.23257C8.76201 7.03179 8.29503 7.17814 8.09639 7.55949C7.89774 7.94085 8.04254 8.41285 8.41983 8.61363L9.98678 9.44643C10.3641 9.64721 10.831 9.50086 11.0297 9.11951C11.2283 8.73816 11.0835 8.26615 10.7062 8.06537L9.1393 7.23257Z" fill="white"/>
<path d="M3.40371 3.14791C4.68621 2.74508 6.05371 3.10534 7.25406 4.02071C8.37916 4.87872 9.36572 6.24015 9.97326 7.90757L9.97433 7.90718C10.122 8.31252 9.91656 8.7622 9.51554 8.91144C9.26217 9.00574 8.99132 8.95751 8.78894 8.807C8.21053 8.44555 7.5756 8.20574 6.92148 8.1097C6.27874 8.01535 5.61666 8.05908 4.97099 8.26186C4.32479 8.4648 3.7564 8.80646 3.28313 9.24929C2.78671 9.71375 2.39068 10.2939 2.11477 10.9468L1.4044 10.6412L2.11603 10.9485C1.94815 11.3457 1.49336 11.5302 1.10038 11.3605C0.860872 11.2571 0.69959 11.046 0.648099 10.8069C0.22183 9.09867 0.273702 7.42313 0.717868 6.07664C1.19418 4.63279 2.11991 3.55117 3.40371 3.14792L3.40371 3.14791ZM6.323 5.26735C5.5143 4.65061 4.63533 4.39455 3.85713 4.63899C3.08027 4.883 2.50075 5.59608 2.18096 6.5655C1.99645 7.12492 1.89903 7.76403 1.89835 8.44921C2.00685 8.33073 2.11984 8.2164 2.23721 8.10658C2.87842 7.50658 3.64642 7.04439 4.51758 6.77079C5.38931 6.49698 6.27886 6.4374 7.13917 6.56365C7.29718 6.58683 7.45416 6.61631 7.60988 6.65184C7.22596 6.09088 6.78812 5.62203 6.323 5.26736L6.323 5.26735Z" fill="white"/>
<path d="M39.1431 4.63899C38.3649 4.39455 37.4859 4.65061 36.6772 5.26735C36.2121 5.62203 35.7743 6.09087 35.3904 6.65184C35.5461 6.61631 35.7031 6.58682 35.8611 6.56365C36.7214 6.43739 37.6109 6.49698 38.4827 6.77078C39.3538 7.04439 40.1218 7.50658 40.763 8.10657C40.8804 8.21639 40.9934 8.33072 41.1019 8.4492L39.1431 4.63899ZM35.7462 4.02071C36.9465 3.10534 38.314 2.74508 39.5965 3.14791C40.8803 3.55117 41.806 4.63279 42.2824 6.07664C42.7265 7.42313 42.7784 9.09867 42.3521 10.8069C42.3006 11.046 42.1394 11.2571 41.8998 11.3605C41.5069 11.5302 41.0521 11.3457 40.8842 10.9485L41.5958 10.6412L40.8855 10.9468C40.6095 10.2939 40.2135 9.71375 39.7171 9.24929C39.2438 8.80647 38.6754 8.4648 38.0292 8.26186C37.3836 8.05908 36.7215 8.01535 36.0787 8.1097C35.4246 8.20574 34.7897 8.44555 34.2113 8.807C34.0089 8.95751 33.738 9.00574 33.4847 8.91144C33.0837 8.7622 32.8782 8.31252 33.0259 7.90718L33.027 7.90757C33.6345 6.24015 34.621 4.87872 35.7462 4.0207L35.7462 4.02071ZM40.8193 6.5655C40.4995 5.59608 39.92 4.883 39.1431 4.63899L40.8193 6.5655Z" fill="white"/>
<path d="M34.5803 8.61357C34.9576 8.41279 35.1024 7.94078 34.9037 7.55943C34.7051 7.17808 34.2381 7.03173 33.8608 7.23251L32.2939 8.06531C31.9166 8.26609 31.7718 8.73809 31.9704 9.11944C32.1691 9.5008 32.636 9.64715 33.0133 9.44637L34.5803 8.61357Z" fill="white"/>
<path d="M31.1562 32.0797C30.4956 31.1358 29.5764 30.3164 28.4855 29.654C26.5382 28.4716 24.0564 27.7947 21.5045 27.7947C18.9379 27.7947 16.4573 28.4847 14.5107 29.6824C13.4381 30.3424 12.5312 31.154 11.8686 32.0847C11.2843 31.9654 10.6958 31.8612 10.105 31.7731C10.9208 30.374 12.1539 29.1826 13.6525 28.2606C15.8546 26.9056 18.6401 26.125 21.5045 26.125C24.348 26.125 27.1308 26.8898 29.3308 28.2256C30.8553 29.1513 32.1051 30.3528 32.9156 31.7701C32.3262 31.8575 31.7392 31.9612 31.1562 32.0797L31.1562 32.0797Z" fill="white"/>
<path d="M27.2433 28.5077C27.4336 28.123 27.2793 27.6551 26.8987 27.4627C26.518 27.2704 26.0551 27.4263 25.8648 27.8111C25.5194 28.5059 24.9179 29.0878 24.1618 29.5008C23.3807 29.9276 22.4394 30.1697 21.443 30.1697C20.4886 30.1697 19.585 29.9492 18.8258 29.5567C18.0881 29.1753 17.4861 28.6325 17.1106 27.9753C16.8969 27.6024 16.4246 27.4752 16.0556 27.6912C15.6867 27.9072 15.5608 28.3846 15.7745 28.7575C16.2996 29.6765 17.124 30.4266 18.1244 30.9438C19.1032 31.4499 20.2496 31.734 21.443 31.734C22.6959 31.734 23.891 31.4234 24.8934 30.8757C25.9208 30.3143 26.7502 29.4998 27.2433 28.5077L27.2433 28.5077Z" fill="white"/>
<path d="M4.91113 36.5351C4.91113 36.9761 5.26485 37.3336 5.70118 37.3336C6.13746 37.3336 6.49122 36.9761 6.49122 36.5351V34.1113C8.83738 34.1858 11.3097 34.5869 13.706 35.2648C16.2017 35.9709 18.6122 36.9746 20.7101 38.2197V49.121C19.1432 48.1418 16.4958 46.9063 14.7026 46.5234C11.981 45.759 9.15502 45.4157 6.49122 45.3598V42.9589C6.49122 42.5179 6.13746 42.1603 5.70118 42.1603C5.26485 42.1603 4.91113 42.5179 4.91113 42.9589V46.1501C4.91113 46.5911 5.26485 46.9486 5.70118 46.9486C8.47011 46.9486 11.4456 47.2627 14.2812 48.0593C14.2961 48.0645 14.3111 48.0693 14.3265 48.0737L14.3296 48.072C16.7171 48.7474 19.0079 49.7669 20.993 51.2318C21.1303 51.3481 21.3072 51.4181 21.5002 51.4181C21.9365 51.4181 22.2902 51.0606 22.2902 50.6196V37.7785C22.293 37.5069 22.1586 37.2406 21.9127 37.0885L21.5002 37.7696L21.9107 37.0895C19.601 35.6602 16.913 34.5169 14.132 33.7301C11.3222 32.9352 8.41411 32.5015 5.7012 32.5015C5.26487 32.5015 4.91115 32.859 4.91115 33.3V36.5351L4.91113 36.5351Z" fill="white"/>
<path d="M36.509 36.5787C36.509 37.0197 36.8628 37.3773 37.2991 37.3773C37.7354 37.3773 38.0891 37.0197 38.0891 36.5787V33.3C38.0891 32.859 37.7354 32.5015 37.2991 32.5015C34.5861 32.5015 31.6781 32.9352 28.8683 33.7301C26.0872 34.5169 23.3993 35.6602 21.0896 37.0895L21.5 37.7696L21.0875 37.0885C20.8417 37.2406 20.7073 37.5069 20.71 37.7785V50.6196C20.71 51.0606 21.0637 51.4182 21.5 51.4182C21.6931 51.4182 21.8699 51.3481 22.0072 51.2318C23.9923 49.7669 26.2831 48.7474 28.6707 48.072L28.6738 48.0737C28.6891 48.0693 28.7042 48.0645 28.7191 48.0593C31.5547 47.2627 34.5301 46.9486 37.2991 46.9486C37.7354 46.9486 38.0891 46.5911 38.0891 46.1501V43.0455C38.0891 42.6045 37.7354 42.247 37.2991 42.247C36.8628 42.247 36.509 42.6045 36.509 43.0455V45.3598C33.8453 45.4157 31.0193 45.759 28.2976 46.5234C26.5044 46.9063 23.8571 48.1418 22.2901 49.121V38.2197C24.388 36.9746 26.7986 35.9709 29.2943 35.2648C31.6906 34.5869 34.1629 34.1858 36.509 34.1113V36.5787L36.509 36.5787Z" fill="white"/>
</g>
<defs>
<clipPath id="clip0_414_370">
<rect width="43" height="52" fill="white"/>
</clipPath>
</defs>
</svg>
