<svg width="41" height="52" viewBox="0 0 41 52" fill="none" xmlns="http://www.w3.org/2000/svg">
<g clip-path="url(#clip0_414_403)">
<path d="M18.8356 2.71469C18.4003 2.78903 18.1076 3.20276 18.1818 3.63867C18.2561 4.07457 18.6693 4.36764 19.1046 4.2933C21.717 3.84417 24.264 4.49777 26.27 5.91759C28.2741 7.33611 29.7379 9.52086 30.1863 12.1355C30.6348 14.7512 29.9821 17.3015 28.5641 19.3101C27.1474 21.3167 24.9655 22.7824 22.3541 23.2314C19.7418 23.6805 17.1947 23.0269 15.1888 21.6071C13.1847 20.1885 11.7208 18.0038 11.2725 15.3892C10.9346 13.4187 11.2215 11.4855 11.9897 9.79304C12.7802 8.05107 14.081 6.56406 15.7349 5.55434C16.1115 5.32429 16.2306 4.83204 16.0008 4.45497C15.7711 4.0779 15.2795 3.95869 14.9029 4.18874C12.9726 5.36715 11.4546 7.10252 10.532 9.13534C9.63657 11.1083 9.30207 13.3618 9.69591 15.6585C10.2191 18.7093 11.9285 21.2595 14.2691 22.9162C16.6078 24.5716 19.5774 25.3336 22.6232 24.81C25.6701 24.2861 28.217 22.5745 29.8716 20.2309C31.5248 17.8891 32.2859 14.9158 31.7629 11.8661C31.2397 8.81532 29.5303 6.26514 27.1896 4.60844C24.8509 2.95308 21.8814 2.19105 18.8356 2.71471L18.8356 2.71469Z" fill="white"/>
<path d="M17.6892 9.59424C17.8498 9.18256 17.6468 8.71837 17.2356 8.55753C16.8245 8.3967 16.3609 8.59999 16.2003 9.01167C15.7108 10.2668 14.9708 11.3892 14.0408 12.3183C13.1083 13.25 11.9856 13.9893 10.7332 14.4757C10.3221 14.6349 10.1176 15.0976 10.2766 15.5093C10.4355 15.921 10.8977 16.1257 11.3088 15.9666C12.7719 15.3983 14.0814 14.5367 15.167 13.4522C16.255 12.3651 17.1193 11.0555 17.6892 9.59425L17.6892 9.59424Z" fill="white"/>
<path d="M31.0288 12.0951C31.4106 11.8737 31.5409 11.3843 31.3197 11.002C31.0986 10.6197 30.6098 10.4893 30.228 10.7107C29.7347 10.9967 29.2189 11.2373 28.6871 11.4301C28.1586 11.6217 27.6089 11.7673 27.0447 11.8643C24.4323 12.3134 21.8853 11.6598 19.8793 10.24C17.8752 8.82146 16.4114 6.63672 15.963 4.02209C15.8733 3.49906 15.8264 2.97977 15.8227 2.46965C15.8188 1.94749 15.8572 1.42536 15.9379 0.908763C16.0053 0.472859 15.707 0.0647317 15.2716 -0.0027038C14.8363 -0.0701396 14.4287 0.228526 14.3613 0.664431C14.2675 1.26504 14.2229 1.87097 14.2274 2.47588C14.2319 3.09279 14.285 3.7001 14.3864 4.29143C14.9096 7.34226 16.619 9.89244 18.9596 11.5491C21.2983 13.2045 24.2679 13.9665 27.3137 13.4429C27.964 13.3311 28.6058 13.1603 29.2314 12.9335C29.854 12.7078 30.4556 12.4273 31.0288 12.0951L31.0288 12.0951Z" fill="white"/>
<path d="M18.511 4.2786C18.9412 4.3789 19.3712 4.11109 19.4714 3.6804C19.5715 3.2497 19.3041 2.81916 18.8739 2.71886C18.3212 2.58801 17.6543 2.24791 17.0617 1.80033C16.5282 1.39745 16.0752 0.923899 15.8515 0.462147C15.6597 0.0643189 15.1821 -0.102554 14.7848 0.0894556C14.3875 0.281464 14.2208 0.759669 14.4126 1.1575C14.7541 1.86255 15.3813 2.53687 16.0982 3.07825C16.8599 3.65349 17.7474 4.09779 18.511 4.2786V4.2786Z" fill="white"/>
<path d="M3.24152 36.3511C3.40585 36.4275 3.54138 36.4939 3.65188 36.5481C3.84266 36.6416 3.93034 36.6846 3.99867 36.6925C4.08139 36.7021 4.22563 36.6914 4.49187 36.6716V36.6715H4.49191L4.49187 36.6709C4.49995 36.6703 4.50803 36.6699 4.51607 36.6696C4.78499 36.6496 5.16729 36.6217 5.79622 36.5961C6.46073 36.5691 6.88401 36.9369 7.08074 37.4371C7.16251 37.6452 7.19952 37.8778 7.19305 38.1103C7.18667 38.3404 7.13828 38.5707 7.04941 38.7768C6.98588 38.9241 6.90344 39.0611 6.8024 39.1809C6.89296 39.3156 6.96098 39.4657 7.00681 39.624C7.06305 39.8183 7.08397 40.0222 7.07042 40.2198C7.05658 40.4215 7.00807 40.6215 6.92594 40.8038C6.86443 40.9403 6.78561 41.0671 6.68985 41.1786C6.77694 41.3104 6.84259 41.4569 6.88724 41.6111C6.94348 41.8054 6.96441 42.0092 6.95085 42.2069C6.93702 42.4085 6.8885 42.6085 6.80638 42.7908C6.57773 43.2983 6.11007 43.6718 5.42089 43.6223C4.76833 43.5754 4.15694 43.6065 3.61555 43.6341C2.39795 43.6961 1.47567 43.7431 0.924972 42.9689C-0.382093 41.1311 -0.093148 39.1164 0.610373 37.7713C0.814115 37.3817 1.05274 37.0465 1.29797 36.7862C1.5669 36.5006 1.8556 36.2929 2.1317 36.1856C2.55097 36.0226 2.9404 36.063 3.24152 36.3511L3.24152 36.3511ZM3.18473 37.5044C3.07573 37.451 2.93922 37.3841 2.74556 37.2951C2.65764 37.2637 2.57682 37.2088 2.51321 37.1314L2.92542 36.7918L2.51463 37.13C2.49358 37.1044 2.53422 37.1722 2.51538 37.1795C2.38785 37.2291 2.23495 37.3458 2.07369 37.5169C1.88874 37.7133 1.70805 37.9674 1.55294 38.264C0.998188 39.3248 0.76816 40.9105 1.79251 42.3508C2.00425 42.6485 2.67538 42.6143 3.56132 42.5692C4.13826 42.5398 4.78976 42.5066 5.49592 42.5574C5.66388 42.5694 5.77832 42.4773 5.83464 42.3524C5.86435 42.2864 5.88209 42.2121 5.88729 42.1359C5.89277 42.0555 5.88563 41.9773 5.86546 41.9076C5.82424 41.7652 5.71716 41.6479 5.54041 41.6352L5.61545 40.5703C5.78345 40.5824 5.89789 40.4903 5.95421 40.3653C5.98392 40.2993 6.00165 40.2251 6.00686 40.1488C6.01233 40.0685 6.0052 39.9903 5.98502 39.9205C5.9438 39.7781 5.83677 39.6608 5.66002 39.6481L5.73505 38.5831C5.89655 38.5947 6.0104 38.4916 6.06932 38.355C6.10664 38.2684 6.12693 38.1738 6.12949 38.0811C6.13198 37.9909 6.11838 37.9024 6.08812 37.8255C6.04969 37.7277 5.96717 37.6558 5.83791 37.661C5.2884 37.6834 4.88351 37.7131 4.59623 37.7345C4.58791 37.7355 4.57952 37.7364 4.57108 37.737L4.53148 37.2039L4.56899 37.7364C4.23808 37.761 4.05909 37.7744 3.87769 37.7533C3.63478 37.725 3.49306 37.6556 3.18473 37.5044L3.18473 37.5044Z" fill="white"/>
<path d="M38.2548 37.2951C38.0612 37.3841 37.9247 37.451 37.8157 37.5044C37.5073 37.6556 37.3656 37.725 37.1227 37.7533C36.9413 37.7744 36.7623 37.761 36.4314 37.7364L36.4689 37.2039L36.4293 37.737C36.4209 37.7363 36.4125 37.7355 36.4042 37.7345C36.1169 37.7131 35.712 37.6833 35.1625 37.661C35.0332 37.6558 34.9507 37.7277 34.9123 37.8254C34.882 37.9024 34.8684 37.9909 34.8709 38.0811C34.8735 38.1738 34.8938 38.2684 34.9311 38.3549C34.99 38.4916 35.1039 38.5947 35.2654 38.5831L35.3404 39.6481C35.1636 39.6608 35.0566 39.7781 35.0154 39.9205C34.9952 39.9902 34.9881 40.0685 34.9936 40.1488C34.9988 40.2251 35.0165 40.2993 35.0462 40.3653C35.1025 40.4903 35.217 40.5824 35.385 40.5703L35.46 41.6352C35.2833 41.6479 35.1762 41.7652 35.135 41.9076C35.1148 41.9773 35.1076 42.0555 35.1131 42.1358C35.1183 42.2121 35.1361 42.2864 35.1658 42.3524C35.2221 42.4773 35.3365 42.5694 35.5045 42.5573C36.2107 42.5066 36.8622 42.5398 37.4391 42.5691C38.325 42.6142 38.9962 42.6485 39.2079 42.3508C40.2323 40.9105 40.0022 39.3248 39.4475 38.264C39.2924 37.9674 39.1117 37.7133 38.9267 37.5169C38.7655 37.3458 38.6126 37.229 38.485 37.1795C38.4662 37.1722 38.5068 37.1044 38.4858 37.13L38.075 36.7918L38.4872 37.1314C38.4236 37.2088 38.3428 37.2636 38.2548 37.2951V37.2951ZM37.3485 36.5481C37.459 36.4939 37.5946 36.4275 37.7589 36.3511C38.06 36.063 38.4494 36.0226 38.8687 36.1856C39.1448 36.2929 39.4335 36.5006 39.7024 36.7862C39.9477 37.0465 40.1863 37.3817 40.39 37.7713C41.0936 39.1164 41.3825 41.1311 40.0754 42.9689C39.5248 43.7431 38.6025 43.6961 37.3849 43.6341C36.8435 43.6065 36.2321 43.5753 35.5795 43.6223C34.8903 43.6718 34.4227 43.2983 34.194 42.7908C34.1119 42.6085 34.0634 42.4085 34.0496 42.2069C34.036 42.0092 34.0569 41.8054 34.1132 41.6111C34.1578 41.4569 34.2235 41.3104 34.3106 41.1786C34.2148 41.0671 34.136 40.9403 34.0745 40.8038C33.9923 40.6215 33.9438 40.4215 33.93 40.2198C33.9164 40.0222 33.9374 39.8183 33.9936 39.624C34.0394 39.4657 34.1075 39.3156 34.198 39.1809C34.097 39.0611 34.0145 38.9241 33.951 38.7768C33.8621 38.5707 33.8137 38.3404 33.8074 38.1103C33.8009 37.8778 33.8379 37.6452 33.9197 37.4371C34.1164 36.9369 34.5397 36.5691 35.2042 36.5961C35.8331 36.6217 36.2154 36.6496 36.4843 36.6696C36.4924 36.6699 36.5005 36.6703 36.5085 36.6709L36.5085 36.6715H36.5085V36.6716C36.7748 36.6914 36.919 36.7021 37.0017 36.6925C37.0701 36.6846 37.1578 36.6416 37.3485 36.5481L37.3485 36.5481Z" fill="white"/>
<path d="M30.4922 32.2257C29.8085 31.2582 28.8574 30.4181 27.7285 29.7391C25.7135 28.5271 23.1453 27.8332 20.5047 27.8332C17.8488 27.8332 15.2818 28.5405 13.2675 29.7683C12.1576 30.4448 11.2191 31.2768 10.5335 32.2308C9.92886 32.1086 9.31988 32.0017 8.7085 31.9115C9.55275 30.4772 10.8287 29.256 12.3794 28.3108C14.6582 26.9218 17.5406 26.1216 20.5047 26.1216C23.4471 26.1216 26.3267 26.9056 28.6032 28.2749C30.1808 29.2238 31.4741 30.4555 32.3128 31.9083C31.7029 31.998 31.0954 32.1042 30.4922 32.2257L30.4922 32.2257Z" fill="white"/>
<path d="M26.4433 28.5639C26.6402 28.1695 26.4806 27.6898 26.0867 27.4927C25.6928 27.2955 25.2138 27.4553 25.0169 27.8497C24.6595 28.562 24.037 29.1585 23.2546 29.5819C22.4463 30.0194 21.4723 30.2676 20.4412 30.2676C19.4536 30.2676 18.5186 30.0416 17.7329 29.6392C16.9696 29.2482 16.3467 28.6918 15.9581 28.0181C15.737 27.6359 15.2482 27.5054 14.8664 27.7268C14.4846 27.9483 14.3544 28.4377 14.5755 28.82C15.1189 29.762 15.972 30.5309 17.0072 31.0611C18.02 31.5799 19.2063 31.8712 20.4412 31.8712C21.7377 31.8712 22.9743 31.5527 24.0116 30.9913C25.0748 30.4158 25.9331 29.5809 26.4433 28.5639L26.4433 28.5639Z" fill="white"/>
<path d="M3.33398 36.7925C3.33398 37.2446 3.70001 37.6111 4.15152 37.6111C4.60298 37.6111 4.96904 37.2446 4.96904 36.7925V34.3079C7.39684 34.3843 9.95517 34.7954 12.4349 35.4904C15.0173 36.2142 17.5118 37.2431 19.6827 38.5194V49.6943C18.0612 48.6905 15.3218 47.424 13.4662 47.0315C10.6499 46.2479 7.72553 45.896 4.96904 45.8387V43.3775C4.96904 42.9255 4.60298 42.559 4.15152 42.559C3.70001 42.559 3.33398 42.9255 3.33398 43.3775V46.6488C3.33398 47.1009 3.70001 47.4674 4.15152 47.4674C7.01679 47.4674 10.0958 47.7893 13.0301 48.6059C13.0455 48.6112 13.061 48.6162 13.0769 48.6206L13.0801 48.6189C15.5508 49.3113 17.9212 50.3564 19.9754 51.8581C20.1175 51.9772 20.3005 52.049 20.5002 52.049C20.9517 52.049 21.3178 51.6825 21.3178 51.2305V38.0672C21.3206 37.7887 21.1815 37.5158 20.9271 37.3599L20.5002 38.058L20.925 37.3609C18.5349 35.8957 15.7534 34.7237 12.8756 33.9172C9.96812 33.1024 6.95884 32.6577 4.15154 32.6577C3.70003 32.6577 3.33401 33.0243 3.33401 33.4763V36.7926L3.33398 36.7925Z" fill="white"/>
<path d="M36.0314 36.8373C36.0314 37.2894 36.3975 37.6559 36.8489 37.6559C37.3004 37.6559 37.6664 37.2894 37.6664 36.8373V33.4763C37.6664 33.0243 37.3004 32.6577 36.8489 32.6577C34.0416 32.6577 31.0323 33.1024 28.1248 33.9172C25.247 34.7237 22.4655 35.8957 20.0754 37.3609L20.5002 38.058L20.0733 37.3599C19.8189 37.5158 19.6798 37.7887 19.6827 38.0672V51.2305C19.6827 51.6825 20.0487 52.049 20.5002 52.049C20.7 52.049 20.883 51.9772 21.025 51.8581C23.0792 50.3564 25.4497 49.3113 27.9203 48.6189L27.9235 48.6206C27.9394 48.6162 27.955 48.6112 27.9704 48.6059C30.9047 47.7893 33.9836 47.4674 36.8489 47.4674C37.3004 47.4674 37.6665 47.1009 37.6665 46.6488V43.4664C37.6665 43.0143 37.3004 42.6478 36.8489 42.6478C36.3975 42.6478 36.0314 43.0143 36.0314 43.4664V45.8387C33.2749 45.896 30.3506 46.2479 27.5343 47.0315C25.6786 47.424 22.9392 48.6905 21.3177 49.6943V38.5194C23.4886 37.2431 25.9831 36.2142 28.5656 35.4904C31.0453 34.7954 33.6036 34.3843 36.0314 34.3079V36.8373L36.0314 36.8373Z" fill="white"/>
</g>
<defs>
<clipPath id="clip0_414_403">
<rect width="41" height="52" fill="white"/>
</clipPath>
</defs>
</svg>
