<svg width="46" height="52" viewBox="0 0 46 52" fill="none" xmlns="http://www.w3.org/2000/svg">
<g clip-path="url(#clip0_414_335)">
<path d="M18.7687 7.25529C18.9244 6.85302 18.7276 6.39944 18.329 6.24228C17.9305 6.08512 17.4811 6.28376 17.3254 6.68603C16.7377 8.20526 15.8488 9.56406 14.7315 10.6894C13.6117 11.817 12.2633 12.712 10.7591 13.301C10.3605 13.4565 10.1623 13.9087 10.3164 14.3109C10.4705 14.7132 10.9185 14.9132 11.3171 14.7577C13.0256 14.0888 14.555 13.0743 15.8232 11.7973C17.0937 10.5177 18.103 8.97603 18.7687 7.25529Z" fill="white"/>
<path d="M18.7778 6.71358C18.6371 6.30626 18.1959 6.09115 17.7923 6.23312C17.3887 6.37509 17.1756 6.82046 17.3163 7.22778C17.5729 7.97159 17.7521 8.73417 17.8545 9.50362C17.9576 10.2778 17.9824 11.062 17.9298 11.8438C17.9013 12.2748 18.2245 12.6475 18.6515 12.6762C19.0785 12.7049 19.4478 12.3788 19.4762 11.9478C19.5354 11.0687 19.5067 10.18 19.3888 9.29549C19.2727 8.42386 19.0694 7.55871 18.7778 6.71358Z" fill="white"/>
<path d="M31.6677 14.7639C32.0696 14.9126 32.5149 14.7043 32.6623 14.2987C32.8096 13.893 32.6033 13.4436 32.2014 13.2948C30.2722 12.5796 28.5287 11.5638 27.0659 10.3275C25.6116 9.0985 24.4374 7.65642 23.6377 6.08104C23.4435 5.69736 22.9778 5.54529 22.5977 5.74135C22.2175 5.93742 22.0668 6.40743 22.2611 6.79111C23.1596 8.56127 24.4644 10.1694 26.0713 11.5273C27.6695 12.878 29.5696 13.986 31.6677 14.7639L31.6677 14.7639Z" fill="white"/>
<path d="M18.2395 11.2685C17.8962 11.527 17.8256 12.0176 18.0818 12.3641C18.338 12.7106 18.824 12.7818 19.1673 12.5233C20.0399 11.8657 20.9169 10.9716 21.689 9.98916C22.4696 8.99597 23.1479 7.9056 23.6102 6.87266C23.786 6.47887 23.6122 6.01568 23.2221 5.83825C22.8319 5.66081 22.373 5.8362 22.1972 6.22999C21.7872 7.14614 21.1793 8.1211 20.4761 9.0159C19.7853 9.89485 19.0071 10.6901 18.2395 11.2684L18.2395 11.2685Z" fill="white"/>
<path d="M21.0511 0.159149C24.3343 0.159149 27.3068 1.50245 29.4584 3.67414C31.6101 5.8458 32.941 8.84601 32.941 12.1598C32.941 15.4736 31.6101 18.4739 29.4584 20.6455C27.3068 22.8172 24.3343 24.1605 21.0511 24.1605C17.7678 24.1605 14.7953 22.8172 12.6437 20.6455C10.492 18.4738 9.16113 15.4736 9.16113 12.1598C9.16113 8.84601 10.492 5.84579 12.6437 3.67414C14.7953 1.50245 17.7678 0.159149 21.0511 0.159149ZM28.3608 4.78205C26.4902 2.89398 23.9057 1.72612 21.0511 1.72612C18.1964 1.72612 15.612 2.89398 13.7413 4.78205C11.8707 6.67008 10.7136 9.27859 10.7136 12.1599C10.7136 15.0411 11.8707 17.6496 13.7413 19.5377C15.612 21.4257 18.1964 22.5936 21.0511 22.5936C23.9057 22.5936 26.4901 21.4257 28.3608 19.5377C30.2314 17.6496 31.3885 15.0411 31.3885 12.1599C31.3885 9.27861 30.2314 6.67011 28.3608 4.78205Z" fill="white"/>
<path d="M8.91331 6.69173C8.53485 6.49062 8.06643 6.63721 7.86717 7.0192C7.66791 7.40119 7.81315 7.87397 8.19161 8.07509L9.7312 8.89219C10.1097 9.0933 10.5781 8.94671 10.7773 8.56472C10.9766 8.18274 10.8314 7.70995 10.4529 7.50884L8.91331 6.69173Z" fill="white"/>
<path d="M3.26598 2.68361C4.53128 2.28678 5.8799 2.64131 7.06339 3.54247C8.17119 4.38603 9.14246 5.72443 9.74047 7.36326L9.74154 7.36287C9.88964 7.76888 9.68358 8.2193 9.28132 8.36879C9.02725 8.46322 8.7556 8.41498 8.55264 8.26434C7.98638 7.91119 7.365 7.6768 6.72474 7.58295C6.09549 7.49072 5.44733 7.53348 4.81525 7.73171C4.18263 7.93012 3.62623 8.26411 3.16293 8.69695C2.67685 9.15107 2.28903 9.71844 2.0188 10.3569L1.30623 10.0509L2.02006 10.3586C1.85167 10.7565 1.3955 10.9413 1.00131 10.7714C0.761057 10.6678 0.599198 10.4562 0.547551 10.2168C0.12814 8.53805 0.179405 6.89111 0.616696 5.56738C1.08627 4.14593 1.99936 3.0809 3.266 2.68361L3.26598 2.68361ZM6.12943 4.79119C5.33882 4.18916 4.48025 3.939 3.7208 4.17716C2.9627 4.41494 2.3969 5.11079 2.0843 6.05706C1.90716 6.59324 1.81196 7.20437 1.80757 7.85946C1.90597 7.75358 2.00805 7.65109 2.11375 7.55235C2.74552 6.96212 3.5021 6.50733 4.36041 6.23816C5.21918 5.96884 6.09563 5.91016 6.94308 6.03435C7.08531 6.05521 7.22673 6.0812 7.36712 6.1122C6.99649 5.57818 6.57578 5.13107 6.12943 4.79119L6.12943 4.79119Z" fill="white"/>
<path d="M38.3817 4.17716C37.6223 3.93899 36.7637 4.18915 35.9731 4.79119C35.5268 5.13107 35.1061 5.57818 34.7354 6.11219C34.8758 6.08119 35.0172 6.05521 35.1594 6.03435C36.0069 5.91015 36.8833 5.96884 37.7421 6.23816C38.6004 6.50733 39.357 6.96211 39.9888 7.55234C40.0945 7.65109 40.1965 7.75357 40.295 7.85945C40.2906 7.20437 40.1954 6.59324 40.0182 6.05706C39.7056 5.11079 39.1398 4.41494 38.3817 4.17716L38.3817 4.17716ZM35.0392 3.54247C36.2226 2.64131 37.5713 2.28678 38.8365 2.68361C40.1032 3.0809 41.0163 4.14593 41.4858 5.56738C41.9231 6.89113 41.9744 8.53806 41.555 10.2168C41.5033 10.4562 41.3415 10.6678 41.1012 10.7714C40.707 10.9413 40.2509 10.7565 40.0825 10.3586L40.7963 10.0509L40.0837 10.3569C39.8135 9.71844 39.4257 9.15107 38.9396 8.69695C38.4763 8.2641 37.9199 7.93012 37.2873 7.73171C36.6552 7.53348 36.007 7.49072 35.3778 7.58295C34.7375 7.6768 34.1162 7.91119 33.5499 8.26434C33.3469 8.41498 33.0753 8.46321 32.8212 8.36879C32.4189 8.2193 32.2129 7.76888 32.361 7.36287L32.3621 7.36325C32.9601 5.72442 33.9314 4.38606 35.0392 3.54247L35.0392 3.54247Z" fill="white"/>
<path d="M33.9104 8.07506C34.2889 7.87394 34.4341 7.40115 34.2349 7.01917C34.0356 6.63718 33.5672 6.49059 33.1887 6.6917L31.6491 7.50881C31.2707 7.70992 31.1254 8.18271 31.3247 8.56469C31.5239 8.94668 31.9924 9.09327 32.3708 8.89216L33.9104 8.07506Z" fill="white"/>
<path d="M10.7617 33.0548C11.2239 31.2792 12.5363 29.7806 14.3111 28.7045C16.2244 27.5445 18.6629 26.8803 21.1702 26.8803C23.692 26.8803 26.1294 27.5573 28.042 28.7325C29.1406 29.4075 30.0624 30.2442 30.7196 31.2064C31.2468 31.0081 31.79 30.8518 32.3446 30.7395C31.5429 29.3858 30.3418 28.2324 28.8852 27.3375C26.7215 26.0081 23.9847 25.2422 21.1702 25.2422C18.3764 25.2422 15.6421 25.9926 13.4806 27.3032C11.3541 28.5925 9.77137 30.4275 9.19562 32.6389L7.42181 39.4525C7.3937 39.5356 7.37842 39.6247 7.37842 39.7174C7.37842 40.1697 7.74179 40.5365 8.18997 40.5365H23.7954C23.8349 39.9817 23.9164 39.4343 24.038 38.8983H9.24042L10.7617 33.0548L10.7617 33.0548Z" fill="white"/>
<path d="M16.9 26.8889C16.7092 26.5035 16.2448 26.3473 15.863 26.54C15.4812 26.7327 15.3264 27.2013 15.5173 27.5867C16.0033 28.5632 16.8206 29.3648 17.8329 29.917C18.82 30.4557 19.9968 30.7611 21.2305 30.7611C22.4055 30.7611 23.5343 30.4817 24.4983 29.984C25.484 29.4751 26.2963 28.7371 26.8138 27.8327C27.0282 27.4592 26.9019 26.981 26.5318 26.7646C26.1617 26.5483 25.6879 26.6757 25.4736 27.0492C25.1061 27.6913 24.5169 28.2218 23.7948 28.5945C23.0511 28.9785 22.1657 29.1942 21.2305 29.1942C20.2541 29.1942 19.3319 28.9574 18.5666 28.5399C17.8266 28.1361 17.2378 27.5676 16.9 26.8889H16.9Z" fill="white"/>
<path d="M34.4544 31.5732C36.6012 31.5732 38.5843 32.2808 40.1874 33.4774C39.7409 34.0969 39.8694 33.9808 38.8887 34.4731C37.6148 33.6304 36.0913 33.1402 34.4544 33.1402C32.2177 33.1402 30.1927 34.0553 28.7271 35.5346C27.2613 37.0139 26.3548 39.0578 26.3548 41.3153C26.3548 43.5729 27.2613 45.6167 28.7271 47.0961C30.1927 48.5754 32.2177 49.4904 34.4544 49.4904C36.6911 49.4904 38.7161 48.5754 40.1818 47.0961C41.6475 45.6167 42.5541 43.5729 42.5541 41.3153C42.5541 40.513 42.4395 39.7378 42.226 39.0052C42.7466 38.6926 43.2093 38.4307 43.5943 38.1759C43.9264 39.161 44.1066 40.2169 44.1066 41.3153C44.1066 44.0054 43.0261 46.441 41.2795 48.204C39.5328 49.9669 37.1197 51.0574 34.4544 51.0574C31.7892 51.0574 29.3761 49.9669 27.6294 48.204C25.8826 46.441 24.8022 44.0054 24.8022 41.3153C24.8022 38.6252 25.8827 36.1897 27.6294 34.4267C29.3761 32.6637 31.7892 31.5732 34.4544 31.5732L34.4544 31.5732Z" fill="white"/>
<path d="M37.8864 37.5637C38.1521 37.459 38.2833 37.1566 38.1795 36.8884C38.0757 36.6202 37.7761 36.4878 37.5104 36.5926C37.03 36.783 36.5295 36.9298 36.0139 37.0279C35.5134 37.1231 34.9924 37.173 34.4551 37.173C33.3108 37.173 32.2216 36.9417 31.2307 36.5232C30.2003 36.0881 29.2748 35.4508 28.5031 34.661C28.3033 34.4559 27.9765 34.4531 27.7733 34.6548C27.5701 34.8565 27.5674 35.1863 27.7673 35.3914C28.6358 36.2804 29.6765 36.9972 30.8344 37.4862C31.9499 37.9573 33.1732 38.2176 34.4551 38.2176C35.0482 38.2176 35.6329 38.1608 36.2039 38.0521C36.7871 37.9412 37.3496 37.7765 37.8864 37.5637L37.8864 37.5637Z" fill="white"/>
<path d="M27.7673 47.2393C27.5674 47.4444 27.5701 47.7742 27.7733 47.9759C27.9765 48.1776 28.3033 48.1749 28.5031 47.9698C29.2748 47.1799 30.2003 46.5426 31.2307 46.1075C32.2215 45.689 33.3108 45.4577 34.4552 45.4577C35.5995 45.4577 36.6887 45.689 37.6796 46.1075C38.71 46.5426 39.6355 47.1799 40.4072 47.9698C40.607 48.1749 40.9338 48.1776 41.137 47.9759C41.3402 47.7742 41.3429 47.4444 41.143 47.2393C40.2745 46.3503 39.2338 45.6335 38.0759 45.1444C36.9604 44.6734 35.7371 44.4131 34.4552 44.4131C33.1732 44.4131 31.9499 44.6734 30.8344 45.1444C29.6765 45.6335 28.6358 46.3503 27.7672 47.2393H27.7673Z" fill="white"/>
<path d="M34.9721 32.5897C34.9721 32.3012 34.7403 32.0674 34.4545 32.0674C34.1687 32.0674 33.937 32.3012 33.937 32.5897V50.2739C33.937 50.5624 34.1687 50.7962 34.4545 50.7962C34.7403 50.7962 34.9721 50.5624 34.9721 50.2739V32.5897Z" fill="white"/>
<path d="M25.6943 40.7934C25.4085 40.7934 25.1768 41.0273 25.1768 41.3158C25.1768 41.6042 25.4085 41.8381 25.6943 41.8381H43.2153C43.501 41.8381 43.7328 41.6042 43.7328 41.3158C43.7328 41.0273 43.501 40.7934 43.2153 40.7934H25.6943Z" fill="white"/>
<path d="M40.8461 33.4579C40.6889 33.6661 40.5962 33.7957 40.5229 33.898C40.3243 34.1757 40.233 34.3033 40.0343 34.4495C39.8859 34.5588 39.7209 34.6404 39.4158 34.7914C39.17 34.9131 38.8186 35.087 38.24 35.396C38.0981 35.4718 38.0497 35.5863 38.0632 35.6956C38.072 35.7669 38.0983 35.8383 38.1378 35.903C38.1818 35.975 38.2387 36.0379 38.3036 36.0843C38.4287 36.1736 38.5972 36.1981 38.7625 36.0865L39.3366 36.9515C39.1669 37.0662 39.1183 37.2247 39.1477 37.3656C39.161 37.4294 39.1876 37.4914 39.2246 37.5472C39.2615 37.603 39.3087 37.6518 39.363 37.6892C39.4802 37.77 39.6434 37.785 39.8127 37.6706L40.3868 38.5357C40.217 38.6504 40.1684 38.8088 40.1978 38.9497C40.2111 39.0134 40.2377 39.0755 40.2747 39.1313C40.3116 39.187 40.3588 39.2358 40.4131 39.2732C40.5304 39.3541 40.6935 39.3691 40.8628 39.2547C41.4271 38.8736 41.9503 38.5644 42.4155 38.2895C43.2803 37.7784 43.9247 37.3975 44.1716 36.9373C44.6088 36.1223 44.4791 35.4216 44.084 34.8742C43.857 34.5595 43.5441 34.2858 43.196 34.0616C42.8412 33.8331 42.4502 33.6578 42.0745 33.5435C41.4666 33.3585 40.9579 33.3097 40.8461 33.4579L40.8461 33.4579ZM39.686 33.2901C39.7776 33.162 39.894 32.9993 40.0254 32.8254C40.4116 32.3139 41.3675 32.2388 42.3697 32.5438C42.8267 32.6829 43.3075 32.8994 43.7498 33.1843C44.199 33.4736 44.6091 33.8356 44.9169 34.2621C45.5335 35.1167 45.7436 36.1965 45.0813 37.4311C44.6972 38.147 43.9457 38.5912 42.9371 39.1873C42.4875 39.4529 41.9818 39.7518 41.4369 40.1198C40.8589 40.5102 40.2713 40.4376 39.8309 40.1342C39.6683 40.0222 39.5276 39.8767 39.4176 39.7107C39.3076 39.5448 39.2278 39.3574 39.1871 39.1619C39.1581 39.0227 39.1478 38.8801 39.159 38.7384C39.0245 38.6947 38.8975 38.6306 38.7808 38.5502C38.6182 38.4382 38.4775 38.2926 38.3675 38.1267C38.2575 37.9608 38.1777 37.7733 38.137 37.5779C38.1069 37.434 38.097 37.2864 38.1101 37.1399C37.9675 37.0919 37.8326 37.0212 37.7093 36.9331C37.5281 36.8036 37.3743 36.6363 37.2605 36.4498C37.1422 36.2561 37.0632 36.0403 37.0363 35.8221C36.973 35.3093 37.1686 34.7891 37.7589 34.4738C38.2934 34.1883 38.6873 33.9933 38.9629 33.857C39.2164 33.7315 39.3535 33.6637 39.4279 33.6089C39.4913 33.5622 39.5527 33.4765 39.686 33.2901L39.686 33.2901Z" fill="white"/>
</g>
<defs>
<clipPath id="clip0_414_335">
<rect width="46" height="52" fill="white"/>
</clipPath>
</defs>
</svg>
