<svg width="50" height="172" viewBox="0 0 50 172" fill="none" xmlns="http://www.w3.org/2000/svg">
<path d="M45.8617 169.636L47.6914 167.207C45.8917 165.827 44.092 164.387 42.3523 162.888L40.3727 165.167C42.1724 166.727 44.0021 168.227 45.8617 169.636ZM35.1836 160.398L37.3132 158.238C35.6635 156.619 34.0738 154.969 32.5441 153.259L30.2945 155.299C31.8542 157.099 33.5639 158.748 35.1836 160.398ZM25.7354 149.93L28.1049 148.04C26.6651 146.271 25.2854 144.411 23.9656 142.521L21.5061 144.291C22.8559 146.211 24.2656 148.1 25.7354 149.93ZM17.6068 138.412L20.1563 136.792C18.9565 134.873 17.8168 132.863 16.707 130.793L14.0674 132.233C15.1772 134.363 16.377 136.402 17.6068 138.412ZM10.888 125.994L13.6175 124.704C12.6577 122.635 11.7578 120.505 10.888 118.406L8.09852 119.515C8.93837 121.705 9.89817 123.865 10.888 125.994ZM5.66896 112.887L8.66842 111.927C7.97855 109.737 7.31862 107.518 6.74873 105.328L3.74926 106.108C4.28917 108.357 4.94909 110.637 5.66896 112.887ZM2.09959 99.239L5.09906 98.6391C4.67913 96.4195 4.28922 94.1399 3.98927 91.8603L0.989807 92.2503C1.25976 94.5898 1.64968 96.9294 2.09959 99.239ZM0.269875 85.1115L3.26934 84.9016C3.08937 82.652 3.02939 80.3424 2.9994 78.0328H-6.48499e-05C0.0299301 80.5224 0.119904 82.8919 0.269875 85.1115ZM3.26934 71.1641C3.26934 68.8845 3.59932 66.5749 3.86927 64.3253L0.869804 63.9653C0.569859 66.2749 0.359921 68.6445 0.239944 70.9841L3.26934 71.1641ZM4.88907 57.5165C5.309 55.2969 5.78894 53.0173 6.32885 50.7977L3.32938 50.0779C2.75949 52.3574 2.27951 54.697 1.85958 56.9766L4.88907 57.5165ZM8.15847 44.1689C8.81836 41.9793 9.56826 39.7897 10.3481 37.6601L7.52861 36.6103C6.71876 38.7999 5.93887 41.0495 5.24899 43.2691L8.15847 44.1689ZM12.9576 31.3012C13.8875 29.2016 14.8773 27.102 15.9571 25.0924L13.2576 23.7126C12.2078 25.7822 11.158 27.9119 10.2581 30.0715L12.9576 31.3012ZM19.2265 19.1234C20.3963 17.1738 21.6561 15.2241 22.9159 13.3345L20.4263 11.6248C19.1065 13.5744 17.8168 15.5541 16.617 17.6237L19.2265 19.1234ZM26.9651 7.78549C28.3748 5.95581 29.9646 4.18613 31.3443 2.47644L29.0647 0.466797C27.535 2.23648 26.0653 4.06615 24.5655 5.92581L26.9651 7.78549Z" fill="#BEC7E7"/>
<path d="M31.2845 171.706L31.0445 168.676L45.9518 167.597L43.7922 152.809L46.7917 152.359L49.4312 170.386L31.2845 171.706Z" fill="#BEC7E7"/>
</svg>
