<svg width="66" height="60" viewBox="0 0 66 60" fill="none" xmlns="http://www.w3.org/2000/svg">
<g clip-path="url(#clip0_414_690)">
<path d="M41.5996 42.7891C40.1742 42.7891 38.8071 43.3526 37.7987 44.3558C36.7908 45.3586 36.2246 46.7191 36.2246 48.1374C36.2246 49.5561 36.7909 50.9161 37.7987 51.9195C38.8069 52.9224 40.1742 53.4858 41.5996 53.4858C43.025 53.4858 44.3922 52.9223 45.4006 51.9195C46.4084 50.9163 46.9746 49.5562 46.9746 48.1374C46.9727 46.7196 46.4059 45.3601 45.3986 44.3578C44.3908 43.3549 43.0245 42.791 41.5996 42.7891ZM41.5996 51.3464C40.7444 51.3464 39.9237 51.0084 39.3191 50.4067C38.7146 49.805 38.3747 48.9883 38.3747 48.1375C38.3747 47.2865 38.7144 46.4704 39.3191 45.8683C39.9238 45.2666 40.7445 44.9285 41.5996 44.9285C42.4547 44.9285 43.2755 45.2666 43.8801 45.8683C44.4848 46.4705 44.8245 47.2866 44.8245 48.1375C44.8245 48.9884 44.4848 49.8051 43.8801 50.4067C43.2754 51.0082 42.4547 51.3464 41.5996 51.3464Z" fill="url(#paint0_linear_414_690)"/>
<path d="M43.75 36.3708C43.75 37.7895 44.3163 39.1495 45.324 40.1529C46.3323 41.1558 47.6996 41.7192 49.125 41.7192C50.5504 41.7192 51.9175 41.1557 52.926 40.1529C53.9338 39.1496 54.5 37.7896 54.5 36.3708C54.5 34.9525 53.9337 33.5921 52.926 32.5892C51.9177 31.5859 50.5504 31.0225 49.125 31.0225C47.7001 31.0244 46.3338 31.5883 45.326 32.5912C44.3187 33.5935 43.752 34.953 43.75 36.3708ZM49.125 33.1618C49.9802 33.1618 50.8009 33.4999 51.4055 34.1016C52.0102 34.7038 52.3499 35.5199 52.3499 36.3708C52.3499 37.2217 52.0102 38.0383 51.4055 38.6399C50.8008 39.2415 49.9801 39.5797 49.125 39.5797C48.2699 39.5797 47.4491 39.2416 46.8445 38.6399C46.2399 38.0382 45.9001 37.2216 45.9001 36.3708C45.9001 35.5198 46.2398 34.7037 46.8445 34.1016C47.4492 33.4999 48.2699 33.1618 49.125 33.1618Z" fill="url(#paint1_linear_414_690)"/>
<path d="M27.625 43.8594C26.1996 43.8594 24.8325 44.4229 23.824 45.4261C22.8162 46.4289 22.25 47.7894 22.25 49.2077C22.25 50.6264 22.8163 51.9864 23.824 52.9898C24.8323 53.9927 26.1996 54.5561 27.625 54.5561C29.0504 54.5561 30.4175 53.9926 31.426 52.9898C32.4338 51.9866 33 50.6265 33 49.2077C32.9981 47.7899 32.4313 46.4304 31.424 45.4281C30.4162 44.4252 29.0499 43.8613 27.625 43.8594ZM27.625 52.4168C26.7698 52.4168 25.9491 52.0787 25.3445 51.477C24.7399 50.8753 24.4001 50.0586 24.4001 49.2078C24.4001 48.3568 24.7398 47.5407 25.3445 46.9386C25.9492 46.3369 26.7699 45.9988 27.625 45.9988C28.4801 45.9988 29.3009 46.3369 29.9055 46.9386C30.5102 47.5408 30.8499 48.3569 30.8499 49.2078C30.8499 50.0588 30.5102 50.8754 29.9055 51.477C29.3008 52.0786 28.4801 52.4168 27.625 52.4168Z" fill="url(#paint2_linear_414_690)"/>
<path d="M17.9502 34.2324C16.5248 34.2324 15.1577 34.7959 14.1492 35.7992C13.1414 36.802 12.5752 38.1625 12.5752 39.5808C12.5752 40.9995 13.1415 42.3595 14.1492 43.3629C15.1575 44.3657 16.5248 44.9291 17.9502 44.9291C19.3756 44.9291 20.7427 44.3657 21.7511 43.3629C22.759 42.3596 23.3252 40.9996 23.3252 39.5808C23.3233 38.1629 22.7565 36.8034 21.7492 35.8011C20.7414 34.7983 19.3751 34.2344 17.9502 34.2324ZM17.9502 42.7898C17.095 42.7898 16.2743 42.4517 15.6697 41.85C15.0651 41.2483 14.7253 40.4317 14.7253 39.5808C14.7253 38.7299 15.065 37.9137 15.6697 37.3117C16.2744 36.71 17.0951 36.3719 17.9502 36.3719C18.8053 36.3719 19.6261 36.71 20.2307 37.3117C20.8354 37.9138 21.1751 38.73 21.1751 39.5808C21.1751 40.4318 20.8354 41.2484 20.2307 41.85C19.626 42.4516 18.8053 42.7898 17.9502 42.7898Z" fill="url(#paint3_linear_414_690)"/>
<path d="M16.875 31.0229C18.3004 31.0229 19.6675 30.4594 20.676 29.4566C21.6838 28.4534 22.25 27.0933 22.25 25.6745C22.25 24.2562 21.6837 22.8958 20.676 21.8929C19.6677 20.8896 18.3004 20.3262 16.875 20.3262C15.4496 20.3262 14.0825 20.8897 13.074 21.8929C12.0662 22.8957 11.5 24.2562 11.5 25.6745C11.5019 27.0929 12.0687 28.4519 13.076 29.4547C14.0838 30.4575 15.4501 31.0214 16.875 31.0229ZM16.875 22.4655C17.7302 22.4655 18.5509 22.8036 19.1555 23.4053C19.7602 24.0075 20.0999 24.8236 20.0999 25.6745C20.0999 26.5254 19.7602 27.3421 19.1555 27.9436C18.5508 28.5452 17.7301 28.8834 16.875 28.8834C16.0199 28.8834 15.1991 28.5453 14.5945 27.9436C13.9899 27.342 13.6501 26.5253 13.6501 25.6745C13.6501 24.8235 13.9898 24.0074 14.5945 23.4053C15.1992 22.8036 16.0199 22.4655 16.875 22.4655Z" fill="url(#paint4_linear_414_690)"/>
<path d="M38.3133 19.5372C37.8938 19.1198 37.2133 19.1198 36.7934 19.5372L35.4799 20.8456C32.3476 19.945 30.1275 18.0516 27.9881 16.203C25.3481 13.9214 22.854 11.7682 19.0248 11.7682C10.6667 11.7682 5.0498 19.935 5.0498 32.092C5.0498 45.5698 14.8452 59.9034 32.9998 59.9034C51.3498 59.9034 60.9498 49.1403 60.9498 38.51C60.9498 29.9602 56.8432 24.5651 48.7452 22.4405L64.1871 5.89417C64.5806 5.47251 64.5681 4.81638 64.1588 4.40947L61.119 1.38578C60.7102 0.978925 60.0517 0.966505 59.6279 1.3576L39.1022 20.322L38.3133 19.5372ZM37.5531 21.806L43.6355 27.8573L42.1141 29.3711L41.3338 28.5937L36.8188 24.101L36.0375 23.3246L37.5531 21.806ZM35.5609 25.8708L36.7928 27.0975L32.9934 30.8834L34.5132 32.3957L38.3132 28.6133L39.5475 29.84V29.8405C39.6426 31.072 39.1919 32.2835 38.3132 33.1565C35.1247 36.3302 30.6625 36.6501 28.7024 36.6683C28.6928 34.7663 29.0422 30.2789 32.2326 27.1052H32.2331C33.1089 26.2313 34.3245 25.782 35.5613 25.8742L35.5609 25.8708ZM58.7994 38.51C58.7994 51.1505 45.8207 57.7641 32.9994 57.7641C14.2047 57.7641 7.19937 42.0173 7.19937 32.092C7.19937 21.2157 11.952 13.9075 19.0244 13.9075C22.0507 13.9075 24.1499 15.7197 26.5781 17.818V17.8185C28.6662 19.8208 31.108 21.422 33.7806 22.5408L33.7581 22.5623C33.3929 22.9319 33.3516 23.5107 33.6606 23.9286C32.5449 24.2065 31.5265 24.78 30.7131 25.5884C25.8424 30.435 26.5699 37.5091 26.6031 37.8075C26.6583 38.3051 27.0533 38.6976 27.5533 38.753C27.9824 38.7936 28.4129 38.8123 28.8433 38.8094C31.1709 38.8094 36.1438 38.3342 39.83 34.6644C40.642 33.8569 41.2179 32.845 41.4971 31.7372C41.6742 31.8704 41.8892 31.9454 42.1109 31.9511C42.3965 31.9511 42.6705 31.8384 42.8721 31.6374L45.9123 28.6113C46.3318 28.1939 46.3318 27.5168 45.9123 27.0989L45.1243 26.3148L47.0593 24.2452C54.95 25.9189 58.7994 30.5848 58.7994 38.5103L58.7994 38.51ZM60.3313 3.62524L61.9063 5.19247L43.6067 24.8023L40.6227 21.834L60.3313 3.62524Z" fill="url(#paint5_linear_414_690)" stroke="url(#paint6_linear_414_690)" stroke-width="0.6"/>
<path d="M39.8047 13.1134L50.5552 3.48633L51.9935 5.07653L41.243 14.7036L39.8047 13.1134Z" fill="url(#paint7_linear_414_690)"/>
<path d="M52.1094 1.98673L53.6383 0.618164L55.0761 2.20837L53.5472 3.57694L52.1094 1.98673Z" fill="url(#paint8_linear_414_690)"/>
<path d="M0.75 32.0927C0.75 32.127 0.75 32.957 0.872377 34.3261L3.01378 34.138C2.90004 32.8725 2.90004 32.1004 2.90004 32.0918L0.75 32.0927Z" fill="url(#paint9_linear_414_690)"/>
<path d="M1.12793 36.5214C1.90923 41.9958 4.03043 49.701 9.66453 55.3122C10.0317 55.6766 10.407 56.0266 10.7914 56.3613L12.208 54.7568C11.8596 54.4531 11.5184 54.1356 11.1849 53.8037C5.69463 48.3302 3.85951 40.4383 3.25677 36.2207L1.12793 36.5214Z" fill="url(#paint10_linear_414_690)"/>
<path d="M62.0706 46.0332C60.4274 51.8883 55.8418 56.4711 49.9648 58.1325L50.2005 59.1764L50.4337 60.2212C57.0695 58.389 62.2621 53.2426 64.1299 46.6468L62.0706 46.0332Z" fill="url(#paint11_linear_414_690)"/>
</g>
<defs>
<linearGradient id="paint0_linear_414_690" x1="36.2246" y1="48.0497" x2="46.7027" y2="48.0497" gradientUnits="userSpaceOnUse">
<stop stop-color="#3669CD"/>
<stop offset="0.484375" stop-color="#8D3BDE"/>
<stop offset="1" stop-color="#EA5FAB"/>
</linearGradient>
<linearGradient id="paint1_linear_414_690" x1="43.75" y1="36.2831" x2="54.2281" y2="36.2831" gradientUnits="userSpaceOnUse">
<stop stop-color="#3669CD"/>
<stop offset="0.484375" stop-color="#8D3BDE"/>
<stop offset="1" stop-color="#EA5FAB"/>
</linearGradient>
<linearGradient id="paint2_linear_414_690" x1="22.25" y1="49.1201" x2="32.7281" y2="49.1201" gradientUnits="userSpaceOnUse">
<stop stop-color="#3669CD"/>
<stop offset="0.484375" stop-color="#8D3BDE"/>
<stop offset="1" stop-color="#EA5FAB"/>
</linearGradient>
<linearGradient id="paint3_linear_414_690" x1="12.5752" y1="39.4931" x2="23.0533" y2="39.4931" gradientUnits="userSpaceOnUse">
<stop stop-color="#3669CD"/>
<stop offset="0.484375" stop-color="#8D3BDE"/>
<stop offset="1" stop-color="#EA5FAB"/>
</linearGradient>
<linearGradient id="paint4_linear_414_690" x1="11.5" y1="25.5869" x2="21.9781" y2="25.5869" gradientUnits="userSpaceOnUse">
<stop stop-color="#3669CD"/>
<stop offset="0.484375" stop-color="#8D3BDE"/>
<stop offset="1" stop-color="#EA5FAB"/>
</linearGradient>
<linearGradient id="paint5_linear_414_690" x1="5.0498" y1="30.0056" x2="62.9713" y2="30.0056" gradientUnits="userSpaceOnUse">
<stop stop-color="#3669CD"/>
<stop offset="0.484375" stop-color="#8D3BDE"/>
<stop offset="1" stop-color="#EA5FAB"/>
</linearGradient>
<linearGradient id="paint6_linear_414_690" x1="5.0498" y1="30.0056" x2="62.9713" y2="30.0056" gradientUnits="userSpaceOnUse">
<stop stop-color="#3669CD"/>
<stop offset="0.484375" stop-color="#8D3BDE"/>
<stop offset="1" stop-color="#EA5FAB"/>
</linearGradient>
<linearGradient id="paint7_linear_414_690" x1="39.8047" y1="9.00301" x2="51.6852" y2="9.00301" gradientUnits="userSpaceOnUse">
<stop stop-color="#3669CD"/>
<stop offset="0.484375" stop-color="#8D3BDE"/>
<stop offset="1" stop-color="#EA5FAB"/>
</linearGradient>
<linearGradient id="paint8_linear_414_690" x1="52.1094" y1="2.0733" x2="55.0011" y2="2.0733" gradientUnits="userSpaceOnUse">
<stop stop-color="#3669CD"/>
<stop offset="0.484375" stop-color="#8D3BDE"/>
<stop offset="1" stop-color="#EA5FAB"/>
</linearGradient>
<linearGradient id="paint9_linear_414_690" x1="0.75" y1="33.1907" x2="2.95652" y2="33.1907" gradientUnits="userSpaceOnUse">
<stop stop-color="#3669CD"/>
<stop offset="0.484375" stop-color="#8D3BDE"/>
<stop offset="1" stop-color="#EA5FAB"/>
</linearGradient>
<linearGradient id="paint10_linear_414_690" x1="1.12793" y1="46.1259" x2="11.9278" y2="46.1259" gradientUnits="userSpaceOnUse">
<stop stop-color="#3669CD"/>
<stop offset="0.484375" stop-color="#8D3BDE"/>
<stop offset="1" stop-color="#EA5FAB"/>
</linearGradient>
<linearGradient id="paint11_linear_414_690" x1="49.9648" y1="53.0109" x2="63.7716" y2="53.0109" gradientUnits="userSpaceOnUse">
<stop stop-color="#3669CD"/>
<stop offset="0.484375" stop-color="#8D3BDE"/>
<stop offset="1" stop-color="#EA5FAB"/>
</linearGradient>
<clipPath id="clip0_414_690">
<rect width="66" height="60" fill="white"/>
</clipPath>
</defs>
</svg>
