<svg width="57" height="60" viewBox="0 0 57 60" fill="none" xmlns="http://www.w3.org/2000/svg">
<path d="M48.716 50.4921L33.3003 41.7227V32.3075L42.2542 38.1229C44.1003 39.3228 46.5926 38.8612 47.7925 36.923C48.9924 35.0769 48.5308 32.5846 46.5926 31.3847L33.6691 22.8923C32.9308 22.3386 32.1921 22.3386 31.7304 22.2461H31.6379H31.5454H23.9763C23.3301 20.8616 21.1149 16.6152 20.1916 14.7692L26.9299 7.01514C28.4069 5.35357 28.2223 2.86121 26.5608 1.38424C24.8076 -0.000256211 22.3153 0.184351 20.8383 1.84588L12.3459 11.5381C11.3306 12.738 11.0536 14.3996 11.6997 15.7841C12.2535 17.0765 15.6691 23.5381 16.3152 24.6456V39.5074C15.392 39.5074 13.7304 39.4149 10.6843 39.4149C7.82288 39.4149 5.88424 42.3688 6.9921 45.0457L12.2538 57.1379C13.0845 59.1686 15.4843 60.0918 17.5154 59.261C19.5461 58.4303 20.4694 56.0305 19.6386 53.9994L16.7771 47.4456H27.5771C28.5925 48.0918 32.1002 50.2151 44.7468 57.415C46.6854 58.5228 49.0852 57.7841 50.193 55.938C51.3 53.9998 50.6538 51.6 48.7152 50.4921L48.716 50.4921ZM48.6239 55.0152C48.0702 56.0305 46.6853 56.3997 45.67 55.8459C39.1163 52.1537 29.2386 46.4308 28.5003 45.7846C28.3158 45.6 28.1312 45.6 27.8541 45.6L15.3924 45.5075C14.7462 45.5075 14.2845 46.1537 14.5616 46.7999L17.9768 54.6459C18.4384 55.7538 17.9768 57.0457 16.8689 57.5074C15.761 57.969 14.4691 57.4149 14.0074 56.3995L8.74619 44.3074C8.09999 42.8304 9.20783 41.2613 10.6848 41.2613C13.4543 41.2613 16.5924 41.3538 17.0539 41.4459C17.6077 41.5384 18.1618 41.1688 18.1618 40.5226C18.1618 23.5383 18.2543 24.4608 18.0693 24.1844C17.9768 23.9074 14.0079 16.6153 13.3617 15.0459C12.9925 14.3076 13.1771 13.3843 13.7308 12.7381L22.2232 3.04588C22.9614 2.21511 24.4384 2.12261 25.2692 2.86131C26.1925 3.59959 26.2846 4.98445 25.4538 5.90738L18.2539 14.1227C17.9768 14.3997 17.9768 14.7689 18.0693 15.0459C18.7155 16.4304 22.0387 22.892 22.3153 23.5383C22.4078 23.9074 22.7769 24.1845 23.2386 24.1845H31.4543C31.8234 24.1845 32.1926 24.277 32.5621 24.5536L45.4857 33.046C46.5011 33.6922 46.7781 35.0767 46.1319 35.9999C45.4857 36.9232 44.1012 37.2923 43.178 36.6461L32.8396 29.9078C32.5625 29.7232 32.1934 29.7232 31.9163 29.9078C31.6392 30.0924 31.4546 30.3694 31.4546 30.7386V42.3689C31.4546 42.7381 31.6392 43.0151 31.9163 43.1997L47.8859 52.2458C48.8088 52.707 49.178 53.9994 48.6242 55.0148L48.6239 55.0152Z" fill="url(#paint0_linear_414_719)" stroke="url(#paint1_linear_414_719)" stroke-width="0.5"/>
<path d="M24.3457 14.7695C24.3457 17.908 26.9305 20.5849 30.0686 20.5849C33.2072 20.5849 35.884 18.0001 35.884 14.7695C35.884 11.5389 33.2992 8.9541 30.0686 8.9541C26.8381 8.9541 24.3457 11.631 24.3457 14.7695ZM30.0686 10.8922C32.1918 10.8922 34.038 12.6462 34.038 14.8615C34.038 17.0768 32.2839 18.8309 30.0686 18.8309C27.8533 18.8309 26.1918 16.9848 26.1918 14.7695C26.1918 12.5538 27.9458 10.8922 30.0686 10.8922Z" fill="url(#paint2_linear_414_719)" stroke="url(#paint3_linear_414_719)" stroke-width="0.5"/>
<path d="M49.5455 23.6301C49.1764 23.261 48.6223 23.1685 48.2532 23.5376C47.884 23.9068 47.7915 24.4609 48.1607 24.83C51.2068 28.3376 52.9608 33.0453 52.9608 38.03C52.9608 38.5837 53.33 38.9533 53.8841 38.9533C54.4378 38.9533 54.8074 38.5841 54.8074 38.03C54.8074 32.5841 52.9613 27.507 49.5457 23.63L49.5455 23.6301Z" fill="url(#paint4_linear_414_719)" stroke="url(#paint5_linear_414_719)" stroke-width="0.5"/>
<path d="M8.83819 22.7085C8.46905 22.3394 7.91492 22.3394 7.54583 22.7085C4.77684 25.6624 3.0228 29.2626 2.19202 33.4161C2.09952 33.8778 2.46908 34.4315 2.93029 34.524C3.39193 34.6165 3.94564 34.3394 4.03815 33.7857C4.77643 30.0935 6.43793 26.6779 8.93029 24.0935C9.20735 23.6318 9.20735 23.0777 8.83821 22.7085L8.83819 22.7085Z" fill="url(#paint6_linear_414_719)" stroke="url(#paint7_linear_414_719)" stroke-width="0.5"/>
<defs>
<linearGradient id="paint0_linear_414_719" x1="6.67578" y1="29.5282" x2="49.6185" y2="29.5282" gradientUnits="userSpaceOnUse">
<stop stop-color="#3669CD"/>
<stop offset="0.484375" stop-color="#8D3BDE"/>
<stop offset="1" stop-color="#EA5FAB"/>
</linearGradient>
<linearGradient id="paint1_linear_414_719" x1="6.67578" y1="29.5282" x2="49.6185" y2="29.5282" gradientUnits="userSpaceOnUse">
<stop stop-color="#3669CD"/>
<stop offset="0.484375" stop-color="#8D3BDE"/>
<stop offset="1" stop-color="#EA5FAB"/>
</linearGradient>
<linearGradient id="paint2_linear_414_719" x1="24.3457" y1="14.6742" x2="35.5922" y2="14.6742" gradientUnits="userSpaceOnUse">
<stop stop-color="#3669CD"/>
<stop offset="0.484375" stop-color="#8D3BDE"/>
<stop offset="1" stop-color="#EA5FAB"/>
</linearGradient>
<linearGradient id="paint3_linear_414_719" x1="24.3457" y1="14.6742" x2="35.5922" y2="14.6742" gradientUnits="userSpaceOnUse">
<stop stop-color="#3669CD"/>
<stop offset="0.484375" stop-color="#8D3BDE"/>
<stop offset="1" stop-color="#EA5FAB"/>
</linearGradient>
<linearGradient id="paint4_linear_414_719" x1="47.9258" y1="30.9997" x2="54.6333" y2="30.9997" gradientUnits="userSpaceOnUse">
<stop stop-color="#3669CD"/>
<stop offset="0.484375" stop-color="#8D3BDE"/>
<stop offset="1" stop-color="#EA5FAB"/>
</linearGradient>
<linearGradient id="paint5_linear_414_719" x1="47.9258" y1="30.9997" x2="54.6333" y2="30.9997" gradientUnits="userSpaceOnUse">
<stop stop-color="#3669CD"/>
<stop offset="0.484375" stop-color="#8D3BDE"/>
<stop offset="1" stop-color="#EA5FAB"/>
</linearGradient>
<linearGradient id="paint6_linear_414_719" x1="2.17773" y1="28.3873" x2="8.95203" y2="28.3873" gradientUnits="userSpaceOnUse">
<stop stop-color="#3669CD"/>
<stop offset="0.484375" stop-color="#8D3BDE"/>
<stop offset="1" stop-color="#EA5FAB"/>
</linearGradient>
<linearGradient id="paint7_linear_414_719" x1="2.17773" y1="28.3873" x2="8.95203" y2="28.3873" gradientUnits="userSpaceOnUse">
<stop stop-color="#3669CD"/>
<stop offset="0.484375" stop-color="#8D3BDE"/>
<stop offset="1" stop-color="#EA5FAB"/>
</linearGradient>
</defs>
</svg>
