<svg width="61" height="61" viewBox="0 0 61 61" fill="none" xmlns="http://www.w3.org/2000/svg">
<path d="M30.0514 30.999C30.054 30.6422 29.8566 30.3139 29.5396 30.1479C29.2227 29.9819 28.8384 30.0055 28.5451 30.2091C26.463 31.6513 24.1227 32.3223 21.1793 32.3223C18.2364 32.3223 15.8961 31.6505 13.8149 30.2091C13.5215 30.0055 13.1373 29.9819 12.8204 30.1479C12.5034 30.3139 12.306 30.6422 12.3086 30.999C12.3438 35.8344 16.3223 39.7677 21.1793 39.7677C26.0355 39.7677 30.0148 35.8344 30.0513 30.999H30.0514ZM14.4849 32.8095C16.4484 33.7635 18.6568 34.2308 21.1789 34.2308C23.7009 34.2308 25.9093 33.764 27.8734 32.8095C27.0465 35.7174 24.351 37.8593 21.1789 37.8593C18.0063 37.8593 15.3108 35.7174 14.4849 32.8095Z" fill="url(#paint0_linear_414_751)"/>
<path d="M16.8211 18.1876C17.3507 18.1876 17.7795 17.7607 17.7795 17.2335C17.7795 17.1749 17.7746 17.1173 17.7648 17.0618C17.673 14.17 15.281 11.8447 12.3532 11.8447C9.3684 11.8447 6.93945 14.2622 6.93945 17.2336C6.93945 17.7607 7.36872 18.1876 7.89784 18.1876H16.8082C16.8127 18.188 16.818 18.188 16.8211 18.1876L16.8211 18.1876ZM8.98994 16.279C9.40807 14.8222 10.7574 13.7528 12.3533 13.7528C13.9492 13.7528 15.298 14.8222 15.7166 16.279H8.98994Z" fill="url(#paint1_linear_414_751)"/>
<path d="M25.5521 18.1866H34.4616C34.466 18.187 34.4714 18.1866 34.4745 18.1866C35.0041 18.1866 35.4329 17.7597 35.4329 17.2325C35.4329 17.174 35.428 17.1163 35.4182 17.0608C35.3264 14.169 32.9343 11.8438 30.0075 11.8438C27.0227 11.8438 24.5938 14.2612 24.5938 17.2326C24.5933 17.7597 25.0226 18.1866 25.5521 18.1866L25.5521 18.1866ZM30.0066 13.7519C31.6024 13.7519 32.9514 14.8213 33.3695 16.278H26.6442C27.0619 14.8213 28.4107 13.7519 30.0066 13.7519Z" fill="url(#paint2_linear_414_751)"/>
<path d="M36.7667 41.211C36.3895 41.1626 36.0066 41.1387 35.6291 41.1387C31.2178 41.1387 27.4417 44.4255 26.8466 48.7843C26.7985 49.138 26.9523 49.4881 27.2447 49.6935C27.538 49.8985 27.9209 49.9234 28.2396 49.7597C30.4814 48.5976 32.9202 48.2265 35.8154 48.5957C38.7338 48.9685 40.9693 49.931 42.8501 51.6251C43.0297 51.7867 43.2597 51.8719 43.4938 51.8719C43.607 51.8719 43.7198 51.8523 43.8285 51.8115C44.1642 51.6868 44.4018 51.386 44.445 51.0323C45.0276 46.231 41.5832 41.8256 36.7668 41.2111L36.7667 41.211ZM36.0588 46.7023C35.2644 46.6007 34.4853 46.5496 33.7444 46.5496C32.1419 46.5496 30.6535 46.7839 29.2399 47.2623C30.3124 44.7685 32.8038 43.0472 35.629 43.0472C35.9255 43.0472 36.2264 43.0663 36.5232 43.1045C39.6699 43.5061 42.0695 45.9715 42.5169 48.961C40.6906 47.7647 38.5603 47.0219 36.0587 46.7023L36.0588 46.7023Z" fill="url(#paint3_linear_414_751)"/>
<path d="M41.3809 32.0967C41.3484 32.3478 41.4175 32.6012 41.5735 32.8013C41.7286 33.0019 41.9582 33.1319 42.21 33.1647L51.0473 34.2927C51.0883 34.2976 51.1298 34.3003 51.1699 34.3003C51.6446 34.3003 52.0574 33.9493 52.1189 33.4674C52.3035 32.0399 51.9183 30.6265 51.0339 29.487C50.1495 28.3475 48.8732 27.6197 47.4397 27.437C47.2097 27.4077 46.9752 27.3926 46.7443 27.3926C44.0327 27.3926 41.7263 29.4156 41.3809 32.0966L41.3809 32.0967ZM47.1955 29.3303C48.1213 29.4488 48.946 29.9187 49.517 30.6549C49.887 31.1315 50.1215 31.6821 50.2093 32.2617L43.5375 31.4097C44.134 30.0293 45.6082 29.1294 47.1955 29.3303H47.1955Z" fill="url(#paint4_linear_414_751)"/>
<path d="M59.7827 17.9565C59.4764 17.7555 59.0824 17.7457 58.7677 17.9325C55.5898 19.8046 49.7062 21.0147 43.7774 21.0147C42.4588 21.0147 41.2187 20.9513 40.0682 20.8324C41.0747 15.3664 41.5762 9.01029 41.5762 1.73438C41.5762 1.37008 41.3681 1.03727 41.0382 0.877077C40.7092 0.717337 40.3174 0.757267 40.0286 0.982244C35.8442 4.22817 26.9863 6.23839 21.1789 6.23839C15.371 6.23839 6.51507 4.22874 2.33045 0.981903C2.04205 0.75781 1.64978 0.71788 1.32124 0.87718C0.991819 1.03737 0.783203 1.37017 0.783203 1.73449C0.783203 28.2061 7.38411 42.5897 20.9634 45.7091C20.9942 45.7162 21.0254 45.7153 21.0566 45.7198C23.5105 52.8187 27.9058 57.5861 34.1422 59.8831C34.2488 59.9226 34.362 59.9421 34.4752 59.9421C34.5073 59.9421 34.5385 59.9408 34.5697 59.9377C48.4382 58.5629 56.8245 45.1314 60.2069 18.8768C60.2528 18.5147 60.0884 18.1584 59.7817 17.9578L59.7827 17.9565ZM2.71114 3.53984C7.59141 6.44452 15.5674 8.14541 21.1796 8.14541C26.7905 8.14541 34.7685 6.44372 39.6481 3.53893C39.4265 22.3972 35.6893 34.5657 28.2851 40.3876C28.2361 40.4258 28.1853 40.4608 28.1363 40.4981C27.7556 40.7905 27.3638 41.0643 26.9635 41.3239C26.6951 41.4969 26.4246 41.6682 26.1469 41.8266C26.0332 41.8923 25.9186 41.9558 25.8036 42.0188C24.4579 42.7479 23.0127 43.3172 21.4614 43.7148C21.4391 43.7206 21.4186 43.7312 21.3963 43.7388C21.3228 43.7574 21.2523 43.78 21.1792 43.7978C9.04418 40.8731 2.99491 27.6931 2.71076 3.54004L2.71114 3.53984ZM34.6008 58.0143C29.0162 55.891 25.1888 51.722 22.9279 45.2914C28.7941 43.4982 33.2504 39.418 36.3342 32.9797C36.3565 32.9327 36.3796 32.8861 36.4019 32.839C36.6146 32.3891 36.821 31.928 37.0207 31.4559C38.1257 28.872 39.0319 25.9646 39.7246 22.7187C40.9799 22.854 42.3404 22.9228 43.778 22.9228C48.13 22.9228 53.8857 22.2492 58.063 20.4255C54.6943 44.3434 47.009 56.6505 34.5997 58.0148L34.6008 58.0143Z" fill="url(#paint5_linear_414_751)" stroke="url(#paint6_linear_414_751)" stroke-width="0.6"/>
<defs>
<linearGradient id="paint0_linear_414_751" x1="12.3086" y1="34.8231" x2="29.6027" y2="34.8231" gradientUnits="userSpaceOnUse">
<stop stop-color="#3669CD"/>
<stop offset="0.484375" stop-color="#8D3BDE"/>
<stop offset="1" stop-color="#EA5FAB"/>
</linearGradient>
<linearGradient id="paint1_linear_414_751" x1="6.93945" y1="14.9643" x2="17.5053" y2="14.9643" gradientUnits="userSpaceOnUse">
<stop stop-color="#3669CD"/>
<stop offset="0.484375" stop-color="#8D3BDE"/>
<stop offset="1" stop-color="#EA5FAB"/>
</linearGradient>
<linearGradient id="paint2_linear_414_751" x1="24.5937" y1="14.9633" x2="35.1588" y2="14.9633" gradientUnits="userSpaceOnUse">
<stop stop-color="#3669CD"/>
<stop offset="0.484375" stop-color="#8D3BDE"/>
<stop offset="1" stop-color="#EA5FAB"/>
</linearGradient>
<linearGradient id="paint3_linear_414_751" x1="26.8379" y1="46.4173" x2="44.0623" y2="46.4173" gradientUnits="userSpaceOnUse">
<stop stop-color="#3669CD"/>
<stop offset="0.484375" stop-color="#8D3BDE"/>
<stop offset="1" stop-color="#EA5FAB"/>
</linearGradient>
<linearGradient id="paint4_linear_414_751" x1="41.373" y1="30.7898" x2="51.8911" y2="30.7898" gradientUnits="userSpaceOnUse">
<stop stop-color="#3669CD"/>
<stop offset="0.484375" stop-color="#8D3BDE"/>
<stop offset="1" stop-color="#EA5FAB"/>
</linearGradient>
<linearGradient id="paint5_linear_414_751" x1="0.783203" y1="29.8762" x2="58.7114" y2="29.8762" gradientUnits="userSpaceOnUse">
<stop stop-color="#3669CD"/>
<stop offset="0.484375" stop-color="#8D3BDE"/>
<stop offset="1" stop-color="#EA5FAB"/>
</linearGradient>
<linearGradient id="paint6_linear_414_751" x1="0.783203" y1="29.8762" x2="58.7114" y2="29.8762" gradientUnits="userSpaceOnUse">
<stop stop-color="#3669CD"/>
<stop offset="0.484375" stop-color="#8D3BDE"/>
<stop offset="1" stop-color="#EA5FAB"/>
</linearGradient>
</defs>
</svg>
