<svg width="77" height="61" viewBox="0 0 77 61" fill="none" xmlns="http://www.w3.org/2000/svg">
<g clip-path="url(#clip0_414_658)">
<path d="M40.7196 14.5085C36.8929 14.5085 33.7549 11.4011 33.7549 7.61168C33.7549 3.82228 36.8929 0.714844 40.7196 0.714844C44.5462 0.714844 47.6842 3.82228 47.6842 7.61168C47.7611 11.4011 44.6232 14.5085 40.7196 14.5085ZM40.7196 2.30666C37.7348 2.30666 35.2854 4.73214 35.2854 7.68787C35.2854 10.6436 37.7348 13.0691 40.7196 13.0691C43.7044 13.0691 46.1537 10.6436 46.1537 7.68787C46.1537 4.65608 43.7044 2.30666 40.7196 2.30666Z" fill="url(#paint0_linear_414_658)" stroke="url(#paint1_linear_414_658)"/>
<path d="M18.9076 60.2843H18.6781C16.3057 60.2843 14.3154 58.3896 14.3154 55.9641V34.3645C14.3154 33.0762 13.6267 31.8635 12.5553 31.1059L2.45259 24.8155C1.07526 23.9818 0.233398 22.4662 0.233398 20.7988V5.86856C0.233398 3.67098 2.07033 1.8518 4.28966 1.8518C6.50886 1.8518 8.34593 3.67084 8.34593 5.86856V16.8577C8.34593 17.5396 8.72871 18.2216 9.34103 18.6007L12.8618 20.7227C14.4693 21.7081 16.3826 22.2383 18.296 22.2383C21.434 22.2383 24.4188 20.8744 26.4084 18.3733L26.6379 18.146L13.7801 7.83881C12.9382 7.15684 12.4791 6.247 12.4027 5.26216C12.2495 4.20116 12.5554 3.21575 13.2441 2.45814L13.55 2.07909C14.9273 0.487277 17.2234 0.336108 18.8309 1.62445L31.306 11.7042L37.7346 16.8575C38.6529 17.6156 39.8776 18.0703 41.1022 18.0703H57.4039C59.4704 18.0703 61.2305 19.7376 61.2305 21.8597C61.2305 23.9061 59.5468 25.6491 57.4039 25.6491H39.1124L24.8772 33.6824C23.8821 34.2888 23.1935 35.3498 23.1935 36.4865V56.0397C23.1935 58.389 21.2801 60.2837 18.9077 60.2837L18.9076 60.2843ZM4.28976 3.36756C2.91243 3.36756 1.76416 4.50416 1.76416 5.86856V20.7988C1.76416 21.9354 2.30015 22.9208 3.29469 23.5271L13.3974 29.8175C15.0048 30.8029 15.923 32.5459 15.923 34.3651V55.9646C15.923 57.4802 17.1476 58.693 18.6782 58.693H18.9077C20.4383 58.693 21.6629 57.4803 21.6629 55.9646V36.4858C21.6629 34.7428 22.5812 33.151 24.1123 32.3173L38.5771 24.2077C38.7303 24.1321 38.8066 24.1321 38.9598 24.1321H57.4044C58.629 24.1321 59.6236 23.1467 59.6236 21.9346C59.6236 20.7218 58.6285 19.737 57.4044 19.737H41.1014C39.4939 19.737 37.9634 19.2062 36.7387 18.2214L30.3865 12.9919L17.9119 2.76023C16.9937 2.00213 15.6158 2.07826 14.7739 3.06315L14.468 3.4422C14.0853 3.89684 13.8557 4.5032 13.932 5.10953C14.0084 5.7159 14.3148 6.24613 14.7739 6.62515L28.2437 17.387C28.5496 17.69 28.6264 18.1451 28.3969 18.448L27.7082 19.2817C25.4121 22.0857 22.0446 23.6774 18.3711 23.6774C16.1519 23.6774 14.0085 23.0711 12.1721 21.9344L8.65127 19.8124C7.57983 19.1304 6.89114 17.9933 6.89114 16.7049V5.86754C6.8148 4.50363 5.66702 3.36654 4.28915 3.36654L4.28976 3.36756Z" fill="url(#paint2_linear_414_658)" stroke="url(#paint3_linear_414_658)"/>
<path d="M57.4042 19.5861C56.9451 19.5861 56.6387 19.207 56.6387 18.828V12.1585C56.6387 11.7038 57.0214 11.4004 57.4042 11.4004C57.787 11.4004 58.1698 11.7794 58.1698 12.1585V18.828C58.1698 19.2831 57.8633 19.5861 57.4042 19.5861Z" fill="url(#paint4_linear_414_658)" stroke="url(#paint5_linear_414_658)"/>
<path d="M59.7762 48.537C59.3935 48.537 59.0876 48.2341 59.0107 47.8551C58.9344 47.4004 59.2403 47.0214 59.6994 46.9458C62.4546 46.5667 65.2862 46.1877 67.8887 45.2028C69.8784 44.4447 72.5572 43.0052 74.1647 40.428C75.542 38.0787 75.619 35.1985 74.3179 33.2283L74.1647 33.001C73.6287 32.2429 73.5524 32.0156 72.7104 31.6371C72.3277 31.4097 72.1744 30.9551 72.4045 30.5761C72.6341 30.197 73.0932 30.0453 73.476 30.2731C74.6238 30.8795 74.9302 31.3341 75.5425 32.1678L75.6957 32.3952C77.3032 34.8962 77.3032 38.4583 75.5425 41.2623C73.7056 44.2181 70.7208 45.8854 68.5014 46.7191C65.7463 47.7801 62.7615 48.1592 59.9299 48.5381C59.8525 48.5371 59.7761 48.5371 59.7761 48.5371L59.7762 48.537Z" fill="url(#paint6_linear_414_658)"/>
<path d="M64.9043 37.6989C64.2156 37.6989 63.527 37.5472 62.9146 37.3199C61.5373 36.7891 60.5422 35.5769 60.389 34.1368C60.2358 32.2421 61.5368 30.5747 64.0624 29.6654C66.2054 28.8317 68.3482 28.6044 70.2615 29.059C70.7206 29.1346 70.9502 29.5137 70.8738 29.9683C70.7975 30.423 70.4147 30.6503 69.9556 30.5747C68.2719 30.2718 66.4348 30.423 64.5984 31.1811C63.527 31.5601 61.7668 32.4694 61.9195 34.0612C61.9958 34.8948 62.6082 35.5768 63.45 35.9558C64.9805 36.5622 66.7407 36.1832 68.654 34.7431C72.4043 31.9391 74.6236 27.1643 74.3176 22.5413C74.0117 17.9182 71.1032 13.4469 67.0471 11.2487C64.6747 9.96042 61.8431 10.1121 59.5469 11.5517C58.5518 12.158 58.1696 12.5371 57.9395 12.7644C57.6336 13.0673 57.1739 13.1434 56.868 12.84C56.5621 12.5371 56.4853 12.0819 56.7917 11.779C57.1745 11.3243 57.8631 10.8697 58.705 10.2634C61.4602 8.52038 64.9041 8.36866 67.7357 9.88431H67.812C72.4043 12.3853 75.5417 17.3114 75.9244 22.4652C76.3072 27.6185 73.7815 32.9241 69.6484 36.0313C68.042 37.0928 66.3583 37.6991 64.904 37.6991L64.9043 37.6989Z" fill="url(#paint7_linear_414_658)" stroke="url(#paint8_linear_414_658)"/>
</g>
<defs>
<linearGradient id="paint0_linear_414_658" x1="33.7549" y1="7.49861" x2="47.3333" y2="7.49861" gradientUnits="userSpaceOnUse">
<stop stop-color="#3669CD"/>
<stop offset="0.484375" stop-color="#8D3BDE"/>
<stop offset="1" stop-color="#EA5FAB"/>
</linearGradient>
<linearGradient id="paint1_linear_414_658" x1="33.7549" y1="7.49861" x2="47.3333" y2="7.49861" gradientUnits="userSpaceOnUse">
<stop stop-color="#3669CD"/>
<stop offset="0.484375" stop-color="#8D3BDE"/>
<stop offset="1" stop-color="#EA5FAB"/>
</linearGradient>
<linearGradient id="paint2_linear_414_658" x1="0.233398" y1="30.0341" x2="59.6878" y2="30.0341" gradientUnits="userSpaceOnUse">
<stop stop-color="#3669CD"/>
<stop offset="0.484375" stop-color="#8D3BDE"/>
<stop offset="1" stop-color="#EA5FAB"/>
</linearGradient>
<linearGradient id="paint3_linear_414_658" x1="0.233398" y1="30.0341" x2="59.6878" y2="30.0341" gradientUnits="userSpaceOnUse">
<stop stop-color="#3669CD"/>
<stop offset="0.484375" stop-color="#8D3BDE"/>
<stop offset="1" stop-color="#EA5FAB"/>
</linearGradient>
<linearGradient id="paint4_linear_414_658" x1="56.6387" y1="15.4261" x2="58.1311" y2="15.4261" gradientUnits="userSpaceOnUse">
<stop stop-color="#3669CD"/>
<stop offset="0.484375" stop-color="#8D3BDE"/>
<stop offset="1" stop-color="#EA5FAB"/>
</linearGradient>
<linearGradient id="paint5_linear_414_658" x1="56.6387" y1="15.4261" x2="58.1311" y2="15.4261" gradientUnits="userSpaceOnUse">
<stop stop-color="#3669CD"/>
<stop offset="0.484375" stop-color="#8D3BDE"/>
<stop offset="1" stop-color="#EA5FAB"/>
</linearGradient>
<linearGradient id="paint6_linear_414_658" x1="58.999" y1="39.2015" x2="76.4305" y2="39.2015" gradientUnits="userSpaceOnUse">
<stop stop-color="#3669CD"/>
<stop offset="0.484375" stop-color="#8D3BDE"/>
<stop offset="1" stop-color="#EA5FAB"/>
</linearGradient>
<linearGradient id="paint7_linear_414_658" x1="56.5967" y1="23.0349" x2="75.4728" y2="23.0349" gradientUnits="userSpaceOnUse">
<stop stop-color="#3669CD"/>
<stop offset="0.484375" stop-color="#8D3BDE"/>
<stop offset="1" stop-color="#EA5FAB"/>
</linearGradient>
<linearGradient id="paint8_linear_414_658" x1="56.5967" y1="23.0349" x2="75.4728" y2="23.0349" gradientUnits="userSpaceOnUse">
<stop stop-color="#3669CD"/>
<stop offset="0.484375" stop-color="#8D3BDE"/>
<stop offset="1" stop-color="#EA5FAB"/>
</linearGradient>
<clipPath id="clip0_414_658">
<rect width="77" height="61" fill="white"/>
</clipPath>
</defs>
</svg>
