<svg width="272" height="139" viewBox="0 0 272 139" fill="none" xmlns="http://www.w3.org/2000/svg">
<path d="M262.994 57.0915C263.807 63.9207 261.12 70.8236 255.457 77.4768C249.794 84.1311 241.183 90.4977 230.245 96.2254C208.373 107.679 177.292 116.529 142.189 120.038C107.086 123.547 74.6526 121.045 50.5989 114.181C38.5706 110.749 28.6634 106.233 21.5665 100.854C14.4708 95.4764 10.2219 89.2667 9.40852 82.4375C8.59515 75.6083 11.2823 68.7054 16.9451 62.0522C22.6088 55.3979 31.22 49.0313 42.1573 43.3036C64.0294 31.8497 95.1105 22.9996 130.214 19.491C165.317 15.9824 197.75 18.4842 221.804 25.3478C233.832 28.7801 243.739 33.2958 250.836 38.6746C257.932 44.0526 262.181 50.2623 262.994 57.0915Z" stroke="#32B573"/>
<path d="M263.76 71.639C263.667 78.5059 260.09 85.0476 253.59 91.0029C247.089 96.9591 237.7 102.294 226.086 106.73C202.86 115.601 170.834 120.839 135.518 120.321C100.203 119.802 68.3312 113.624 45.354 104.074C33.864 99.2986 24.6228 93.6899 18.2857 87.5451C11.9496 81.4012 8.55014 74.757 8.64295 67.89C8.73575 61.023 12.3135 54.4813 18.8131 48.5261C25.3137 42.5699 34.7028 37.235 46.3173 32.7989C69.5435 23.9279 101.57 18.6895 136.885 19.2085C172.2 19.7274 204.072 25.9048 227.049 35.4548C238.539 40.2304 247.78 45.8391 254.117 51.9839C260.453 58.1278 263.853 64.772 263.76 71.639Z" stroke="#32B573"/>
</svg>
