<svg width="72" height="72" viewBox="0 0 72 72" fill="none" xmlns="http://www.w3.org/2000/svg">
<g filter="url(#filter0_i_414_1274)">
<circle cx="36" cy="36" r="31" fill="white"/>
</g>
<circle cx="36" cy="36" r="35.5" stroke="#BEC7E7" stroke-dasharray="2 2"/>
<path d="M36.5 24C33.1052 24 32.6795 24.0144 31.3462 24.0752C30.0158 24.1359 29.1071 24.3472 28.312 24.6562C27.49 24.9757 26.7929 25.4031 26.098 26.098C25.4031 26.7929 24.9756 27.49 24.6562 28.312C24.3472 29.1071 24.1359 30.0158 24.0752 31.3462C24.0144 32.6795 24 33.1052 24 36.5C24 39.8947 24.0144 40.3204 24.0752 41.6537C24.1359 42.9841 24.3472 43.8928 24.6562 44.6879C24.9756 45.5099 25.4031 46.207 26.098 46.902C26.7929 47.5968 27.49 48.0243 28.312 48.3437C29.1071 48.6527 30.0158 48.864 31.3462 48.9247C32.6795 48.9855 33.1052 48.9999 36.5 48.9999C39.8947 48.9999 40.3204 48.9855 41.6537 48.9247C42.9841 48.864 43.8928 48.6527 44.6879 48.3437C45.5099 48.0243 46.207 47.5968 46.902 46.902C47.5968 46.207 48.0243 45.5099 48.3437 44.6879C48.6527 43.8928 48.864 42.9841 48.9247 41.6537C48.9855 40.3204 48.9999 39.8947 48.9999 36.5C48.9999 33.1052 48.9855 32.6795 48.9247 31.3462C48.864 30.0158 48.6527 29.1071 48.3437 28.312C48.0243 27.49 47.5968 26.7929 46.902 26.098C46.207 25.4031 45.5099 24.9757 44.6879 24.6562C43.8928 24.3472 42.9841 24.1359 41.6537 24.0752C40.3204 24.0144 39.8947 24 36.5 24V24ZM36.5 26.2523C39.8376 26.2523 40.233 26.265 41.551 26.3251C42.7697 26.3808 43.4316 26.5844 43.8721 26.7555C44.4555 26.9823 44.8719 27.2532 45.3093 27.6906C45.7468 28.128 46.0176 28.5444 46.2444 29.1278C46.4156 29.5683 46.6192 30.2302 46.6748 31.4489C46.7349 32.767 46.7477 33.1624 46.7477 36.5C46.7477 39.8376 46.7349 40.233 46.6748 41.551C46.6192 42.7697 46.4156 43.4316 46.2444 43.8721C46.0176 44.4555 45.7468 44.8719 45.3093 45.3093C44.8719 45.7468 44.4555 46.0176 43.8721 46.2444C43.4316 46.4156 42.7697 46.6192 41.551 46.6748C40.2332 46.7349 39.8378 46.7477 36.5 46.7477C33.1621 46.7477 32.7668 46.7349 31.4489 46.6748C30.2302 46.6192 29.5683 46.4156 29.1278 46.2444C28.5444 46.0176 28.128 45.7468 27.6905 45.3093C27.2531 44.8719 26.9822 44.4555 26.7555 43.8721C26.5843 43.4316 26.3807 42.7697 26.3251 41.551C26.2649 40.233 26.2522 39.8376 26.2522 36.5C26.2522 33.1624 26.2649 32.767 26.3251 31.4489C26.3807 30.2302 26.5843 29.5683 26.7555 29.1278C26.9822 28.5444 27.2531 28.128 27.6905 27.6906C28.128 27.2532 28.5444 26.9823 29.1278 26.7555C29.5683 26.5844 30.2302 26.3808 31.4489 26.3251C32.767 26.265 33.1624 26.2523 36.5 26.2523Z" fill="url(#paint0_linear_414_1274)"/>
<path d="M36.5 40.6666C34.1988 40.6666 32.3333 38.8011 32.3333 36.5C32.3333 34.1988 34.1988 32.3333 36.5 32.3333C38.8011 32.3333 40.6666 34.1988 40.6666 36.5C40.6666 38.8011 38.8011 40.6666 36.5 40.6666ZM36.5 30.0811C32.9549 30.0811 30.0811 32.9549 30.0811 36.5C30.0811 40.045 32.9549 42.9188 36.5 42.9188C40.045 42.9188 42.9188 40.045 42.9188 36.5C42.9188 32.9549 40.045 30.0811 36.5 30.0811Z" fill="url(#paint1_linear_414_1274)"/>
<path d="M44.6724 29.8276C44.6724 30.6561 44.0008 31.3276 43.1724 31.3276C42.3439 31.3276 41.6724 30.6561 41.6724 29.8276C41.6724 28.9992 42.3439 28.3276 43.1724 28.3276C44.0008 28.3276 44.6724 28.9992 44.6724 29.8276Z" fill="url(#paint2_linear_414_1274)"/>
<defs>
<filter id="filter0_i_414_1274" x="5" y="5" width="63" height="64" filterUnits="userSpaceOnUse" color-interpolation-filters="sRGB">
<feFlood flood-opacity="0" result="BackgroundImageFix"/>
<feBlend mode="normal" in="SourceGraphic" in2="BackgroundImageFix" result="shape"/>
<feColorMatrix in="SourceAlpha" type="matrix" values="0 0 0 0 0 0 0 0 0 0 0 0 0 0 0 0 0 0 127 0" result="hardAlpha"/>
<feOffset dx="1" dy="2"/>
<feGaussianBlur stdDeviation="2"/>
<feComposite in2="hardAlpha" operator="arithmetic" k2="-1" k3="1"/>
<feColorMatrix type="matrix" values="0 0 0 0 0.828819 0 0 0 0 0.848103 0 0 0 0 0.916667 0 0 0 1 0"/>
<feBlend mode="normal" in2="shape" result="effect1_innerShadow_414_1274"/>
</filter>
<linearGradient id="paint0_linear_414_1274" x1="38.688" y1="22.6754" x2="31.3824" y2="46.8111" gradientUnits="userSpaceOnUse">
<stop stop-color="#515BD4"/>
<stop offset="0.26" stop-color="#9510B8"/>
<stop offset="0.66" stop-color="#E51804"/>
<stop offset="1" stop-color="#FEDA77"/>
</linearGradient>
<linearGradient id="paint1_linear_414_1274" x1="38.688" y1="22.6754" x2="31.3824" y2="46.8111" gradientUnits="userSpaceOnUse">
<stop stop-color="#515BD4"/>
<stop offset="0.26" stop-color="#9510B8"/>
<stop offset="0.66" stop-color="#E51804"/>
<stop offset="1" stop-color="#FFBF00"/>
</linearGradient>
<linearGradient id="paint2_linear_414_1274" x1="38.6879" y1="22.6755" x2="31.3823" y2="46.8113" gradientUnits="userSpaceOnUse">
<stop stop-color="#515BD4"/>
<stop offset="0.26" stop-color="#9510B8"/>
<stop offset="0.66" stop-color="#E51804"/>
<stop offset="1" stop-color="#FFBF00"/>
</linearGradient>
</defs>
</svg>
