<svg width="1555" height="709" viewBox="0 0 1555 709" fill="none" xmlns="http://www.w3.org/2000/svg">
<path d="M-11.9408 71.1663C-11.9408 71.1663 -14.4408 50.1662 13.0592 55.1662C40.5592 60.1662 59.5593 62.1662 71.5593 50.1662C83.5593 38.1662 57.5592 18.1663 89.0593 4.16626C120.559 -9.83374 218.559 48.1662 305.059 59.6662C391.559 71.1662 460.132 75.8542 532.059 88.1663C617.402 102.775 655.559 148.166 704.559 133.666C753.56 119.166 744.559 97.8516 778.059 81.6663C811.559 65.481 888.63 85.6989 957.559 93.6663C992.481 97.7028 1031.88 90.5537 1065.06 102.166C1103.37 115.574 1101.56 153.666 1138.56 157.666C1175.56 161.666 1190.39 122.508 1239.56 115.666C1306.81 106.309 1302.56 167.666 1406.56 161.666C1470.07 158.002 1561.5 211.666 1552.56 248.666C1543.62 285.666 1515.56 313.666 1515.56 313.666C1515.56 313.666 1455.52 383.765 1406.56 415.166C1366.02 441.165 1340.29 452.186 1294.06 465.666C1265.57 473.973 1252.06 466.541 1220.56 481.166C1189.06 495.791 1184.56 524.166 1135.06 519.166C1085.56 514.166 1025.49 510.237 957.559 524.166C858.156 544.549 725.559 615.166 724.559 643.166C723.559 671.166 751.113 660.814 750.559 679.166C750.03 696.707 724.559 718.166 724.559 718.166" stroke="#BEC7E7" stroke-width="3" stroke-dasharray="7 7"/>
</svg>
