<svg width="700" height="895" viewBox="0 0 700 895" fill="none" xmlns="http://www.w3.org/2000/svg">
    <path d="M63.6435 448.011C63.7328 448.502 63.823 448.993 63.9141 449.483L63.4225 449.575C63.6049 450.557 63.7908 451.539 63.9801 452.521L64.4711 452.427C64.6603 453.407 64.8529 454.388 65.0491 455.368L64.5588 455.466C64.7551 456.448 64.955 457.429 65.1583 458.409L65.6479 458.308C65.851 459.288 66.0575 460.267 66.2674 461.246L65.7786 461.351C65.9888 462.331 66.2024 463.311 66.4195 464.29L66.9076 464.182C67.1244 465.16 67.3447 466.138 67.5682 467.116L67.0808 467.228C67.3038 468.203 67.5302 469.177 67.76 470.152L68.2467 470.037C68.4757 471.009 68.7082 471.98 68.944 472.951L68.4581 473.069C68.6941 474.041 68.9335 475.013 69.1761 475.984L69.6612 475.863C69.9036 476.833 70.1492 477.802 70.3981 478.772L69.9139 478.896C70.1631 479.866 70.4156 480.836 70.6713 481.805L71.1547 481.678C71.4102 482.646 71.6689 483.614 71.9308 484.581L71.4482 484.712C71.7104 485.68 71.9758 486.648 72.2445 487.616L72.7262 487.482C72.9935 488.444 73.2639 489.406 73.5374 490.367L73.0565 490.504C73.3302 491.465 73.607 492.427 73.887 493.387L74.367 493.247C74.6466 494.207 74.9295 495.166 75.2154 496.124L74.7362 496.267C75.0224 497.226 75.3118 498.185 75.6042 499.143L76.0824 498.997C76.3745 499.955 76.6698 500.911 76.968 501.867L76.4907 502.016C76.7893 502.973 77.091 503.93 77.3957 504.885L77.8721 504.734C78.1765 505.688 78.4839 506.642 78.7944 507.596L78.3189 507.751C78.6284 508.701 78.9408 509.651 79.2563 510.6L79.7307 510.442C80.0459 511.39 80.364 512.338 80.6851 513.285L80.2116 513.445C80.533 514.393 80.8573 515.34 81.1846 516.286L81.6572 516.123C81.9841 517.068 82.3141 518.013 82.6469 518.957L82.1753 519.123C82.5085 520.068 82.8446 521.012 83.1836 521.955L83.6541 521.786C83.9928 522.729 84.3344 523.67 84.6787 524.611L84.2093 524.783C84.5539 525.724 84.9014 526.665 85.2518 527.605L85.7203 527.43C86.0692 528.367 86.421 529.302 86.7756 530.236L86.3081 530.414C86.663 531.349 87.0208 532.284 87.3814 533.217L87.8478 533.037C88.208 533.97 88.5711 534.902 88.9368 535.833L88.4714 536.016C88.8376 536.948 89.2065 537.879 89.5782 538.81L90.0425 538.624C90.4138 539.554 90.7879 540.482 91.1647 541.41L90.7014 541.598C91.0786 542.527 91.4585 543.454 91.8411 544.381L92.3033 544.19C92.6854 545.116 93.0702 546.04 93.4577 546.964L92.9966 547.158C93.3836 548.08 93.7733 549.002 94.1657 549.922L94.6257 549.726C95.0177 550.646 95.4124 551.565 95.8097 552.483L95.3508 552.682C95.7485 553.6 96.1488 554.518 96.5518 555.435L97.0095 555.234C97.4121 556.15 97.8173 557.065 98.2251 557.979L97.7685 558.183C98.1767 559.097 98.5874 560.011 99.0007 560.924L99.4562 560.718C99.8692 561.63 100.285 562.541 100.703 563.451L100.249 563.659C100.667 564.57 101.088 565.479 101.511 566.388L101.964 566.176C102.387 567.083 102.812 567.988 103.24 568.892L102.788 569.106C103.216 570.011 103.646 570.915 104.079 571.818L104.53 571.602C104.963 572.504 105.398 573.405 105.835 574.305L105.386 574.524C105.823 575.424 106.264 576.324 106.707 577.222L107.155 577.001C107.598 577.899 108.043 578.795 108.49 579.691L108.043 579.914C108.491 580.81 108.941 581.705 109.393 582.599L109.839 582.373C110.292 583.266 110.746 584.158 111.203 585.048L110.758 585.276C111.216 586.168 111.675 587.057 112.137 587.946L112.581 587.715C113.042 588.603 113.506 589.49 113.973 590.375L113.53 590.608C113.997 591.495 114.466 592.379 114.938 593.263L115.379 593.028C115.51 593.274 115.641 593.519 115.773 593.765C116.113 594.401 116.455 595.037 116.799 595.673L116.359 595.91C116.835 596.792 117.313 597.671 117.794 598.55L118.232 598.31C118.713 599.188 119.195 600.064 119.68 600.94L119.243 601.182C119.728 602.058 120.216 602.933 120.705 603.807L121.142 603.562C121.631 604.435 122.123 605.307 122.617 606.178L122.183 606.425C122.677 607.296 123.174 608.166 123.673 609.035L124.107 608.786C124.605 609.654 125.106 610.52 125.609 611.385L125.177 611.636C125.681 612.502 126.186 613.367 126.694 614.23L127.125 613.976C127.632 614.838 128.142 615.699 128.654 616.559L128.224 616.815C128.736 617.675 129.251 618.534 129.767 619.391L130.195 619.133C130.712 619.99 131.23 620.846 131.751 621.7L131.324 621.96C131.846 622.817 132.37 623.671 132.896 624.525L133.322 624.262C133.847 625.115 134.375 625.966 134.905 626.815L134.481 627.08C135.011 627.93 135.543 628.778 136.078 629.626L136.501 629.359C137.035 630.205 137.571 631.05 138.109 631.893L137.687 632.162C138.226 633.006 138.766 633.849 139.309 634.69L139.729 634.418C140.271 635.259 140.815 636.097 141.361 636.934L140.942 637.207C141.49 638.046 142.04 638.884 142.591 639.72L143.008 639.444C143.561 640.281 144.115 641.116 144.671 641.95L144.255 642.227C144.811 643.061 145.37 643.894 145.93 644.724L146.345 644.445C146.905 645.275 147.467 646.103 148.03 646.93L147.617 647.212C148.182 648.039 148.748 648.865 149.316 649.689L149.728 649.405C150.296 650.228 150.865 651.05 151.437 651.87L151.027 652.156C151.599 652.976 152.172 653.795 152.748 654.612L153.157 654.324C153.734 655.143 154.313 655.96 154.893 656.775L154.486 657.065C155.068 657.883 155.653 658.699 156.239 659.513L156.645 659.221C157.23 660.034 157.818 660.845 158.407 661.655L158.003 661.949C158.593 662.76 159.184 663.568 159.778 664.375L160.181 664.079C160.774 664.885 161.368 665.689 161.965 666.491L161.564 666.789C162.161 667.592 162.76 668.393 163.36 669.192L163.76 668.892C164.36 669.69 164.962 670.487 165.565 671.282L165.167 671.584C165.774 672.383 166.383 673.18 166.993 673.975L167.39 673.671C168.001 674.467 168.614 675.261 169.228 676.053L168.833 676.359C169.449 677.152 170.065 677.943 170.684 678.732L171.077 678.423C171.695 679.211 172.315 679.997 172.936 680.781L172.545 681.092C173.166 681.876 173.79 682.659 174.415 683.44L174.806 683.127C175.43 683.907 176.057 684.685 176.685 685.461L176.296 685.775C176.925 686.552 177.555 687.326 178.187 688.098L178.574 687.782C179.209 688.559 179.847 689.334 180.486 690.107L180.101 690.426C180.741 691.2 181.383 691.972 182.026 692.742L182.41 692.422C183.053 693.191 183.698 693.958 184.344 694.723L183.962 695.046C184.608 695.812 185.257 696.575 185.906 697.337L186.287 697.012C186.936 697.773 187.587 698.531 188.239 699.287L187.861 699.614C188.513 700.371 189.168 701.125 189.824 701.877L190.201 701.549C190.857 702.301 191.514 703.052 192.173 703.8L191.798 704.13C192.464 704.885 193.131 705.638 193.799 706.389L194.173 706.056C194.841 706.806 195.51 707.553 196.181 708.298L195.809 708.633C196.481 709.379 197.154 710.122 197.828 710.863L198.198 710.527C198.872 711.267 199.547 712.005 200.224 712.74L199.856 713.079C200.533 713.815 201.212 714.549 201.892 715.28L202.258 714.94C202.937 715.671 203.618 716.399 204.301 717.125L203.936 717.467C204.623 718.197 205.31 718.924 205.999 719.649L206.361 719.305C207.054 720.034 207.749 720.761 208.444 721.485L208.084 721.831C208.78 722.556 209.478 723.278 210.177 723.997L210.536 723.649C211.234 724.368 211.934 725.084 212.635 725.798L212.278 726.148C212.98 726.863 213.683 727.574 214.388 728.284L214.742 727.931C215.446 728.64 216.151 729.346 216.858 730.049L216.505 730.403C217.212 731.107 217.92 731.808 218.629 732.507L218.98 732.15C219.696 732.855 220.414 733.558 221.133 734.257L220.784 734.616C221.505 735.318 222.228 736.017 222.952 736.714L223.299 736.354C224.022 737.05 224.746 737.743 225.472 738.433L225.128 738.796C225.854 739.487 226.582 740.175 227.31 740.86L227.653 740.496C228.381 741.181 229.11 741.863 229.841 742.542L229.5 742.908C230.232 743.588 230.964 744.264 231.697 744.938L232.036 744.57C232.771 745.246 233.508 745.919 234.245 746.589L233.909 746.959C234.656 747.637 235.404 748.312 236.153 748.984L236.487 748.612C237.235 749.283 237.985 749.951 238.735 750.617L238.404 750.991C239.155 751.657 239.907 752.32 240.661 752.98L240.99 752.603C241.743 753.263 242.496 753.919 243.251 754.572L242.924 754.95C243.68 755.603 244.436 756.254 245.194 756.901L245.519 756.521C245.819 756.778 246.12 757.034 246.421 757.29C246.878 757.679 247.335 758.066 247.793 758.452L247.47 758.834C248.24 759.484 249.011 760.13 249.783 760.773L250.103 760.389C250.876 761.034 251.651 761.675 252.426 762.313L252.109 762.699C252.885 763.338 253.662 763.973 254.441 764.605L254.756 764.217C255.533 764.848 256.312 765.477 257.091 766.101L256.778 766.491C257.559 767.117 258.34 767.739 259.122 768.357L259.432 767.965C260.213 768.583 260.995 769.197 261.778 769.808L261.47 770.202C262.261 770.819 263.052 771.433 263.844 772.043L264.149 771.647C264.948 772.262 265.748 772.874 266.549 773.482L266.247 773.88C267.048 774.489 267.851 775.094 268.654 775.695L268.954 775.295C269.756 775.896 270.559 776.493 271.363 777.086L271.067 777.489C271.871 778.083 272.677 778.673 273.484 779.26L273.778 778.856C274.583 779.442 275.39 780.025 276.197 780.603L275.905 781.01C276.717 781.592 277.53 782.171 278.343 782.745L278.632 782.337C279.457 782.92 280.282 783.499 281.108 784.073L280.822 784.484C281.649 785.059 282.477 785.631 283.306 786.199L283.588 785.786C284.416 786.353 285.244 786.916 286.073 787.476L285.793 787.89C286.623 788.45 287.453 789.006 288.284 789.557L288.561 789.141C289.391 789.692 290.221 790.239 291.053 790.782L290.779 791.201C291.614 791.746 292.449 792.288 293.285 792.825L293.556 792.404C294.406 792.951 295.257 793.493 296.108 794.031L295.841 794.453C296.693 794.992 297.546 795.526 298.4 796.056L298.663 795.632C299.516 796.161 300.369 796.686 301.222 797.207L300.962 797.634C301.816 798.155 302.671 798.672 303.527 799.185L303.784 798.756C304.638 799.268 305.493 799.775 306.348 800.279L306.094 800.71C306.954 801.215 307.814 801.717 308.675 802.214L308.925 801.781C309.8 802.286 310.676 802.787 311.552 803.284L311.306 803.719C312.183 804.216 313.061 804.708 313.94 805.196L314.182 804.759C315.059 805.246 315.937 805.728 316.814 806.206L316.575 806.645C317.454 807.123 318.334 807.597 319.213 808.065L319.448 807.624C320.326 808.092 321.205 808.555 322.084 809.014L321.852 809.457C322.739 809.92 323.626 810.378 324.514 810.831L324.741 810.386C325.641 810.845 326.542 811.3 327.443 811.749L327.219 812.196C328.121 812.646 329.023 813.091 329.926 813.531L330.145 813.082C331.046 813.521 331.947 813.955 332.848 814.384L332.633 814.835C333.536 815.264 334.439 815.689 335.341 816.108L335.552 815.654C336.453 816.073 337.354 816.486 338.256 816.894L338.05 817.349C338.967 817.764 339.884 818.174 340.801 818.578L341.002 818.12C341.926 818.528 342.85 818.929 343.774 819.325L343.577 819.785C344.502 820.181 345.427 820.572 346.353 820.958L346.545 820.496C347.469 820.881 348.392 821.26 349.315 821.634L349.128 822.097C350.053 822.471 350.978 822.84 351.903 823.202L352.085 822.737C353.01 823.1 353.934 823.457 354.858 823.808L354.681 824.275C355.629 824.635 356.576 824.989 357.524 825.337L357.696 824.868C358.642 825.215 359.587 825.557 360.532 825.892L360.365 826.363C361.312 826.699 362.258 827.029 363.204 827.352L363.366 826.879C364.311 827.202 365.255 827.519 366.198 827.829L366.042 828.304C366.987 828.615 367.932 828.92 368.877 829.219L369.028 828.742C369.986 829.045 370.943 829.341 371.9 829.631L371.756 830.11C372.723 830.403 373.69 830.689 374.657 830.969L374.796 830.489C375.761 830.768 376.725 831.041 377.688 831.307L377.555 831.789C378.521 832.055 379.486 832.315 380.45 832.568L380.577 832.084C381.539 832.337 382.501 832.583 383.462 832.822L383.341 833.307C384.313 833.548 385.283 833.783 386.253 834.01L386.367 833.524C387.35 833.754 388.332 833.978 389.314 834.194L389.206 834.683C390.19 834.899 391.173 835.109 392.155 835.311L392.256 834.821C393.236 835.023 394.215 835.218 395.193 835.405L395.099 835.896C396.079 836.084 397.058 836.264 398.037 836.437L398.124 835.945C399.104 836.118 400.083 836.284 401.061 836.442L400.981 836.936C401.98 837.098 402.978 837.252 403.975 837.398L404.048 836.903C405.042 837.049 406.035 837.187 407.027 837.317L406.962 837.812C407.957 837.943 408.95 838.065 409.942 838.18L410 837.683C410.989 837.798 411.978 837.904 412.965 838.002L412.915 838.5C413.908 838.599 414.899 838.69 415.889 838.773L415.93 838.275C416.935 838.359 417.938 838.434 418.94 838.502L418.906 839.001C419.911 839.068 420.914 839.127 421.915 839.178L421.941 838.679C422.94 838.729 423.937 838.771 424.933 838.805L424.916 839.304C425.914 839.338 426.911 839.363 427.907 839.38L427.915 838.88C428.911 838.896 429.905 838.904 430.897 838.903L430.898 839.403C431.906 839.402 432.913 839.393 433.918 839.374L433.909 838.874C434.911 838.856 435.912 838.828 436.91 838.791L436.929 839.291C437.93 839.254 438.93 839.209 439.928 839.154L439.901 838.654C440.896 838.6 441.889 838.536 442.88 838.463L442.916 838.962C443.914 838.888 444.91 838.806 445.904 838.714L445.858 838.216C446.856 838.124 447.852 838.022 448.847 837.911L448.902 838.407C449.9 838.296 450.895 838.175 451.888 838.044L451.823 837.549C452.813 837.418 453.801 837.279 454.786 837.13L454.861 837.624C455.85 837.474 456.836 837.315 457.821 837.146L457.736 836.653C458.226 836.569 458.716 836.482 459.205 836.393C459.703 836.302 460.201 836.21 460.697 836.115L460.79 836.606C461.785 836.416 462.776 836.217 463.762 836.011L463.659 835.521C464.643 835.315 465.622 835.101 466.597 834.879L466.708 835.366C467.685 835.143 468.659 834.912 469.628 834.673L469.508 834.188C470.474 833.949 471.436 833.702 472.393 833.448L472.522 833.931C473.497 833.672 474.468 833.404 475.434 833.128L475.296 832.647C476.264 832.371 477.227 832.087 478.186 831.794L478.332 832.272C479.293 831.978 480.25 831.677 481.203 831.366L481.048 830.891C481.998 830.582 482.943 830.265 483.884 829.939L484.048 830.412C484.993 830.085 485.934 829.75 486.87 829.406L486.698 828.937C487.643 828.591 488.582 828.236 489.518 827.874L489.698 828.34C490.636 827.976 491.57 827.604 492.499 827.224L492.31 826.761C493.236 826.382 494.157 825.995 495.074 825.6L495.272 826.059C496.192 825.663 497.107 825.258 498.018 824.845L497.812 824.39C498.723 823.977 499.63 823.556 500.533 823.127L500.747 823.579C501.655 823.147 502.559 822.707 503.457 822.259L503.234 821.812C504.13 821.365 505.022 820.911 505.908 820.448L506.14 820.891C507.029 820.428 507.914 819.956 508.794 819.476L508.555 819.037C509.433 818.559 510.306 818.073 511.174 817.578L511.421 818.013C512.293 817.517 513.161 817.013 514.024 816.501L513.768 816.071C514.629 815.561 515.484 815.043 516.335 814.517L516.598 814.942C517.452 814.415 518.301 813.88 519.145 813.337L518.875 812.917C519.717 812.375 520.554 811.827 521.386 811.27L521.664 811.686C522.498 811.129 523.327 810.565 524.151 809.992L523.866 809.582C524.686 809.012 525.502 808.436 526.313 807.852L526.605 808.257C527.418 807.672 528.227 807.078 529.031 806.478L528.732 806.077C529.534 805.478 530.331 804.872 531.124 804.259L531.43 804.654C532.225 804.039 533.016 803.416 533.801 802.787L533.489 802.397C534.266 801.773 535.039 801.143 535.808 800.506L536.127 800.891C536.897 800.253 537.663 799.607 538.424 798.955L538.098 798.575C538.858 797.924 539.612 797.266 540.362 796.602L540.694 796.976C541.446 796.31 542.194 795.636 542.937 794.956L542.599 794.587C543.337 793.911 544.071 793.229 544.801 792.54L545.144 792.903C545.869 792.218 546.59 791.526 547.306 790.828L546.957 790.47C547.671 789.773 548.382 789.07 549.087 788.36L549.442 788.713C550.149 788.001 550.853 787.283 551.551 786.559L551.192 786.212C551.889 785.489 552.581 784.76 553.27 784.025L553.635 784.366C554.318 783.637 554.996 782.901 555.671 782.158L555.301 781.822C555.97 781.086 556.635 780.343 557.296 779.595L557.671 779.926C558.333 779.175 558.991 778.419 559.645 777.656L559.265 777.331C559.918 776.57 560.566 775.803 561.21 775.03L561.594 775.35C562.239 774.576 562.88 773.795 563.517 773.009L563.129 772.694C563.754 771.923 564.375 771.145 564.992 770.362L565.384 770.672C566.002 769.888 566.615 769.099 567.224 768.304L566.827 768C567.435 767.207 568.039 766.408 568.639 765.603L569.04 765.902C569.641 765.096 570.238 764.285 570.831 763.468L570.426 763.174C571.017 762.36 571.603 761.541 572.186 760.717L572.594 761.005C573.167 760.193 573.737 759.377 574.302 758.554L573.89 758.271C574.455 757.451 575.015 756.625 575.572 755.794L575.987 756.073C576.545 755.24 577.099 754.403 577.649 753.56L577.23 753.287C577.779 752.446 578.324 751.6 578.865 750.749L579.287 751.017C579.827 750.168 580.363 749.314 580.895 748.454L580.47 748.191C580.992 747.348 581.511 746.5 582.026 745.648L582.454 745.906C582.97 745.052 583.482 744.193 583.99 743.329L583.559 743.076C584.067 742.214 584.57 741.347 585.07 740.476L585.504 740.725C586.005 739.852 586.502 738.974 586.995 738.092L586.559 737.848C587.05 736.971 587.537 736.089 588.02 735.203L588.459 735.442C588.935 734.57 589.407 733.694 589.875 732.813L589.434 732.578C589.901 731.699 590.365 730.816 590.826 729.928L591.27 730.158C591.731 729.269 592.189 728.376 592.643 727.478L592.197 727.252C592.65 726.356 593.1 725.455 593.547 724.551L593.995 724.772C594.442 723.867 594.885 722.957 595.324 722.044L594.874 721.827C595.304 720.934 595.73 720.037 596.153 719.136L596.606 719.349C597.029 718.446 597.449 717.54 597.866 716.63L597.412 716.422C597.828 715.513 598.241 714.601 598.65 713.684L599.106 713.888C599.517 712.97 599.923 712.049 600.326 711.123L599.868 710.924C600.271 710 600.67 709.072 601.066 708.14L601.526 708.336C601.916 707.419 602.302 706.499 602.685 705.575L602.223 705.383C602.604 704.465 602.981 703.543 603.356 702.617L603.819 702.804C604.194 701.877 604.566 700.947 604.934 700.013L604.469 699.83C604.837 698.897 605.201 697.961 605.563 697.021L606.029 697.201C606.391 696.26 606.75 695.316 607.105 694.368L606.637 694.193C606.989 693.255 607.337 692.314 607.682 691.37L608.152 691.542C608.494 690.608 608.832 689.671 609.167 688.73L608.696 688.562C609.031 687.623 609.363 686.681 609.692 685.736L610.164 685.9C610.493 684.953 610.819 684.003 611.142 683.05L610.669 682.89C610.991 681.938 611.311 680.983 611.627 680.025L612.102 680.182C612.419 679.223 612.732 678.261 613.043 677.296L612.567 677.143C612.871 676.198 613.172 675.25 613.47 674.299L613.947 674.449C614.245 673.498 614.54 672.544 614.833 671.587L614.355 671.441C614.646 670.486 614.935 669.527 615.221 668.566L615.701 668.709C615.987 667.746 616.27 666.781 616.551 665.813L616.07 665.674C616.351 664.707 616.628 663.738 616.902 662.765L617.383 662.901C617.656 661.935 617.925 660.966 618.192 659.994L617.71 659.862C617.972 658.904 618.233 657.943 618.49 656.98L618.973 657.109C619.23 656.144 619.485 655.177 619.737 654.207L619.253 654.082C619.505 653.113 619.753 652.142 619.999 651.169L620.484 651.291C620.73 650.316 620.974 649.339 621.214 648.36L620.729 648.24C620.969 647.262 621.206 646.281 621.441 645.298L621.927 645.414C622.159 644.442 622.388 643.467 622.614 642.49L622.127 642.377C622.352 641.408 622.574 640.436 622.793 639.462L623.281 639.572C623.5 638.597 623.717 637.62 623.931 636.64L623.442 636.534C623.656 635.555 623.867 634.574 624.075 633.591L624.565 633.695C624.773 632.711 624.979 631.725 625.182 630.736L624.692 630.635C624.895 629.648 625.095 628.658 625.292 627.666L625.783 627.764C625.977 626.786 626.169 625.807 626.359 624.825L625.868 624.73C626.056 623.752 626.242 622.772 626.425 621.79L626.917 621.882C627.1 620.899 627.281 619.914 627.46 618.926L626.968 618.838C627.146 617.851 627.321 616.863 627.494 615.873L627.987 615.959C628.16 614.968 628.33 613.975 628.498 612.98L628.005 612.897C628.172 611.903 628.337 610.907 628.5 609.909L628.993 609.989C629.153 609.006 629.311 608.021 629.465 607.034L628.971 606.956C629.126 605.972 629.278 604.985 629.427 603.997L629.922 604.072C630.071 603.083 630.219 602.092 630.363 601.099L629.868 601.027C630.013 600.035 630.155 599.041 630.294 598.046L630.789 598.115C630.929 597.119 631.066 596.121 631.2 595.122L630.705 595.055C630.839 594.056 630.971 593.056 631.1 592.053L631.596 592.117C631.724 591.129 631.849 590.138 631.971 589.146L631.475 589.085C631.597 588.095 631.717 587.104 631.835 586.112L632.331 586.17C632.449 585.177 632.564 584.182 632.677 583.185L632.18 583.129C632.292 582.133 632.403 581.136 632.51 580.137L633.007 580.19C633.115 579.191 633.22 578.189 633.323 577.187L632.826 577.135C632.929 576.134 633.029 575.13 633.127 574.125L633.625 574.174C633.722 573.179 633.816 572.184 633.908 571.186L633.41 571.14C633.502 570.147 633.592 569.153 633.679 568.157L634.177 568.201C634.264 567.204 634.348 566.207 634.431 565.207L633.932 565.166C634.015 564.168 634.095 563.168 634.172 562.167L634.671 562.205C634.748 561.203 634.824 560.2 634.897 559.196L634.398 559.159C634.471 558.156 634.541 557.15 634.609 556.144L635.108 556.178C635.176 555.178 635.241 554.177 635.304 553.175L634.805 553.144C634.868 552.149 634.928 551.152 634.986 550.155L635.485 550.184C635.543 549.185 635.599 548.186 635.652 547.185L635.153 547.158C635.206 546.158 635.257 545.157 635.306 544.155L635.806 544.179C635.854 543.176 635.901 542.172 635.945 541.166L635.446 541.144C635.49 540.14 635.532 539.134 635.571 538.127L636.071 538.147C636.111 537.142 636.148 536.137 636.183 535.13L635.683 535.113C635.718 534.116 635.75 533.119 635.78 532.12L636.28 532.135C636.31 531.136 636.338 530.136 636.364 529.135L635.864 529.122C635.89 528.121 635.913 527.12 635.935 526.117L636.434 526.128C636.456 525.124 636.475 524.12 636.491 523.115L635.992 523.106C636.008 522.102 636.023 521.096 636.035 520.09L636.535 520.096C636.547 519.089 636.558 518.081 636.565 517.072L636.065 517.068C636.073 516.069 636.079 515.07 636.082 514.07L636.582 514.071C636.586 513.072 636.587 512.072 636.586 511.071L636.086 511.071C636.085 510.071 636.082 509.069 636.076 508.067L636.576 508.065C636.571 507.062 636.564 506.058 636.554 505.054L636.054 505.059C636.044 504.055 636.033 503.05 636.019 502.045L636.519 502.038C636.505 501.032 636.488 500.025 636.47 499.017L635.97 499.027C635.952 498.024 635.931 497.02 635.909 496.016L636.409 496.005C636.386 495.006 636.362 494.006 636.335 493.006L635.835 493.019C635.808 492.02 635.78 491.02 635.749 490.019L636.248 490.003C636.217 489.001 636.184 487.999 636.149 486.996L635.649 487.014C635.614 486.011 635.577 485.008 635.537 484.005L636.037 483.985C635.998 482.981 635.956 481.976 635.912 480.97L635.413 480.992C635.369 479.987 635.323 478.981 635.275 477.975L635.775 477.951C635.727 476.952 635.677 475.953 635.626 474.953L635.126 474.979C635.075 473.981 635.021 472.982 634.965 471.982L635.464 471.955C635.408 470.955 635.35 469.954 635.29 468.953L634.791 468.983C634.731 467.982 634.669 466.982 634.605 465.98L635.104 465.948C635.04 464.946 634.973 463.943 634.905 462.94L634.406 462.974C634.338 461.972 634.267 460.969 634.195 459.965L634.693 459.929C634.621 458.927 634.547 457.925 634.47 456.923L633.971 456.961C633.895 455.964 633.817 454.967 633.737 453.97L634.236 453.93C634.155 452.932 634.073 451.934 633.989 450.935L633.491 450.977C633.406 449.979 633.32 448.981 633.232 447.982L633.73 447.938C633.641 446.938 633.551 445.938 633.459 444.938L632.961 444.984C632.868 443.985 632.774 442.985 632.677 441.984L633.175 441.936C633.078 440.935 632.98 439.934 632.879 438.932L632.382 438.982C632.281 437.986 632.179 436.989 632.075 435.992L632.572 435.94C632.468 434.945 632.362 433.949 632.254 432.953L631.757 433.007C631.649 432.012 631.539 431.016 631.427 430.02L631.924 429.964C631.812 428.968 631.698 427.971 631.582 426.974L631.085 427.032C630.969 426.035 630.851 425.039 630.731 424.042L631.228 423.982C631.108 422.985 630.985 421.987 630.861 420.989L630.365 421.051C630.241 420.054 630.115 419.056 629.987 418.059L630.483 417.995C630.355 417.002 630.226 416.01 630.095 415.016L629.599 415.082C629.468 414.09 629.334 413.098 629.199 412.105L629.694 412.037C629.559 411.044 629.422 410.051 629.282 409.058L628.787 409.127C628.648 408.134 628.507 407.141 628.363 406.148L628.858 406.077C628.715 405.083 628.57 404.09 628.422 403.096L627.928 403.169C627.781 402.176 627.631 401.183 627.48 400.189L627.975 400.114C627.823 399.121 627.67 398.129 627.515 397.136L627.021 397.213C626.867 396.224 626.711 395.235 626.552 394.246L627.046 394.167C626.888 393.178 626.727 392.188 626.565 391.199L626.071 391.28C625.909 390.291 625.745 389.302 625.579 388.313L626.072 388.23C625.906 387.241 625.737 386.252 625.567 385.262L625.074 385.347C624.904 384.358 624.732 383.369 624.558 382.381L625.051 382.294C624.876 381.305 624.7 380.315 624.522 379.326L624.03 379.415C623.941 378.921 623.852 378.426 623.762 377.932C623.671 377.435 623.58 376.938 623.488 376.441L623.979 376.35C623.794 375.355 623.606 374.363 623.414 373.372L622.923 373.467C622.732 372.477 622.537 371.489 622.338 370.503L622.828 370.404C622.629 369.417 622.427 368.431 622.221 367.448L621.732 367.55C621.526 366.567 621.318 365.587 621.105 364.608L621.594 364.502C621.381 363.522 621.165 362.543 620.946 361.566L620.458 361.676C620.239 360.701 620.016 359.727 619.79 358.755L620.277 358.642C620.048 357.659 619.816 356.677 619.581 355.698L619.094 355.814C618.858 354.833 618.619 353.854 618.376 352.877L618.861 352.756C618.618 351.778 618.372 350.801 618.122 349.826L617.637 349.95C617.388 348.977 617.135 348.005 616.878 347.035L617.362 346.907C617.105 345.936 616.845 344.967 616.581 344L616.099 344.131C615.835 343.165 615.569 342.201 615.299 341.239L615.78 341.104C615.509 340.138 615.235 339.175 614.958 338.213L614.477 338.351C614.197 337.381 613.914 336.413 613.627 335.447L614.106 335.304C613.819 334.337 613.528 333.371 613.235 332.408L612.756 332.554C612.463 331.592 612.166 330.631 611.866 329.673L612.343 329.523C612.042 328.564 611.738 327.606 611.431 326.651L610.955 326.804C610.648 325.849 610.338 324.897 610.024 323.947L610.499 323.79C610.185 322.838 609.868 321.889 609.548 320.941L609.074 321.102C608.752 320.148 608.426 319.197 608.097 318.248L608.57 318.084C608.239 317.13 607.905 316.178 607.568 315.228L607.097 315.395C606.76 314.447 606.419 313.5 606.076 312.555L606.546 312.384C606.202 311.439 605.855 310.495 605.505 309.553L605.036 309.728C604.686 308.787 604.333 307.849 603.976 306.913L604.444 306.735C604.087 305.797 603.727 304.862 603.364 303.929L602.898 304.11C602.534 303.176 602.167 302.245 601.798 301.315L602.262 301.13C601.889 300.192 601.512 299.255 601.132 298.321L600.669 298.509C600.289 297.576 599.907 296.645 599.521 295.717L599.982 295.525C599.596 294.595 599.207 293.667 598.814 292.741L598.354 292.937C597.961 292.012 597.566 291.09 597.167 290.17L597.626 289.971C597.227 289.05 596.825 288.131 596.42 287.215L595.962 287.417C595.558 286.501 595.15 285.588 594.739 284.677L595.195 284.471C594.78 283.552 594.362 282.635 593.941 281.72L593.487 281.929C593.066 281.014 592.641 280.101 592.214 279.19L592.667 278.977C592.239 278.065 591.808 277.156 591.373 276.248L590.922 276.464C590.489 275.558 590.052 274.654 589.612 273.752L590.062 273.533C589.621 272.63 589.178 271.729 588.732 270.831L588.284 271.054C587.838 270.157 587.389 269.262 586.938 268.369L587.384 268.143C586.929 267.246 586.472 266.351 586.012 265.459L585.567 265.688C585.105 264.792 584.64 263.899 584.172 263.007L584.615 262.775C584.147 261.883 583.675 260.993 583.2 260.105L582.76 260.341C582.286 259.455 581.809 258.571 581.329 257.689L581.768 257.45C581.287 256.568 580.804 255.687 580.318 254.81L579.88 255.052C579.394 254.175 578.906 253.301 578.414 252.429L578.85 252.183C578.357 251.309 577.861 250.437 577.362 249.568L576.929 249.817C576.427 248.942 575.922 248.07 575.415 247.2L575.847 246.948C575.339 246.078 574.828 245.21 574.314 244.344L573.884 244.599C573.371 243.735 572.855 242.872 572.336 242.013L572.764 241.754C572.244 240.894 571.722 240.036 571.197 239.18L570.771 239.442C570.246 238.587 569.719 237.735 569.189 236.885L569.613 236.621C569.082 235.77 568.548 234.922 568.012 234.077L567.59 234.344C567.05 233.493 566.507 232.645 565.962 231.799L566.382 231.528C565.836 230.68 565.287 229.836 564.735 228.993L564.316 229.267C563.765 228.426 563.211 227.588 562.655 226.752L563.071 226.475C562.513 225.638 561.953 224.803 561.39 223.972L560.976 224.252C560.414 223.421 559.849 222.593 559.282 221.768L559.694 221.484C559.126 220.658 558.555 219.834 557.982 219.013L557.572 219.299C556.995 218.474 556.416 217.651 555.835 216.831L556.242 216.542C555.659 215.719 555.073 214.899 554.484 214.082L554.078 214.374C553.49 213.558 552.9 212.745 552.307 211.934L552.71 211.639C552.116 210.827 551.52 210.018 550.92 209.212L550.519 209.51C549.921 208.705 549.32 207.903 548.716 207.103L549.115 206.802C548.511 206.001 547.904 205.203 547.295 204.408L546.898 204.712C546.287 203.913 545.672 203.118 545.056 202.325L545.45 202.018C544.831 201.222 544.209 200.428 543.585 199.638L543.193 199.948C542.569 199.158 541.943 198.372 541.315 197.588L541.705 197.275C541.075 196.49 540.444 195.708 539.81 194.929L539.422 195.245C538.788 194.466 538.153 193.691 537.515 192.918L537.9 192.6C537.261 191.827 536.62 191.056 535.976 190.288L535.593 190.609C534.947 189.839 534.298 189.072 533.648 188.307L534.028 187.983C533.375 187.215 532.718 186.449 532.06 185.687L531.682 186.014C531.024 185.253 530.364 184.494 529.702 183.739L530.077 183.409C529.414 182.653 528.749 181.899 528.081 181.148L527.707 181.481C527.04 180.731 526.371 179.985 525.7 179.241L526.071 178.906C525.398 178.161 524.724 177.419 524.047 176.681L523.678 177.018C522.999 176.277 522.318 175.539 521.634 174.804L522 174.463C521.313 173.725 520.624 172.989 519.933 172.256L519.569 172.6C518.878 171.868 518.186 171.139 517.491 170.413L517.852 170.068C517.156 169.341 516.458 168.617 515.758 167.897L515.399 168.245C514.7 167.526 513.998 166.809 513.295 166.096L513.651 165.745C512.946 165.031 512.24 164.319 511.531 163.611L511.178 163.965C510.466 163.254 509.753 162.547 509.038 161.842L509.388 161.486C508.67 160.778 507.949 160.073 507.226 159.372L506.877 159.731C506.155 159.03 505.431 158.333 504.705 157.638L505.05 157.277C504.323 156.582 503.594 155.89 502.863 155.201L502.52 155.565C501.79 154.877 501.058 154.192 500.323 153.51L500.663 153.144C499.928 152.462 499.191 151.782 498.452 151.106L498.115 151.475C497.372 150.796 496.628 150.121 495.882 149.448L496.216 149.077C495.467 148.401 494.716 147.729 493.962 147.06L493.63 147.434C492.878 146.766 492.124 146.101 491.367 145.44L491.697 145.064C490.94 144.401 490.181 143.743 489.42 143.087L489.093 143.466C488.333 142.811 487.572 142.16 486.808 141.511L487.132 141.13C486.367 140.481 485.601 139.836 484.833 139.193L484.512 139.577C483.74 138.931 482.965 138.288 482.189 137.649L482.507 137.263C481.728 136.622 480.948 135.984 480.165 135.349L479.85 135.737C479.069 135.104 478.286 134.473 477.501 133.847L477.813 133.456C477.028 132.828 476.24 132.204 475.451 131.583L475.142 131.976C474.354 131.356 473.564 130.74 472.773 130.127L473.079 129.731C472.286 129.118 471.492 128.507 470.696 127.9L470.393 128.298C469.591 127.686 468.787 127.078 467.982 126.473L468.282 126.074C467.476 125.468 466.667 124.866 465.858 124.267L465.56 124.669C464.752 124.072 463.941 123.478 463.129 122.887L463.423 122.483C462.61 121.891 461.796 121.303 460.98 120.719L460.689 121.126C459.874 120.542 459.057 119.963 458.239 119.386L458.527 118.978C457.707 118.399 456.885 117.825 456.061 117.254L455.776 117.665C454.947 117.09 454.116 116.519 453.284 115.952L453.566 115.539C452.733 114.971 451.898 114.406 451.062 113.846L450.784 114.261C449.949 113.701 449.112 113.145 448.275 112.592L448.55 112.175C447.711 111.622 446.871 111.072 446.029 110.527L445.757 110.946C444.917 110.401 444.075 109.86 443.232 109.322L443.501 108.901C442.652 108.36 441.802 107.822 440.951 107.289L440.686 107.713C439.831 107.177 438.975 106.645 438.118 106.117L438.38 105.692C437.522 105.163 436.662 104.638 435.802 104.118L435.543 104.545C434.683 104.025 433.822 103.509 432.96 102.996L433.216 102.567C432.353 102.054 431.488 101.544 430.623 101.039L430.371 101.471C429.506 100.966 428.641 100.466 427.774 99.9688L428.023 99.535C427.147 99.0329 426.27 98.5348 425.392 98.0407L425.147 98.4765C424.268 97.9822 423.388 97.4919 422.508 97.0056L422.749 96.5679C421.868 96.0809 420.985 95.598 420.101 95.1192L419.862 95.5588C418.98 95.0806 418.096 94.6064 417.211 94.1363L417.446 93.6948C416.56 93.224 415.673 92.7574 414.785 92.2948L414.554 92.7382C413.664 92.2749 412.774 91.8156 411.883 91.3605L412.11 90.9152C411.21 90.4555 410.309 89.9999 409.407 89.5486L409.183 89.9957C408.282 89.545 407.381 89.0984 406.478 88.6561L406.698 88.2071C405.794 87.7642 404.889 87.3255 403.984 86.891L403.768 87.3418C402.863 86.9079 401.958 86.4782 401.052 86.0528L401.265 85.6002C400.358 85.1742 399.45 84.7524 398.541 84.3349L398.333 84.7893C397.417 84.3686 396.501 83.9523 395.584 83.5403L395.789 83.0842C394.867 82.6703 393.945 82.2608 393.023 81.8556L392.822 82.3134C391.9 81.9089 390.978 81.5087 390.056 81.1129L390.253 80.6534C389.329 80.2571 388.404 79.8651 387.479 79.4776L387.286 79.9388C386.362 79.5519 385.437 79.1693 384.512 78.7912L384.701 78.3284C383.772 77.9484 382.841 77.5729 381.911 77.2019L381.725 77.6663C380.787 77.2925 379.849 76.9231 378.91 76.5584L379.091 76.0923C378.151 75.727 377.21 75.3663 376.268 75.0102L376.092 75.4778C375.152 75.1223 374.211 74.7713 373.27 74.4249L373.443 73.9557C372.501 73.6088 371.558 73.2665 370.615 72.9289L370.447 73.3996C369.505 73.0625 368.563 72.7299 367.621 72.4021L367.785 71.9298C366.831 71.5976 365.876 71.2701 364.92 70.9474L364.76 71.4211C363.805 71.0985 362.849 70.7806 361.893 70.4675L362.049 69.9923C361.092 69.6787 360.134 69.37 359.176 69.066L359.025 69.5426C358.069 69.2391 357.112 68.9404 356.156 68.6465L356.302 68.1686C355.344 67.8743 354.386 67.5848 353.428 67.3002L353.285 67.7795C352.321 67.4931 351.356 67.2116 350.392 66.9351L350.53 66.4545C349.558 66.1759 348.586 65.9023 347.615 65.6338L347.481 66.1157C346.511 65.8476 345.541 65.5845 344.571 65.3264L344.699 64.8432C343.727 64.5847 342.756 64.3313 341.784 64.0829L341.66 64.5673C340.69 64.3193 339.72 64.0763 338.75 63.8384L338.869 63.3528C337.893 63.1134 336.917 62.8792 335.942 62.65L335.827 63.1368C334.844 62.9059 333.861 62.6803 332.879 62.4599L332.988 61.972C332.004 61.7512 331.02 61.5357 330.036 61.3254L329.931 61.8144C328.949 61.6044 327.967 61.3998 326.985 61.2004L327.085 60.7104C326.101 60.5106 325.118 60.3162 324.136 60.127L324.041 60.618C323.058 60.4287 322.075 60.2448 321.093 60.0662L321.182 59.5743C320.186 59.3932 319.191 59.2177 318.196 59.0476L318.112 59.5405C317.119 59.3707 316.127 59.2064 315.134 59.0476L315.213 58.5539C314.22 58.3948 313.226 58.2412 312.233 58.0931L312.16 58.5876C311.169 58.4398 310.178 58.2975 309.188 58.1607L309.257 57.6654C308.264 57.5283 307.272 57.3967 306.281 57.2706L306.218 57.7666C305.216 57.6392 304.214 57.5174 303.214 57.4014L303.271 56.9047C302.269 56.7885 301.267 56.678 300.265 56.5732L300.213 57.0705C299.214 56.9659 298.215 56.8671 297.218 56.774L297.264 56.2761C296.264 56.1829 295.266 56.0954 294.268 56.0136L294.227 56.512C293.23 56.4304 292.235 56.3546 291.24 56.2845L291.275 55.7858C290.266 55.7147 289.257 55.6496 288.25 55.5904L288.22 56.0896C287.215 56.0305 286.21 55.9775 285.207 55.9304L285.23 55.4309C284.225 55.3838 283.22 55.3426 282.217 55.3074L282.199 55.8071C281.198 55.772 280.197 55.7429 279.198 55.7199L279.21 55.22C278.208 55.1969 277.207 55.1798 276.208 55.1688L276.202 55.6687C275.193 55.6576 274.185 55.6527 273.178 55.6539L273.177 55.1539C272.168 55.1552 271.16 55.1627 270.154 55.1765L270.161 55.6765C269.157 55.6902 268.154 55.7102 267.152 55.7364L267.139 55.2366C266.135 55.2629 265.133 55.2954 264.132 55.3343L264.152 55.8339C263.151 55.8727 262.153 55.9179 261.155 55.9693L261.129 55.47C260.12 55.5221 259.112 55.5806 258.106 55.6456L258.138 56.1446C257.134 56.2095 256.131 56.2808 255.131 56.3587L255.092 55.8602C254.089 55.9382 253.087 56.0227 252.088 56.1137L252.133 56.6117C251.136 56.7025 250.14 56.7998 249.146 56.9037L249.094 56.4064C248.095 56.5108 247.097 56.6218 246.101 56.7395L246.16 57.236C245.16 57.3542 244.161 57.4791 243.164 57.6107L243.099 57.115C242.1 57.2468 241.103 57.3855 240.108 57.5308L240.18 58.0256C239.187 58.1706 238.196 58.3223 237.208 58.4808L237.129 57.9871C236.137 58.146 235.148 58.3117 234.162 58.4841L234.248 58.9766C233.755 59.0626 233.264 59.1503 232.773 59.2397C232.277 59.3298 231.783 59.4213 231.29 59.514L231.197 59.0226C230.209 59.2084 229.224 59.3994 228.244 59.5956L228.342 60.0859C227.364 60.2817 226.389 60.4826 225.419 60.6887L225.315 60.1996C224.343 60.4061 223.375 60.6178 222.41 60.8345L222.52 61.3224C221.558 61.5387 220.6 61.7602 219.646 61.9868L219.53 61.5003C218.555 61.7319 217.584 61.9688 216.618 62.211L216.739 62.696C215.768 62.9393 214.801 63.1881 213.838 63.4422L213.71 62.9588C212.746 63.2134 211.785 63.4734 210.829 63.7388L210.963 64.2206C210.008 64.4853 209.058 64.7555 208.113 65.0309L207.973 64.5509C207.023 64.8276 206.077 65.1097 205.136 65.3971L205.282 65.8753C204.322 66.1684 203.367 66.467 202.416 66.7712L202.264 66.2949C201.311 66.5998 200.362 66.9102 199.418 67.2261L199.577 67.7003C198.635 68.0155 197.698 68.3363 196.765 68.6626L196.6 68.1906C195.665 68.5176 194.734 68.8502 193.808 69.1882L193.98 69.6579C193.044 69.9993 192.114 70.3463 191.188 70.699L191.01 70.2317C190.073 70.5883 189.142 70.9507 188.215 71.3188L188.399 71.7835C187.474 72.1507 186.554 72.5236 185.638 72.9021L185.447 72.4401C184.529 72.8195 183.616 73.2047 182.708 73.5955L182.906 74.0548C181.997 74.4456 181.093 74.8422 180.194 75.2444L179.99 74.788C179.075 75.1974 178.165 75.6127 177.259 76.0338L177.47 76.4871C176.567 76.9072 175.669 77.3331 174.775 77.7648L174.558 77.3145C173.662 77.7473 172.771 78.1859 171.885 78.6302L172.109 79.0771C171.225 79.5204 170.346 79.9694 169.472 80.4242L169.242 79.9806C168.355 80.4417 167.474 80.9087 166.598 81.3816L166.835 81.8217C165.959 82.2948 165.087 82.7738 164.22 83.2587L163.976 82.8224C163.107 83.3085 162.243 83.8006 161.384 84.2985L161.635 84.7311C160.778 85.2277 159.926 85.7303 159.08 86.2386L158.822 85.8099C157.969 86.3223 157.121 86.8406 156.277 87.3648L156.541 87.7894C155.696 88.315 154.855 88.8466 154.02 89.3841L153.749 88.9636C152.912 89.5025 152.079 90.0473 151.252 90.598L151.529 91.0143C150.704 91.5636 149.883 92.1188 149.068 92.6798L148.785 92.268C147.966 92.8315 147.153 93.4009 146.345 93.9763L146.635 94.3836C145.825 94.9603 145.02 95.543 144.22 96.1316L143.923 95.7288C143.121 96.319 142.325 96.915 141.533 97.517L141.836 97.915C141.046 98.5154 140.262 99.1217 139.483 99.7338L139.174 99.3406C138.392 99.9545 137.616 100.574 136.845 101.2L137.16 101.588C136.389 102.214 135.624 102.845 134.863 103.483L134.542 103.099C133.779 103.738 133.022 104.383 132.27 105.034L132.597 105.412C131.847 106.062 131.102 106.716 130.362 107.377L130.029 107.004C129.287 107.667 128.55 108.335 127.819 109.009L128.158 109.377C127.429 110.049 126.706 110.726 125.987 111.41L125.643 111.048C124.922 111.733 124.208 112.423 123.498 113.12L123.848 113.477C123.14 114.172 122.437 114.872 121.74 115.578L121.384 115.227C120.685 115.935 119.991 116.649 119.302 117.369L119.663 117.714C118.978 118.43 118.298 119.151 117.623 119.878L117.257 119.538C116.582 120.265 115.911 120.999 115.246 121.737L115.618 122.072C114.955 122.809 114.297 123.551 113.644 124.299L113.267 123.97C112.612 124.72 111.963 125.476 111.319 126.237L111.7 126.56C111.06 127.316 110.424 128.079 109.794 128.847L109.407 128.529C108.779 129.295 108.155 130.066 107.536 130.843L107.927 131.155C107.31 131.929 106.698 132.71 106.091 133.495L105.696 133.19C105.087 133.977 104.484 134.77 103.885 135.569L104.286 135.869C103.69 136.664 103.099 137.465 102.513 138.271L102.108 137.977C101.527 138.777 100.95 139.582 100.379 140.392L100.788 140.68C100.218 141.489 99.6523 142.303 99.0922 143.122L98.6795 142.839C98.118 143.66 97.5614 144.486 97.0099 145.317L97.4265 145.594C96.8762 146.423 96.3309 147.258 95.7906 148.097L95.3701 147.827C94.8347 148.659 94.3042 149.496 93.7785 150.338L94.2027 150.602C93.6796 151.44 93.1615 152.283 92.6481 153.131L92.2204 152.872C91.7059 153.721 91.1962 154.576 90.6913 155.436L91.1225 155.689C90.6188 156.547 90.1199 157.409 89.6258 158.277L89.1913 158.029C88.6998 158.893 88.213 159.761 87.731 160.634L88.1687 160.875C87.6923 161.738 87.2206 162.605 86.7535 163.478L86.3127 163.242C85.8447 164.116 85.3813 164.994 84.9226 165.878L85.3664 166.108C84.9087 166.99 84.4556 167.876 84.0073 168.767L83.5606 168.543C83.1113 169.436 82.6667 170.333 82.2267 171.236L82.6761 171.455C82.2453 172.338 81.8189 173.227 81.397 174.119L80.945 173.906C80.5224 174.8 80.1043 175.699 79.6907 176.602L80.1453 176.81C79.7325 177.712 79.3242 178.618 78.9205 179.528L78.4634 179.325C78.0589 180.237 77.6588 181.154 77.2633 182.075L77.7227 182.272C77.3316 183.183 76.9449 184.098 76.5627 185.017L76.101 184.825C75.7224 185.736 75.3482 186.651 74.9782 187.57L75.442 187.756C75.0728 188.674 74.7079 189.595 74.3473 190.521L73.8814 190.339C73.5201 191.267 73.1632 192.198 72.8106 193.134L73.2785 193.31C72.9265 194.244 72.5789 195.183 72.2356 196.125L71.7658 195.954C71.4281 196.881 71.0946 197.812 70.7652 198.747L71.2369 198.913C70.9094 199.842 70.5862 200.776 70.267 201.713L69.7937 201.552C69.474 202.491 69.1585 203.434 68.847 204.381L69.322 204.537C69.0111 205.483 68.7043 206.432 68.4017 207.385L67.9252 207.234C67.6227 208.187 67.3243 209.144 67.03 210.104L67.508 210.251C67.2205 211.189 66.937 212.132 66.6574 213.078L66.1779 212.936C65.8978 213.884 65.6217 214.835 65.3496 215.79L65.8305 215.927C65.5588 216.88 65.291 217.837 65.0272 218.798L64.545 218.666C64.2808 219.628 64.0205 220.594 63.7642 221.564L64.2476 221.691C63.9931 222.654 63.7425 223.62 63.4959 224.59L63.0113 224.467C62.7689 225.42 62.5303 226.377 62.2954 227.337L62.781 227.456C62.5465 228.414 62.3157 229.376 62.0887 230.342L61.602 230.228C61.3746 231.195 61.151 232.165 60.9312 233.139L61.419 233.249C61.1995 234.222 60.9837 235.198 60.7718 236.177L60.2831 236.071C60.0722 237.045 59.865 238.023 59.6616 239.004L60.1511 239.106C59.9518 240.067 59.7559 241.032 59.5637 242L59.0733 241.902C58.8807 242.872 58.6918 243.844 58.5064 244.82L58.9977 244.914C58.8126 245.888 58.6311 246.866 58.4531 247.846L57.9612 247.757C57.783 248.739 57.6084 249.725 57.4374 250.713L57.93 250.799C57.76 251.782 57.5935 252.768 57.4305 253.757L56.9372 253.676C56.7775 254.646 56.6212 255.618 56.4682 256.594L56.9623 256.671C56.8095 257.646 56.6602 258.623 56.5144 259.603L56.0198 259.53C55.8737 260.512 55.731 261.496 55.5918 262.484L56.0869 262.554C55.9478 263.54 55.8121 264.529 55.6798 265.522L55.1842 265.456C55.0517 266.449 54.9227 267.446 54.7971 268.445L55.2931 268.507C55.1706 269.482 55.0514 270.459 54.9354 271.439L54.4389 271.38C54.323 272.359 54.2103 273.341 54.1008 274.326L54.5977 274.382C54.4884 275.365 54.3823 276.352 54.2794 277.341L53.7821 277.29C53.6791 278.28 53.5794 279.273 53.4828 280.27L53.9805 280.318C53.8841 281.313 53.791 282.31 53.701 283.311L53.203 283.266C53.1143 284.253 53.0287 285.243 52.9463 286.235L53.4445 286.276C53.3631 287.256 53.2848 288.239 53.2095 289.224L52.7109 289.186C52.6355 290.172 52.5633 291.16 52.4941 292.152L52.9929 292.187C52.9237 293.177 52.8576 294.17 52.7946 295.165L52.2956 295.134C52.2326 296.13 52.1726 297.129 52.1156 298.131L52.6148 298.159C52.558 299.158 52.5043 300.16 52.4536 301.164L51.9543 301.139C51.9048 302.12 51.8582 303.103 51.8146 304.088L52.3141 304.111C52.2705 305.095 52.2298 306.082 52.192 307.072L51.6924 307.052C51.6546 308.043 51.6197 309.036 51.5877 310.031L52.0875 310.047C52.0555 311.041 52.0265 312.038 52.0003 313.037L51.5006 313.024C51.4744 314.024 51.4512 315.026 51.4309 316.031L51.9308 316.041C51.9107 317.034 51.8935 318.03 51.8791 319.028L51.3792 319.021C51.3651 320.004 51.3537 320.99 51.3451 321.978L51.845 321.982C51.8364 322.969 51.8306 323.958 51.8275 324.95L51.3275 324.948C51.3244 325.941 51.3241 326.935 51.3266 327.932L51.8266 327.931C51.8291 328.927 51.8344 329.925 51.8423 330.926L51.3424 330.93C51.3504 331.931 51.3612 332.934 51.3748 333.94L51.8747 333.933C51.8881 334.923 51.9041 335.915 51.9228 336.908L51.4229 336.918C51.4414 337.902 51.4626 338.889 51.4864 339.877L51.9863 339.865C52.0101 340.852 52.0365 341.842 52.0655 342.834L51.5657 342.848C51.5948 343.841 51.6265 344.836 51.6609 345.832L52.1605 345.815C52.1949 346.811 52.2318 347.809 52.2714 348.809L51.7718 348.829C51.8113 349.83 51.8537 350.832 51.8985 351.837L52.398 351.815C52.4421 352.803 52.4888 353.793 52.538 354.785L52.0386 354.81C52.0874 355.793 52.1387 356.778 52.1925 357.766L52.6917 357.739C52.7455 358.725 52.8018 359.713 52.8605 360.704L52.3614 360.733C52.4202 361.725 52.4815 362.718 52.5454 363.713L53.0444 363.681C53.1081 364.675 53.1744 365.671 53.2432 366.669L52.7443 366.703C52.8131 367.702 52.8845 368.703 52.9583 369.706L53.4569 369.669C53.5298 370.658 53.6051 371.648 53.6828 372.641L53.1843 372.68C53.2611 373.661 53.3403 374.644 53.4219 375.629L53.9201 375.588C54.0017 376.572 54.0855 377.558 54.1719 378.546L53.6737 378.589C53.7601 379.578 53.8489 380.568 53.9399 381.56L54.4378 381.514C54.5289 382.505 54.6223 383.498 54.7181 384.493L54.2204 384.541C54.3163 385.537 54.4146 386.534 54.5152 387.533L55.0127 387.483C55.0523 387.877 55.0923 388.27 55.1327 388.664C55.1941 389.264 55.2564 389.864 55.3195 390.465L54.8223 390.517C54.925 391.495 55.0301 392.475 55.1375 393.456L55.6345 393.402C55.7417 394.382 55.8513 395.365 55.963 396.349L55.4663 396.405C55.5781 397.39 55.6922 398.376 55.8086 399.364L56.3052 399.306C56.4215 400.293 56.5401 401.282 56.661 402.272L56.1647 402.333C56.2856 403.324 56.4088 404.317 56.5342 405.312L57.0303 405.249C57.1557 406.243 57.2834 407.239 57.4133 408.236L56.9175 408.3C57.0449 409.278 57.1745 410.258 57.3062 411.239L57.8018 411.172C57.9329 412.148 58.0662 413.126 58.2017 414.105L57.7063 414.174C57.8419 415.154 57.9796 416.135 58.1195 417.118L58.6145 417.048C58.7543 418.03 58.8962 419.014 59.0403 420L58.5455 420.072C58.6897 421.058 58.8361 422.046 58.9846 423.035L59.479 422.961C59.6274 423.95 59.778 424.94 59.9308 425.931L59.4366 426.007C59.5885 426.994 59.7426 427.982 59.8988 428.971L60.3927 428.893C60.546 429.864 60.7014 430.837 60.8588 431.811L60.3652 431.891C60.5227 432.865 60.6823 433.841 60.844 434.819L61.3373 434.737C61.4988 435.714 61.6624 436.692 61.8281 437.672L61.3351 437.755C61.5009 438.736 61.6687 439.717 61.8386 440.7L62.3313 440.615C62.4151 441.1 62.4994 441.585 62.5842 442.071C62.6713 442.569 62.7588 443.068 62.8469 443.567L62.3545 443.654C62.5285 444.64 62.7046 445.627 62.8828 446.616L63.3748 446.528C63.4639 447.022 63.5534 447.516 63.6435 448.011Z"
          stroke="#BEC7E7" stroke-dasharray="3 3"/>
    <circle r="11.5" transform="matrix(-1 0 0 1 140.307 100.843)" fill="url(#paint0_linear_500_3)"/>
    <g filter="url(#filter0_bi_500_3)">
        <circle r="11.5" transform="matrix(-1 0 0 1 140.307 100.843)" fill="url(#paint1_radial_500_3)"/>
    </g>
    <circle r="11.5" transform="matrix(-1 0 0 1 127.307 614.843)" fill="url(#paint2_linear_500_3)"/>
    <g filter="url(#filter1_bi_500_3)">
        <circle r="11.5" transform="matrix(-1 0 0 1 127.307 614.843)" fill="url(#paint3_radial_500_3)"/>
    </g>
    <defs>
        <filter id="filter0_bi_500_3" x="68.8066" y="29.3428" width="143" height="143" filterUnits="userSpaceOnUse"
                color-interpolation-filters="sRGB">
            <feFlood flood-opacity="0" result="BackgroundImageFix"/>
            <feGaussianBlur in="BackgroundImage" stdDeviation="30"/>
            <feComposite in2="SourceAlpha" operator="in" result="effect1_backgroundBlur_500_3"/>
            <feBlend mode="normal" in="SourceGraphic" in2="effect1_backgroundBlur_500_3" result="shape"/>
            <feColorMatrix in="SourceAlpha" type="matrix" values="0 0 0 0 0 0 0 0 0 0 0 0 0 0 0 0 0 0 127 0"
                           result="hardAlpha"/>
            <feOffset dy="4"/>
            <feGaussianBlur stdDeviation="35"/>
            <feComposite in2="hardAlpha" operator="arithmetic" k2="-1" k3="1"/>
            <feColorMatrix type="matrix" values="0 0 0 0 1 0 0 0 0 1 0 0 0 0 1 0 0 0 0.5 0"/>
            <feBlend mode="normal" in2="shape" result="effect2_innerShadow_500_3"/>
        </filter>
        <filter id="filter1_bi_500_3" x="55.8066" y="543.343" width="143" height="143" filterUnits="userSpaceOnUse"
                color-interpolation-filters="sRGB">
            <feFlood flood-opacity="0" result="BackgroundImageFix"/>
            <feGaussianBlur in="BackgroundImage" stdDeviation="30"/>
            <feComposite in2="SourceAlpha" operator="in" result="effect1_backgroundBlur_500_3"/>
            <feBlend mode="normal" in="SourceGraphic" in2="effect1_backgroundBlur_500_3" result="shape"/>
            <feColorMatrix in="SourceAlpha" type="matrix" values="0 0 0 0 0 0 0 0 0 0 0 0 0 0 0 0 0 0 127 0"
                           result="hardAlpha"/>
            <feOffset dy="4"/>
            <feGaussianBlur stdDeviation="35"/>
            <feComposite in2="hardAlpha" operator="arithmetic" k2="-1" k3="1"/>
            <feColorMatrix type="matrix" values="0 0 0 0 1 0 0 0 0 1 0 0 0 0 1 0 0 0 0.5 0"/>
            <feBlend mode="normal" in2="shape" result="effect2_innerShadow_500_3"/>
        </filter>
        <linearGradient id="paint0_linear_500_3" x1="11.5" y1="0" x2="11.5" y2="23" gradientUnits="userSpaceOnUse">
            <stop stop-color="#2770C0"/>
            <stop offset="1" stop-color="#39C2ED"/>
        </linearGradient>
        <radialGradient id="paint1_radial_500_3" cx="0" cy="0" r="1" gradientUnits="userSpaceOnUse"
                        gradientTransform="translate(6.84524 4.51786) rotate(51.221) scale(20.5471)">
            <stop stop-color="white" stop-opacity="0.5"/>
            <stop offset="1" stop-color="#C4C4C4" stop-opacity="0"/>
        </radialGradient>
        <linearGradient id="paint2_linear_500_3" x1="11.5" y1="0" x2="11.5" y2="23" gradientUnits="userSpaceOnUse">
            <stop stop-color="#2DD882"/>
            <stop offset="1" stop-color="#1FAB64"/>
        </linearGradient>
        <radialGradient id="paint3_radial_500_3" cx="0" cy="0" r="1" gradientUnits="userSpaceOnUse"
                        gradientTransform="translate(6.84524 4.51786) rotate(51.221) scale(20.5471)">
            <stop stop-color="white" stop-opacity="0.5"/>
            <stop offset="1" stop-color="#C4C4C4" stop-opacity="0"/>
        </radialGradient>
    </defs>
</svg>
