<svg width="59" height="61" viewBox="0 0 59 61" fill="none" xmlns="http://www.w3.org/2000/svg">
<g clip-path="url(#clip0_414_106)">
<path d="M30.9117 60.8151C26.701 60.8151 22.9039 57.3241 20.151 51.5033C17.4027 45.6923 15.7208 37.606 15.7208 28.5278C15.7208 20.0055 17.2597 12.8954 19.9325 7.92165C22.6045 2.94929 26.3972 0.12998 30.9117 0.12998C35.4262 0.12998 39.219 2.94929 41.891 7.92165C44.5638 12.8954 46.1026 20.0055 46.1026 28.5278C46.1026 37.606 44.4207 45.6923 41.6724 51.5033C38.9195 57.3241 35.1225 60.8151 30.9117 60.8151ZM30.9117 2.95742C27.2274 2.95742 24.1299 5.63285 21.9615 10.14C19.7914 14.6508 18.5321 21.0301 18.5321 28.5278C18.5321 37.3105 20.1157 44.6598 22.4453 49.8191C23.61 52.3984 24.9638 54.4362 26.4048 55.8312C27.8452 57.2259 29.3833 57.9876 30.9117 57.9876C32.4402 57.9876 33.9782 57.2259 35.4187 55.8312C36.8596 54.4362 38.2134 52.3984 39.3781 49.8191C41.7078 44.6598 43.2913 37.3105 43.2913 28.5278C43.2913 21.0301 42.032 14.6508 39.8619 10.14C37.6936 5.63285 34.5961 2.95742 30.9117 2.95742Z" fill="url(#paint0_linear_414_106)" stroke="white" stroke-width="0.3"/>
<path d="M24.3678 16.5552L24.2867 16.429L24.3678 16.5552C32.0809 11.6044 39.363 8.99912 45.4282 8.99912C50.3828 8.99912 54.2523 10.8355 56.3536 14.1435C58.7837 17.969 58.4604 22.7002 55.7291 27.6397C52.997 32.5807 47.8633 37.7107 40.7175 42.297C32.07 47.8461 22.6824 51.15 15.6103 51.15C10.7572 51.15 7.268 49.6316 5.47055 46.8015L5.34393 46.8819L5.47055 46.8015C3.20373 43.2331 4.0881 38.1368 7.48718 32.6723C10.8807 27.2169 16.7558 21.4405 24.3678 16.5552ZM45.4282 11.8266C39.9563 11.8266 33.0137 14.3604 25.8801 18.9387C18.5156 23.6651 13.2054 28.962 10.133 33.7123C8.59696 36.0871 7.61689 38.3306 7.22252 40.302C6.82827 42.2727 7.01716 43.9851 7.83912 45.2793L7.96574 45.1989L7.83914 45.2793C8.64524 46.5481 9.93594 47.3079 11.3438 47.7504C12.7516 48.1929 14.2892 48.3225 15.6103 48.3225C22.1919 48.3225 31.0103 45.1725 39.2052 39.9131C45.4923 35.8779 50.1637 31.3778 52.7781 27.1116C55.3906 22.8488 55.9664 18.7855 53.9845 15.6652C51.9621 12.4812 48.193 11.8266 45.4282 11.8266Z" fill="url(#paint1_linear_414_106)" stroke="white" stroke-width="0.3"/>
<path d="M37.7868 16.5547L37.8679 16.4285L37.7869 16.5547C45.3988 21.44 51.2739 27.2164 54.6675 32.6719C58.0666 38.1363 58.9511 43.2326 56.6846 46.801L56.8112 46.8815L56.6846 46.801C54.8871 49.6316 51.398 51.15 46.5454 51.15H46.5453H46.5453H46.5453H46.5452H46.5452H46.5452H46.5452H46.5451H46.5451H46.5451H46.545H46.545H46.545H46.5449H46.5449H46.5449C39.4728 51.1495 30.0846 47.8461 21.4381 42.2965L21.3571 42.4228L21.4381 42.2965C14.2923 37.7105 9.15865 32.5806 6.42649 27.6396C3.69511 22.7001 3.37172 17.9688 5.80159 14.143C7.90289 10.8355 11.7723 8.99863 16.7269 8.99863C22.7916 8.99863 30.0737 11.6039 37.7868 16.5547ZM22.95 39.9136L23.031 39.7874L22.95 39.9136C31.1444 45.172 39.9628 48.322 46.5448 48.3226H46.5449H46.5449H46.5449H46.545H46.545H46.545H46.5451H46.5451H46.5451H46.5452H46.5452H46.5452H46.5452H46.5453H46.5453H46.5453H46.5454C47.8662 48.3226 49.4037 48.193 50.8114 47.7504C52.2192 47.3079 53.5099 46.5482 54.316 45.2793L54.1894 45.1989L54.316 45.2793C55.1381 43.985 55.327 42.2725 54.9328 40.3018C54.5385 38.3304 53.5584 36.0869 52.0224 33.712C48.9499 28.9618 43.6395 23.6649 36.275 18.9382C29.1414 14.3599 22.1994 11.8266 16.7269 11.8266C13.9616 11.8266 10.193 12.4813 8.17067 15.6658C6.18875 18.7863 6.76469 22.8496 9.37718 27.1124C11.9917 31.3785 16.6631 35.8784 22.95 39.9136Z" fill="url(#paint2_linear_414_106)" stroke="white" stroke-width="0.3"/>
<path d="M31.1533 36.0638C34.3589 36.0638 36.9575 33.4517 36.9575 30.2295C36.9575 27.0073 34.3589 24.3953 31.1533 24.3953C27.9477 24.3953 25.3491 27.0073 25.3491 30.2295C25.3491 33.4517 27.9477 36.0638 31.1533 36.0638Z" fill="white"/>
<path d="M31.1533 37.6275C27.0951 37.6275 23.7935 34.3087 23.7935 30.2295C23.7935 26.1503 27.0951 22.8315 31.1533 22.8315C35.2115 22.8315 38.5137 26.1498 38.5137 30.2295C38.5137 34.3093 35.212 37.6275 31.1533 37.6275ZM31.1533 25.9585C28.8105 25.9585 26.9048 27.874 26.9048 30.229C26.9048 32.584 28.8105 34.4995 31.1533 34.4995C33.4961 34.4995 35.4018 32.584 35.4018 30.229C35.4018 27.874 33.4961 25.9585 31.1533 25.9585Z" fill="url(#paint3_linear_414_106)"/>
<path d="M6.00129 47.246C8.13833 47.246 9.87074 45.5046 9.87074 43.3565C9.87074 41.2084 8.13833 39.467 6.00129 39.467C3.86425 39.467 2.13184 41.2084 2.13184 43.3565C2.13184 45.5046 3.86425 47.246 6.00129 47.246Z" fill="white"/>
<path d="M6.00129 48.8103C3.00975 48.8103 0.576172 46.3636 0.576172 43.3565C0.576172 40.3495 3.00975 37.9033 6.00129 37.9033C8.99283 37.9033 11.4264 40.3495 11.4264 43.3565C11.4264 46.3636 8.99283 48.8103 6.00129 48.8103ZM6.00129 41.0308C4.72565 41.0308 3.6875 42.0743 3.6875 43.3565C3.6875 44.6388 4.72565 45.6823 6.00129 45.6823C7.27693 45.6823 8.31508 44.6388 8.31508 43.3565C8.31508 42.0743 7.27745 41.0308 6.00129 41.0308Z" fill="url(#paint4_linear_414_106)"/>
<path d="M53.4036 51.6218C55.5407 51.6218 57.2731 49.8804 57.2731 47.7323C57.2731 45.5842 55.5407 43.8428 53.4036 43.8428C51.2666 43.8428 49.5342 45.5842 49.5342 47.7323C49.5342 49.8804 51.2666 51.6218 53.4036 51.6218Z" fill="white"/>
<path d="M53.4036 53.1862C50.4121 53.1862 47.9785 50.74 47.9785 47.733C47.9785 44.726 50.4121 42.2798 53.4036 42.2798C56.3952 42.2798 58.8287 44.726 58.8287 47.733C58.8287 50.7395 56.3952 53.1862 53.4036 53.1862ZM53.4036 45.4067C52.128 45.4067 51.0898 46.4497 51.0898 47.7325C51.0898 49.0147 52.128 50.0582 53.4036 50.0582C54.6798 50.0582 55.7174 49.0147 55.7174 47.7325C55.7174 46.4502 54.6798 45.4067 53.4036 45.4067Z" fill="url(#paint5_linear_414_106)"/>
<path d="M22.9305 9.80902C25.0675 9.80902 26.7999 8.06763 26.7999 5.91952C26.7999 3.77142 25.0675 2.03003 22.9305 2.03003C20.7934 2.03003 19.061 3.77142 19.061 5.91952C19.061 8.06763 20.7934 9.80902 22.9305 9.80902Z" fill="white"/>
<path d="M22.9305 11.3727C19.9389 11.3727 17.5054 8.92656 17.5054 5.91952C17.5054 2.91249 19.9389 0.466309 22.9305 0.466309C25.9215 0.466309 28.3556 2.91249 28.3556 5.91952C28.3556 8.92656 25.922 11.3727 22.9305 11.3727ZM22.9305 3.59375C21.6543 3.59375 20.6167 4.63727 20.6167 5.91952C20.6167 7.2023 21.6548 8.2453 22.9305 8.2453C24.2061 8.2453 25.2443 7.2023 25.2443 5.91952C25.2443 4.63727 24.2067 3.59375 22.9305 3.59375Z" fill="url(#paint6_linear_414_106)"/>
</g>
<defs>
<linearGradient id="paint0_linear_414_106" x1="15.5708" y1="29.9727" x2="45.4766" y2="29.9727" gradientUnits="userSpaceOnUse">
<stop stop-color="#3669CD"/>
<stop offset="0.484375" stop-color="#8D3BDE"/>
<stop offset="1" stop-color="#EA5FAB"/>
</linearGradient>
<linearGradient id="paint1_linear_414_106" x1="4.06592" y1="29.7266" x2="56.7755" y2="29.7266" gradientUnits="userSpaceOnUse">
<stop stop-color="#3669CD"/>
<stop offset="0.484375" stop-color="#8D3BDE"/>
<stop offset="1" stop-color="#EA5FAB"/>
</linearGradient>
<linearGradient id="paint2_linear_414_106" x1="4.01221" y1="29.7264" x2="56.7213" y2="29.7264" gradientUnits="userSpaceOnUse">
<stop stop-color="#3669CD"/>
<stop offset="0.484375" stop-color="#8D3BDE"/>
<stop offset="1" stop-color="#EA5FAB"/>
</linearGradient>
<linearGradient id="paint3_linear_414_106" x1="23.7935" y1="30.1082" x2="38.1414" y2="30.1082" gradientUnits="userSpaceOnUse">
<stop stop-color="#3669CD"/>
<stop offset="0.484375" stop-color="#8D3BDE"/>
<stop offset="1" stop-color="#EA5FAB"/>
</linearGradient>
<linearGradient id="paint4_linear_414_106" x1="0.576172" y1="43.2674" x2="11.152" y2="43.2674" gradientUnits="userSpaceOnUse">
<stop stop-color="#3669CD"/>
<stop offset="0.484375" stop-color="#8D3BDE"/>
<stop offset="1" stop-color="#EA5FAB"/>
</linearGradient>
<linearGradient id="paint5_linear_414_106" x1="47.9785" y1="47.6436" x2="58.5543" y2="47.6436" gradientUnits="userSpaceOnUse">
<stop stop-color="#3669CD"/>
<stop offset="0.484375" stop-color="#8D3BDE"/>
<stop offset="1" stop-color="#EA5FAB"/>
</linearGradient>
<linearGradient id="paint6_linear_414_106" x1="17.5054" y1="5.83013" x2="28.0812" y2="5.83013" gradientUnits="userSpaceOnUse">
<stop stop-color="#3669CD"/>
<stop offset="0.484375" stop-color="#8D3BDE"/>
<stop offset="1" stop-color="#EA5FAB"/>
</linearGradient>
<clipPath id="clip0_414_106">
<rect width="59" height="61" fill="white" transform="translate(0 -0.000244141)"/>
</clipPath>
</defs>
</svg>
